<?xml version="1.0" encoding="UTF-8" standalone="no"?>
<!-- Created with Inkscape (http://www.inkscape.org/) -->

<svg
   width="210mm"
   height="297mm"
   viewBox="0 0 210 297"
   version="1.1"
   id="svg5"
   xml:space="preserve"
   xmlns="http://www.w3.org/2000/svg"
   xmlns:svg="http://www.w3.org/2000/svg"><defs
     id="defs2" /><g
     id="layer1"><path
       style="fill:#000000;stroke-width:0.264583"
       d="m 28.224291,25.153803 h 0.605676 l 0.47108,-0.02244 h 0.628108 l 0.785135,0.336486 0.672973,0.381352 0.246756,0.0673 0.919731,0.179459 0.89729,-0.224324 0.94216,-0.538377 0.83001,-0.336487 0.85243,-0.134596 0.60567,0.112162 0.47108,-0.0673 0.38135,-0.179459 -0.11216,-0.157028 -0.26919,0.04487 -0.49351,0.112163 -0.47108,-0.0673 -0.65054,-0.02244 -0.33649,-0.157027 -0.58324,-0.26919 -0.83,-0.179459 -0.56081,-0.02244 -0.74027,0.0673 h -0.650538 l -0.762704,0.179459 -0.448649,0.112162 -0.762701,0.224325 -0.538377,0.269187 -0.560811,0.112162 -0.269189,0.0673 z"
       id="path314" /><path
       style="fill:#000000;stroke-width:0.264583"
       d="m 27.753211,26.095963 0.538379,-0.02244 h 0.650539 0.358918 l 0.47108,0.04486 0.26919,0.246758 0.403783,0.314053 0.672973,0.08973 0.515946,0.08973 0.403783,0.04487 0.269188,-0.0673 0.0224,-0.157027 -0.291623,-0.134594 -0.403783,-0.0673 -0.358918,-0.04487 -0.314055,-0.157028 -0.314053,-0.179459 -0.269189,-0.224324 -0.381352,-0.224324 -0.269187,-0.0673 -0.291621,-0.08973 -0.358921,-0.02244 h -0.717796 -0.246758 l -0.336484,-0.134577 -0.157027,0.157025 z"
       id="path316" /><path
       style="fill:#000000;stroke-width:0.264583"
       d="m 28.493481,24.95191 h -0.403784 l -0.0673,0.157027 0.20189,0.179459 0.291621,0.336487 0.628108,-0.08973 -0.179459,-0.538377 z"
       id="path318" /><path
       style="fill:#000000;stroke-width:0.264583"
       d="m 32.8005,26.72407 0.0897,0.246756 0.49352,-0.08973 0.24675,-0.157028 0.31406,-0.04487 0.29162,-0.02244 0.56081,-0.246756 0.24676,-0.291623 0.22432,-0.08973 0.42622,-0.224325 0.33648,-0.04487 h 0.35892 l 0.26919,0.112162 h 0.33649 l 0.38135,-0.112162 0.29162,-0.08973 0.20189,-0.336487 -0.0224,-0.157027 -0.29162,-0.134594 -0.29162,0.0673 -0.1346,0.112162 -0.38135,-0.0673 h -0.11216 l 0.0673,-0.246758 -0.40378,-0.112162 -0.29162,-0.02244 0.0673,0.336487 0.0673,0.157027 -0.44865,0.02244 -0.38135,0.157027 -0.26919,0.201891 -0.35892,0.314055 -0.33648,0.179459 -0.26919,0.134593 -0.31406,0.157028 -0.29162,0.04487 -0.26919,0.08973 -0.20189,0.02244 z"
       id="path322" /><path
       style="fill:#000000;stroke-width:0.264583"
       d="m 37.12996,24.907044 0.24676,0.134596 0.13459,0.112163 0.29162,0.0673 -0.13459,-0.314055 -0.35892,-0.224324 z"
       id="path324" /><path
       style="fill:#000000;stroke-width:0.264583"
       d="m 33.15942,22.484345 0.0673,-0.47108 0.0449,-0.179462 v -0.224322 l 0.24675,-0.134596 0.20189,0.134596 0.11217,0.08973 0.0449,0.224325 v 0.157027 l -0.0897,0.04487 -0.1346,-0.02244 -0.0673,-0.20189 -0.15703,0.134593 -0.0449,0.134594 z"
       id="path326" /><path
       style="fill:#000000;stroke-width:0.264583"
       d="m 31.948074,22.551641 0.02244,-0.291621 -0.08973,-0.403783 -0.0673,-0.201893 -0.20189,-0.02244 -0.157028,0.04487 -0.112162,0.20189 -0.02244,0.179459 0.02244,0.157028 0.179459,-0.112163 0.157027,0.0673 0.08973,0.157028 z"
       id="path328" /><path
       style="fill:#000000;stroke-width:0.264583"
       d="m 28.379755,22.332696 0.249722,-0.249722 0.158911,-0.158911 0.317825,-0.158911 h 0.295125 l -0.567545,-1.044284 -0.227018,-0.227018 -0.158914,-0.522142 -0.113509,-0.658352 -0.181615,-0.454036 -0.09081,0.52214 0.113512,2.088567 0.0454,0.74916 z"
       id="path330" /><path
       style="fill:#000000;stroke-width:0.264583"
       d="m 29.923479,21.51543 -0.113508,-0.726459 0.227017,-0.635648 0.272421,-0.317825 0.295124,-0.136213 0.431334,-0.0908 0.590246,0.0681 0.36323,0.317825 0.249717,0.408633 0.20432,0.317826 0.0908,0.158911 0.22701,-0.0227 0.13621,-0.408633 v -0.249719 l 0.20432,-0.363228 0.24972,-0.204317 0.38593,-0.13621 0.27242,-0.04541 h 0.45404 l 0.24972,0.04541 0.13621,0.0908 0.34053,0.272423 0.0908,0.27242 0.11351,0.272423 v 0.227018 l -0.0227,0.454036 -0.0908,0.249721 0.43134,0.113509 0.13621,-0.658355 0.13621,-0.385929 0.18161,-0.567544 0.13622,-0.385932 0.0454,-0.385929 0.0227,-0.227021 -0.13621,-0.158911 -0.15891,0.0454 -0.31783,0.272423 -0.34052,0.181616 -0.36323,0.113509 -0.36323,0.0227 -0.45404,0.0454 -0.59025,-0.0227 -0.38592,0.0227 -0.31783,0.113509 -0.47674,0.06811 -0.20432,-0.0454 -0.272417,-0.06811 -0.476739,-0.06811 -0.88537,0.04541 h -0.476737 l -0.431334,-0.113508 -0.340527,-0.113509 -0.340526,-0.317826 -0.04541,0.204317 0.113509,0.522139 0.06811,0.61295 0.181612,0.612949 0.227021,0.408631 0.0908,0.204316 0.09081,0.136213 z"
       id="path332" /><path
       style="fill:#000000;stroke-width:0.264583"
       d="m 30.763444,21.197604 -0.113509,-0.295121 0.204317,-0.181615 -0.0454,-0.113509 h -0.09081 l -0.113509,-0.0227 0.0227,-0.34053 0.09081,-0.181612 0.113509,-0.04541 0.249719,-0.0908 h 0.158914 l 0.204316,0.0454 0.09081,0.113509 0.0681,0.13621 0.04541,0.181615 v 0.204317 0.13621 0.113509 l -0.295124,0.158914 -0.204317,0.13621 -0.0454,0.0681 -0.09081,0.09081 z"
       id="path334" /><path
       style="fill:#000000;stroke-width:0.264583"
       d="m 33.80549,20.811675 0.0908,-0.227017 -0.11351,-0.158915 -0.20431,-0.0227 -0.0454,0.158912 v 0.09081 l 0.0227,-0.340526 0.18161,-0.340527 0.20432,-0.09081 0.0908,-0.09081 0.20431,0.0227 0.20432,0.04541 0.13621,0.181615 0.0908,0.317823 v 0.227021 l -0.0454,0.113508 -0.0681,0.227018 -0.13621,0.158912 -0.20432,0.09081 -0.15891,-0.13621 z"
       id="path336" /><path
       style="fill:#000000;stroke-width:0.264583"
       d="m 37.23015,21.930318 0.33746,-0.584925 0.11248,-0.337455 0.13499,-0.449943 0.13498,-0.179974 0.17997,0.06749 0.0225,0.337458 v 0.202472 l -0.045,0.31496 -0.13498,0.134983 -0.29246,0.02249 z"
       id="path338" /><path
       style="fill:#000000;stroke-width:0.264583"
       d="m 38.33251,19.725606 0.11248,-0.38245 0.15748,-0.31496 0.29246,-0.02249 v 0.202475 z"
       id="path340" /><path
       style="fill:#000000;stroke-width:0.264583"
       d="m 27.196464,20.198043 0.427445,0.809895 0.269965,0.53993 0.134982,0.44994 0.02249,0.15748 -0.22497,-0.269965 h -0.292462 l -0.112485,-0.202473 0.045,-0.224972 0.08999,-0.314958 -0.157477,-0.247467 z"
       id="path342" /><path
       style="fill:#000000;stroke-width:0.264583"
       d="m 28.591281,16.396041 0.517433,-0.269965 0.449942,-0.202475 0.337455,0.08999 0.427445,0.292459 0.494935,0.269965 0.404947,0.247468 0.38245,0.06749 h 0.562422 l 0.62992,-0.06749 0.62992,-0.04499 0.49494,-0.15748 0.51743,-0.337455 0.33745,-0.134982 0.35995,-0.292462 0.22498,-0.15748 0.31495,0.02249 0.24747,0.08999 0.31496,0.247467 0.33746,0.269965 0.11248,0.179977 0.24747,0.292463 v 0.202472 l 0.0675,0.269965 0.09,0.53993 0.045,0.29246 v 0.31496 0.494935 l -0.20247,0.427445 -0.11249,0.53993 -0.11248,0.359952 -0.31496,0.38245 -0.20247,0.404947 -0.26997,0.314958 0.045,0.134982 h 0.24746 l 0.33746,-0.02249 0.09,0.15748 0.24747,0.179977 0.26996,0.22497 0.11249,-0.44994 0.045,-0.337457 v -0.359953 l 0.0225,-0.449942 -0.0225,-0.247467 v -0.404948 -0.38245 l 0.0225,-0.247467 0.11248,-0.269965 0.35996,-0.337455 0.49493,-0.08999 0.29246,0.22497 0.31496,0.06749 0.74241,-0.742405 V 16.6885 l -0.0225,-0.60742 0.045,-0.472437 -0.0225,-0.31496 -0.17997,-0.472437 -0.33746,-0.517433 -0.31496,-0.292462 -0.33746,-0.314957 -0.47243,-0.292463 -0.58493,-0.045 -0.60742,-0.06749 -0.78739,-0.08999 -0.42745,-0.06749 -0.56242,0.06749 -0.51744,-0.15748 -0.17997,0.02249 -0.22497,-0.359955 -0.20248,-0.494935 -0.11248,-0.38245 -0.09,-0.382449 -0.11249,-0.427445 -0.0675,-0.29246 v -0.247468 l -0.15748,-0.15748 -0.20247,0.314958 v 0.337457 l -0.0675,0.134983 -0.20247,0.02249 0.045,-0.517432 -0.11249,-0.607423 -0.17997,-0.4274422 -0.20248,-0.269965 -0.26996,0.359953 -0.112487,0.31496 V 10.25432 l 0.02249,0.292462 v 0.269965 l -0.08999,0.359953 -0.224973,-0.247468 -0.08999,-0.337455 -0.22497,-0.134982 -0.15748,0.15748 0.045,0.29246 0.02249,0.247467 -0.08999,0.24747 -0.134982,0.539927 v 0.202476 l -0.04499,0.382449 -0.224972,0.427443 -0.22497,0.359955 -0.292463,0.247467 -0.337454,0.44994 -0.15748,0.247467 -0.112485,0.02249 -0.247468,-0.202472 -0.15748,-0.38245 -0.269965,-0.38245 -0.22497,-0.202475 -0.202472,-0.06749 -0.629917,0.134982 -0.674913,0.22497 -0.359952,0.02249 -0.38245,0.06749 h -0.292463 -0.247467 l -0.337458,0.06749 -0.247467,0.404948 -0.02249,0.494935 -0.31496,1.417314 0.337455,1.484805 0.494938,1.07986 0.427442,0.742402 0.47244,0.38245 0.22497,-0.44994 0.269965,-0.31496 0.269965,0.134983 0.38245,0.112485 0.08999,-0.472438 -0.06749,-0.494935 0.337457,-0.224972 -0.02249,-0.60742 v -0.584922 z"
       id="path344" /><path
       style="fill:#000000;stroke-width:0.264583"
       d="m 25.548494,13.889493 -0.636395,0.431104 -0.513217,0.266875 -0.287404,0.266874 -0.390049,0.246346 -0.08211,0.02053 0.205287,-0.903266 -0.51322,0.369517 0.08212,-0.348988 0.143701,-0.554278 -0.04106,-0.410575 -0.184759,0.08211 -0.328461,0.348991 0.04106,-0.431104 -0.02053,-0.328462 -0.328462,0.348991 -0.164229,0.431104 0.143703,-0.67745 -0.143703,-0.123174 -0.246346,0.328462 -0.225817,-0.184761 -0.08212,-0.390047 -0.266874,0.492692 -0.348988,-0.16423 -0.266875,0.143701 -0.184758,0.492691 -0.246346,0.205287 -0.102645,-0.533749 -0.287404,-0.02053 -0.08211,0.595334 -0.287404,0.287404 -0.06159,-0.328462 -0.06159,-0.328459 -0.266875,0.06158 -0.02053,0.307933 -0.164232,-0.307933 -0.16423,0.472163 -0.164229,0.34899 -0.205291,-0.307932 -0.123171,-0.123172 -0.143703,0.246346 v 0.205287 l 1.580718,0.718508 1.129083,-0.04106 0.656924,0.328462 0.348988,0.533749 0.225816,0.492691 0.287404,0.964854 -0.123172,0.472162 -0.821152,1.088025 -1.04697,1.621776 -0.862208,1.170141 -0.348991,0.53375 -0.410575,0.348988 -0.574807,0.266874 -0.67745,0.184761 0.04106,0.431105 0.08212,0.390046 0.533747,-0.02053 0.800624,0.636394 0.34899,0.348988 0.780092,-0.102642 0.451636,0.554276 0.225817,0.123174 1.293312,-0.143703 0.431107,0.369519 0.225817,-0.410575 0.184758,0.04106 0.02053,1.601247 0.04106,0.615863 -0.04106,0.780095 0.08212,0.492691 0.04106,0.67745 0.164233,0.34899 0.472162,0.718508 0.307932,0.574808 0.431104,0.390046 -0.205287,-0.636392 -0.08212,-0.615865 0.02053,-0.821151 0.164229,-0.431106 0.205288,-0.348988 0.328461,-0.390049 0.307933,-0.390046 0.246346,-0.348991 0.307932,-0.246346 0.369517,-0.205287 0.410575,-0.16423 h 0.307933 l 0.307933,-0.04106 -0.102645,-0.677449 -0.184759,-0.656921 -0.184758,-0.677453 -0.143704,-0.410575 -0.164229,-0.451633 -0.08212,-0.451633 -0.16423,-0.472162 0.184759,-0.574808 0.08212,-0.472162 0.348991,-0.287403 0.04106,-0.410575 0.246346,-0.266875 -0.184759,-0.554278 -0.164229,-0.554279 -0.164233,-0.636391 z"
       id="path346" /><path
       style="fill:#000000;stroke-width:0.264583"
       d="m 27.622644,23.222929 0.310134,-0.484584 0.465201,-0.348901 -0.213217,-0.213217 -0.17445,-0.07753 -0.155067,0.426435 -0.155067,0.155067 -0.174451,-0.05815 -0.193833,-0.17445 0.03877,0.310134 z"
       id="path348" /><path
       style="fill:#000000;stroke-width:0.264583"
       d="m 37.52755,22.331294 -0.0969,-0.426434 0.27137,0.155067 h 0.36828 l 0.27137,-0.213218 0.0775,-0.310134 0.0581,-0.562117 0.0775,-0.193834 0.0388,-0.251984 0.31014,-0.639651 v -0.310134 l 0.13568,-0.620268 -0.0775,-0.542735 v -0.135684 l 0.0775,-1.182383 0.13568,-0.872252 0.60089,-0.329517 0.19383,-0.09692 -0.0388,-0.310134 -0.0775,-0.445817 0.32952,0.251983 0.0388,0.193834 0.21321,-0.05815 -0.0969,-0.407051 -0.0194,-0.484584 0.15507,0.09692 -0.0388,-0.310134 -0.0581,-0.445818 0.1163,0.05815 0.21322,0.290751 -0.19383,-0.503968 -0.0194,-0.271367 0.0969,-0.174451 0.15507,0.445818 0.17445,0.213217 0.15506,0.01939 -0.17445,-0.755952 v -0.368284 l 0.0775,-0.2326 0.17445,0.07753 0.0775,0.251984 0.0775,0.174451 0.17445,0.05815 -0.0194,-0.407051 0.0969,-0.329518 0.0581,0.348901 0.13568,0.310134 0.19383,0.1163 0.15507,-0.09692 -0.1163,-0.368285 0.0582,-0.271367 0.17445,0.310134 0.0388,0.232601 0.19383,-0.03877 0.0969,-0.01939 v -0.368284 l 0.0775,-0.01939 0.13569,0.329517 0.19383,0.135684 0.21322,-0.03877 0.17445,-0.271367 0.0969,0.07753 0.0194,0.329518 0.0969,0.348901 0.0969,0.135683 0.15507,0.368284 0.15507,0.03877 0.0775,-0.09692 0.0969,-0.310134 -0.0969,-0.387667 0.15507,-0.01939 0.0581,0.310134 0.0582,0.1163 -0.0388,0.484584 0.40705,0.03877 -0.0194,-0.271367 0.0775,-0.368284 0.1163,0.3489 0.0388,0.174451 0.21321,0.01939 0.0775,0.17445 -0.13569,0.193834 -0.21321,-0.03877 -0.4652,0.07753 -0.17445,0.155067 -0.29076,0.155067 h -0.71718 l -0.32952,-0.01939 -0.3489,0.03877 -0.15507,0.155067 -0.21321,0.03877 -0.4652,0.562118 -0.25199,0.542735 -0.17445,0.29075 -0.0388,0.251984 0.19383,0.348901 0.25198,0.348898 0.15507,0.310134 0.13568,0.251984 v 0.271367 l 0.1163,0.271367 0.0969,0.348901 0.15507,0.05815 0.15507,-0.213217 0.2326,-0.17445 -0.0581,0.29075 -0.19384,0.174451 -0.0969,0.155067 0.31014,0.484584 0.36828,0.659035 0.36829,0.600884 0.42643,0.697802 0.19383,0.329517 0.42644,0.232601 0.36828,0.193833 0.32952,0.155067 0.42643,0.213218 0.25199,0.05815 0.0194,0.1163 -0.0194,0.271367 0.0388,0.213217 0.0969,0.310134 -0.0581,0.213217 -0.19383,0.155067 -0.13569,0.445818 -0.0969,0.310134 -0.27137,0.271367 -0.36828,0.193834 -0.87226,0.465201 -0.4652,0.17445 -0.71718,-0.05815 -0.36829,0.03877 -0.31013,0.17445 -0.29075,-0.01939 -0.15507,-0.17445 h -0.56211 l -0.23261,0.135684 -0.31013,0.251984 -0.25198,0.07753 -0.15507,-0.368284 -0.1163,0.271367 0.13568,0.426434 0.0194,0.949783 -0.0194,0.465201 -0.0194,0.445818 -0.21322,0.445817 -0.13568,0.445818 -0.25199,0.329517 -0.0581,-0.911018 v -0.387668 l -0.0969,-0.445817 -0.29075,-0.310134 -0.3489,-0.407051 -0.29075,-0.329515 -0.21322,-0.213217 -0.21322,-0.07753 -0.31013,-0.09692 0.0194,-0.271368 0.0581,-0.542734 0.0581,-0.407051 0.0775,-0.484584 0.0969,-0.484585 v -0.484584 -0.310134 l -0.0581,-0.445818 -0.21322,-0.465201 z"
       id="path350" /><path
       style="fill:#000000;stroke-width:0.264583"
       d="m 31.296929,29.234434 0.387591,0.581388 0.94129,0.110738 0.60907,-0.692126 z"
       id="path352" /><path
       style="fill:#000000;stroke-width:0.264583"
       d="m 27.504077,26.742779 0.304535,0.885923 0.359905,0.609071 0.387591,0.38759 0.304535,0.747496 0.581387,0.332221 0.71981,0.359905 0.387591,0.415277 0.249166,0.719812 0.02769,0.249163 -0.08306,-0.88592 -0.05537,-0.609071 -0.636757,-0.332221 -0.968978,-0.44296 -0.415274,-0.858237 -0.387591,-0.470646 -0.332221,-0.636757 z"
       id="path354" /><path
       style="fill:#000000;stroke-width:0.264583"
       d="m 33.53942,31.919884 0.30453,-1.135087 0.13843,-0.747495 0.0277,0.692126 -0.27685,1.1074 z"
       id="path356" /><path
       style="fill:#000000;stroke-width:0.264583"
       d="m 35.75422,28.320828 0.71981,-0.249166 0.44296,-0.609071 0.35991,-0.609071 0.0554,0.138425 -0.22148,0.636757 -0.27685,0.359905 -0.49833,0.359907 -0.33222,0.08306 -0.24917,0.166108 -0.0831,0.332222 -0.24917,-0.02769 V 28.70842 Z"
       id="path358" /><path
       style="fill:#000000;stroke-width:0.264583"
       d="m 35.33894,29.151379 -0.3599,0.276852 -0.27685,0.166108 0.58139,-0.138425 0.24916,-0.193794 0.11074,-0.332221 z"
       id="path360" /><path
       style="fill:#000000;stroke-width:0.264583"
       d="m 33.62247,32.61201 -0.85823,0.138424 -0.0554,-0.249163 -0.30453,0.249163 -0.16611,-0.05537 -0.415276,-0.08306 0.02768,-0.332219 0.08306,-0.276852 0.276856,0.02769 0.13842,0.193794 0.38759,-0.22148 h 0.47065 0.44296 l 0.0831,0.138425 z"
       id="path362" /><path
       style="fill:#000000;stroke-width:0.264583"
       d="m 33.7386,30.314918 -0.59985,0.299927 -0.29992,-0.112472 0.14996,-0.262435 0.33742,-0.374906 0.37491,0.149963 z"
       id="path370" /><path
       style="fill:#000000;stroke-width:0.264583"
       d="m 32.31396,31.814548 -0.637341,0.112471 h -0.712324 l -0.224944,-0.749813 v -0.374907 l 0.337418,-0.149963 h 0.412396 l 0.149963,0.299924 0.562362,0.07498 0.14996,0.262435 0.48738,0.337415 0.11247,0.224944 z"
       id="path372" /><path
       style="fill:#000000;stroke-width:0.264583"
       d="m 33.17625,33.276683 -0.075,0.824793 -0.18745,-0.03749 -0.22494,-0.824797 z"
       id="path374" /><path
       style="fill:#000000;stroke-width:0.264583"
       d="m 31.826582,33.389155 0.112472,0.674833 0.262436,0.07498 0.22494,-0.824794 z"
       id="path376" /><path
       style="fill:#000000;stroke-width:0.264583"
       d="m 31.414184,33.464135 -0.187454,0.562361 -0.262435,-0.149963 0.187454,-0.637342 z"
       id="path378" /><path
       style="fill:#000000;stroke-width:0.264583"
       d="M 45.70817,22.597547 45.49368,22.16857 44.6536,21.757471 44.09951,21.43574 43.54542,20.577789 42.81259,19.308741 v -0.339605 l 0.35748,0.518345 0.55409,0.804325 0.26811,0.44685 0.87582,0.679209 0.67921,0.05362 0.10725,-0.375354 0.48259,0.178739 -0.12512,0.357479 -0.0536,0.875824 z"
       id="path400" /><path
       style="fill:#000000;stroke-width:0.264583"
       d="m 46.20864,22.651167 -0.143,0.321731 0.16087,0.643461 0.21449,0.26811 0.76858,0.554093 0.48259,0.0715 0.25024,-0.160867 0.21449,-0.178739 0.35747,0.05362 0.17874,0.196614 0.17875,0.125119 0.35747,0.03575 h 0.44685 l 0.46472,-0.160867 0.21449,-0.142991 0.23236,-0.214487 0.0894,-0.08937 0.26811,-0.01789 -0.0536,-0.250235 h 0.26811 L 51.41,23.544852 v -0.214487 h 0.39323 l 0.35748,-0.375351 0.12512,-0.250235 0.19661,-0.196615 -0.0357,-0.178739 0.25024,-0.142991 0.0536,-0.464722 -0.14299,-0.01789 -0.14299,-0.196612 -0.17874,0.08937 -0.0358,0.285983 v 0.178739 l -0.14299,0.428975 -0.0536,0.142994 -0.35747,0.08937 -0.33961,0.03575 -0.21448,0.01789 -0.143,0.05362 -0.0357,0.214487 -0.0179,0.196615 -0.0715,0.07149 -0.28598,-0.01788 -0.14299,0.160866 -0.0179,0.446847 -0.28598,0.08937 -0.28598,0.05362 -0.19661,-0.03575 -0.14299,-0.196612 -0.26811,-0.03575 -0.35748,0.214487 -0.14299,0.107244 v -0.375354 l -0.143,-0.303856 -0.26811,0.0715 v 0.464722 l -0.14299,-0.08937 -0.16086,-0.142991 -0.21449,0.107243 -0.23236,0.250235 -0.30386,-0.05362 -0.25023,-0.160867 -0.0894,-0.196612 -0.25024,-0.05362 h -0.14297 l -0.19661,-0.285983 -0.0536,-0.03575 -0.0358,-0.321731 z"
       id="path404" /><path
       style="fill:#000000;stroke-width:0.264583"
       d="m 52.25003,21.346369 0.28598,-0.339603 0.35748,-0.125119 0.16087,-0.285983 0.16086,-0.357478 0.10724,-0.214487 0.12512,-0.50047 -0.14299,-0.250235 -0.16086,-0.321734 h -0.143 l 0.143,0.464725 -0.0358,0.214487 -0.0715,0.357479 -0.23236,0.32173 -0.19661,0.23236 -0.23236,0.107244 -0.10725,0.178742 -0.12511,0.08937 -0.0536,0.125119 z"
       id="path406" /><path
       style="fill:#000000;stroke-width:0.264583"
       d="m 50.6235,21.364244 0.28598,-0.250235 0.33961,-0.232362 h 0.32173 l 0.46472,0.0715 0.21449,0.03575 v -0.285983 l -0.32173,-0.05362 -0.44685,-0.01789 -0.46472,0.05362 -0.23236,0.107244 -0.17874,0.01789 -0.21449,-0.321731 -0.37535,-0.536218 -0.21449,-0.232362 -0.12512,-0.142992 -0.16086,-0.393226 -0.25024,0.08937 0.23236,0.375351 0.35748,0.393226 0.0894,0.214488 0.0715,0.142991 0.0179,0.250235 0.35747,0.160867 0.12512,0.214487 z"
       id="path408" /><path
       style="fill:#000000;stroke-width:0.264583"
       d="m 49.44382,21.918335 -0.25023,-0.125116 -0.0894,-0.464723 -0.16087,-0.0715 -0.12512,-0.428974 -0.0715,-0.321734 -0.0894,-0.32173 -0.17874,-0.214488 -0.10725,0.125119 0.0357,0.268108 0.10724,0.125119 0.0536,0.268107 0.0894,0.250238 0.0715,0.23236 0.12512,0.250235 -0.0179,0.250234 0.0179,0.285983 0.10724,0.125119 h 0.25024 z"
       id="path410" /><path
       style="fill:#000000;stroke-width:0.264583"
       d="m 47.71005,22.025578 -0.0894,-0.518342 -0.12512,-0.518345 V 20.66716 20.416925 h 0.23236 l -0.0179,-0.428974 -0.4111,0.08937 h -0.23236 l -0.46472,0.05362 v 0.303856 l 0.28598,0.08937 0.35748,0.03575 0.0179,0.50047 0.16086,0.822201 0.0179,0.196614 0.0358,0.03575 z"
       id="path412" /><path
       style="fill:#000000;stroke-width:0.264583"
       d="m 48.12115,22.615419 -0.28598,0.125119 -0.0715,0.393226 0.42897,0.125117 0.25024,-0.08937 z"
       id="path414" /><path
       style="fill:#000000;stroke-width:0.264583"
       d="m 49.90854,22.400932 -0.35748,0.393226 0.21449,0.214488 0.39323,-0.01789 0.0536,-0.142992 v -0.26811 z"
       id="path416" /><path
       style="fill:#000000;stroke-width:0.264583"
       d="m 51.55294,21.43574 0.0536,0.411099 h 0.30385 l 0.0715,-0.268108 -0.16087,-0.178739 z"
       id="path418" /><path
       style="fill:#000000;stroke-width:0.264583"
       d="m 51.01673,21.632352 v 0.160867 l -0.23236,0.07149 v -0.285978 l 0.3396,-0.142991 z"
       id="path420" /><path
       style="fill:#000000;stroke-width:0.264583"
       d="m 52.53601,20.363302 -0.30386,-0.178739 -0.3396,-0.196612 -0.0536,0.357478 0.4111,0.178739 z"
       id="path422" /><path
       style="fill:#000000;stroke-width:0.264583"
       d="m 51.08822,19.130002 -0.17874,-0.589841 -0.2681,-0.554093 -0.17875,0.125119 0.0357,0.464722 0.16087,0.357479 0.21449,0.214487 z"
       id="path424" /><path
       style="fill:#000000;stroke-width:0.264583"
       d="m 52.78625,18.665277 -0.33961,-0.107243 -0.28598,0.26811 z"
       id="path426" /><path
       style="fill:#000000;stroke-width:0.264583"
       d="m 49.40807,17.288984 0.17874,-0.357479 0.33961,-0.393226 0.26811,-0.357479 0.0894,-0.196612 0.37536,0.214488 0.30386,0.250234 0.4111,0.160865 0.58984,-0.160865 0.35747,-0.196614 0.26811,-0.107244 0.0179,-0.518345 -0.0179,-0.357478 -0.25023,-0.50047 -0.21449,-0.01786 0.16087,0.303856 v 0.232362 l -0.0179,0.303856 -0.0715,0.142994 -0.30386,0.125116 -0.42897,0.125119 -0.33961,0.01788 -0.23236,-0.142991 -0.19661,-0.196612 -0.37536,-0.08937 -0.12511,-0.232362 -0.12512,-0.339603 -0.12512,-0.375354 v -0.214487 l -0.12512,0.625588 v 0.339604 l 0.0894,0.178739 0.10725,0.160867 -0.35748,0.411101 -0.26811,0.339604 -0.0715,0.26811 v 0.268107 z"
       id="path428" /><path
       style="fill:#000000;stroke-width:0.264583"
       d="m 48.72886,15.733953 -0.37535,-0.375353 -0.37535,-0.285983 -0.0179,0.08937 0.42897,0.554093 z"
       id="path430" /><path
       style="fill:#000000;stroke-width:0.264583"
       d="m 49.90854,14.196793 -0.0357,-0.411102 -0.16087,-0.03575 z"
       id="path432" /><path
       style="fill:#000000;stroke-width:0.264583"
       d="m 47.08942,14.132171 0.32142,0.462042 0.40178,-0.02008 -0.30133,-0.381685 -0.40178,-0.261154 z"
       id="path434" /><path
       style="fill:#000000;stroke-width:0.264583"
       d="m 46.04908,17.004639 0.3562,0.463058 v 0.427437 l -0.49868,0.03562 -0.28496,-0.748016 -0.56991,-0.463058 -1.03298,-0.391816 0.24934,-0.320577 h 0.85488 l 0.99735,0.427437 z"
       id="path436" /><path
       style="fill:#000000;stroke-width:0.264583"
       d="m 49.53982,19.106206 0.1781,-0.783635 -0.21372,-0.463056 -0.39182,-0.07124 v 0.819255 l -0.32058,0.427437 -1.03297,0.498677 h -0.1781 l -0.74801,0.356198 1.17545,-0.07124 h 0.56992 l 0.46305,-0.249338 0.10686,-0.213717 z"
       id="path438" /><path
       style="fill:#000000;stroke-width:0.264583"
       d="m 22.108262,18.404115 -0.470876,0.715031 -0.523193,0.83711 -0.662715,0.715034 -0.470873,0.749911 -0.523195,0.488315 -0.470874,0.418555 -0.784791,0.261599 -0.313918,0.174397 -0.06976,0.313915 -0.139517,0.13952 -0.296476,0.03488 v 0.697593 l -0.0872,0.296476 -0.418558,0.226716 -0.610391,0.523195 -0.383677,0.296476 -0.418555,-0.01744 -0.470874,-0.01744 -0.331359,-0.06976 -0.06976,-0.226718 0.0872,-0.156959 0.226717,0.10464 0.331356,0.06976 0.435996,-0.05232 0.296476,-0.174398 0.401117,-0.296476 0.401116,-0.366236 0.191839,-0.226717 0.0872,-0.418557 -0.05232,-0.366236 0.0872,-0.383675 0.156958,-0.05232 -0.06976,-0.505754 0.03488,-0.313917 0.313918,-0.261596 0.226719,0.261596 0.0872,0.244157 h 0.244157 l 0.76735,-0.366236 0.523195,-0.627832 0.313917,-0.401117 0.383675,-0.348797 0.313918,-0.470874 0.226716,-0.523195 0.366236,-0.523195 0.470877,-0.348795 0.383675,-0.261596 0.279037,-0.05232 0.139518,0.03488 z"
       id="path440" /><path
       style="fill:#000000;stroke-width:0.264583"
       d="m 15.695408,23.051159 0.271084,-0.870326 0.09987,-0.599239 0.07134,-0.456565 -0.04281,-0.470831 -0.128407,-0.271084 -0.228283,0.05707 0.114142,0.485101 0.01426,0.256815 -0.02854,0.342424 -0.09987,0.328154 -0.08561,0.256818 -0.02854,0.385226 v 0.199747 z"
       id="path442" /><path
       style="fill:#000000;stroke-width:0.264583"
       d="m 14.996294,23.265172 -0.299622,0.342424 -0.07134,0.313889 v 0.399494 l -0.07134,0.0428 v -0.271085 l 0.01426,-0.428029 0.08561,-0.271084 z"
       id="path444" /><path
       style="fill:#000000;stroke-width:0.264583"
       d="m 14.539729,24.492188 -0.156943,0.256818 -0.399494,0.171212 -0.42803,0.171212 -0.556437,0.142676 -0.499367,0.114142 -0.442296,-0.185481 -0.242549,-0.185479 -0.171212,-0.142676 -0.07134,-0.385225 0.05707,-0.285354 0.128408,-0.199747 v 0.299622 l 0.0428,0.285351 0.199747,0.199747 0.285354,0.08561 0.399494,-0.0428 0.613508,-0.285353 0.428027,-0.08561 0.242551,-0.228282 0.156943,-0.599239 0.02854,0.342421 0.214013,0.285353 z"
       id="path446" /><path
       style="fill:#000000;stroke-width:0.264583"
       d="m 11.900219,23.422118 0.470831,-0.35669 0.399495,-0.185481 0.313886,-0.07134 h 0.299622 l 0.41376,0.02854 0.328155,-0.185478 0.313889,-0.599241 0.299619,-0.627775 0.242549,-0.527902 0.156945,-0.271086 0.0856,-0.156943 -0.05707,-0.199747 -0.142674,0.0428 -0.142676,0.214013 -0.328155,0.556438 -0.513636,1.084339 -0.114141,0.128407 -0.442296,0.08561 -0.556437,0.02854 -0.642043,0.08561 -0.570707,0.185478 -0.499366,0.09987 -0.485098,0.128407 -0.35669,-0.185478 -0.08561,-0.370959 -0.01426,-0.313886 0.185481,-0.413763 -0.214016,0.01426 -0.2853531,0.242549 v 0.41376 l 0.05707,0.342424 0.09987,0.256818 0.214014,0.228283 0.328154,0.171209 0.313889,0.05707 0.627777,0.05707 z"
       id="path448" /><path
       style="fill:#000000;stroke-width:0.264583"
       d="m 11.319334,21.190032 0.476084,-0.04429 0.188216,0.06643 0.08858,0.05536 H 12.349 l 0.254651,0.188219 0.298934,-0.33215 0.298937,-0.265721 0.232505,-0.298934 0.110715,-0.143933 0.45394,-0.398582 0.166077,-0.243575 0.199289,-0.08857 -0.121787,-0.121788 -0.409655,0.287864 -0.276791,0.232506 -0.310007,0.276791 -0.177147,0.265721 -0.210362,0.06643 -0.310007,0.04429 -0.310007,-0.03322 h -0.343223 l -0.276793,-0.06643 -0.442868,-0.03322 h -0.110715 l -0.221435,-0.210362 -0.166076,-0.110718 -0.143931,-0.431795 0.01109,-0.287864 -0.05536,-0.221435 -0.155003,-0.03321 -0.31001,0.188217 -0.1992891,0.232505 -0.110718,0.09965 -0.03321,0.232506 v 0.376436 0.199292 l 0.132861,0.14393 0.1992891,0.132861 0.232505,0.01109 0.298937,0.02215 0.188217,0.09964 0.110717,0.232506 0.19929,-0.166077 z"
       id="path450" /><path
       style="fill:#000000;stroke-width:0.264583"
       d="m 12.029291,19.423756 0.106516,0.252979 0.119832,0.279606 0.159777,-0.492641 -0.06658,-0.199721 -0.34618,0.05326 z"
       id="path452" /><path
       style="fill:#000000;stroke-width:0.264583"
       d="m 12.841485,19.303923 0.01331,0.292923 -0.266292,-0.119832 -0.01331,-0.14646 0.186405,-0.146463 z"
       id="path454" /><path
       style="fill:#000000;stroke-width:0.264583"
       d="m 12.734966,21.314437 0.03994,0.306236 -0.372808,-0.213034 0.07989,-0.173091 z"
       id="path456" /><path
       style="fill:#000000;stroke-width:0.264583"
       d="m 14.079748,22.672532 0.07989,0.279609 -0.146462,0.05326 -0.226349,-0.06657 -0.19972,-0.119833 V 22.59265 Z"
       id="path458" /><path
       style="fill:#000000;stroke-width:0.264583"
       d="m 15.677506,22.699162 -0.226348,0.159774 -0.02663,0.199721 0.346181,-0.119832 0.359497,-0.159774 -0.02663,-0.119833 z"
       id="path460" /><path
       style="fill:#000000;stroke-width:0.264583"
       d="m 14.781693,17.241372 0.05971,-0.403027 -0.25376,-0.29854 -0.238831,-0.268684 -0.223904,-0.208978 0.104489,-0.447808 0.07463,-0.134342 0.08956,-0.358246 -0.08956,-0.313465 -0.119414,-0.07464 -0.238832,0.313465 -0.104489,0.432882 -0.08956,0.343321 v 0.253756 l 0.208978,0.223904 0.119415,0.313465 0.328392,0.283612 z"
       id="path462" /><path
       style="fill:#000000;stroke-width:0.264583"
       d="m 15.348917,16.22634 0.462735,-0.49259 0.134343,-0.343318 -0.522444,0.268684 -0.238831,0.358246 -0.223904,0.328393 z"
       id="path464" /><path
       style="fill:#000000;stroke-width:0.264583"
       d="m 13.811442,16.106923 -0.447807,0.179123 -0.567224,0.134345 -0.388099,0.05971 -0.358249,-0.208976 -0.283612,-0.328393 -0.05971,-0.223903 -0.08956,-0.477663 0.223903,-0.447808 0.02985,0.388099 0.119417,0.343321 0.208976,0.253756 0.253759,0.02986 0.43288,-0.164198 0.403027,-0.194048 0.477662,-0.07464 0.179123,-0.14927 z"
       id="path466" /><path
       style="fill:#000000;stroke-width:0.264583"
       d="m 16.607389,21.082413 -0.796755,-0.273884 -0.348581,-0.149391 -0.448175,-0.248989 -0.423278,-0.796756 -0.09959,-0.497972 -0.0996,-0.473075 -0.149391,0.597567 v 0.273886 l 0.224086,0.323683 0.448178,0.647364 0.273883,0.224089 0.497972,0.224086 0.373481,0.0498 z"
       id="path468" /><path
       style="fill:#000000;stroke-width:0.264583"
       d="m 15.923603,23.338401 -0.636754,0.101883 -0.22923,0.02548 0.17829,0.203761 h 0.280172 l 0.738635,-0.152821 z"
       id="path470" /><path
       style="fill:#000000;stroke-width:0.264583"
       d="m 12.026674,23.491224 v 0.356582 l -0.229232,-0.05094 -0.101881,-0.432993 z"
       id="path472" /><path
       style="fill:#000000;stroke-width:0.264583"
       d="m 10.676757,22.141307 0.229229,-0.331113 -0.229229,-0.203761 -0.152821,0.331113 z"
       id="path474" /><path
       style="fill:#000000;stroke-width:0.264583"
       d="m 13.325649,21.275321 0.229232,0.382053 -0.254701,0.02548 -0.127352,-0.203761 z"
       id="path476" /><path
       style="fill:#000000;stroke-width:0.264583"
       d="m 19.44018,17.050422 -0.860846,0.614889 -0.983821,0.983822 -0.196763,-0.418124 0.491911,-0.93463 0.491911,-0.44272 0.614889,-0.147574 0.245954,-0.02461 z"
       id="path478" /><path
       style="fill:#000000;stroke-width:0.264583"
       d="m 15.13596,17.689907 0.467315,-0.66408 -0.811655,-0.196763 0.07379,0.541102 z"
       id="path480" /></g></svg>
