<?xml version="1.0" encoding="UTF-8" standalone="no"?>
<!-- Created with Inkscape (http://www.inkscape.org/) -->

<svg
   width="210mm"
   height="297mm"
   viewBox="0 0 210 297"
   version="1.1"
   id="svg5"
   inkscape:version="1.2.1 (9c6d41e, 2022-07-14)"
   sodipodi:docname="drawing.svg"
   xml:space="preserve"
   xmlns:inkscape="http://www.inkscape.org/namespaces/inkscape"
   xmlns:sodipodi="http://sodipodi.sourceforge.net/DTD/sodipodi-0.dtd"
   xmlns="http://www.w3.org/2000/svg"
   xmlns:svg="http://www.w3.org/2000/svg"><sodipodi:namedview
     id="namedview7"
     pagecolor="#ffffff"
     bordercolor="#000000"
     borderopacity="0.25"
     inkscape:showpageshadow="2"
     inkscape:pageopacity="0.0"
     inkscape:pagecheckerboard="0"
     inkscape:deskcolor="#d1d1d1"
     inkscape:document-units="mm"
     showgrid="false"
     inkscape:zoom="0.37827427"
     inkscape:cx="486.41954"
     inkscape:cy="322.51731"
     inkscape:window-width="1440"
     inkscape:window-height="900"
     inkscape:window-x="0"
     inkscape:window-y="0"
     inkscape:window-maximized="0"
     inkscape:current-layer="layer1" /><defs
     id="defs2" /><g
     inkscape:label="Lager 1"
     inkscape:groupmode="layer"
     id="layer1"><path
       style="fill:#000000;stroke-width:0.264583"
       d="m 60.735143,71.777899 -0.243366,-0.182526 -0.121682,-0.304207 -0.01521,-0.365051 0.152104,-0.34984 0.212947,-0.167314 0.288997,-0.07605 0.319418,0.03042 0.304207,0.197734 0.182526,0.212947 0.09126,0.365049 -0.09126,0.243366 -0.09126,0.243366 -0.167315,0.09126 -0.349837,0.106474 -0.228158,0.01521 z"
       id="path510" /><path
       style="fill:#000000;stroke-width:0.264583"
       d="m 60.689513,70.150383 -0.288999,0.273788 -0.228156,0.304208 -0.04563,0.197736 0.03042,0.273788 0.07605,0.365049 0.136893,0.243366 0.182525,0.121684 0.258575,0.06084 0.30421,0.01521 h 0.304207 l 0.273788,0.106471 0.07605,0.273788 -0.182525,0.228156 -0.304208,0.319418 -0.197736,0.09126 -0.152104,0.319418 -0.182525,0.273788 -0.243366,0.319418 -0.243367,0.03042 -0.121682,-0.121685 -0.03042,-0.197733 0.06084,-0.167315 0.106474,-0.212947 0.197736,-0.39547 0.212945,-0.182526 0.243366,-0.243366 -0.486732,-0.06084 -0.334629,-0.197734 -0.197737,-0.30421 -0.136893,-0.167314 -0.106473,-0.547574 0.07605,-0.380259 0.182525,-0.319418 0.258577,-0.30421 0.182526,-0.121682 0.243366,-0.06084 z"
       id="path512" /><path
       style="fill:#000000;stroke-width:0.264583"
       d="m 59.398087,69.975578 0.474163,-0.510638 0.455927,-0.401216 0.255318,-0.23708 0.437689,-0.255321 0.455925,-0.01823 0.346506,0.255317 v 0.218845 0.237083 l -0.03647,0.109421 0.05471,0.273555 0.310031,0.01823 0.273555,0.05471 0.237083,0.164135 0.164134,0.255317 0.145897,0.346507 0.09118,0.4924 -0.164132,0.4924 -0.273558,0.474162 -0.310028,0.310031 -0.218845,0.03647 -0.109423,-0.23708 0.03648,-0.182372 0.145897,-0.255318 0.164131,-0.291793 0.164135,-0.328268 0.01823,-0.218845 -0.07295,-0.255318 -0.291793,-0.31003 -0.218845,-0.127659 -0.474162,-0.127659 -0.237083,0.07295 -0.127659,-0.237082 -0.01823,-0.23708 0.109423,-0.273558 -0.127661,-0.109421 -0.255318,0.273555 -0.364741,0.200607 -0.382979,0.328269 -0.182369,0.200607 -0.346504,0.382976 -0.145897,0.25532 -0.218844,0.547111 -0.346504,0.583586 -0.182372,0.455928 -0.164132,0.4924 -0.127661,0.729483 0.09119,0.583583 h 1.987838 l 0.273556,0.07295 3.063827,0.05471 0.638297,0.05471 0.966562,0.01823 2.680245,0.104296 3.960498,0.0492 0.762579,-0.270592 h 1.13157 l 0.688782,-0.172196 0.983975,0.02461 -0.0738,0.590386 -1.106971,-0.0738 -0.516586,0.122997 -0.76258,0.0738 -0.737981,-0.0492 -0.516588,0.245994 -7.994793,-0.0492 -0.836379,-0.196794 -2.927324,-0.0738 -0.639582,-0.172196 -1.106972,0.02461 0.02461,0.565788 0.344392,0.319791 0.393589,0.0984 4.550884,0.147598 0.36899,-0.295193 4.870672,0.147595 0.344393,0.172196 5.510257,0.02461 0.590386,-0.541187 0.172196,-0.541187 0.0738,-0.860978 0.565785,-0.02461 v 1.205368 l -0.713383,0.811778 -0.787178,0.565788 -5.239665,-0.0492 -0.368991,-0.221396 -4.624681,-0.196794 -0.491987,0.270592 -5.411862,-0.122997 -0.614984,-0.787178 -0.196794,-1.525161 0.122996,-1.13157 0.541187,-1.25457 0.442788,-0.910174 z"
       id="path514" /><path
       style="fill:#000000;stroke-width:0.264583"
       d="m 75.417724,74.173786 h 0.430594 l -0.143532,0.621969 -0.366802,-0.09569 z"
       id="path516" /><path
       style="fill:#000000;stroke-width:0.264583"
       d="m 75.640995,73.822932 -0.414647,-0.637916 -0.861187,-0.813345 -1.594792,-0.797396 -1.674532,-0.478438 -1.355574,-0.223271 -1.674532,-0.0319 -0.924978,0.06379 -0.558178,0.334907 -0.318958,0.590073 -0.09569,0.717656 -0.07974,0.637918 -0.111635,0.701707 0.04784,0.430594 v 0.23922 l -0.717658,-0.01595 0.127585,-0.909032 0.06379,-0.68576 0.143531,-0.940927 0.239218,-0.717656 0.31896,-0.478438 0.68576,-0.542229 1.196094,-0.159481 1.355574,0.06379 0.956874,0.159481 0.988772,0.143531 1.068512,0.255167 0.781446,0.287062 0.813345,0.414647 0.813343,0.478438 0.574127,0.478436 0.414645,0.526282 0.271115,0.414647 0.0319,0.574125 -0.478438,0.143531 z"
       id="path518" /><path
       style="fill:#000000;stroke-width:0.264583"
       d="m 66.4372,70.8998 -1.039482,-0.77065 -1.272469,-1.021558 -1.003636,-0.752729 -0.609351,-1.003636 -1.057405,-1.810131 -1.63091,-2.760004 -1.290391,-1.899743 -1.003636,-0.125452 -0.143378,-0.591431 1.451689,0.161301 4.588058,7.401824 3.405195,2.706235 z"
       id="path520" /><path
       style="fill:#000000;stroke-width:0.264583"
       d="m 58.965261,70.531452 -0.855377,-0.61364 -0.911164,-0.688023 -0.855377,-0.09297 -1.394637,-0.390499 -0.725213,-0.57645 -0.892566,-1.022734 -0.427689,-0.818187 0.0186,-0.818187 0.09297,-0.725212 0.09298,-1.30166 0.371904,-1.097116 0.836782,-1.041328 0.985544,-0.595046 0.855376,-0.371903 0.799592,-0.223142 0.873972,0.05579 0.09298,0.57645 -0.892569,0.05579 -1.134303,0.260331 -1.190091,0.929756 -0.762402,0.81819 -0.334714,0.985544 -0.05578,1.431827 0.130167,1.394637 0.464878,0.65083 0.632235,0.502068 0.929759,0.464881 0.632235,0.223142 0.966949,0.260331 0.68802,0.371904 1.46902,0.948354 z"
       id="path522" /><path
       style="fill:#000000;stroke-width:0.264583"
       d="m 56.994173,68.764911 0.297524,-0.799592 0.278926,-0.502068 0.539261,-0.446286 0.595045,-0.483473 0.483473,-0.780997 0.05579,-0.725212 0.167354,-0.595046 v -1.022733 l -0.371904,-0.706615 -0.446283,-0.743807 -0.57645,-0.743807 -0.390499,-0.520663 -0.743805,0.05578 0.632236,0.688023 0.371903,0.427688 0.427689,0.576451 0.316116,0.576447 0.223144,0.743807 v 0.595046 l -0.204547,0.762402 -0.111572,0.632235 -0.260331,0.390499 -0.502071,0.557855 -0.334714,0.297521 -0.520663,0.539261 -0.204546,0.409093 -0.167357,0.427689 -0.09298,0.316118 z"
       id="path524" /><path
       style="fill:#000000;stroke-width:0.264583"
       d="m 57.459054,67.128537 -0.427691,-0.483473 0.111572,-0.334714 0.297521,-0.0186 0.483476,0.409094 0.409093,-0.464879 -0.688019,-0.483475 -0.539261,-0.07438 -0.669428,0.632235 0.07438,0.446283 0.65083,0.762403 z"
       id="path526" /><path
       style="fill:#000000;stroke-width:0.264583"
       d="m 58.853691,65.417781 -0.632238,-0.241736 -0.185952,-0.278927 0.07438,-0.818187 0.371903,-0.334713 h 0.446284 l 0.111569,0.669424 -0.353306,-0.09297 -0.278929,0.148762 0.05579,0.334711 0.446284,0.07438 z"
       id="path528" /><path
       style="fill:#000000;stroke-width:0.264583"
       d="m 58.816499,62.96322 -0.595046,0.0186 -0.204546,-0.130165 -0.223142,-0.446286 0.111572,-0.260331 0.260332,-0.204547 z"
       id="path530" /><path
       style="fill:#000000;stroke-width:0.264583"
       d="m 52.977618,65.678115 -1.692159,0.07438 -0.50207,-0.185952 h -0.743807 l -0.316117,0.148762 -0.409093,-0.334714 -0.241737,-0.464878 -0.111572,-0.353309 -0.316119,-0.260331 -1.84092,0.03719 -0.595045,-0.297521 -1.134304,-0.688023 -3.216965,-0.353309 -3.4587,-1.134303 -0.204546,0.297521 1.971087,2.510349 0.446284,0.278926 0.966948,-0.03719 3.068201,-1.097116 1.413235,0.780997 0.464878,0.316119 1.989683,-0.111572 0.353309,0.873974 0.576447,0.576451 0.632238,-0.185952 0.61364,-0.0186 0.502068,0.297521 1.896708,-0.03719 z"
       id="path532" /><path
       style="fill:#000000;stroke-width:0.264583"
       d="m 53.20076,64.711166 -1.580589,0.11157 -0.204547,-0.204547 h -0.61364 l -0.223142,-0.316116 -0.68802,0.03719 -0.111572,0.278926 h -0.371904 l -0.632235,-1.134303 -1.097113,-0.03719 -0.818187,0.05579 -1.059926,-0.539261 -1.692158,-0.892566 -1.376043,-0.762402 -1.097116,-0.706618 -1.245875,-1.19009 -0.464878,-0.595045 -0.223142,-1.115709 -0.111572,-0.669427 0.762402,-0.595046 -0.148762,-0.427688 -1.134303,0.836785 -1.022736,1.041328 0.148762,0.483473 0.948354,-0.873971 0.111569,1.394637 0.539261,0.632235 1.580589,1.524804 2.157039,1.283065 3.179773,1.673564 1.840921,0.05579 0.297521,0.7624 0.371904,0.595045 0.669427,-0.148759 0.09298,-0.353309 0.260331,-0.223141 0.148762,0.223141 0.576451,0.167357 0.148762,0.297521 2.045467,-0.07438 z"
       id="path534" /><path
       style="fill:#000000;stroke-width:0.264583"
       d="m 39.235792,55.618131 0.130167,0.780997 -0.353308,0.223141 -0.09297,-0.818187 z"
       id="path536" /><path
       style="fill:#000000;stroke-width:0.264583"
       d="m 42.582922,61.847512 -0.185952,0.260332 -0.520663,-0.148762 0.241737,-0.464878 z"
       id="path538" /><path
       style="fill:#000000;stroke-width:0.264583"
       d="m 42.303996,62.498342 -0.07438,0.409094 -0.706614,-0.148762 0.316116,-0.502068 z"
       id="path540" /><path
       style="fill:#000000;stroke-width:0.264583"
       d="m 42.861851,61.04792 0.05579,-0.316119 -0.446283,-0.09298 -0.05579,0.334714 z"
       id="path542" /><path
       style="fill:#000000;stroke-width:0.264583"
       d="m 43.177967,60.490065 0.130168,-0.483476 h -0.464881 l 0.0186,0.427688 z"
       id="path544" /><path
       style="fill:#000000;stroke-width:0.264583"
       d="m 43.159373,59.616091 -0.297522,-0.05579 0.0186,-0.464878 0.446284,-0.427689 0.241736,0.260332 -0.09297,0.353308 z"
       id="path546" /><path
       style="fill:#000000;stroke-width:0.264583"
       d="m 43.847392,57.626408 -0.05578,0.595045 -0.185952,0.241739 -0.334711,-0.297523 0.223141,-0.855377 0.464879,-0.706618 0.316118,-0.520663 -2.491753,-0.260334 -2.324396,-0.911161 -1.30166,0.595045 -1.431827,-1.450422 -2.435966,0.948351 -0.61364,0.334714 -0.427691,0.446283 -0.241737,0.502071 -0.762402,-0.130167 0.371904,-0.818187 0.278929,-0.446283 1.115708,-0.557856 1.152901,-0.557855 0.818187,-0.03719 0.985543,-0.03719 0.502071,0.204547 2.082657,0.446283 2.045467,0.780997 1.971088,0.260332 1.22728,0.167357 0.07438,-0.427689 0.427688,-0.0186 0.223142,0.390499 0.111569,-0.204547 0.278929,-0.07438 0.09298,-0.632235 0.725212,-0.0186 -0.05579,0.762403 -0.260334,0.520665 -0.743804,0.334711 -1.022737,0.613641 -0.483473,0.483475 z"
       id="path548" /><path
       style="fill:#000000;stroke-width:0.264583"
       d="m 46.655264,54.837134 0.65083,-0.68802 1.059924,0.07438 1.004139,0.260334 1.208685,0.278927 1.041329,0.371903 1.245878,0.502069 1.524801,0.595045 1.097116,0.483476 1.152898,0.65083 0.799592,0.65083 0.464881,0.595045 0.334711,0.61364 0.05579,0.669428 -0.09298,0.390498 0.595046,0.185952 0.111572,-0.557856 -0.223142,-0.892569 -0.334714,-0.836782 -0.743807,-0.743807 -0.780997,-0.65083 -0.576448,-0.353309 -0.855379,-0.3719 -0.61364,-0.297524 -0.68802,-0.316117 -1.301663,-0.446286 -1.599184,-0.65083 -1.078518,-0.353308 -0.669428,-0.09298 -0.762399,-0.148762 -0.873974,-0.07438 -0.0186,-0.371903 0.669428,-0.557856 -0.297524,-0.241736 -0.520666,0.353309 -0.632235,0.520663 -0.520663,0.223141 -0.390498,0.204547 -0.0186,0.297524 0.57645,-0.03719 -0.57645,0.595045 z"
       id="path550" /><path
       style="fill:#000000;stroke-width:0.264583"
       d="m 45.20484,54.874326 0.130167,-0.57645 0.334714,0.0186 -0.0186,0.502068 -0.130164,0.316119 z"
       id="path552" /><path
       style="fill:#000000;stroke-width:0.264583"
       d="m 45.81848,53.851592 -0.483473,-0.0186 0.05579,-0.595045 0.46488,-0.0186 z"
       id="path554" /><path
       style="fill:#000000;stroke-width:0.264583"
       d="m 45.874267,52.54993 -0.595045,-0.07438 0.09298,-0.818187 0.427688,-0.204547 0.09298,0.371901 -0.241739,0.09298 0.05579,0.167356 0.241737,0.05579 z"
       id="path556" /><path
       style="fill:#000000;stroke-width:0.264583"
       d="m 48.161471,52.642904 -0.316119,-0.111569 -0.502068,0.260331 -0.855376,0.167357 h -0.334714 l -0.03719,-0.334714 0.483473,-0.241736 0.334714,-0.241737 0.520665,-0.241736 h 0.557853 l 0.61364,-0.390499 0.464881,-0.57645 0.427689,-0.390499 0.278926,-0.204546 0.278929,0.241736 -0.09298,0.241737 -0.353309,0.260334 -0.260331,0.427688 -0.297522,0.278927 -0.334713,0.278929 0.260331,0.09297 0.520666,-0.409093 0.185951,-0.223142 0.11157,-0.204547 -0.148759,-0.297524 0.241736,-0.390498 0.483473,0.371903 0.0186,0.613641 -0.483473,0.53926 -0.427688,0.371904 -0.334714,0.334714 -0.05579,0.427688 -0.185951,0.07438 v 0.409093 l -0.799592,-0.0186 0.07438,-0.316119 0.223142,-0.278926 -0.05579,-0.353309 z"
       id="path558" /><path
       style="fill:#000000;stroke-width:0.264583"
       d="m 51.787528,54.669779 0.185951,-0.799592 -0.0186,-0.464881 -0.167357,-0.57645 -0.223141,-0.353306 -0.297522,-0.241739 -0.50207,0.05579 -0.502068,-0.0186 -0.223145,-0.07438 -0.111569,-0.185952 0.371903,-0.409094 0.371904,0.03719 h 0.65083 l 0.409093,0.223145 0.371904,0.353306 0.241737,0.390498 0.873971,-0.05579 1.413232,-0.111572 0.148762,0.557856 -0.911161,0.07438 h -0.836784 l -0.520663,0.0186 v 0.502068 0.557856 l -0.07438,0.464878 -0.185949,0.223142 z"
       id="path560" /><path
       style="fill:#000000;stroke-width:0.264583"
       d="m 54.502422,52.54993 0.09297,-0.669425 0.130167,-0.632238 0.409093,-0.520663 0.353309,-0.204547 h 0.595045 l 0.390499,0.167357 0.148759,0.260332 0.130167,0.204546 h 0.353309 l 0.353309,-0.446283 0.464878,-0.390498 0.241737,-0.353309 0.50207,-0.260332 0.72521,-0.0186 -0.167357,-0.557855 -0.260331,-0.148762 -0.185952,-0.706615 0.148762,-0.371904 0.334713,-0.353308 0.167355,-0.353309 0.53926,-0.111569 1.26447,0.05578 1.208689,0.07438 0.576447,0.334714 0.520666,0.371903 0.427688,0.427689 0.464878,0.427688 0.07438,0.483476 -0.03719,0.483473 0.65083,-0.03719 0.483473,-0.520665 0.223142,-0.390499 0.53926,-0.371904 0.539261,-0.223141 0.557855,0.0186 0.743805,0.05579 0.316119,0.297522 0.167356,0.390498 -0.09298,0.409094 -0.334711,0.371903 -0.427688,0.743808 -0.464881,0.353306 -0.72521,0.688022 -0.836784,0.353309 -0.595046,0.111569 -0.427688,0.111572 -0.539258,-0.167356 -0.111572,-0.316119 0.68802,-0.223142 0.706617,-0.11157 0.706618,-0.409093 0.743804,-0.502071 0.427689,-0.483473 0.409093,-0.50207 0.260334,-0.148762 V 48.84949 l -0.557855,-0.111569 -0.669425,0.07438 -0.371904,0.241739 -0.50207,0.502068 -0.297522,0.427689 -0.446286,0.204547 -0.61364,0.03719 -0.111569,0.204547 0.07438,0.260334 0.111573,0.409094 -0.05579,0.409093 -0.334714,0.204547 -0.297524,-0.223142 -0.111569,-0.334714 -0.05579,-0.409093 0.03719,-0.520666 -0.05579,-0.706614 -0.111569,-0.502071 -0.427689,-0.595045 -0.371903,-0.316117 -0.502071,-0.334713 -0.241737,0.0186 0.148762,0.130167 0.353309,0.297521 0.316116,0.260334 0.241737,0.278927 0.185952,0.65083 0.09298,0.595045 0.111569,0.61364 0.0186,0.557856 0.05579,0.557855 -0.09298,0.223142 h -0.204547 l -0.223142,-0.130167 -0.09297,0.09298 0.03719,0.260331 -0.297524,0.185952 -0.334711,-0.148762 0.111569,-0.371903 0.409094,-0.09297 0.09298,-0.297521 -0.111572,-0.780997 -0.11157,-0.669428 -0.334714,-1.19009 -0.446283,-0.409094 -0.688022,-0.409093 -0.632235,-0.148762 -0.669425,-0.05579 -0.241737,0.241736 -0.409093,0.05579 -0.05579,0.409093 0.260334,0.353306 0.130165,0.371904 0.836782,-0.03719 0.557855,-0.03719 0.353309,0.316119 0.204546,0.241737 -0.05578,0.390498 -0.427689,-0.0186 -0.278929,-0.334714 -0.68802,0.09297 -0.278929,0.278929 -0.595045,0.09297 -0.167354,0.27893 h -0.706618 l -0.353308,0.483473 -0.204547,0.03719 -0.278926,0.297524 -0.483476,0.520663 -0.57645,-0.07438 -0.316117,-0.464879 -0.483475,-0.130167 -0.316117,0.09297 -0.353308,0.297524 v 0.53926 l 0.0186,0.427689 -0.11157,0.111569 z"
       id="path562" /><path
       style="fill:#000000;stroke-width:0.264583"
       d="m 56.157391,54.39085 0.464878,-0.167357 0.148762,-0.278926 0.03719,-0.316119 v -0.316116 l 0.334714,-0.03719 0.316119,0.334711 0.260331,-0.05579 0.03719,-0.353308 0.05579,-0.241737 -0.427689,-0.07438 -0.297521,-0.185951 -0.427688,0.05578 -0.297524,0.297524 -0.204547,0.446284 -0.167357,0.316116 -0.05579,0.297524 z"
       id="path564" /><path
       style="fill:#000000;stroke-width:0.264583"
       d="m 58.704929,52.531335 0.557855,-0.446284 0.427689,-0.316118 0.502068,-0.07438 0.61364,-0.204547 0.241739,-0.278929 -0.0186,-0.260331 -0.278926,-0.148762 -0.334714,0.05579 -0.780997,0.260332 -0.61364,0.334713 -0.409094,0.316117 -0.223141,0.278929 -0.148762,0.204546 0.0186,0.278927 0.185952,0.07438 z"
       id="path566" /><path
       style="fill:#000000;stroke-width:0.264583"
       d="m 64.134716,51.582981 -0.241736,0.57645 -0.148762,0.204547 -0.241737,0.148762 -0.130167,-0.05579 -0.353309,-0.05579 -0.09297,0.167357 0.05578,0.278929 -0.297521,-0.0186 -0.241736,-0.148759 -0.223145,0.204547 -0.0186,0.334711 -0.316116,0.260334 -0.427689,0.204547 -0.725212,0.427688 -0.353309,0.241737 -0.520663,0.223141 -0.818189,0.409094 -0.929757,0.353309 -0.595045,0.185951 -0.762402,0.316117 -0.557855,-0.03719 -0.316117,-0.297522 -0.241739,-0.483475 -0.130164,-0.483473 -0.03719,-0.595046 -0.148762,-0.464878 -0.0186,-0.650833 -0.148762,-0.446283 h -0.61364 l -0.111573,0.316119 0.111573,0.353309 0.130167,0.334711 0.09297,0.371903 0.223142,0.706618 0.148762,0.818187 0.148762,0.316116 0.278926,0.502071 0.390499,0.278926 0.743807,0.148762 0.632235,-0.223142 0.669425,-0.241736 1.022734,-0.483476 0.929759,-0.371904 0.911164,-0.464878 0.706615,-0.446283 0.873974,-0.539261 0.65083,-0.371903 0.557855,-0.185952 0.316117,-0.297521 0.390498,-0.353309 0.390499,-0.61364 z"
       id="path568" /><path
       style="fill:#000000;stroke-width:0.264583"
       d="m 50.153233,50.977725 -0.06033,-0.683725 0.10055,-0.462521 v -0.402191 l 0.180985,-0.221205 0.08044,-0.542956 -0.422302,-0.54296 -0.542956,0.02011 -0.744056,0.02011 -0.38208,0.341863 -0.261424,0.341863 -0.180986,0.241313 -0.140768,0.341863 -0.221205,0.301643 -0.361972,0.04022 -0.341862,0.140766 -0.201097,0.06033 h -0.542957 l -0.46252,-0.120658 v -0.321752 l 0.281535,-0.06033 0.422299,-0.02011 h 0.241315 l 0.201097,-0.02011 0.422299,-0.06033 0.180988,-0.221205 0.221205,-0.180986 -0.50274,-0.241316 -0.321752,0.241316 -0.643506,0.04022 -0.522849,0.04022 -0.361971,0.442413 -0.08044,0.201094 0.201094,0.40219 0.301644,0.281535 h 0.542959 0.603287 l 0.542957,-0.06033 0.482629,-0.261425 0.241316,-0.301643 0.301644,-0.442413 0.160874,-0.361971 0.301644,-0.221205 0.442409,-0.100547 h 0.301644 l 0.281535,0.221205 -0.120658,0.382082 -0.08044,0.301644 -0.120658,0.361971 -0.08044,0.44241 0.160874,0.321752 z"
       id="path570" /><path
       style="fill:#000000;stroke-width:0.264583"
       d="m 47.136801,49.228194 0.100547,0.583177 -0.643507,0.180985 -0.06033,-0.341863 -0.925042,-0.08044 0.563068,-0.44241 z"
       id="path572" /><path
       style="fill:#000000;stroke-width:0.264583"
       d="m 48.06184,49.147756 -0.54296,-0.160877 -0.361971,-0.281533 0.140766,-0.301643 0.160878,-0.261425 -0.08044,-0.402193 0.301644,-0.301643 0.281532,0.221207 0.08044,0.34186 -0.06033,0.160878 -0.180985,0.160877 0.160874,0.120658 0.442413,0.160874 z"
       id="path576" /><path
       style="fill:#000000;stroke-width:0.264583"
       d="m 47.498772,47.800416 -0.844603,-0.04022 -0.623395,-0.361971 -1.166355,0.201094 -0.744053,0.241316 -0.94515,0.361971 -0.563065,0.221205 -0.583179,0.120658 -0.40219,0.301643 -0.683726,0.542957 -0.321752,0.382082 -0.402193,0.361971 -0.38208,0.10055 -0.120658,-0.241316 0.04022,-0.281532 -0.180986,-0.140769 -0.744053,0.160877 -0.341863,0.341863 -0.261424,0.321752 -0.120658,0.120658 -0.301644,0.08044 -0.160877,-0.321752 0.221205,-0.221205 0.382082,-0.50274 0.402191,-0.321752 0.522848,-0.221207 0.50274,-0.06033 0.261424,0.08044 0.241316,0.160877 0.643504,-0.462521 0.703837,-0.603287 0.563065,-0.201094 0.884822,-0.261424 1.226682,-0.402193 1.025589,-0.361971 0.884819,0.02011 0.864712,0.241316 0.764161,0.241316 0.08044,0.221205 z"
       id="path578" /><path
       style="fill:#000000;stroke-width:0.264583"
       d="m 40.782179,48.846112 -0.522849,-0.442409 -0.34186,-0.10055 -0.341863,-0.04022 -0.522848,-0.100547 -0.201097,-0.04022 -0.301643,-0.321751 -0.422302,0.361971 -0.422299,0.563067 -0.180985,0.221205 -0.261424,0.120658 -0.442413,0.321752 -0.382079,0.583179 0.321752,0.201094 -0.160878,0.402193 -0.261424,0.563065 -0.100547,0.281535 -0.361971,0.120658 0.02011,0.361971 0.180986,0.221205 v 0.382082 l -0.02011,0.301644 0.120658,0.522848 -0.221208,0.502738 1.025588,-0.02011 -0.261424,-0.663614 -0.100547,-0.723945 0.160875,-1.045697 0.321754,-0.824492 0.201094,-0.522849 0.462521,-0.563067 0.462521,-0.563068 0.563068,-0.160877 0.784272,-0.100547 0.301644,0.221205 0.422299,0.382082 z"
       id="path580" /><path
       style="fill:#000000;stroke-width:0.264583"
       d="m 37.805965,55.602922 -0.784272,-0.784272 -1.186463,1.126135 0.703834,0.88482 z"
       id="path582" /><path
       style="fill:#000000;stroke-width:0.264583"
       d="m 38.731004,48.202606 0.784273,-0.40219 0.90493,-0.06033 -0.08044,-0.985366 -0.221205,-1.246794 -0.04022,-0.683725 -0.301644,-0.301644 -0.281532,0.08044 -0.100547,0.321754 0.100547,0.683723 0.160877,0.985369 0.08044,0.723945 -0.663615,0.160875 -0.563068,0.422301 z"
       id="path584" /><path
       style="fill:#000000;stroke-width:0.264583"
       d="m 36.257529,53.290324 h -1.106025 -0.925039 l -0.462521,0.08044 -0.502737,0.341863 -0.462521,0.241313 -0.90493,0.04022 -0.965259,-0.221205 -0.683725,-0.241313 -0.603287,-0.221208 -0.241313,-0.603284 -0.201097,-0.804384 -0.100547,-0.884819 -0.100547,-0.663618 -0.140769,-0.703834 v -0.824492 l -0.04022,-0.764161 0.100549,-1.065808 0.321752,-0.623395 0.422302,-0.462521 0.563067,-0.361971 0.723943,-0.201097 1.045697,-0.08044 0.683725,0.100547 0.462521,0.281533 0.764162,0.402193 0.442412,0.281532 0.261424,0.241316 0.422299,0.140766 0.683726,0.361972 0.422301,0.180985 0.221205,0.361974 0.140766,0.34186 0.160878,0.382082 0.221205,0.44241 0.301643,0.281535 0.160875,0.201097 -0.44241,0.281532 -0.482629,-0.683725 -0.120658,-0.341863 -0.140766,-0.522849 -0.180986,-0.180985 -0.462521,-0.402191 -0.382079,-0.04022 -0.462521,-0.221205 -0.482629,-0.241316 -0.54296,-0.34186 -0.683723,-0.422301 -0.321754,-0.140767 -0.583176,-0.201096 -1.166355,0.02011 -0.643506,0.221208 -0.402191,0.422298 -0.261424,0.422302 -0.201096,0.683726 c 0,0 -0.04022,0.422298 -0.04022,0.663614 0,0.241314 0.04022,0.663615 0.04022,0.663615 l 0.160877,0.764164 0.04022,0.422299 0.08044,0.703837 0.221205,0.542956 0.08044,0.241316 0.301644,0.281533 0.281532,-0.02011 -0.100547,-0.48263 0.241314,-0.341862 0.261424,-0.201097 0.321754,0.08044 0.120658,0.221205 0.08044,0.261424 0.241316,0.321752 v 0.06033 l 0.140766,0.462518 v 0.341863 l -0.261424,0.180985 -0.321752,-0.241313 0.120658,-0.361971 -0.04022,-0.382082 -0.140769,-0.261424 -0.221205,0.100547 -0.120655,0.442409 0.04022,0.180986 1.146247,0.402193 0.382082,0.301644 0.583176,-0.02011 0.50274,-0.06033 0.563068,-0.160878 0.884819,0.100547 1.226683,0.02011 z"
       id="path586" /><path
       style="fill:#000000;stroke-width:0.264583"
       d="m 33.784055,52.747364 -0.301643,-0.462518 -0.462521,-0.201096 -0.201096,-0.08044 -0.120656,-0.221205 0.02011,-1.146244 0.180985,-0.321751 0.160877,-0.643507 0.261425,-0.663617 0.583176,-0.140766 0.382082,-0.120658 0.180985,-0.321752 0.10055,-0.321752 0.382079,-0.08044 0.281536,0.281533 0.40219,0.321754 0.482629,0.04022 0.321755,-0.06033 -0.08044,-0.583176 -0.44241,0.140767 -0.241316,-0.281533 -0.241315,-0.02011 0.04022,-0.623396 -0.663615,-0.241315 -0.201094,0.422301 -0.301643,0.140766 -0.241316,0.54296 -0.201097,0.281532 -0.583176,0.140766 -0.02011,-0.40219 -0.281535,-0.241313 -0.44241,-0.563068 -0.201097,0.623395 0.08044,0.44241 0.583179,0.261424 -0.221208,0.281536 -0.241313,0.683723 -0.140766,0.442412 -0.140769,0.623395 -0.100547,0.382083 0.02011,0.80438 0.241313,0.44241 0.261425,0.180986 h 0.361971 l 0.120658,0.482632 z"
       id="path588" /><path
       style="fill:#000000;stroke-width:0.264583"
       d="m 29.721923,48.564577 0.884823,-0.623395 -0.180989,-0.361971 -0.965258,0.764161 z"
       id="path590" /><path
       style="fill:#000000;stroke-width:0.264583"
       d="m 31.109483,47.197128 -0.06033,-0.422301 0.402191,-0.08044 0.241316,0.180989 -0.140769,0.241313 z"
       id="path592" /><path
       style="fill:#000000;stroke-width:0.264583"
       d="m 32.21551,46.935704 0.261424,-0.301643 -0.241316,-0.180986 -0.422301,0.160875 0.02011,0.321754 z"
       id="path594" /><path
       style="fill:#000000;stroke-width:0.264583"
       d="m 34.347123,54.838761 0.201094,0.723942 0.120658,0.603287 -0.04022,0.402191 -0.120658,0.341862 -0.603287,-0.201094 -0.88482,-0.261424 -0.201096,-0.301643 0.321754,-0.50274 0.462518,0.361971 0.442413,0.120658 -0.140769,-0.603287 -0.281533,-0.382082 z"
       id="path596" /><path
       style="fill:#000000;stroke-width:0.264583"
       d="m 34.628656,56.487742 0.301643,0.241316 0.221205,-0.422302 0.301644,-0.180985 0.361971,0.06033 0.301643,0.261424 v 0.623396 l 0.402191,0.422301 0.402193,0.221205 0.341863,0.482629 0.201094,0.683723 0.100547,0.623398 -0.422299,0.663615 -0.522849,0.723945 -0.542959,0.522848 -0.945147,0.723942 -0.744056,0.563068 -1.166352,0.522849 -0.884823,0.382082 -0.502737,0.100547 -1.307121,0.160877 -1.005478,0.04022 -2.171832,0.341863 -1.950628,0.100547 -1.146244,-0.261424 -2.594133,-0.904931 -2.051175,-0.764161 -1.287011,-0.522849 -0.563068,-0.462521 -3.720268,-4.08224 -0.241315,-0.643504 -1.729421,-7.601412 0.603286,-1.709312 0.683725,-1.689203 0.884821,-1.628876 1.287011,-2.131613 0.361972,-0.100547 0.48263,0.462521 1.467997,2.131613 1.447888,1.427776 0.643506,1.045697 1.287012,1.467999 1.427778,1.548436 2.674571,2.332707 1.508218,1.186466 1.266902,0.784273 0.884819,0.542956 1.327232,0.361972 1.186463,0.221207 -0.321754,-0.462521 -0.120656,-0.482629 0.02011,-0.784272 0.744053,0.241313 -0.100547,0.442412 0.04022,0.462518 0.301644,0.462521 0.08044,0.382082 0.603287,0.160875 0.261424,0.402193 L 31.81332,56.145882 31.029044,55.924677 29.701815,55.522484 28.676227,55.28117 27.007134,54.315912 25.679903,53.330543 24.171686,52.003311 22.442265,50.474985 21.356349,49.30863 20.149775,47.941182 19.00353,46.573733 18.440463,45.76935 17.173561,44.401901 16.30885,43.134999 l -0.482629,-0.623398 -0.542958,0.844603 -0.764164,1.367449 -0.482629,0.884819 -0.583177,1.467999 -0.482629,1.266901 -0.341863,0.683726 0.321753,1.447887 0.261424,1.548437 0.321753,1.769642 0.563068,1.78975 0.361972,1.367449 3.780597,3.941474 0.180985,0.301643 6.35462,2.393037 1.508217,0.241314 3.499064,-0.502738 2.513692,-0.301643 1.608765,-0.663618 1.729422,-1.327229 0.965258,-1.246793 0.482629,-0.764162 -0.34186,-0.683726 -0.46252,-0.563067 -1.206575,-0.382083 -0.703834,-0.462518 -0.201096,-0.281535 z"
       id="path598" /><path
       style="fill:#000000;stroke-width:0.264583"
       d="m 14.498818,57.193084 -0.623925,-5.407348 0.980453,3.446442 0.534793,0.05942 -0.118843,-5.347925 1.485535,3.743547 0.386239,-0.08913 -0.148554,-4.248629 1.426113,2.763094 0.41595,-0.207976 -0.118843,-3.416728 1.485535,2.109459 0.415949,-0.207976 -0.802188,-1.901483 2.198591,1.426112 -1.247849,-1.604378 -1.515245,-0.89132 -0.148554,0.118842 0.267396,1.039876 -0.86161,-1.247849 -0.326817,0.08913 0.178264,3.446441 -1.604377,-3.119623 -0.267397,0.08913 0.118843,4.278339 -1.515245,-3.80297 -0.44566,0.08913 0.178264,4.724 -1.27756,-4.100076 -0.475371,0.118843 0.534792,5.615321 z"
       id="path600" /><path
       style="fill:#000000;stroke-width:0.264583"
       d="m 34.612958,62.422166 0.326816,0.534792 0.118843,1.544955 -0.05942,0.742767 -0.356529,0.297109 -0.742767,0.564502 -0.594215,0.386238 -0.386239,0.415952 -0.326818,0.445659 -0.653635,0.594214 -0.148553,0.326816 -1.188429,0.267399 -0.594212,0.415948 -0.326818,0.653635 -0.237686,0.623924 v 0.623925 l 0.178266,0.326819 0.475369,0.178263 0.178265,-0.297106 -0.386239,-0.356529 0.08913,-0.297106 0.118843,-0.742767 0.356528,-0.386239 0.505082,-0.237686 0.594214,-0.178265 0.564505,-0.178264 0.207973,-0.445661 0.713057,-0.594214 0.356529,-0.475369 1.129006,-1.010164 0.594215,-0.297108 0.564501,-0.831898 -0.08913,-0.564504 -0.02971,-1.634088 -0.475371,-0.8319 z"
       id="path602" /><path
       style="fill:#000000;stroke-width:0.264583"
       d="m 30.453459,69.463599 -0.148553,0.950743 -0.297106,0.891321 -0.08913,1.069583 v 1.544958 l 0.207975,1.069583 h 2.852224 l 2.97107,-0.207973 1.069586,-0.297109 1.396402,-0.05942 2.881937,-0.118843 0.683347,-0.237685 v -0.356529 h -0.564504 l -0.92103,0.118843 -3.00078,0.118843 -0.08913,-0.356529 -0.356529,0.05942 -0.297106,0.356526 -2.406568,0.267398 -3.565281,0.326816 -0.178266,-0.564502 v -0.356528 l -0.08913,-1.842064 0.148553,-0.86161 0.207976,-0.653635 0.237683,-0.475371 -0.118843,-0.415949 z"
       id="path604" /><path
       style="fill:#000000;stroke-width:0.264583"
       d="m 30.483169,73.860781 3.030493,-0.415949 2.198589,-0.02971 2.258013,-0.297109 2.495698,0.05942 1.307272,-0.386239 -0.08913,-0.653637 -0.921031,0.415952 h -2.465988 l -0.89132,0.237685 h -2.109459 l -0.921031,0.118843 -2.079749,0.237686 -1.812354,0.11884 z"
       id="path606" /><path
       style="fill:#000000;stroke-width:0.264583"
       d="m 34.820931,73.058593 v -1.485535 l 0.445662,-0.02971 0.08913,1.366692 z"
       id="path608" /><path
       style="fill:#000000;stroke-width:0.264583"
       d="m 37.821711,72.731775 0.118843,-1.158717 -0.564502,-1.069586 0.267396,-0.237685 0.386239,0.267398 0.207975,0.653635 0.237686,0.594214 -0.05942,0.921031 z"
       id="path610" /><path
       style="fill:#000000;stroke-width:0.264583"
       d="m 41.505838,73.979624 0.08913,-0.891321 -0.02971,-0.505081 -0.08913,-0.623925 -0.564505,-0.950743 -0.623924,-0.415949 -0.713058,-0.386239 -0.92103,-0.178263 -0.89132,0.08913 -0.623925,0.178265 -0.297108,0.326816 -0.445659,0.534795 -0.505082,0.356526 -0.356529,-0.02971 -0.386238,-0.207974 -0.178266,-0.505084 -0.237686,-0.534792 -0.237683,-0.475371 0.02971,-0.475369 -0.505082,-0.148556 -0.297108,0.148556 h -0.356526 l -0.207976,-0.475372 -0.118843,-0.267395 -0.237686,-0.267399 0.148553,-0.505082 0.326819,0.118843 0.207973,0.445662 0.02971,0.267396 0.207973,0.08913 0.8319,-0.05942 0.356529,0.207975 0.178263,0.326819 -0.05942,0.564502 0.02971,0.415949 0.297108,0.326818 0.05942,0.386239 0.178263,0.237686 0.564505,-0.415949 0.267396,-0.415951 0.297106,-0.356527 0.237685,-0.534794 0.267399,0.08913 0.89132,-0.178263 0.831898,0.08913 0.653637,0.326819 0.831898,0.326818 0.713057,0.386239 0.534792,0.653635 0.415951,0.623924 0.05942,0.742768 0.05942,0.95074 -0.207976,0.594215 h -0.356528 z"
       id="path612" /><path
       style="fill:#000000;stroke-width:0.264583"
       d="m 35.17746,65.690342 0.534791,0.415949 -0.475369,-1.039874 0.386239,-0.326818 0.713055,1.455824 0.237686,0.356529 2.287725,0.653635 1.515245,0.297106 2.258012,0.02971 0.118843,0.267396 -0.386239,0.118843 -0.148553,0.148553 -1.069586,0.05942 -2.644251,-0.326816 -1.188429,-0.505082 -0.594214,-0.148555 h -0.267396 l -0.05942,0.237686 0.237685,0.297108 -0.267395,0.207973 -0.326819,-0.297106 -0.207976,-0.742767 -0.356528,-0.445662 -0.772478,-0.386238 z"
       id="path614" /><path
       style="fill:#000000;stroke-width:0.264583"
       d="m 36.841258,70.028103 -0.267396,-0.534794 -0.08913,-0.356529 -0.05942,-0.207973 -0.118843,-0.475371 0.08913,-0.386239 0.564501,-0.445662 0.564505,0.02971 0.326818,0.267398 0.05942,0.445659 h -0.326819 l -0.207973,-0.207973 -0.326819,0.02971 -0.178263,0.148553 0.08913,0.178263 0.356529,0.178265 -0.118843,0.326816 -0.297106,0.08913 0.148553,0.445662 z"
       id="path616" /><path
       style="fill:#000000;stroke-width:0.264583"
       d="m 39.158693,69.701285 1.634087,-0.475372 0.623925,-0.267396 0.475372,-0.326818 0.89132,0.02971 1.069586,-0.08913 1.069583,-0.326819 0.564505,-0.594214 0.534792,-0.980451 0.386238,-0.950743 0.415949,-0.921031 -0.534792,-0.178265 -0.415948,0.713057 -0.386239,1.069583 -0.207976,0.594215 -0.415949,0.534794 -0.89132,0.415949 -0.891323,0.178263 -0.921031,-0.178263 -0.742767,0.118843 -0.445659,0.475372 -0.713057,0.237685 -0.891321,0.297106 -0.89132,0.415949 z"
       id="path618" /><path
       style="fill:#000000;stroke-width:0.264583"
       d="m 31.072018,45.484229 0.177443,-0.729482 0.394314,-0.630902 0.256304,-0.354886 0.492895,-0.394314 0.532326,-0.256304 h 0.295735 l -0.138009,-0.453461 -0.414031,-0.01971 -0.78863,0.433747 -0.670335,0.709766 -0.276021,0.453462 -0.295736,0.749199 -0.07886,0.571757 z"
       id="path620" /><path
       style="fill:#000000;stroke-width:0.264583"
       d="m 29.731348,46.055986 -0.03943,-0.749197 0.17744,-0.552042 0.256305,-0.394314 0.256304,-0.394314 0.3746,-0.394317 0.256304,-0.276021 0.03943,-0.433745 0.197157,-0.492894 0.295735,-0.315453 0.571757,-0.276018 0.433747,-0.03943 0.414031,-0.433744 0.808344,-0.118296 0.768916,-0.216873 0.749197,-0.09858 h 0.729483 l 0.197157,0.295736 -0.197157,0.157726 -0.828061,0.09858 -0.768914,0.09858 -0.887209,0.157724 0.216874,0.157726 0.512609,0.09858 -0.05915,0.433745 -0.51261,0.03943 -0.295735,-0.17744 -0.138012,-0.256304 -0.236588,0.256304 -0.749199,-0.01971 -0.118295,0.177443 -0.354883,0.197156 -0.03943,0.3746 0.03943,0.512609 -0.453462,0.512609 -0.374599,0.09858 -0.354883,0.571756 -0.157726,0.354883 -0.13801,0.61119 z"
       id="path622" /><path
       style="fill:#000000;stroke-width:0.264583"
       d="m 36.809301,41.186197 0.07887,0.473179 0.749196,-0.03943 -0.01971,-0.394317 z"
       id="path624" /><path
       style="fill:#000000;stroke-width:0.264583"
       d="m 38.287983,41.442502 -0.05915,0.433747 0.768913,-0.01971 -0.03943,-0.492893 z"
       id="path626" /><path
       style="fill:#000000;stroke-width:0.264583"
       d="m 31.584627,42.171985 0.157726,-0.709766 0.354886,-0.473179 0.768913,-0.197156 0.315452,-0.315453 0.177441,-0.335168 0.532325,-0.177443 0.276022,0.473178 -0.453464,0.23659 -0.473176,0.315452 -0.177443,0.13801 -0.335169,0.157726 -0.315452,0.216873 -0.157726,0.197157 -0.118292,0.276022 z"
       id="path628" /><path
       style="fill:#000000;stroke-width:0.264583"
       d="m 40.062401,42.053689 0.788628,0.354883 0.276021,-0.354883 -0.788631,-0.394313 z"
       id="path630" /><path
       style="fill:#000000;stroke-width:0.264583"
       d="m 41.442502,42.645163 0.847778,0.335166 0.138009,-0.492892 -0.828061,-0.295736 z"
       id="path632" /><path
       style="fill:#000000;stroke-width:0.264583"
       d="m 43.000046,43.25635 1.301239,-0.808344 -0.216874,-0.335169 -1.320953,0.749199 z"
       id="path634" /><path
       style="fill:#000000;stroke-width:0.264583"
       d="m 46.154567,47.120637 -0.07886,-0.473178 -0.157726,-0.709766 -0.295736,-0.315452 -0.394316,-0.591473 -0.394314,-0.611188 -0.315452,-0.276021 -0.236588,-0.354883 v -0.512609 l 0.197157,-0.611187 0.03943,-0.414031 V 41.36364 l 0.09858,-0.256307 -0.01971,-0.453461 -0.335166,-0.335167 h -0.611188 l -0.512612,-0.05915 0.138012,-0.492895 h 0.729483 l 0.414031,0.09858 0.256304,0.138012 0.236588,0.335166 0.197159,0.138012 0.07886,0.473179 v 0.473175 l -0.09858,0.394317 -0.07886,0.335166 -0.07886,0.492895 -0.09858,0.512609 0.09858,0.394316 0.236587,0.433745 0.335169,0.354883 0.335169,0.532326 0.295736,0.41403 0.394313,0.492895 0.07887,0.532326 0.157726,0.571757 -0.03943,0.354883 z"
       id="path636" /><path
       style="fill:#000000;stroke-width:0.264583"
       d="m 46.233429,45.58281 0.453461,-0.571759 0.354883,-0.650618 0.23659,-0.453462 -0.09858,-0.473178 -0.23659,-0.256304 -0.473179,-0.276022 -0.473175,-0.05915 -0.315452,-0.01971 -0.808347,-0.05915 -0.05915,0.55204 h 0.729483 l 0.650621,0.09858 0.433744,0.295735 -0.236587,0.690052 -0.532326,0.532326 z"
       id="path638" /><path
       style="fill:#000000;stroke-width:0.264583"
       d="m 45.011051,42.093123 1.301242,0.07886 0.630902,0.01971 1.16323,-0.03943 0.650621,0.01971 0.828061,-0.05915 0.808344,-0.216873 0.512609,-0.276019 0.335169,-0.23659 0.433747,-0.335167 0.453462,0.118293 -0.05915,0.414031 -0.670335,0.374599 -0.867494,0.552043 -0.630902,0.157726 -1.182947,0.01971 -2.070153,0.01971 -0.630904,0.17744 -1.084366,0.05915 -0.276021,-0.03943 z"
       id="path640" /><path
       style="fill:#000000;stroke-width:0.264583"
       d="m 51.458103,41.54108 -0.709769,-0.17744 -0.768913,-0.295738 -1.005504,-0.276018 -0.670335,-0.236591 -1.025219,-0.197157 -0.749199,-0.03943 h -1.123796 -0.315453 l -0.177442,-0.276021 0.256304,-0.276021 h 1.498399 l 1.123797,0.01971 0.847777,0.157726 0.887209,0.492893 0.591471,0.157726 0.828064,0.276021 0.571756,0.138009 0.295736,0.177443 z"
       id="path642" /><path
       style="fill:#000000;stroke-width:0.264583"
       d="m 50.314589,40.929893 1.47868,-0.07886 0.650621,-0.157727 0.650618,-0.138009 0.867495,-0.433747 0.433745,-0.473178 0.394316,-0.512609 0.236588,-0.433745 V 38.24855 l -0.01971,-0.670335 -0.216873,-0.354883 -0.19716,-0.118295 -0.532323,0.09858 -0.256304,0.276021 0.09858,0.690052 0.07886,0.532326 0.01971,0.374597 -0.07886,0.276021 -0.354883,0.394317 -0.749197,0.374597 -0.650621,0.09858 -1.143513,0.03943 -0.650621,-0.236591 -0.591471,-0.09858 -0.630904,-0.157726 -1.616692,0.09858 z"
       id="path644" /><path
       style="fill:#000000;stroke-width:0.264583"
       d="m 53.863422,37.519067 -0.611188,-0.394314 -0.41403,-0.315452 -0.709766,-0.295735 -0.571757,-0.354883 -0.492895,-0.492895 -0.41403,-0.197157 -0.55204,-0.433747 -0.552043,-0.433748 -0.118292,-0.729482 0.473178,0.453464 0.473175,0.354883 0.591474,0.433747 0.749199,0.532323 0.591471,0.315452 0.78863,0.433748 0.847778,0.354883 0.295736,0.138012 0.335168,0.335166 z"
       id="path648" /><path
       style="fill:#000000;stroke-width:0.264583"
       d="m 43.197203,39.175192 -0.473179,-0.23659 0.591474,-0.492893 0.749199,-0.07886 0.394314,-0.17744 0.315452,-0.414033 0.354883,-0.295736 0.591474,-0.256304 0.05915,-0.118295 0.492893,-0.01971 0.571756,-0.61119 0.414031,-0.433745 0.906925,-0.03943 h 0.473178 l 0.256305,0.354883 0.611187,-0.374599 0.354883,0.177442 0.394317,0.01971 -0.808347,-0.808344 -0.354883,-0.354886 -0.05915,-0.55204 -0.05915,-0.690052 -0.118293,-0.55204 -0.157726,-0.41403 -0.177443,-0.571757 -0.41403,-1.084366 -0.414031,-0.492895 -0.414031,-0.532325 -0.690051,-0.709766 -0.453462,-0.394314 -0.433747,-0.512612 -0.05915,-0.216871 0.3746,-0.157726 0.276021,0.157726 0.354883,0.453462 0.295736,0.315452 0.453464,0.532326 0.394314,0.295735 0.295735,0.3746 0.433747,0.433744 0.295736,0.630905 0.177442,0.453464 0.13801,0.453461 0.216873,0.690052 0.05915,0.492892 0.05915,0.335169 0.138009,0.3746 0.09858,0.394314 -0.03943,0.256304 0.07887,0.295736 0.374597,0.374599 0.394316,0.256305 0.315453,0.315452 0.374599,0.197157 0.315452,0.138012 0.473176,0.17744 -0.01971,0.335169 -0.354883,0.118295 -0.729482,-0.01971 -0.709769,-0.118296 -0.315452,-0.216873 -0.216871,-0.05915 -0.394316,0.236587 -0.394314,-0.03943 -0.650621,-0.09858 -0.414031,-0.09858 -0.197157,-0.05915 -0.295735,0.394314 -0.315452,0.335169 -0.236591,0.197157 -0.453461,0.07886 -0.157726,0.177443 -0.433747,0.157726 -0.571757,0.197157 v 0.295736 l -0.197157,0.374599 -0.709766,0.216874 -0.552043,-0.01971 z"
       id="path650" /><path
       style="fill:#000000;stroke-width:0.264583"
       d="m 49.01335,33.457623 -0.138012,0.670338 -0.295735,0.354883 -0.315452,0.157726 -0.05915,-0.03943 -0.05915,-0.374597 0.03943,-0.374599 v -0.394317 l -0.138012,0.01971 -0.05915,0.335168 0.01971,0.512609 -0.01971,0.276019 -0.17744,0.157726 -0.197157,-0.01971 -0.157726,-0.07887 -0.03943,-0.512609 -0.17744,-0.01971 -0.03943,-0.216874 0.216874,-0.157726 0.01971,-0.492895 -0.05915,-0.138009 -0.236588,-0.216874 0.118292,-0.276021 h 0.394317 l 0.17744,0.05915 0.23659,0.197156 0.197157,-0.03943 0.13801,-0.512609 0.157726,-0.177443 z"
       id="path652" /><path
       style="fill:#000000;stroke-width:0.264583"
       d="m 47.909268,34.581422 -0.118295,0.3746 -0.295736,0.216871 -0.394316,0.118295 -0.256305,-0.157726 -0.197157,-0.276019 -0.197157,-0.394316 -0.01971,-0.394314 -0.07886,-0.315452 -0.09858,-0.177443 -0.138012,-0.157726 0.01971,-0.453461 0.394314,-0.157726 0.453464,-0.05915 0.354883,0.05915 0.197157,0.453461 -0.512609,-0.01971 -0.197157,0.05915 -0.09858,0.197159 -0.03943,0.374597 -0.01971,0.295738 0.216873,0.09858 v 0.216873 l 0.05915,0.335167 0.453464,-0.118293 0.157726,-0.256307 z"
       id="path654" /><path
       style="fill:#000000;stroke-width:0.264583"
       d="m 48.185289,32.984445 -0.276021,-0.414031 -0.512609,-0.197157 -0.394317,-0.118295 -0.354883,0.09858 -0.276021,-0.01971 -0.197157,-0.138009 0.09858,-0.414031 0.433747,-0.01971 0.532326,-0.01971 h 0.236587 l 0.354883,0.354886 0.177443,0.197157 0.3746,0.473178 0.157726,-0.295738 -0.19716,-0.374597 -0.41403,-0.532326 -0.414031,-0.335169 -0.59147,0.01971 -0.788631,0.216874 -0.512609,0.414031 -0.05915,0.256304 0.05915,0.354883 0.276019,0.216874 0.532326,0.05915 0.630904,0.09858 z"
       id="path658" /><path
       style="fill:#000000;stroke-width:0.264583"
       d="m 47.554385,34.206823 -0.276022,0.01971 -0.157726,-0.177443 0.01971,-0.157726 0.01971,-0.157726 0.05915,-0.05915 0.07886,-0.05915 h 0.13801 0.09858 z"
       id="path660" /><path
       style="fill:#000000;stroke-width:0.264583"
       d="m 46.50945,28.666696 0.07886,-0.512609 0.07886,-0.473178 0.197157,-0.690049 0.216874,-0.335169 -0.01971,-0.709767 -0.276021,-0.374599 -0.335166,-0.118295 -0.473179,-0.13801 -0.611187,-0.13801 -0.453464,-0.157726 -0.650618,-0.09858 v 0.611188 l 0.650618,0.03943 0.3746,0.09858 0.670335,0.03943 0.374599,0.256305 0.07887,0.236589 -0.03943,0.394314 -0.03943,0.492895 -0.09858,0.650619 -0.05915,0.690052 0.433748,0.374599 z"
       id="path662" /><path
       style="fill:#000000;stroke-width:0.264583"
       d="m 46.036272,28.272382 v -0.453461 l -0.01971,-0.453464 0.236591,0.354886 0.09858,-0.276022 -0.09858,-0.512609 -0.01971,-0.670336 -0.295735,-0.03943 -0.276021,0.216873 -0.07886,0.492894 -0.07886,0.453462 -0.07886,0.177443 -0.354886,-0.414031 -0.17744,-0.19716 -0.118295,-0.394313 -0.09858,-0.51261 0.01971,-0.571757 h -0.512612 l -0.03943,0.729483 0.09858,0.433745 0.197157,0.492895 0.433747,0.512609 0.394316,0.433748 0.492893,0.374599 z"
       id="path664" /><path
       style="fill:#000000;stroke-width:0.264583"
       d="m 44.55759,25.058715 -0.177441,-0.690051 -0.177442,-0.512609 -0.216874,-0.512609 -0.197157,-0.473179 -0.473178,-0.611188 -0.276021,-0.473178 -0.177441,-0.197157 -0.07886,-0.295736 -0.05915,-0.433747 -0.256304,-0.236589 -0.295735,-0.05915 -0.276022,0.03943 0.138012,0.41403 0.05915,0.335168 0.216871,0.414031 0.3746,0.433746 0.23659,0.354884 0.256305,0.433746 0.315452,0.492894 0.07886,0.552041 0.177443,0.453462 0.157726,0.571756 0.01971,0.394315 0.394316,0.09858 z"
       id="path666" /><path
       style="fill:#000000;stroke-width:0.264583"
       d="m 42.802889,22.101353 -0.01971,0.394315 0.07887,0.335168 0.118292,0.315452 0.177443,0.532325 0.236591,0.374599 0.17744,0.414031 0.138009,0.216873 0.315452,0.354884 0.473178,0.966071 -0.276018,0.335168 -0.03943,0.670335 v 0.414031 l -0.09858,0.512609 -0.473178,0.433747 -0.946354,0.41403 -0.98579,0.51261 -0.571757,0.256304 -0.453461,0.216874 -0.394314,0.630904 -0.315452,0.532326 -0.315452,0.473178 -0.177443,0.3746 -0.157726,0.374597 -0.414031,-0.07886 -0.157726,-0.157726 0.276022,-0.354883 0.216873,-0.335169 0.17744,-0.433745 0.256305,-0.354885 0.295738,-0.571757 0.3746,-0.433745 0.532323,-0.335168 0.512611,-0.315453 0.69005,-0.256304 0.532325,-0.315452 0.571757,-0.3746 0.236591,-0.138009 0.17744,-0.3746 0.01971,-0.650618 -0.07886,-0.788631 -0.03943,-0.709767 -0.138009,-0.315452 -0.354886,-0.611188 -0.276019,-0.51261 -0.23659,-0.591472 -0.197157,-0.591472 -0.01971,-0.571757 0.01971,-0.492894 z"
       id="path668" /><path
       style="fill:#000000;stroke-width:0.264583"
       d="m 41.856532,23.560319 0.13801,0.788629 0.197159,0.926641 0.157726,0.847777 -0.05915,1.084365 -0.453464,0.335169 -0.453462,0.118295 -0.05915,0.3746 0.118295,0.295735 0.473178,-0.216874 0.78863,-0.41403 0.216874,-0.512609 -0.138012,-1.892712 -0.17744,-0.867493 -0.138012,-0.808346 -0.17744,-0.27602 z"
       id="path670" /><path
       style="fill:#000000;stroke-width:0.264583"
       d="m 39.254054,30.204526 -0.315452,0.354883 -0.17744,0.197157 -0.394317,0.01971 -0.276021,-0.138009 -0.13801,-0.276021 -0.03943,-0.3746 -0.118296,-0.453461 -0.05915,-0.630905 0.138012,-0.532325 0.295735,-0.03943 0.05915,0.690052 -0.03943,0.295735 0.01971,0.3746 0.118296,0.315452 0.138009,0.256304 0.23659,-0.177442 0.197157,-0.177441 0.315452,0.03943 z"
       id="path672" /><path
       style="fill:#000000;stroke-width:0.264583"
       d="m 38.997749,31.722639 -0.453461,-0.414031 -0.453464,-0.552042 -0.216871,-0.453462 -0.07887,-0.828061 -0.118295,-0.749199 -0.01971,-0.690049 0.05915,-0.729483 v -0.670338 l 0.256305,-0.670334 0.394314,-1.044935 0.276021,-0.650619 0.335166,-0.709767 0.276021,-0.571757 0.473179,-0.453462 0.473178,-0.335168 0.394314,-0.13801 0.591473,-0.394315 0.591473,-0.335168 0.492893,-0.27602 -0.17744,-0.453462 -0.512612,0.157726 -0.571757,0.335167 -0.433744,0.374599 -0.650621,0.197158 -0.867492,0.591472 -0.335169,0.335168 -0.256305,0.749199 -0.17744,0.492893 -0.19716,0.532325 -0.197156,0.433747 -0.236588,0.611188 -0.276022,0.690051 -0.157726,0.630905 -0.138009,0.650619 v 0.768913 l 0.01971,1.044935 0.09858,0.709769 0.177443,0.709766 0.453461,0.690051 0.3746,0.571757 0.315452,0.157726 0.512609,-0.07886 z"
       id="path674" /><path
       style="fill:#000000;stroke-width:0.264583"
       d="m 36.119249,27.562617 -0.433744,0.07886 -0.19716,-0.118295 V 26.99086 l -0.532323,0.315452 -0.492895,0.315449 -0.473178,0.492895 -0.157726,0.256305 -0.09858,0.611187 0.07887,0.611191 0.197157,0.256304 0.276018,0.335166 0.433748,0.453464 0.552042,0.335167 0.453462,0.197157 0.552039,0.295738 0.709769,0.276018 0.650618,0.157726 h 0.611188 l 0.512612,-0.07886 0.433744,0.157727 0.512609,0.197156 0.532326,0.07886 0.847778,0.07887 0.571757,0.216873 0.41403,0.09858 0.414031,0.118295 0.709766,0.315452 0.157726,0.433745 -0.256305,0.177442 -0.354883,-0.276021 -0.492892,-0.17744 -0.256307,0.05915 -0.335166,-0.07886 -0.197157,-0.256304 -0.512609,-0.03943 -0.768917,-0.09858 -0.552039,-0.138011 -0.729483,-0.13801 -0.729483,-0.05915 -0.709766,-0.05915 -0.966073,-0.197157 -0.768913,-0.414031 -0.709769,-0.394316 -0.670335,-0.394314 -0.453462,-0.453461 -0.41403,-0.591474 -0.315452,-0.473178 -0.03943,-0.78863 0.05915,-0.492892 -0.276021,-0.295738 -0.03943,-0.354883 0.473178,-0.03943 0.453462,0.01971 0.690052,-0.61119 0.571756,-0.394314 0.414031,-0.295736 0.473178,-0.157726 0.433745,-0.828062 0.177443,-0.315452 0.591473,-0.630903 0.394314,-0.571757 0.729483,-0.709767 0.492895,-0.394315 -0.177443,1.084366 -0.690052,0.670336 -0.808345,0.768914 -0.335168,0.394315 -0.236588,0.512609 -0.236591,0.55204 -0.118292,0.394316 z"
       id="path676" /><path
       style="fill:#000000;stroke-width:0.264583"
       d="m 32.13667,28.449825 0.906922,-1.02522 0.453465,-0.512609 0.611187,-0.473178 0.92664,-0.611188 0.887208,-0.453462 0.690052,-0.09858 0.867492,-0.768914 -0.709766,-0.138011 -0.808347,0.256305 -1.301239,0.690051 -1.044935,0.690051 -0.729483,0.492894 -1.044934,1.281523 -0.453462,0.78863 -0.315452,0.61119 -1.025218,1.872996 -0.197157,0.690049 -0.177443,1.202661 -0.374599,1.478682 -0.05915,1.912427 -0.07886,1.16323 0.118295,0.650618 0.473179,0.236591 1.458965,0.828061 1.222375,0.512609 1.005504,0.473178 0.532326,0.276021 1.084365,0.09858 2.26731,0.05915 h 2.050439 l 2.523614,0.03943 0.335169,-0.157726 V 40.20041 l 1.084366,0.03943 0.23659,-0.532326 -0.256307,-0.05915 -0.01971,-0.650619 -0.236591,-0.07886 -0.729482,-0.03943 0.374599,0.3746 v 0.394314 l -0.729482,0.09858 -0.177441,0.236587 -0.61119,0.118296 -5.73728,-0.118296 -1.478682,-0.01971 -1.971575,-1.143513 -2.109586,-1.064649 -0.118293,-3.2531 0.335166,-1.064649 0.276022,-1.518113 0.374599,-0.946356 0.729483,-1.360387 z"
       id="path678" /><path
       style="fill:#000000;stroke-width:0.264583"
       d="m 31.505765,29.297601 0.256305,1.222377 0.335169,0.473178 0.690049,0.532326 0.729483,0.433745 1.084365,0.473178 0.906926,0.315452 1.261808,0.256305 1.123797,0.118295 0.985787,0.118295 0.92664,0.197157 0.847778,0.256304 0.591473,0.157727 0.749197,0.295735 0.670338,0.177443 0.611187,0.05915 0.03943,-0.906925 -0.906926,0.177443 -0.433744,-0.09858 0.01971,-0.512612 -0.808344,0.05915 -1.123797,-0.05915 -0.138012,-0.236587 -1.182944,0.01971 -0.433747,-0.23659 -1.458966,-0.13801 -1.242091,-0.335168 -0.966071,-0.256305 -0.887209,-0.394314 -0.749199,-0.354885 -0.453461,-0.453462 -0.335169,-0.611187 -0.01971,-0.670335 -0.05915,-0.611188 -0.07887,-0.552042 z"
       id="path680" /><path
       style="fill:#000000;stroke-width:0.264583"
       d="m 31.959227,38.879454 1.064651,0.138012 1.340671,0.07886 1.7547,0.23659 1.91243,0.03943 1.932141,0.157726 1.675839,0.05915 1.34067,-0.03943 0.05915,-0.808344 v -1.084366 l -0.01971,-1.518113 0.17744,-1.104082 0.01971,-0.887209 -0.512609,0.03943 -0.05915,0.828061 -0.07886,0.729483 -0.03943,1.20266 -0.118295,0.985788 -0.01971,0.729482 v 0.19716 l -0.690052,0.09858 h -0.256304 l -0.01971,-1.104082 -0.01971,-0.985787 v -0.768914 l 0.01971,-0.749199 0.03943,-0.690052 0.03943,-0.828061 -0.414031,-0.157726 -0.256304,0.374599 -0.03943,0.867492 v 0.709769 0.571757 0.118292 l -0.03943,0.887209 0.01971,0.98579 0.03943,0.768913 -1.242092,-0.05915 -1.104083,-0.118295 -0.276018,-0.13801 0.118292,-0.709768 -0.01971,-0.690049 0.01971,-0.552043 0.768914,0.03943 0.847778,0.09858 0.512609,0.03943 h 0.512612 v -0.729483 h -0.808347 l -0.887209,-0.157726 -0.92664,0.05915 -0.492895,0.138009 -0.197157,0.611187 v 1.202661 l -0.07886,0.650621 -1.064652,0.01971 -0.729483,-0.05915 0.118296,-0.650621 0.138009,-0.591474 -0.09858,-0.492892 -1.025218,-0.216874 h -0.78863 -0.414031 l -0.07886,0.453462 0.315452,0.157726 0.828061,-0.05915 0.335169,0.05915 0.216874,0.138012 0.03943,0.512609 -0.13801,0.394314 -0.03943,0.216873 -1.557544,-0.177442 -0.335166,0.01971 0.197157,-0.512609 V 37.282463 36.612128 H 33.1619 l -0.315452,0.157726 -0.01971,0.650619 -0.01971,0.61119 -0.03943,0.315449 h -0.335169 l 0.03943,-0.670335 v -0.512609 l 0.177443,-0.295735 -0.03943,-0.473178 h -0.335169 l -0.216874,0.157726 v 0.433747 l -0.05915,0.630902 -0.01971,0.571759 -1.57726,-0.03943 z"
       id="path682" /></g></svg>
