999
"DXF R12 Output" (www.mydxf.blogspot.com)
 0 
SECTION
 2 
HEADER
 9 
$ACADVER
 1 
AC1009
 9 
$EXTMIN
 10 
 0 
 20 
 0 
 9 
$EXTMAX
 10 
 8.5 
 20 
 11 
 0 
ENDSEC
 0 
SECTION
 2 
ENTITIES
0
LINE
8
Lager 1
10
39.900600
20
243.643000
11
37.866450
21
248.180720
0
LINE
8
Lager 1
10
37.866450
20
248.180720
11
37.553504
21
250.840760
0
LINE
8
Lager 1
10
37.553504
20
250.840760
11
38.961764
21
252.561960
0
LINE
8
Lager 1
10
38.961764
20
252.561960
11
42.404200
21
252.562000
0
LINE
8
Lager 1
10
42.404200
20
252.562000
11
45.533660
21
252.405528
0
LINE
8
Lager 1
10
45.533660
20
252.405528
11
44.907767
21
250.527848
0
LINE
8
Lager 1
10
44.907767
20
250.527848
11
44.281874
21
248.024278
0
LINE
8
Lager 1
10
44.281874
20
248.024278
11
41.778304
21
249.276058
0
LINE
8
Lager 1
10
41.778304
20
249.276058
11
42.873614
21
244.738338
0
LINE
8
Lager 1
10
42.873614
20
244.738338
11
44.125394
21
241.139458
0
LINE
8
Lager 1
10
44.125394
20
241.139458
11
39.431204
21
236.445268
0
LINE
8
Lager 1
10
39.431204
20
236.445268
11
40.839464
21
241.295928
0
LINE
8
Lager 1
10
40.839464
20
241.295928
11
39.900600
21
243.643000
0
LINE
8
Lager 1
10
53.465600
20
243.638000
11
55.499750
21
248.175720
0
LINE
8
Lager 1
10
55.499750
20
248.175720
11
55.812696
21
250.835760
0
LINE
8
Lager 1
10
55.812696
20
250.835760
11
54.404436
21
252.556960
0
LINE
8
Lager 1
10
54.404436
20
252.556960
11
50.962000
21
252.557000
0
LINE
8
Lager 1
10
50.962000
20
252.557000
11
47.832540
21
252.400528
0
LINE
8
Lager 1
10
47.832540
20
252.400528
11
48.458433
21
250.522848
0
LINE
8
Lager 1
10
48.458433
20
250.522848
11
49.084326
21
248.019278
0
LINE
8
Lager 1
10
49.084326
20
248.019278
11
51.587896
21
249.271058
0
LINE
8
Lager 1
10
51.587896
20
249.271058
11
50.492586
21
244.733338
0
LINE
8
Lager 1
10
50.492586
20
244.733338
11
49.240806
21
241.134458
0
LINE
8
Lager 1
10
49.240806
20
241.134458
11
53.934996
21
236.440268
0
LINE
8
Lager 1
10
53.934996
20
236.440268
11
52.526736
21
241.290928
0
LINE
8
Lager 1
10
52.526736
20
241.290928
11
53.465600
21
243.638000
0
LINE
8
Lager 1
10
44.490500
20
245.223000
11
43.177960
21
246.897620
0
LINE
8
Lager 1
10
43.177960
20
246.897620
11
43.992641
21
246.942880
0
LINE
8
Lager 1
10
43.992641
20
246.942880
11
44.490500
21
245.223000
0
LINE
8
Lager 1
10
47.387100
20
245.585000
11
48.971200
21
247.304880
0
LINE
8
Lager 1
10
48.971200
20
247.304880
11
48.971200
21
246.445000
0
LINE
8
Lager 1
10
48.971200
20
246.445000
11
47.387100
21
245.585000
0
LINE
8
Lager 1
10
44.897900
20
243.412000
11
45.486277
21
241.646860
0
LINE
8
Lager 1
10
45.486277
20
241.646860
11
47.477717
21
241.375302
0
LINE
8
Lager 1
10
47.477717
20
241.375302
11
48.699737
21
244.271932
0
LINE
8
Lager 1
10
48.699737
20
244.271932
11
46.798817
21
242.461542
0
LINE
8
Lager 1
10
46.798817
20
242.461542
11
45.893600
21
242.462000
0
LINE
8
Lager 1
10
45.893600
20
242.462000
11
44.897900
21
243.412000
 0 
ENDSEC
 0 
EOF