%TF.GenerationSoftware,KiCad,Pcbnew,(6.0.4-0)*%
%TF.CreationDate,2022-07-27T23:48:03+02:00*%
%TF.ProjectId,ergosmash,6572676f-736d-4617-9368-2e6b69636164,rev?*%
%TF.SameCoordinates,Original*%
%TF.FileFunction,Legend,Top*%
%TF.FilePolarity,Positive*%
%FSLAX46Y46*%
G04 Gerber Fmt 4.6, Leading zero omitted, Abs format (unit mm)*
G04 Created by KiCad (PCBNEW (6.0.4-0)) date 2022-07-27 23:48:03*
%MOMM*%
%LPD*%
G01*
G04 APERTURE LIST*
%ADD10C,0.200000*%
%ADD11C,0.101600*%
%ADD12C,0.076200*%
%ADD13C,0.150000*%
%ADD14C,0.066040*%
%ADD15C,0.127000*%
%ADD16C,0.254000*%
%ADD17C,0.120000*%
G04 APERTURE END LIST*
D10*
G36*
X69455021Y-105747199D02*
G01*
X69593033Y-106555544D01*
X69770474Y-107423037D01*
X69908486Y-109315749D01*
X69691613Y-109828358D01*
X68902981Y-110242388D01*
X68429802Y-110459262D01*
X68311509Y-110163527D01*
X68370659Y-109788928D01*
X68824120Y-109670632D01*
X69277585Y-109335463D01*
X69336735Y-108251097D01*
X69179009Y-107403321D01*
X68981850Y-106476679D01*
X68843842Y-105688050D01*
X69277581Y-105471179D01*
X69455021Y-105747199D01*
G37*
X69455021Y-105747199D02*
X69593033Y-106555544D01*
X69770474Y-107423037D01*
X69908486Y-109315749D01*
X69691613Y-109828358D01*
X68902981Y-110242388D01*
X68429802Y-110459262D01*
X68311509Y-110163527D01*
X68370659Y-109788928D01*
X68824120Y-109670632D01*
X69277585Y-109335463D01*
X69336735Y-108251097D01*
X69179009Y-107403321D01*
X68981850Y-106476679D01*
X68843842Y-105688050D01*
X69277581Y-105471179D01*
X69455021Y-105747199D01*
G36*
X65216145Y-111149308D02*
G01*
X65176716Y-111445042D01*
X65196427Y-111819642D01*
X65314724Y-112135094D01*
X65452733Y-112391398D01*
X65689324Y-112213955D01*
X65886483Y-112036515D01*
X66201935Y-112075945D01*
X66241364Y-112332257D01*
X65925911Y-112687140D01*
X65748471Y-112884297D01*
X65354153Y-112904008D01*
X65078133Y-112765999D01*
X64940125Y-112489977D01*
X64900696Y-112115378D01*
X64791265Y-111695904D01*
X64782395Y-111602774D01*
X64768754Y-111516381D01*
X64723248Y-111031012D01*
X64861260Y-110498686D01*
X65156994Y-110459256D01*
X65216145Y-111149308D01*
G37*
X65216145Y-111149308D02*
X65176716Y-111445042D01*
X65196427Y-111819642D01*
X65314724Y-112135094D01*
X65452733Y-112391398D01*
X65689324Y-112213955D01*
X65886483Y-112036515D01*
X66201935Y-112075945D01*
X66241364Y-112332257D01*
X65925911Y-112687140D01*
X65748471Y-112884297D01*
X65354153Y-112904008D01*
X65078133Y-112765999D01*
X64940125Y-112489977D01*
X64900696Y-112115378D01*
X64791265Y-111695904D01*
X64782395Y-111602774D01*
X64768754Y-111516381D01*
X64723248Y-111031012D01*
X64861260Y-110498686D01*
X65156994Y-110459256D01*
X65216145Y-111149308D01*
G36*
X74403676Y-115881091D02*
G01*
X74186802Y-116038817D01*
X74226231Y-116255690D01*
X74403672Y-116275401D01*
X74408951Y-116344031D01*
X74265671Y-116354262D01*
X74107945Y-116176817D01*
X74147366Y-115861365D01*
X74206517Y-115802214D01*
X74285378Y-115743064D01*
X74409195Y-115743064D01*
X74403676Y-115881091D01*
G37*
X74403676Y-115881091D02*
X74186802Y-116038817D01*
X74226231Y-116255690D01*
X74403672Y-116275401D01*
X74408951Y-116344031D01*
X74265671Y-116354262D01*
X74107945Y-116176817D01*
X74147366Y-115861365D01*
X74206517Y-115802214D01*
X74285378Y-115743064D01*
X74409195Y-115743064D01*
X74403676Y-115881091D01*
G36*
X73339036Y-115881083D02*
G01*
X73240456Y-115703639D01*
X73102444Y-115545912D01*
X73122155Y-115092452D01*
X73269993Y-115033316D01*
X74127648Y-115033316D01*
X74364235Y-115250189D01*
X74421729Y-115384332D01*
X74521973Y-115388186D01*
X74365012Y-115027178D01*
X74140409Y-115003540D01*
X74127648Y-115033316D01*
X73269993Y-115033316D01*
X73516469Y-114934725D01*
X73600198Y-114923804D01*
X74048806Y-114993899D01*
X74140409Y-115003540D01*
X74180229Y-114910626D01*
X74324814Y-114934725D01*
X74365012Y-115027178D01*
X75172596Y-115112174D01*
X75100696Y-115004322D01*
X75054291Y-115013602D01*
X74817700Y-114816447D01*
X74640259Y-114757296D01*
X74245942Y-114757296D01*
X74180229Y-114910626D01*
X73969933Y-114875575D01*
X73600198Y-114923804D01*
X73417901Y-114895320D01*
X72885575Y-114836169D01*
X72609555Y-114619296D01*
X72560261Y-114323550D01*
X73161591Y-114323550D01*
X73358750Y-114461558D01*
X73634770Y-114481269D01*
X73989651Y-114382689D01*
X74383969Y-114500983D01*
X74896576Y-114698142D01*
X75100696Y-115004322D01*
X75251450Y-114974173D01*
X75297314Y-114803819D01*
X75369755Y-114895323D01*
X75527482Y-114599585D01*
X75430523Y-114415367D01*
X75389458Y-114461566D01*
X75297314Y-114803819D01*
X74995156Y-114422145D01*
X74817711Y-114224986D01*
X74462830Y-113870099D01*
X74226243Y-113870099D01*
X73693917Y-113889809D01*
X73260171Y-113909520D01*
X73161591Y-114323550D01*
X72560261Y-114323550D01*
X72550404Y-114264414D01*
X72609555Y-114008109D01*
X73122162Y-113594079D01*
X73910794Y-113377205D01*
X74502263Y-113357495D01*
X74916295Y-113692664D01*
X75330323Y-114224990D01*
X75430523Y-114415367D01*
X75498544Y-114338842D01*
X75507760Y-114362979D01*
X75685204Y-114934737D01*
X75842930Y-115348765D01*
X75948214Y-115840091D01*
X75862649Y-116255690D01*
X75566914Y-116610571D01*
X75251462Y-116768298D01*
X75192311Y-116728869D01*
X75133160Y-116354273D01*
X75172589Y-115979674D01*
X75172589Y-115585356D01*
X75034577Y-115605067D01*
X74975426Y-115940234D01*
X74995137Y-116452841D01*
X74975426Y-116728861D01*
X74857152Y-116833995D01*
X74778283Y-117083750D01*
X74482548Y-117300620D01*
X74088231Y-117418913D01*
X73831925Y-117261187D01*
X73634766Y-116985167D01*
X73437607Y-116590850D01*
X73422825Y-116295119D01*
X73654488Y-116295119D01*
X73871361Y-116393698D01*
X73871361Y-116610571D01*
X73930512Y-116945738D01*
X74383976Y-116827445D01*
X74439228Y-116737661D01*
X74443100Y-116788008D01*
X74600827Y-116866877D01*
X74797986Y-116886588D01*
X74857152Y-116833995D01*
X74896576Y-116709151D01*
X74541703Y-116571139D01*
X74439228Y-116737661D01*
X74408951Y-116344031D01*
X74541695Y-116334551D01*
X74521966Y-115743064D01*
X74409195Y-115743064D01*
X74423386Y-115388198D01*
X74421729Y-115384332D01*
X74009366Y-115368476D01*
X73812207Y-115427626D01*
X73713627Y-115624785D01*
X73674199Y-115999381D01*
X73654488Y-116295119D01*
X73422825Y-116295119D01*
X73417897Y-116196536D01*
X73339036Y-115881083D01*
G37*
X73339036Y-115881083D02*
X73240456Y-115703639D01*
X73102444Y-115545912D01*
X73122155Y-115092452D01*
X73269993Y-115033316D01*
X74127648Y-115033316D01*
X74364235Y-115250189D01*
X74421729Y-115384332D01*
X74521973Y-115388186D01*
X74365012Y-115027178D01*
X74140409Y-115003540D01*
X74127648Y-115033316D01*
X73269993Y-115033316D01*
X73516469Y-114934725D01*
X73600198Y-114923804D01*
X74048806Y-114993899D01*
X74140409Y-115003540D01*
X74180229Y-114910626D01*
X74324814Y-114934725D01*
X74365012Y-115027178D01*
X75172596Y-115112174D01*
X75100696Y-115004322D01*
X75054291Y-115013602D01*
X74817700Y-114816447D01*
X74640259Y-114757296D01*
X74245942Y-114757296D01*
X74180229Y-114910626D01*
X73969933Y-114875575D01*
X73600198Y-114923804D01*
X73417901Y-114895320D01*
X72885575Y-114836169D01*
X72609555Y-114619296D01*
X72560261Y-114323550D01*
X73161591Y-114323550D01*
X73358750Y-114461558D01*
X73634770Y-114481269D01*
X73989651Y-114382689D01*
X74383969Y-114500983D01*
X74896576Y-114698142D01*
X75100696Y-115004322D01*
X75251450Y-114974173D01*
X75297314Y-114803819D01*
X75369755Y-114895323D01*
X75527482Y-114599585D01*
X75430523Y-114415367D01*
X75389458Y-114461566D01*
X75297314Y-114803819D01*
X74995156Y-114422145D01*
X74817711Y-114224986D01*
X74462830Y-113870099D01*
X74226243Y-113870099D01*
X73693917Y-113889809D01*
X73260171Y-113909520D01*
X73161591Y-114323550D01*
X72560261Y-114323550D01*
X72550404Y-114264414D01*
X72609555Y-114008109D01*
X73122162Y-113594079D01*
X73910794Y-113377205D01*
X74502263Y-113357495D01*
X74916295Y-113692664D01*
X75330323Y-114224990D01*
X75430523Y-114415367D01*
X75498544Y-114338842D01*
X75507760Y-114362979D01*
X75685204Y-114934737D01*
X75842930Y-115348765D01*
X75948214Y-115840091D01*
X75862649Y-116255690D01*
X75566914Y-116610571D01*
X75251462Y-116768298D01*
X75192311Y-116728869D01*
X75133160Y-116354273D01*
X75172589Y-115979674D01*
X75172589Y-115585356D01*
X75034577Y-115605067D01*
X74975426Y-115940234D01*
X74995137Y-116452841D01*
X74975426Y-116728861D01*
X74857152Y-116833995D01*
X74778283Y-117083750D01*
X74482548Y-117300620D01*
X74088231Y-117418913D01*
X73831925Y-117261187D01*
X73634766Y-116985167D01*
X73437607Y-116590850D01*
X73422825Y-116295119D01*
X73654488Y-116295119D01*
X73871361Y-116393698D01*
X73871361Y-116610571D01*
X73930512Y-116945738D01*
X74383976Y-116827445D01*
X74439228Y-116737661D01*
X74443100Y-116788008D01*
X74600827Y-116866877D01*
X74797986Y-116886588D01*
X74857152Y-116833995D01*
X74896576Y-116709151D01*
X74541703Y-116571139D01*
X74439228Y-116737661D01*
X74408951Y-116344031D01*
X74541695Y-116334551D01*
X74521966Y-115743064D01*
X74409195Y-115743064D01*
X74423386Y-115388198D01*
X74421729Y-115384332D01*
X74009366Y-115368476D01*
X73812207Y-115427626D01*
X73713627Y-115624785D01*
X73674199Y-115999381D01*
X73654488Y-116295119D01*
X73422825Y-116295119D01*
X73417897Y-116196536D01*
X73339036Y-115881083D01*
G36*
X64604962Y-123353358D02*
G01*
X64624672Y-123747676D01*
X63875477Y-123787104D01*
X63796608Y-123313925D01*
X64604962Y-123353358D01*
G37*
X64604962Y-123353358D02*
X64624672Y-123747676D01*
X63875477Y-123787104D01*
X63796608Y-123313925D01*
X64604962Y-123353358D01*
G36*
X65985055Y-123984267D02*
G01*
X65216141Y-124003977D01*
X65275292Y-123570231D01*
X65945626Y-123491374D01*
X65985055Y-123984267D01*
G37*
X65985055Y-123984267D02*
X65216141Y-124003977D01*
X65275292Y-123570231D01*
X65945626Y-123491374D01*
X65985055Y-123984267D01*
G36*
X68114357Y-124181418D02*
G01*
X67838337Y-124536299D01*
X67049710Y-124181418D01*
X67325726Y-123787104D01*
X68114357Y-124181418D01*
G37*
X68114357Y-124181418D02*
X67838337Y-124536299D01*
X67049710Y-124181418D01*
X67325726Y-123787104D01*
X68114357Y-124181418D01*
G36*
X69415597Y-124615168D02*
G01*
X69277588Y-125108061D01*
X68429810Y-124772894D01*
X68587536Y-124319434D01*
X69415597Y-124615168D01*
G37*
X69415597Y-124615168D02*
X69277588Y-125108061D01*
X68429810Y-124772894D01*
X68587536Y-124319434D01*
X69415597Y-124615168D01*
G36*
X71288594Y-124575736D02*
G01*
X69987355Y-125384082D01*
X69750767Y-124989764D01*
X71071721Y-124240565D01*
X71288594Y-124575736D01*
G37*
X71288594Y-124575736D02*
X69987355Y-125384082D01*
X69750767Y-124989764D01*
X71071721Y-124240565D01*
X71288594Y-124575736D01*
G36*
X67065648Y-126951930D02*
G01*
X67105866Y-127635653D01*
X67327073Y-128882449D01*
X67407513Y-129867816D01*
X66502583Y-129928145D01*
X65865015Y-130255104D01*
X65838975Y-130249896D01*
X65576074Y-129969470D01*
X66060174Y-129606394D01*
X66723790Y-129445521D01*
X66643349Y-128721575D01*
X66482472Y-127736205D01*
X66381924Y-127052481D01*
X66482472Y-126730727D01*
X66764004Y-126650286D01*
X67065648Y-126951930D01*
G37*
X67065648Y-126951930D02*
X67105866Y-127635653D01*
X67327073Y-128882449D01*
X67407513Y-129867816D01*
X66502583Y-129928145D01*
X65865015Y-130255104D01*
X65838975Y-130249896D01*
X65576074Y-129969470D01*
X66060174Y-129606394D01*
X66723790Y-129445521D01*
X66643349Y-128721575D01*
X66482472Y-127736205D01*
X66381924Y-127052481D01*
X66482472Y-126730727D01*
X66764004Y-126650286D01*
X67065648Y-126951930D01*
G36*
X59464245Y-128761790D02*
G01*
X59202820Y-129063433D01*
X58820736Y-129063433D01*
X58800627Y-128741679D01*
X59222928Y-128580805D01*
X59464245Y-128761790D01*
G37*
X59464245Y-128761790D02*
X59202820Y-129063433D01*
X58820736Y-129063433D01*
X58800627Y-128741679D01*
X59222928Y-128580805D01*
X59464245Y-128761790D01*
G36*
X58679970Y-129003104D02*
G01*
X58539200Y-129244418D01*
X58096793Y-129324858D01*
X58036463Y-128902556D01*
X58438654Y-128822116D01*
X58679970Y-129003104D01*
G37*
X58679970Y-129003104D02*
X58539200Y-129244418D01*
X58096793Y-129324858D01*
X58036463Y-128902556D01*
X58438654Y-128822116D01*
X58679970Y-129003104D01*
G36*
X57594056Y-130068911D02*
G01*
X56709233Y-130692305D01*
X56447810Y-130471099D01*
X57413067Y-129706938D01*
X57594056Y-130068911D01*
G37*
X57594056Y-130068911D02*
X56709233Y-130692305D01*
X56447810Y-130471099D01*
X57413067Y-129706938D01*
X57594056Y-130068911D01*
G36*
X72880181Y-133952448D02*
G01*
X72638444Y-134045428D01*
X72694233Y-134212782D01*
X72935971Y-134268572D01*
X72861577Y-134677661D01*
X72266533Y-134603282D01*
X72359513Y-133785094D01*
X72787201Y-133580546D01*
X72880181Y-133952448D01*
G37*
X72880181Y-133952448D02*
X72638444Y-134045428D01*
X72694233Y-134212782D01*
X72935971Y-134268572D01*
X72861577Y-134677661D01*
X72266533Y-134603282D01*
X72359513Y-133785094D01*
X72787201Y-133580546D01*
X72880181Y-133952448D01*
G36*
X72805790Y-135979323D02*
G01*
X72322316Y-135960723D01*
X72378106Y-135365679D01*
X72842984Y-135347079D01*
X72805790Y-135979323D01*
G37*
X72805790Y-135979323D02*
X72322316Y-135960723D01*
X72378106Y-135365679D01*
X72842984Y-135347079D01*
X72805790Y-135979323D01*
G36*
X72657029Y-136444205D02*
G01*
X72638428Y-136946272D01*
X72508263Y-137262393D01*
X72192151Y-137002055D01*
X72322316Y-136425604D01*
X72657029Y-136444205D01*
G37*
X72657029Y-136444205D02*
X72638428Y-136946272D01*
X72508263Y-137262393D01*
X72192151Y-137002055D01*
X72322316Y-136425604D01*
X72657029Y-136444205D01*
G36*
X88016625Y-133078475D02*
G01*
X88035225Y-133338805D01*
X87793488Y-133617736D01*
X87179848Y-133822283D01*
X86677781Y-133896662D01*
X86250092Y-134212779D01*
X85692238Y-134659064D01*
X85431901Y-134733447D01*
X85245949Y-134659068D01*
X85227349Y-134380141D01*
X85376111Y-134175593D01*
X85599251Y-133896662D01*
X86008347Y-133580546D01*
X86621987Y-133245833D01*
X87402985Y-132985503D01*
X87737698Y-132929713D01*
X88016625Y-133078475D01*
G37*
X88016625Y-133078475D02*
X88035225Y-133338805D01*
X87793488Y-133617736D01*
X87179848Y-133822283D01*
X86677781Y-133896662D01*
X86250092Y-134212779D01*
X85692238Y-134659064D01*
X85431901Y-134733447D01*
X85245949Y-134659068D01*
X85227349Y-134380141D01*
X85376111Y-134175593D01*
X85599251Y-133896662D01*
X86008347Y-133580546D01*
X86621987Y-133245833D01*
X87402985Y-132985503D01*
X87737698Y-132929713D01*
X88016625Y-133078475D01*
G36*
X84371983Y-135012362D02*
G01*
X84799672Y-135086741D01*
X84743882Y-135328478D01*
X84706692Y-135681788D01*
X84446362Y-135737578D01*
X84130242Y-135402869D01*
X83795529Y-135440058D01*
X83795529Y-135756175D01*
X83758339Y-136072295D01*
X83609578Y-136351222D01*
X83144700Y-136518580D01*
X82921555Y-136239638D01*
X82977345Y-135942114D01*
X83144703Y-135625998D01*
X83349251Y-135179713D01*
X83646775Y-134882189D01*
X84074463Y-134826411D01*
X84371983Y-135012362D01*
G37*
X84371983Y-135012362D02*
X84799672Y-135086741D01*
X84743882Y-135328478D01*
X84706692Y-135681788D01*
X84446362Y-135737578D01*
X84130242Y-135402869D01*
X83795529Y-135440058D01*
X83795529Y-135756175D01*
X83758339Y-136072295D01*
X83609578Y-136351222D01*
X83144700Y-136518580D01*
X82921555Y-136239638D01*
X82977345Y-135942114D01*
X83144703Y-135625998D01*
X83349251Y-135179713D01*
X83646775Y-134882189D01*
X84074463Y-134826411D01*
X84371983Y-135012362D01*
G36*
X59987095Y-138313841D02*
G01*
X59829364Y-138308493D01*
X59806107Y-138273608D01*
X59882925Y-138153580D01*
X59987095Y-138313841D01*
G37*
X59987095Y-138313841D02*
X59829364Y-138308493D01*
X59806107Y-138273608D01*
X59882925Y-138153580D01*
X59987095Y-138313841D01*
G36*
X66353268Y-138526858D02*
G01*
X65999959Y-138749999D01*
X65906987Y-137931811D01*
X66223099Y-137745860D01*
X66353268Y-138526858D01*
G37*
X66353268Y-138526858D02*
X65999959Y-138749999D01*
X65906987Y-137931811D01*
X66223099Y-137745860D01*
X66353268Y-138526858D01*
G36*
X64793274Y-137730651D02*
G01*
X63526375Y-138957335D01*
X62822541Y-138072516D01*
X64009003Y-136946379D01*
X64793274Y-137730651D01*
G37*
X64793274Y-137730651D02*
X63526375Y-138957335D01*
X62822541Y-138072516D01*
X64009003Y-136946379D01*
X64793274Y-137730651D01*
G36*
X70555783Y-141055796D02*
G01*
X70462811Y-141409106D01*
X70146683Y-141743823D01*
X69849160Y-141688033D01*
X69867760Y-141223155D01*
X70314045Y-140795466D01*
X70555783Y-141055796D01*
G37*
X70555783Y-141055796D02*
X70462811Y-141409106D01*
X70146683Y-141743823D01*
X69849160Y-141688033D01*
X69867760Y-141223155D01*
X70314045Y-140795466D01*
X70555783Y-141055796D01*
G36*
X84761261Y-142335242D02*
G01*
X84378366Y-142310800D01*
X84373856Y-142292197D01*
X84761261Y-142335242D01*
G37*
X84761261Y-142335242D02*
X84378366Y-142310800D01*
X84373856Y-142292197D01*
X84761261Y-142335242D01*
G36*
X84818265Y-142338881D02*
G01*
X84818707Y-142341625D01*
X84761261Y-142335242D01*
X84818265Y-142338881D01*
G37*
X84818265Y-142338881D02*
X84818707Y-142341625D01*
X84761261Y-142335242D01*
X84818265Y-142338881D01*
G36*
X70165276Y-142617797D02*
G01*
X69849164Y-142562010D01*
X69830563Y-142134322D01*
X70295445Y-142134322D01*
X70165276Y-142617797D01*
G37*
X70165276Y-142617797D02*
X69849164Y-142562010D01*
X69830563Y-142134322D01*
X70295445Y-142134322D01*
X70165276Y-142617797D01*
G36*
X84674431Y-142903276D02*
G01*
X84517235Y-142883628D01*
X84504363Y-142830530D01*
X84613720Y-142822329D01*
X84674431Y-142903276D01*
G37*
X84674431Y-142903276D02*
X84517235Y-142883628D01*
X84504363Y-142830530D01*
X84613720Y-142822329D01*
X84674431Y-142903276D01*
G36*
X69904950Y-142859530D02*
G01*
X69849160Y-143175650D01*
X69402878Y-143101264D01*
X69458668Y-142766551D01*
X69904950Y-142859530D01*
G37*
X69904950Y-142859530D02*
X69849160Y-143175650D01*
X69402878Y-143101264D01*
X69458668Y-142766551D01*
X69904950Y-142859530D01*
G36*
X69570233Y-143975241D02*
G01*
X69384282Y-144235571D01*
X68863617Y-144086810D01*
X69105355Y-143621932D01*
X69570233Y-143975241D01*
G37*
X69570233Y-143975241D02*
X69384282Y-144235571D01*
X68863617Y-144086810D01*
X69105355Y-143621932D01*
X69570233Y-143975241D01*
G36*
X69291306Y-144626071D02*
G01*
X69216927Y-145035166D01*
X68510312Y-144886405D01*
X68826428Y-144384337D01*
X69291306Y-144626071D01*
G37*
X69291306Y-144626071D02*
X69216927Y-145035166D01*
X68510312Y-144886405D01*
X68826428Y-144384337D01*
X69291306Y-144626071D01*
G36*
X85301743Y-144570269D02*
G01*
X85590927Y-145097603D01*
X85208760Y-145109549D01*
X85004212Y-144979384D01*
X84781071Y-144533099D01*
X84892643Y-144272769D01*
X85011645Y-144179267D01*
X85301743Y-144570269D01*
G37*
X85301743Y-144570269D02*
X85590927Y-145097603D01*
X85208760Y-145109549D01*
X85004212Y-144979384D01*
X84781071Y-144533099D01*
X84892643Y-144272769D01*
X85011645Y-144179267D01*
X85301743Y-144570269D01*
G36*
X88315663Y-152491065D02*
G01*
X88619870Y-152688796D01*
X88802395Y-152901740D01*
X88893654Y-153266791D01*
X88802395Y-153510153D01*
X88711136Y-153753516D01*
X88543820Y-153844779D01*
X88193982Y-153951255D01*
X87965825Y-153966468D01*
X87722451Y-153905631D01*
X87479084Y-153723105D01*
X87357403Y-153418898D01*
X87342194Y-153053847D01*
X87494298Y-152704009D01*
X87707245Y-152536696D01*
X87996243Y-152460646D01*
X88315663Y-152491065D01*
G37*
X88315663Y-152491065D02*
X88619870Y-152688796D01*
X88802395Y-152901740D01*
X88893654Y-153266791D01*
X88802395Y-153510153D01*
X88711136Y-153753516D01*
X88543820Y-153844779D01*
X88193982Y-153951255D01*
X87965825Y-153966468D01*
X87722451Y-153905631D01*
X87479084Y-153723105D01*
X87357403Y-153418898D01*
X87342194Y-153053847D01*
X87494298Y-152704009D01*
X87707245Y-152536696D01*
X87996243Y-152460646D01*
X88315663Y-152491065D01*
G36*
X87676823Y-152278113D02*
G01*
X87387826Y-152551901D01*
X87159668Y-152856108D01*
X87114037Y-153053847D01*
X87144455Y-153327635D01*
X87220505Y-153692687D01*
X87357400Y-153936049D01*
X87539925Y-154057730D01*
X87798501Y-154118567D01*
X88102711Y-154133780D01*
X88406918Y-154133780D01*
X88680707Y-154240248D01*
X88756756Y-154514037D01*
X88574231Y-154742194D01*
X88270024Y-155061614D01*
X88072289Y-155152876D01*
X87920186Y-155472296D01*
X87737660Y-155746085D01*
X87494294Y-156065505D01*
X87250927Y-156095923D01*
X87129246Y-155974242D01*
X87098828Y-155776511D01*
X87159668Y-155609198D01*
X87266144Y-155396254D01*
X87463879Y-155000784D01*
X87676823Y-154818259D01*
X87920189Y-154574896D01*
X87433457Y-154514060D01*
X87098828Y-154316329D01*
X86901089Y-154012122D01*
X86764195Y-153844809D01*
X86657723Y-153297232D01*
X86733773Y-152916976D01*
X86916298Y-152597556D01*
X87174874Y-152293349D01*
X87357400Y-152171668D01*
X87600766Y-152110831D01*
X87676823Y-152278113D01*
G37*
X87676823Y-152278113D02*
X87387826Y-152551901D01*
X87159668Y-152856108D01*
X87114037Y-153053847D01*
X87144455Y-153327635D01*
X87220505Y-153692687D01*
X87357400Y-153936049D01*
X87539925Y-154057730D01*
X87798501Y-154118567D01*
X88102711Y-154133780D01*
X88406918Y-154133780D01*
X88680707Y-154240248D01*
X88756756Y-154514037D01*
X88574231Y-154742194D01*
X88270024Y-155061614D01*
X88072289Y-155152876D01*
X87920186Y-155472296D01*
X87737660Y-155746085D01*
X87494294Y-156065505D01*
X87250927Y-156095923D01*
X87129246Y-155974242D01*
X87098828Y-155776511D01*
X87159668Y-155609198D01*
X87266144Y-155396254D01*
X87463879Y-155000784D01*
X87676823Y-154818259D01*
X87920189Y-154574896D01*
X87433457Y-154514060D01*
X87098828Y-154316329D01*
X86901089Y-154012122D01*
X86764195Y-153844809D01*
X86657723Y-153297232D01*
X86733773Y-152916976D01*
X86916298Y-152597556D01*
X87174874Y-152293349D01*
X87357400Y-152171668D01*
X87600766Y-152110831D01*
X87676823Y-152278113D01*
G36*
X81712872Y-133375998D02*
G01*
X82121964Y-132855334D01*
X82475274Y-132650786D01*
X83070317Y-132650786D01*
X83460816Y-132818144D01*
X83609574Y-133078475D01*
X83739743Y-133283023D01*
X84093052Y-133283023D01*
X84446362Y-132836741D01*
X84911240Y-132446242D01*
X85152977Y-132092932D01*
X85655049Y-131832602D01*
X86380257Y-131814002D01*
X86212899Y-131256148D01*
X85952569Y-131107386D01*
X85766617Y-130400771D01*
X85915379Y-130028868D01*
X86250092Y-129675559D01*
X86417447Y-129322249D01*
X86956707Y-129210681D01*
X88221177Y-129266459D01*
X89429867Y-129340838D01*
X90006314Y-129675551D01*
X90526978Y-130047454D01*
X90954667Y-130475142D01*
X91419545Y-130902831D01*
X91493924Y-131386305D01*
X91456730Y-131869780D01*
X92107564Y-131832591D01*
X92591038Y-131311926D01*
X92814183Y-130921427D01*
X93353444Y-130549525D01*
X93892704Y-130326384D01*
X94450558Y-130344985D01*
X95194363Y-130400775D01*
X95510479Y-130698298D01*
X95677838Y-131088797D01*
X95584858Y-131497893D01*
X95250149Y-131869795D01*
X94822461Y-132613604D01*
X94357579Y-132966910D01*
X93632367Y-133654933D01*
X92795582Y-134008242D01*
X92200535Y-134119811D01*
X91772847Y-134231383D01*
X91652845Y-134194141D01*
X91345150Y-134677664D01*
X90954651Y-135030974D01*
X90638535Y-135328494D01*
X90080681Y-135514445D01*
X89429852Y-135886347D01*
X88555878Y-136425608D01*
X87849263Y-136871890D01*
X86938099Y-137336768D01*
X86008339Y-137708670D01*
X84985604Y-138192145D01*
X84316178Y-138433882D01*
X83683941Y-138657023D01*
X83246709Y-138569577D01*
X83814122Y-138917349D01*
X84595120Y-139568179D01*
X85338929Y-140311987D01*
X85673642Y-141148768D01*
X85896782Y-142041339D01*
X85814594Y-142452281D01*
X85825547Y-142453498D01*
X90413605Y-149855322D01*
X93740246Y-152499131D01*
X93872883Y-152394255D01*
X95068974Y-152234778D01*
X96424550Y-152298567D01*
X97381421Y-152458045D01*
X98370190Y-152601576D01*
X99438702Y-152856742D01*
X100220150Y-153143805D01*
X101033497Y-153558455D01*
X101846837Y-154036894D01*
X102420964Y-154515334D01*
X102835606Y-155041617D01*
X103106724Y-155456267D01*
X103132847Y-155926432D01*
X103146954Y-155925818D01*
X103146954Y-157131186D01*
X102433568Y-157942961D01*
X101646389Y-158508750D01*
X96406727Y-158459548D01*
X96037739Y-158238150D01*
X91413060Y-158041358D01*
X90921074Y-158311949D01*
X85509213Y-158188956D01*
X84894230Y-157401778D01*
X84805355Y-156712988D01*
X85337002Y-156712988D01*
X85361611Y-157278777D01*
X85706002Y-157598570D01*
X86099591Y-157696967D01*
X90650475Y-157844565D01*
X91019467Y-157549368D01*
X95890141Y-157696967D01*
X96234532Y-157869162D01*
X101744786Y-157893775D01*
X102335171Y-157352591D01*
X102488598Y-156870396D01*
X102692097Y-156923483D01*
X102835629Y-156301512D01*
X102552646Y-156301512D01*
X102547640Y-156341564D01*
X102507367Y-156811408D01*
X102488598Y-156870396D01*
X102440053Y-156857732D01*
X101991016Y-156827796D01*
X102325299Y-156827796D01*
X102440053Y-156857732D01*
X102482762Y-156860579D01*
X102547640Y-156341564D01*
X102551073Y-156301512D01*
X102552646Y-156301512D01*
X102556561Y-156270194D01*
X102553763Y-156270124D01*
X102551073Y-156301512D01*
X102405034Y-156301512D01*
X102325299Y-156827796D01*
X101991016Y-156827796D01*
X101375790Y-156786780D01*
X100859204Y-156909773D01*
X100096623Y-156983573D01*
X99358639Y-156934371D01*
X98842053Y-157180365D01*
X90847260Y-157131163D01*
X90010880Y-156934371D01*
X87083558Y-156860571D01*
X86443974Y-156688376D01*
X85337002Y-156712988D01*
X84805355Y-156712988D01*
X84799590Y-156668303D01*
X92294034Y-156668303D01*
X93011693Y-156684256D01*
X93011693Y-156560663D01*
X92348912Y-156534873D01*
X92312856Y-156534193D01*
X92294034Y-156668303D01*
X84799590Y-156668303D01*
X84697438Y-155876616D01*
X84820435Y-154745047D01*
X85361622Y-153490477D01*
X85804410Y-152580306D01*
X85822230Y-152565675D01*
X85952569Y-152659178D01*
X86454651Y-152212920D01*
X86341142Y-152139641D01*
X85822230Y-152565675D01*
X85097191Y-152045539D01*
X84186028Y-151357512D01*
X83330651Y-151264540D01*
X81936013Y-150874045D01*
X81865811Y-150818244D01*
X83442219Y-150818244D01*
X83981480Y-150892638D01*
X84010258Y-150815297D01*
X84297612Y-150892661D01*
X84985631Y-151264563D01*
X86341142Y-152139641D01*
X86385396Y-152103308D01*
X86859559Y-151592673D01*
X87315487Y-151191458D01*
X87570805Y-150954375D01*
X88008496Y-150699057D01*
X88464421Y-150680831D01*
X88810925Y-150936148D01*
X88810925Y-151392073D01*
X88774457Y-151501494D01*
X88829167Y-151775046D01*
X89139199Y-151793273D01*
X89412755Y-151847983D01*
X89649838Y-152012122D01*
X89813973Y-152267439D01*
X89959870Y-152613944D01*
X90051049Y-153106345D01*
X89886918Y-153598746D01*
X89613358Y-154072905D01*
X89303330Y-154382933D01*
X89084485Y-154419402D01*
X88975060Y-154182318D01*
X89011540Y-153999945D01*
X89157437Y-153744628D01*
X89321568Y-153452834D01*
X89485703Y-153124564D01*
X89503933Y-152905722D01*
X89430985Y-152650405D01*
X89139191Y-152340376D01*
X88920346Y-152212714D01*
X88446183Y-152085051D01*
X88209099Y-152158003D01*
X88081440Y-151920920D01*
X88063210Y-151683837D01*
X88172635Y-151410277D01*
X88044972Y-151300856D01*
X87789654Y-151574408D01*
X87424912Y-151775015D01*
X87041932Y-152103285D01*
X86859562Y-152303893D01*
X86513058Y-152686865D01*
X86367161Y-152942183D01*
X86148316Y-153489295D01*
X85801812Y-154072882D01*
X85619439Y-154528807D01*
X85455307Y-155021208D01*
X85327645Y-155750693D01*
X85418835Y-156334273D01*
X87406674Y-156334273D01*
X87680230Y-156407225D01*
X90744057Y-156461936D01*
X91382351Y-156516646D01*
X92312856Y-156534193D01*
X92385805Y-156014441D01*
X92963856Y-156014441D01*
X93011693Y-156445037D01*
X93011693Y-156560663D01*
X95029156Y-156639166D01*
X98989651Y-156688368D01*
X99752232Y-156417777D01*
X100883801Y-156417777D01*
X101572583Y-156245581D01*
X102553763Y-156270124D01*
X102581166Y-155950430D01*
X102626859Y-155948443D01*
X102628300Y-155950659D01*
X102660183Y-156173926D01*
X103138623Y-156030394D01*
X103132847Y-155926432D01*
X102626859Y-155948443D01*
X102213650Y-155312743D01*
X101352467Y-154499396D01*
X99757672Y-153702002D01*
X98083142Y-153223563D01*
X96727566Y-153000289D01*
X95053036Y-152968390D01*
X94128056Y-153032179D01*
X93569874Y-153367087D01*
X93250920Y-153957160D01*
X93155232Y-154674819D01*
X93075490Y-155312735D01*
X92963856Y-156014441D01*
X92385805Y-156014441D01*
X92421620Y-155759268D01*
X92485409Y-155073508D01*
X92628941Y-154132582D01*
X92868161Y-153414923D01*
X93187123Y-152936484D01*
X93242568Y-152892644D01*
X93424511Y-153027533D01*
X93818799Y-152561560D01*
X93740246Y-152499131D01*
X93242568Y-152892644D01*
X92385029Y-152256880D01*
X91112561Y-151235320D01*
X90108925Y-150482588D01*
X89499573Y-149478949D01*
X88442170Y-147668822D01*
X86811261Y-144908820D01*
X85520871Y-143009078D01*
X84817669Y-142921180D01*
X84693672Y-142928931D01*
X85004220Y-143342993D01*
X85580670Y-144086802D01*
X86026951Y-144830611D01*
X86398854Y-145537226D01*
X86398854Y-146559958D01*
X86231499Y-147155005D01*
X86175709Y-147880217D01*
X85692235Y-148661215D01*
X85097191Y-149144690D01*
X84557930Y-149590979D01*
X84279004Y-150093047D01*
X84010258Y-150815297D01*
X83484704Y-150673803D01*
X83442219Y-150818244D01*
X81865811Y-150818244D01*
X81210801Y-150297598D01*
X80318234Y-149274863D01*
X79890545Y-148456679D01*
X79890885Y-148441718D01*
X80076500Y-148438079D01*
X79964928Y-147805846D01*
X79905282Y-147808468D01*
X79890885Y-148441718D01*
X78179791Y-148475272D01*
X77677723Y-148177748D01*
X77064084Y-148196349D01*
X76431847Y-148382300D01*
X75855401Y-147805846D01*
X75502091Y-146931868D01*
X73765062Y-147029273D01*
X73395413Y-147847777D01*
X73009175Y-148798522D01*
X72474381Y-149778975D01*
X71909874Y-150373191D01*
X70840291Y-150700011D01*
X69770703Y-150789137D01*
X68879384Y-150759429D01*
X68404011Y-151086249D01*
X67780087Y-151353644D01*
X66427764Y-151747049D01*
X66591668Y-151829001D01*
X67423565Y-152155821D01*
X68136624Y-152542060D01*
X68671418Y-153195693D01*
X69087369Y-153819617D01*
X69146790Y-154562384D01*
X69206212Y-155513121D01*
X68998234Y-156107337D01*
X68968514Y-156107337D01*
X68968514Y-156196486D01*
X68285168Y-156434172D01*
X65403233Y-156553015D01*
X64006833Y-156612433D01*
X62937245Y-156909545D01*
X59966176Y-157117514D01*
X57113953Y-157117514D01*
X56929085Y-156166770D01*
X57589324Y-156166770D01*
X57767590Y-156731268D01*
X61332871Y-156404456D01*
X63739438Y-156137061D01*
X63764195Y-156107352D01*
X68493146Y-156107352D01*
X68641705Y-156107337D01*
X68968514Y-156107337D01*
X68968514Y-155839957D01*
X68519885Y-155839957D01*
X68493146Y-156107352D01*
X63764195Y-156107352D01*
X64036545Y-155780532D01*
X64393075Y-155721114D01*
X64482205Y-156077643D01*
X67482983Y-155958800D01*
X68404011Y-155839957D01*
X68519885Y-155839957D01*
X68582276Y-155216033D01*
X68568144Y-154975768D01*
X67453274Y-155305159D01*
X64957577Y-155245741D01*
X62699563Y-155542853D01*
X60500973Y-155572562D01*
X57589324Y-155972197D01*
X57589324Y-156166770D01*
X56929085Y-156166770D01*
X56905978Y-156047934D01*
X56905978Y-155988509D01*
X57470479Y-155988509D01*
X57589324Y-155972197D01*
X57589324Y-155810240D01*
X57568885Y-155387841D01*
X57470484Y-155394293D01*
X57470479Y-155988509D01*
X56905978Y-155988509D01*
X56905978Y-154502974D01*
X56993008Y-153458601D01*
X57084239Y-153492812D01*
X57262503Y-153195708D01*
X57118611Y-153062884D01*
X56995108Y-153433394D01*
X56993008Y-153458601D01*
X56608870Y-153314551D01*
X56430604Y-152987731D01*
X56430604Y-152839179D01*
X56876265Y-152839179D01*
X57118611Y-153062884D01*
X57292214Y-152542075D01*
X57440768Y-151591330D01*
X57975562Y-151561614D01*
X58094405Y-151977561D01*
X57856722Y-152452933D01*
X57648747Y-153106566D01*
X57500193Y-153968176D01*
X57568885Y-155387841D01*
X59282837Y-155275450D01*
X60062694Y-155186324D01*
X61808240Y-155186324D01*
X62343033Y-155037772D01*
X62335282Y-154918921D01*
X62283619Y-154918921D01*
X61808240Y-154980261D01*
X61808240Y-155186324D01*
X60062694Y-155186324D01*
X61362587Y-155037764D01*
X61808240Y-154980261D01*
X61808240Y-153700789D01*
X62253903Y-153671080D01*
X62335282Y-154918921D01*
X64393078Y-154918921D01*
X64615894Y-154859503D01*
X64809022Y-154859503D01*
X65403233Y-154829787D01*
X65412817Y-154681235D01*
X65284398Y-154681235D01*
X64814452Y-154806554D01*
X64809022Y-154859503D01*
X64615894Y-154859503D01*
X64814452Y-154806554D01*
X64927865Y-153700789D01*
X64363362Y-152631201D01*
X64630757Y-152393515D01*
X65016995Y-152660910D01*
X65224968Y-153314543D01*
X65462655Y-153908759D01*
X65412817Y-154681235D01*
X67750386Y-154681235D01*
X68499962Y-154342713D01*
X68552567Y-154710951D01*
X68568144Y-154975768D01*
X68760548Y-154918921D01*
X68671418Y-154265280D01*
X68499962Y-154342713D01*
X68463437Y-154087027D01*
X67898930Y-153136283D01*
X67275006Y-152720336D01*
X66561947Y-152334098D01*
X65640919Y-152155837D01*
X64749600Y-152244963D01*
X64125676Y-152423232D01*
X63828568Y-152750044D01*
X63382908Y-153284842D01*
X62877827Y-153641371D01*
X62521298Y-153611662D01*
X62135060Y-153403685D01*
X61956795Y-152898604D01*
X61719109Y-152363814D01*
X61481427Y-151888442D01*
X61511136Y-151413069D01*
X61006054Y-151264510D01*
X60708947Y-151413069D01*
X60352421Y-151413069D01*
X60144444Y-150937697D01*
X60025601Y-150670302D01*
X59787915Y-150402899D01*
X59936467Y-149897818D01*
X60263287Y-150016661D01*
X60471261Y-150462325D01*
X60500969Y-150729720D01*
X60708943Y-150818846D01*
X61540844Y-150759429D01*
X61897374Y-150967406D01*
X62075638Y-151294226D01*
X62016217Y-151858725D01*
X62045926Y-152274672D01*
X62343033Y-152601492D01*
X62402455Y-152987731D01*
X62580719Y-153225417D01*
X63145226Y-152809470D01*
X63412621Y-152393515D01*
X63709729Y-152036986D01*
X63737689Y-151974076D01*
X63828568Y-152155837D01*
X64036538Y-151680449D01*
X64016732Y-151621031D01*
X65462658Y-151621031D01*
X66146000Y-151829016D01*
X66427764Y-151747049D01*
X65938031Y-151502181D01*
X65758546Y-151482951D01*
X65462658Y-151621031D01*
X64016732Y-151621031D01*
X63980831Y-151513326D01*
X63947415Y-151502188D01*
X63737689Y-151974076D01*
X63561173Y-151621039D01*
X63472043Y-151264510D01*
X63412621Y-151056540D01*
X63293778Y-150581168D01*
X63382908Y-150194930D01*
X63947411Y-149749266D01*
X64511918Y-149778975D01*
X64838734Y-150046370D01*
X64898156Y-150492026D01*
X64571335Y-150492026D01*
X64363362Y-150284056D01*
X64036541Y-150313765D01*
X63858277Y-150462317D01*
X63947407Y-150640578D01*
X64303937Y-150818846D01*
X64185093Y-151145659D01*
X63887986Y-151234786D01*
X63980831Y-151513326D01*
X64214814Y-151591315D01*
X65106133Y-151413054D01*
X65758546Y-151482951D01*
X66353978Y-151205084D01*
X67245297Y-150907981D01*
X67958355Y-150670294D01*
X68359942Y-150241933D01*
X69206200Y-150194922D01*
X69296137Y-150104986D01*
X69146782Y-150076079D01*
X68404015Y-150194922D01*
X68359942Y-150241933D01*
X68136612Y-150254340D01*
X65492360Y-149927527D01*
X64303929Y-149422446D01*
X63709713Y-149273894D01*
X63442318Y-149273894D01*
X63382897Y-149511580D01*
X63620583Y-149808692D01*
X63353188Y-150016661D01*
X63026368Y-149719557D01*
X62818390Y-148976790D01*
X62461861Y-148531127D01*
X61748809Y-148174600D01*
X61511132Y-148293440D01*
X60382126Y-149303603D01*
X60025597Y-149778975D01*
X59312539Y-150373191D01*
X59104565Y-150818854D01*
X58540061Y-150997115D01*
X57945847Y-151175383D01*
X57440766Y-151413069D01*
X57084239Y-151799307D01*
X56965395Y-152542075D01*
X56876265Y-152839179D01*
X56430604Y-152839179D01*
X56430604Y-152363806D01*
X56668290Y-151739882D01*
X56995108Y-151086249D01*
X57589320Y-150670302D01*
X58777749Y-150402899D01*
X58926302Y-150076087D01*
X59579937Y-149481871D01*
X59906754Y-149036215D01*
X60292992Y-148620261D01*
X60887208Y-148234023D01*
X61004490Y-148144889D01*
X61689385Y-148144889D01*
X61748809Y-148174600D01*
X62105347Y-147996329D01*
X62205047Y-147849403D01*
X62699559Y-148234023D01*
X62395457Y-147568798D01*
X62205047Y-147849403D01*
X62164769Y-147818076D01*
X61689385Y-148144889D01*
X61004490Y-148144889D01*
X61629975Y-147669524D01*
X61986504Y-147372412D01*
X62000765Y-147194152D01*
X62224190Y-147194152D01*
X62395457Y-147568798D01*
X62669850Y-147164427D01*
X62628894Y-146905031D01*
X62610428Y-146867331D01*
X62224190Y-147194152D01*
X62000765Y-147194152D01*
X62045926Y-146629645D01*
X61927083Y-145084689D01*
X61645688Y-144624223D01*
X61374650Y-144829333D01*
X60208298Y-145352183D01*
X59323475Y-145734267D01*
X58820738Y-145834815D01*
X57513617Y-145995692D01*
X56508139Y-146035910D01*
X54336308Y-146377776D01*
X52385680Y-146478324D01*
X51239436Y-146216902D01*
X48645302Y-145311972D01*
X46594128Y-144547812D01*
X45307118Y-144024962D01*
X44744050Y-143562441D01*
X41023781Y-139480200D01*
X40782466Y-138836695D01*
X39053046Y-131235282D01*
X39081439Y-131154833D01*
X39616110Y-131154833D01*
X39937863Y-132602721D01*
X40199287Y-134151156D01*
X40483204Y-135712701D01*
X40594806Y-136884528D01*
X41486127Y-139320815D01*
X41459755Y-139092255D01*
X41446080Y-139077998D01*
X41084108Y-137710547D01*
X40521040Y-135920798D01*
X40483204Y-135712701D01*
X40311848Y-133913466D01*
X40862202Y-133913466D01*
X41459755Y-139092255D01*
X45226677Y-143019473D01*
X45407662Y-143321116D01*
X51762282Y-145714152D01*
X53270499Y-145955466D01*
X56769562Y-145452727D01*
X59283253Y-145151084D01*
X60740679Y-144549895D01*
X61600266Y-144549895D01*
X61645688Y-144624223D01*
X62118706Y-144266265D01*
X62141347Y-144248923D01*
X62075638Y-144133933D01*
X61600266Y-144549895D01*
X60740679Y-144549895D01*
X60892018Y-144487467D01*
X62621441Y-143160239D01*
X63586701Y-141913447D01*
X64069329Y-141149287D01*
X63727467Y-140465560D01*
X63264947Y-139902491D01*
X62058373Y-139520407D01*
X61354538Y-139057891D01*
X61291687Y-138969898D01*
X60892022Y-138836676D01*
X60687857Y-138776354D01*
X61153443Y-138776354D01*
X61291687Y-138969898D01*
X61495308Y-139037772D01*
X61615967Y-138695910D01*
X61623415Y-138621434D01*
X61615963Y-138615473D01*
X61153443Y-138776354D01*
X60687857Y-138776354D01*
X60007203Y-138575251D01*
X59888589Y-138397331D01*
X59253975Y-138288983D01*
X59139942Y-138285117D01*
X59231328Y-138285117D01*
X59253975Y-138288983D01*
X59829364Y-138308493D01*
X59888589Y-138397331D01*
X59993729Y-138415282D01*
X60235467Y-137913210D01*
X60267299Y-137879995D01*
X60590378Y-138132842D01*
X61032792Y-138253501D01*
X60892022Y-137650214D01*
X60730075Y-137430429D01*
X60663159Y-137466929D01*
X60267299Y-137879995D01*
X60127862Y-137770869D01*
X59882925Y-138153580D01*
X59725670Y-137911650D01*
X59436174Y-137834453D01*
X59231328Y-138285117D01*
X59139942Y-138285117D01*
X58800629Y-138273612D01*
X58016352Y-138052409D01*
X56689124Y-137650214D01*
X55663537Y-137408900D01*
X53994443Y-136443640D01*
X52667212Y-135458273D01*
X51158995Y-134131041D01*
X49429574Y-132602713D01*
X48761329Y-131884970D01*
X46804341Y-130615573D01*
X47606530Y-132517054D01*
X47190581Y-132725031D01*
X45705046Y-130615573D01*
X45823889Y-134032302D01*
X45407939Y-134240279D01*
X43981825Y-131477187D01*
X44130379Y-135725817D01*
X43744141Y-135814948D01*
X42258605Y-132071402D01*
X42377449Y-137419329D01*
X41842656Y-137359908D01*
X40862202Y-133913466D01*
X40311848Y-133913466D01*
X40060014Y-131269206D01*
X40535386Y-131150363D01*
X41812946Y-135250437D01*
X41634682Y-130526438D01*
X42080342Y-130437308D01*
X43595587Y-134240279D01*
X43476744Y-129961939D01*
X43744141Y-129872809D01*
X45348519Y-132992430D01*
X45170254Y-129545989D01*
X45497071Y-129456858D01*
X46358681Y-130704707D01*
X46091284Y-129664832D01*
X46239838Y-129545989D01*
X47146014Y-130079032D01*
X48343659Y-131436362D01*
X48761329Y-131884970D01*
X49002932Y-132041686D01*
X47755084Y-130437308D01*
X47146014Y-130079032D01*
X47137084Y-130068911D01*
X45990839Y-128701464D01*
X45427771Y-127897078D01*
X44160870Y-126529631D01*
X43296158Y-125262728D01*
X42813530Y-124639330D01*
X42270571Y-125483935D01*
X41506407Y-126851386D01*
X41023778Y-127736205D01*
X40440602Y-129204203D01*
X39957973Y-130471106D01*
X39616110Y-131154833D01*
X39081439Y-131154833D01*
X39656332Y-129525969D01*
X40340057Y-127836768D01*
X41224878Y-126207892D01*
X42511889Y-124076277D01*
X42873861Y-123975730D01*
X43356492Y-124438250D01*
X44824488Y-126569865D01*
X46272376Y-127997641D01*
X46915881Y-129043337D01*
X48202893Y-130511336D01*
X49630671Y-132059771D01*
X52305241Y-134392478D01*
X53813460Y-135578944D01*
X55080361Y-136363215D01*
X55965180Y-136906172D01*
X57292412Y-137268145D01*
X58478875Y-137489352D01*
X58157120Y-137026831D01*
X58036465Y-136544203D01*
X58039043Y-136443659D01*
X58700079Y-136443659D01*
X58740300Y-136906176D01*
X59041943Y-137368697D01*
X59122384Y-137750777D01*
X59436174Y-137834453D01*
X59603230Y-137466929D01*
X59727479Y-137268134D01*
X60610489Y-137268134D01*
X60730075Y-137430429D01*
X61276799Y-137132216D01*
X61370349Y-137095796D01*
X61535527Y-137690432D01*
X61656186Y-138293719D01*
X61623415Y-138621434D01*
X61917607Y-138856791D01*
X62138814Y-138434489D01*
X62440457Y-138253504D01*
X62802430Y-138313834D01*
X63104073Y-138575259D01*
X63104073Y-139198657D01*
X63506264Y-139620959D01*
X63908455Y-139842166D01*
X64250317Y-140324793D01*
X64451413Y-141008517D01*
X64551961Y-141631915D01*
X64129662Y-142295531D01*
X63606812Y-143019477D01*
X63063855Y-143542323D01*
X62141347Y-144248923D01*
X62551011Y-144965834D01*
X62580719Y-146599921D01*
X62628894Y-146905031D01*
X63323483Y-148323157D01*
X63561169Y-148679686D01*
X65848893Y-149333319D01*
X67364136Y-149630423D01*
X69622147Y-149660132D01*
X69740990Y-149927527D01*
X69354752Y-150046370D01*
X69296137Y-150104986D01*
X70067814Y-150254340D01*
X70959137Y-150076079D01*
X71850457Y-149660132D01*
X72266408Y-149125334D01*
X72474385Y-148531119D01*
X72860623Y-147461539D01*
X73220357Y-146844845D01*
X73512410Y-147043440D01*
X73765062Y-147029273D01*
X73811364Y-146926749D01*
X73276570Y-146748480D01*
X73220357Y-146844845D01*
X73047532Y-146727324D01*
X71634297Y-145946326D01*
X68566098Y-147043440D01*
X67599148Y-147080634D01*
X67152863Y-146801711D01*
X65181775Y-144291361D01*
X65386323Y-143993842D01*
X68845021Y-145128146D01*
X72061986Y-145481455D01*
X73196290Y-146169478D01*
X73791333Y-146467002D01*
X75632252Y-146429808D01*
X75634248Y-146431452D01*
X75836796Y-146950484D01*
X76208699Y-147545531D01*
X76317585Y-147521334D01*
X76710774Y-147843039D01*
X77026890Y-147694274D01*
X77770699Y-147694274D01*
X78272770Y-147880225D01*
X79905282Y-147808468D01*
X79909146Y-147638495D01*
X79934357Y-147441839D01*
X80150876Y-147433966D01*
X80153201Y-147396765D01*
X80541386Y-147396765D01*
X80671551Y-148791403D01*
X81136429Y-149442237D01*
X81768666Y-149944304D01*
X82698426Y-150409186D01*
X83330662Y-150632331D01*
X83484704Y-150673803D01*
X83535199Y-150502127D01*
X83702557Y-150074439D01*
X83907105Y-149665343D01*
X84043818Y-149523747D01*
X84148827Y-149646758D01*
X84446362Y-149256270D01*
X84377371Y-149178281D01*
X84043818Y-149523747D01*
X83497998Y-148884352D01*
X83479405Y-148772795D01*
X84018670Y-148772795D01*
X84377371Y-149178281D01*
X84427769Y-149126082D01*
X84762482Y-148828559D01*
X84826783Y-148757113D01*
X84911236Y-148828574D01*
X85320328Y-148363692D01*
X85234896Y-148303658D01*
X84826783Y-148757113D01*
X84427762Y-148419478D01*
X84130242Y-148438079D01*
X84018670Y-148772795D01*
X83479405Y-148772795D01*
X83423619Y-148438071D01*
X84093049Y-147805838D01*
X84632309Y-147880217D01*
X85234896Y-148303658D01*
X85264554Y-148270705D01*
X85524884Y-147880210D01*
X85600198Y-147453437D01*
X85841000Y-147545508D01*
X85896786Y-147006247D01*
X85709677Y-146975063D01*
X85636456Y-147247977D01*
X85600198Y-147453437D01*
X85208764Y-147303771D01*
X85022812Y-147024840D01*
X85061692Y-146597159D01*
X85394711Y-146597159D01*
X85450501Y-146931868D01*
X85709677Y-146975063D01*
X85839284Y-146491982D01*
X85673642Y-146448393D01*
X85394711Y-146597159D01*
X85061692Y-146597159D01*
X85097191Y-146206656D01*
X85469094Y-145871943D01*
X85835429Y-145871943D01*
X85841004Y-145890525D01*
X85841004Y-146485572D01*
X85839284Y-146491982D01*
X86026948Y-146541365D01*
X85915379Y-145871943D01*
X85835429Y-145871943D01*
X85617859Y-145146716D01*
X85590927Y-145097603D01*
X85803807Y-145090949D01*
X85152974Y-144068221D01*
X85011645Y-144179267D01*
X84874054Y-143993819D01*
X84502152Y-143566130D01*
X83966410Y-142983116D01*
X82884369Y-143231452D01*
X81694279Y-144161208D01*
X80931878Y-144979399D01*
X80597165Y-145964942D01*
X80541386Y-147396765D01*
X80153201Y-147396765D01*
X80188069Y-146838896D01*
X80006516Y-146851712D01*
X80002118Y-146913283D01*
X79934357Y-147441839D01*
X78105408Y-147508345D01*
X77956646Y-147210822D01*
X77380196Y-147043463D01*
X77231434Y-146820319D01*
X76971104Y-147043463D01*
X76878125Y-147396773D01*
X76317585Y-147521334D01*
X76301682Y-147508322D01*
X76059945Y-147043448D01*
X75948372Y-146690138D01*
X75634248Y-146431452D01*
X75539277Y-146188086D01*
X73698357Y-146132292D01*
X70518586Y-144458731D01*
X68361546Y-143175666D01*
X66780957Y-141650862D01*
X66241696Y-141018626D01*
X66130127Y-139623988D01*
X65181775Y-140497958D01*
X65033013Y-140014483D01*
X66055748Y-138973155D01*
X67190053Y-138136370D01*
X67338814Y-138564059D01*
X66576413Y-139159106D01*
X66687985Y-139828532D01*
X66911126Y-140944239D01*
X67376004Y-141539282D01*
X68621880Y-142729373D01*
X69718995Y-143435992D01*
X71095036Y-144198393D01*
X72787194Y-145090960D01*
X73847119Y-145630221D01*
X74665307Y-145574431D01*
X75762421Y-145611621D01*
X76394658Y-146745925D01*
X76766560Y-146745925D01*
X76878132Y-146467002D01*
X77566151Y-146429808D01*
X77789292Y-146745925D01*
X78402932Y-146745925D01*
X78607480Y-146950469D01*
X80006516Y-146851712D01*
X80095097Y-145611624D01*
X80467000Y-144514510D01*
X81303780Y-143473181D01*
X82289322Y-142878134D01*
X83144700Y-142506232D01*
X83944291Y-142283091D01*
X84378366Y-142310800D01*
X84504363Y-142830530D01*
X83869915Y-142878108D01*
X83966410Y-142983116D01*
X84018673Y-142971121D01*
X84693672Y-142928931D01*
X84674431Y-142903276D01*
X84817669Y-142921180D01*
X84911244Y-142915331D01*
X84830259Y-142413245D01*
X85190163Y-142413245D01*
X85785210Y-142599196D01*
X85814594Y-142452281D01*
X85197202Y-142383681D01*
X85190163Y-142413245D01*
X84830259Y-142413245D01*
X84818707Y-142341625D01*
X85197202Y-142383681D01*
X85283143Y-142022746D01*
X85227353Y-141353316D01*
X84892643Y-140739676D01*
X84427762Y-140144633D01*
X83628171Y-139493804D01*
X82475274Y-138842974D01*
X81378159Y-138359500D01*
X79853360Y-137764456D01*
X78607483Y-137262389D01*
X77566155Y-136890486D01*
X77163259Y-136797511D01*
X78774838Y-136797511D01*
X79239708Y-136964865D01*
X79272141Y-136925946D01*
X79778977Y-137132216D01*
X81080639Y-137578501D01*
X81768658Y-137894618D01*
X82382298Y-138192141D01*
X82676860Y-138320210D01*
X82940133Y-138508261D01*
X83246709Y-138569577D01*
X83237675Y-138564040D01*
X82676860Y-138320210D01*
X82549634Y-138229334D01*
X82270707Y-137727263D01*
X82121945Y-137411147D01*
X81973183Y-136592959D01*
X81750042Y-135886340D01*
X81657071Y-135514437D01*
X81526906Y-135179728D01*
X81515806Y-135144581D01*
X80857483Y-135198321D01*
X80020699Y-135198321D01*
X79500035Y-135216921D01*
X79500035Y-136276847D01*
X79425656Y-136741725D01*
X79272141Y-136925946D01*
X78790550Y-136729951D01*
X78774838Y-136797511D01*
X77163259Y-136797511D01*
X76357468Y-136611559D01*
X75353329Y-136351225D01*
X74293404Y-136276847D01*
X73702550Y-136901463D01*
X73661171Y-137466921D01*
X73400837Y-137987586D01*
X72657033Y-138322295D01*
X71634297Y-138935935D01*
X71150822Y-139419409D01*
X70834702Y-139754138D01*
X70778924Y-140349181D01*
X70592972Y-140590918D01*
X70258263Y-140293395D01*
X70481404Y-139438017D01*
X70946282Y-138731398D01*
X71262398Y-138210734D01*
X68770646Y-137950400D01*
X66446251Y-137039240D01*
X65144593Y-137634284D01*
X63712765Y-136183863D01*
X61370349Y-137095796D01*
X61334431Y-136966490D01*
X60610489Y-137268134D01*
X59727479Y-137268134D01*
X59882161Y-137020648D01*
X60997868Y-136462790D01*
X62034870Y-135961016D01*
X62943192Y-135961016D01*
X63968781Y-135940905D01*
X63925738Y-135831643D01*
X62984489Y-135867161D01*
X62943192Y-135961016D01*
X62034870Y-135961016D01*
X62150769Y-135904936D01*
X62968956Y-135867747D01*
X62984489Y-135867161D01*
X63164399Y-135458277D01*
X63155116Y-135418055D01*
X61213776Y-135418055D01*
X60751256Y-135498496D01*
X60248520Y-135840357D01*
X59786000Y-136081671D01*
X58881070Y-136121890D01*
X58778548Y-136098395D01*
X58700079Y-136443659D01*
X58039043Y-136443659D01*
X58052164Y-135931931D01*
X58778548Y-136098395D01*
X58800627Y-136001246D01*
X58056574Y-135759932D01*
X58052164Y-135931931D01*
X57915810Y-135900683D01*
X57232085Y-135659369D01*
X56628798Y-135438162D01*
X56387484Y-134834879D01*
X56337210Y-134633784D01*
X58257685Y-134633784D01*
X58579438Y-134875098D01*
X58840861Y-134694113D01*
X58840861Y-134683877D01*
X58303802Y-134495436D01*
X58257685Y-134633784D01*
X56337210Y-134633784D01*
X56221578Y-134171263D01*
X57855494Y-134171263D01*
X57895714Y-134352248D01*
X58303802Y-134495436D01*
X58378344Y-134271811D01*
X58338124Y-133889731D01*
X58197354Y-133628306D01*
X57976149Y-133728854D01*
X57855494Y-134171263D01*
X56221578Y-134171263D01*
X56186387Y-134030497D01*
X56085839Y-133145678D01*
X55985291Y-132482062D01*
X55844521Y-131778227D01*
X55844521Y-130953734D01*
X55813827Y-130370558D01*
X56327157Y-130370558D01*
X56328885Y-130468357D01*
X56333441Y-130576053D01*
X56347267Y-130792859D01*
X56367377Y-131034175D01*
X56528254Y-131798339D01*
X56568474Y-132220637D01*
X56648915Y-132924475D01*
X56870120Y-133467433D01*
X56950560Y-133708750D01*
X57252204Y-133990283D01*
X57533736Y-133970172D01*
X57433188Y-133487540D01*
X57674502Y-133145678D01*
X57935925Y-132944583D01*
X58257679Y-133025023D01*
X58378338Y-133246230D01*
X58458779Y-133507655D01*
X58700095Y-133829405D01*
X58700095Y-133889735D01*
X58840861Y-134352252D01*
X58840861Y-134683877D01*
X59041962Y-134754439D01*
X59424046Y-135056082D01*
X60007222Y-135035971D01*
X60129227Y-135021330D01*
X60147969Y-135096297D01*
X60476776Y-134979624D01*
X60129227Y-135021330D01*
X60027310Y-134613665D01*
X59665337Y-134613665D01*
X59403912Y-134432681D01*
X59162598Y-133990271D01*
X59160587Y-133909834D01*
X59685448Y-133909834D01*
X59806103Y-134131041D01*
X60007199Y-134211482D01*
X60469719Y-134412577D01*
X60771363Y-134875094D01*
X60476776Y-134979624D01*
X60509961Y-134975642D01*
X60650698Y-134935431D01*
X63043740Y-134935431D01*
X63155116Y-135418055D01*
X63244839Y-135418055D01*
X63184533Y-134935423D01*
X63043894Y-134933118D01*
X63043740Y-134935431D01*
X60650698Y-134935431D01*
X61073029Y-134814765D01*
X61957848Y-134915312D01*
X63043894Y-134933118D01*
X63063851Y-134633788D01*
X63063851Y-134553347D01*
X63606808Y-134553347D01*
X63707356Y-135277293D01*
X63925738Y-135831643D01*
X63954499Y-135830557D01*
X64456570Y-136035105D01*
X66539227Y-136481387D01*
X68584694Y-137262385D01*
X70555783Y-137522715D01*
X71783062Y-137690074D01*
X71857441Y-137262385D01*
X72285130Y-137243785D01*
X72508271Y-137634284D01*
X72619839Y-137429736D01*
X72898770Y-137355357D01*
X72980811Y-136797499D01*
X73066113Y-136797499D01*
X73642575Y-136964865D01*
X73702550Y-136901463D01*
X73716961Y-136704520D01*
X73141899Y-136719269D01*
X73066113Y-136797499D01*
X72980811Y-136797499D01*
X72991749Y-136723120D01*
X73141899Y-136719269D01*
X73642563Y-136202456D01*
X73066113Y-136239646D01*
X73084713Y-135942122D01*
X73191221Y-135886332D01*
X75111592Y-135886332D01*
X75744932Y-135901065D01*
X76431843Y-136035098D01*
X77101273Y-136128077D01*
X78179791Y-136481387D01*
X78790550Y-136729951D01*
X78960789Y-135997920D01*
X78942189Y-135533038D01*
X78774830Y-134956587D01*
X78692618Y-134826419D01*
X81415333Y-134826419D01*
X81515806Y-135144581D01*
X81768643Y-135123942D01*
X81655333Y-134699028D01*
X81489731Y-134677661D01*
X81503937Y-134575376D01*
X81503987Y-134575234D01*
X81619881Y-134566084D01*
X81655333Y-134699028D01*
X82066182Y-134752040D01*
X82177750Y-134640471D01*
X82176822Y-134619127D01*
X82140545Y-134510298D01*
X81526906Y-134510298D01*
X81503987Y-134575234D01*
X81503956Y-134575237D01*
X81503937Y-134575376D01*
X81415333Y-134826419D01*
X78692618Y-134826419D01*
X78551690Y-134603282D01*
X78254166Y-134361544D01*
X77752095Y-134417334D01*
X77250027Y-134398734D01*
X77026883Y-134324355D01*
X76968787Y-134227527D01*
X76915326Y-134287158D01*
X76487637Y-134659060D01*
X76152924Y-134993773D01*
X76097134Y-135421462D01*
X75911183Y-135495841D01*
X75911183Y-135904933D01*
X75744932Y-135901065D01*
X75669446Y-135886336D01*
X75122542Y-135839792D01*
X75111592Y-135886332D01*
X73191221Y-135886332D01*
X73475213Y-135737574D01*
X73995877Y-135514433D01*
X74086194Y-135440055D01*
X74776871Y-135440055D01*
X74795472Y-135811957D01*
X75122542Y-135839792D01*
X75185971Y-135570212D01*
X75409112Y-135291285D01*
X75356350Y-134957156D01*
X74776871Y-135440055D01*
X74086194Y-135440055D01*
X74628113Y-134993769D01*
X75022582Y-134726093D01*
X75148781Y-134770632D01*
X75353322Y-134937975D01*
X75356350Y-134957156D01*
X75446301Y-134882197D01*
X75148778Y-134640460D01*
X75022582Y-134726093D01*
X74832661Y-134659064D01*
X74330594Y-134919394D01*
X73475216Y-135086753D01*
X73140503Y-135086753D01*
X73103314Y-134752040D01*
X73586789Y-134510302D01*
X73921502Y-134268565D01*
X74081702Y-134194186D01*
X75725232Y-134194186D01*
X75985562Y-134287158D01*
X76174886Y-134138404D01*
X76915314Y-134138404D01*
X76968787Y-134227527D01*
X77398800Y-133747897D01*
X77398574Y-133740443D01*
X77287217Y-133729308D01*
X76915314Y-134138404D01*
X76174886Y-134138404D01*
X76506226Y-133878066D01*
X76692177Y-133654925D01*
X76803746Y-133450377D01*
X76665358Y-133173595D01*
X76617798Y-133208640D01*
X76357468Y-133636328D01*
X76059945Y-133915255D01*
X75725232Y-134194186D01*
X74081702Y-134194186D01*
X74442166Y-134026827D01*
X75000020Y-134026827D01*
X75613659Y-133636328D01*
X76003561Y-133152854D01*
X76654988Y-133152854D01*
X76665358Y-133173595D01*
X76935728Y-132974375D01*
X77140542Y-133105456D01*
X77125817Y-132938578D01*
X77009318Y-132848964D01*
X76971108Y-132948306D01*
X76935728Y-132974375D01*
X76813787Y-132896332D01*
X76654988Y-133152854D01*
X76003561Y-133152854D01*
X76078541Y-133059878D01*
X76506230Y-132669379D01*
X76560672Y-132629454D01*
X76637791Y-132783694D01*
X76813787Y-132896332D01*
X76896725Y-132762354D01*
X77009318Y-132848964D01*
X77064087Y-132706568D01*
X76785157Y-132464831D01*
X76560672Y-132629454D01*
X76476918Y-132461943D01*
X76557358Y-132019534D01*
X76678017Y-131657561D01*
X76758458Y-131355918D01*
X76879117Y-130973834D01*
X76597580Y-130752627D01*
X76295937Y-130752627D01*
X75853528Y-130853175D01*
X75551884Y-131074381D01*
X75391011Y-131436354D01*
X75089367Y-131878768D01*
X74848050Y-132180411D01*
X74365422Y-132441836D01*
X73822465Y-132502165D01*
X72676220Y-132502165D01*
X72374577Y-132220629D01*
X72173481Y-131818438D01*
X72221745Y-131697783D01*
X72595780Y-131697783D01*
X72636002Y-131701281D01*
X72636002Y-131979315D01*
X73098523Y-132099974D01*
X73577601Y-132099974D01*
X73581151Y-132120085D01*
X74224659Y-131939101D01*
X74217099Y-131895250D01*
X74184437Y-131898879D01*
X73842576Y-132039645D01*
X73641480Y-132099974D01*
X73577601Y-132099974D01*
X73520821Y-131778224D01*
X72636002Y-131701281D01*
X72636002Y-131666180D01*
X72651079Y-131654334D01*
X72917538Y-131597235D01*
X73339837Y-131577124D01*
X73581151Y-131577124D01*
X73782246Y-131557013D01*
X74149731Y-131504514D01*
X74217099Y-131895250D01*
X74546410Y-131858660D01*
X74767617Y-131557017D01*
X74901549Y-131231751D01*
X75049149Y-131275485D01*
X75391007Y-130732527D01*
X75299381Y-130699210D01*
X75089367Y-130973841D01*
X74908383Y-131215155D01*
X74901549Y-131231751D01*
X74561958Y-131131132D01*
X74385533Y-131275477D01*
X74204545Y-131496684D01*
X74149731Y-131504514D01*
X74124112Y-131355925D01*
X73158848Y-131255374D01*
X72651079Y-131654334D01*
X72636002Y-131657565D01*
X72636002Y-131666180D01*
X72595780Y-131697783D01*
X72221745Y-131697783D01*
X72253922Y-131617343D01*
X72615895Y-131174929D01*
X73138745Y-131134711D01*
X73782250Y-131094493D01*
X74104001Y-130853175D01*
X74276544Y-130935996D01*
X74506188Y-131114607D01*
X74561958Y-131131132D01*
X74606740Y-131094493D01*
X74276544Y-130935996D01*
X74144215Y-130833075D01*
X74284981Y-130531432D01*
X74445859Y-130270007D01*
X74376440Y-129922924D01*
X73641476Y-129887927D01*
X73606841Y-129867816D01*
X74365418Y-129867816D01*
X74376440Y-129922924D01*
X74486081Y-129928145D01*
X74807835Y-129747176D01*
X74771997Y-129648623D01*
X74667061Y-129566172D01*
X74365418Y-129867816D01*
X73606841Y-129867816D01*
X73018082Y-129525954D01*
X71851727Y-129727049D01*
X71107674Y-129968367D01*
X70162526Y-130330340D01*
X69599461Y-130551547D01*
X69016282Y-130672206D01*
X68614090Y-130973849D01*
X67930363Y-131516806D01*
X67608613Y-131898886D01*
X67206421Y-132260859D01*
X66824341Y-132361411D01*
X66703682Y-132120093D01*
X66743901Y-131838561D01*
X66562916Y-131697791D01*
X65818863Y-131858668D01*
X65477002Y-132200530D01*
X65215577Y-132522280D01*
X65094918Y-132642939D01*
X64793274Y-132723380D01*
X64632397Y-132401629D01*
X64853604Y-132180422D01*
X65235684Y-131677683D01*
X65637875Y-131355933D01*
X66160721Y-131134726D01*
X66663460Y-131074397D01*
X66924885Y-131154837D01*
X67166203Y-131315714D01*
X67196286Y-131294092D01*
X67286854Y-131376036D01*
X67769490Y-130973841D01*
X67710866Y-130924237D01*
X67196286Y-131294092D01*
X66864556Y-130993952D01*
X66562912Y-130772746D01*
X65778641Y-130873294D01*
X65215573Y-131034171D01*
X64753052Y-131597239D01*
X64290532Y-132160308D01*
X64089436Y-132683158D01*
X63767682Y-133507651D01*
X63606808Y-134553347D01*
X63063851Y-134553347D01*
X63063851Y-134251708D01*
X62882866Y-134030501D01*
X62862755Y-133668528D01*
X63224728Y-133547869D01*
X63325276Y-133266333D01*
X63586701Y-132703269D01*
X63747578Y-132301077D01*
X63425828Y-132099982D01*
X63791965Y-131541136D01*
X63888348Y-131677680D01*
X64330758Y-131396147D01*
X64199470Y-131232034D01*
X63807908Y-131516802D01*
X63791965Y-131541136D01*
X63405720Y-130993956D01*
X63320424Y-130752288D01*
X63104077Y-130792853D01*
X62621449Y-130752635D01*
X62219258Y-130430880D01*
X61937722Y-130149348D01*
X61555642Y-130229788D01*
X61455090Y-130551539D01*
X61274106Y-130873290D01*
X60892022Y-130993949D01*
X60308846Y-131134715D01*
X60047421Y-131798331D01*
X59886544Y-132441840D01*
X59705559Y-132763590D01*
X59685448Y-133909834D01*
X59160587Y-133909834D01*
X59142487Y-133185893D01*
X59243035Y-132803809D01*
X59383805Y-132180415D01*
X59524571Y-131738001D01*
X59765885Y-131054278D01*
X59987092Y-130772742D01*
X59403912Y-130511317D01*
X59323472Y-130068907D01*
X59524567Y-129445513D01*
X59966977Y-130008582D01*
X60248513Y-130249896D01*
X60268624Y-130652087D01*
X60851800Y-130511321D01*
X61052895Y-130229788D01*
X61160148Y-129988471D01*
X62420350Y-129988471D01*
X62661664Y-130008582D01*
X62902981Y-130290114D01*
X63165148Y-130206698D01*
X63285061Y-130652094D01*
X63320424Y-130752288D01*
X63425831Y-130732524D01*
X63345391Y-130149348D01*
X63165148Y-130206698D01*
X63144295Y-130129244D01*
X62963311Y-129948260D01*
X62500790Y-129546069D01*
X62449241Y-129540643D01*
X62420350Y-129988471D01*
X61160148Y-129988471D01*
X61294213Y-129686827D01*
X61595856Y-129546061D01*
X61708440Y-129309633D01*
X62118710Y-129505850D01*
X62449241Y-129540643D01*
X62460568Y-129365073D01*
X61796952Y-129123759D01*
X61708440Y-129309633D01*
X61656189Y-129284644D01*
X61173562Y-129043326D01*
X60630600Y-128701464D01*
X59946877Y-128279162D01*
X59625123Y-128138396D01*
X59041947Y-127937300D01*
X57875592Y-127957411D01*
X57232087Y-128178618D01*
X56829896Y-128600916D01*
X56568472Y-129023219D01*
X56367377Y-129706946D01*
X56361092Y-129776701D01*
X56347267Y-129948259D01*
X56339882Y-130054541D01*
X56333441Y-130165065D01*
X56328885Y-130272760D01*
X56327157Y-130370558D01*
X55813827Y-130370558D01*
X55804301Y-130189574D01*
X55904851Y-129123767D01*
X56226603Y-128500373D01*
X56648905Y-128037852D01*
X56708949Y-127999252D01*
X56718657Y-128183715D01*
X57310128Y-127749972D01*
X57323482Y-127690833D01*
X57546719Y-127690833D01*
X58059327Y-127611960D01*
X58095684Y-127462493D01*
X58981612Y-127394343D01*
X59665337Y-127494891D01*
X60127858Y-127776423D01*
X60892018Y-128178614D01*
X61334431Y-128460147D01*
X61595856Y-128701464D01*
X62018155Y-128842230D01*
X62701882Y-129204203D01*
X63124184Y-129385188D01*
X63345391Y-129747161D01*
X63486157Y-130089022D01*
X63647034Y-130471106D01*
X63868241Y-130913516D01*
X64169884Y-131195052D01*
X64199470Y-131232034D01*
X64250321Y-131195052D01*
X64511746Y-131074393D01*
X64692730Y-130853186D01*
X65115029Y-130290118D01*
X65537331Y-129928145D01*
X65576074Y-129969470D01*
X65497105Y-130028697D01*
X65718312Y-130330336D01*
X65865015Y-130255104D01*
X66040070Y-130290114D01*
X66562916Y-130390662D01*
X66904778Y-130430880D01*
X67246640Y-130531432D01*
X67710866Y-130924237D01*
X67809708Y-130853194D01*
X68513546Y-130249907D01*
X69076611Y-130048812D01*
X69961434Y-129787387D01*
X71188115Y-129385195D01*
X72213704Y-129023223D01*
X73098523Y-129043334D01*
X73108153Y-129046021D01*
X73141877Y-129248366D01*
X73713658Y-129366660D01*
X73730001Y-129219562D01*
X73108153Y-129046021D01*
X73063015Y-128775187D01*
X72905289Y-128065421D01*
X72609555Y-127749968D01*
X72215237Y-127158496D01*
X72151635Y-127059912D01*
X72846131Y-127059912D01*
X73220738Y-127710539D01*
X73289454Y-127623897D01*
X73122178Y-127414801D01*
X72859288Y-127046755D01*
X72846131Y-127059912D01*
X72151635Y-127059912D01*
X71820923Y-126547309D01*
X71505471Y-126271288D01*
X71268883Y-125916407D01*
X71268883Y-125443221D01*
X71801198Y-125443221D01*
X71860364Y-125443221D01*
X71919514Y-125679820D01*
X72156102Y-126113566D01*
X72491272Y-126468447D01*
X72826443Y-127000773D01*
X72859288Y-127046755D01*
X73378457Y-126527587D01*
X73615044Y-125837535D01*
X73181302Y-125541800D01*
X72530682Y-125443221D01*
X71860364Y-125443221D01*
X71820935Y-125285502D01*
X71864165Y-125060709D01*
X71919499Y-125068614D01*
X73003865Y-125009463D01*
X73094832Y-124983878D01*
X72984147Y-124970042D01*
X72668694Y-124950331D01*
X71896261Y-124893809D01*
X71864165Y-125060709D01*
X71842515Y-125057617D01*
X71801198Y-125443221D01*
X71268883Y-125443221D01*
X71268883Y-125403800D01*
X71389728Y-125029185D01*
X71643479Y-125029185D01*
X71842515Y-125057617D01*
X71860348Y-124891181D01*
X71896261Y-124893809D01*
X71919514Y-124772894D01*
X71998375Y-124280001D01*
X72012096Y-124221687D01*
X71998360Y-124220854D01*
X71643479Y-125029185D01*
X71389728Y-125029185D01*
X71466042Y-124792613D01*
X71505471Y-124378581D01*
X71505471Y-123491370D01*
X71604050Y-123235064D01*
X71584340Y-122781603D01*
X71249173Y-122446436D01*
X70637986Y-122446436D01*
X70125374Y-122387286D01*
X70132628Y-122361380D01*
X70302807Y-122367568D01*
X70513109Y-121894393D01*
X70992871Y-121894393D01*
X71406903Y-121992972D01*
X71663208Y-122130984D01*
X71899796Y-122466151D01*
X72096955Y-122604163D01*
X72175816Y-123077342D01*
X72175816Y-123550517D01*
X72077237Y-123944834D01*
X72012096Y-124221687D01*
X73299603Y-124299716D01*
X73930504Y-124319426D01*
X75093735Y-124279997D01*
X75744355Y-124299708D01*
X76572415Y-124240557D01*
X77380761Y-124023684D01*
X77893368Y-123747664D01*
X78120241Y-123587518D01*
X78445412Y-123668810D01*
X78800301Y-123313925D01*
X78622068Y-123206983D01*
X78228539Y-123511073D01*
X78120241Y-123587518D01*
X77735642Y-123491370D01*
X76966729Y-123195632D01*
X75961224Y-122919615D01*
X75290890Y-122683024D01*
X74265671Y-122485865D01*
X73516472Y-122446436D01*
X72077225Y-122446436D01*
X71899785Y-122170416D01*
X72064559Y-121992968D01*
X74521985Y-121992968D01*
X77301899Y-123057624D01*
X78019348Y-123019360D01*
X77932812Y-122998473D01*
X77104748Y-122722453D01*
X76513276Y-122564726D01*
X75626065Y-122071833D01*
X75034267Y-121961731D01*
X74521985Y-121992968D01*
X72064559Y-121992968D01*
X72156090Y-121894396D01*
X73654488Y-121894396D01*
X74778286Y-121914107D01*
X75034267Y-121961731D01*
X76138676Y-121894389D01*
X76769581Y-122052115D01*
X77361054Y-122150694D01*
X78011674Y-122387286D01*
X79155186Y-122347857D01*
X79805806Y-122249278D01*
X80555005Y-121874682D01*
X80909886Y-121480364D01*
X80988747Y-121204344D01*
X80969037Y-120829749D01*
X80890175Y-120297423D01*
X80791796Y-119608773D01*
X80789623Y-119607371D01*
X80791596Y-119607371D01*
X80791796Y-119608773D01*
X80850731Y-119646796D01*
X81560502Y-119351061D01*
X81463776Y-119254336D01*
X81047902Y-119331351D01*
X80791596Y-119607371D01*
X80789623Y-119607371D01*
X80239544Y-119252482D01*
X79825516Y-118937029D01*
X79115750Y-118641295D01*
X78543992Y-118286414D01*
X78051098Y-117793521D01*
X77637070Y-117596362D01*
X77085030Y-117162615D01*
X76662867Y-116830918D01*
X76651269Y-116906314D01*
X76730137Y-117202048D01*
X77104733Y-117576647D01*
X77499051Y-117832953D01*
X77814503Y-118148406D01*
X78189103Y-118345564D01*
X78504555Y-118483576D01*
X78977730Y-118661017D01*
X78958020Y-118996188D01*
X78603138Y-119114482D01*
X77873658Y-119094771D01*
X77163888Y-118976473D01*
X76848435Y-118759600D01*
X76631566Y-118700450D01*
X76237248Y-118937037D01*
X75842934Y-118897608D01*
X75192315Y-118799029D01*
X74778283Y-118700450D01*
X74581124Y-118641299D01*
X74285389Y-119035613D01*
X73969937Y-119370783D01*
X73733346Y-119567942D01*
X73279885Y-119646803D01*
X73122159Y-119824248D01*
X72688412Y-119981974D01*
X72116654Y-120179133D01*
X72116654Y-120474867D01*
X71919495Y-120849467D01*
X71209729Y-121066340D01*
X70657685Y-121046630D01*
X70267398Y-121258029D01*
X70263382Y-121125472D01*
X70026791Y-121046610D01*
X70013855Y-121045911D01*
X70001736Y-121211534D01*
X69711335Y-121066332D01*
X69752774Y-121031800D01*
X70013855Y-121045911D01*
X70026787Y-120869181D01*
X70026787Y-120803456D01*
X69752774Y-121031800D01*
X69297310Y-121007182D01*
X69671910Y-121381781D01*
X69671910Y-121686224D01*
X69967637Y-121677527D01*
X70001736Y-121211534D01*
X70184514Y-121302924D01*
X70267398Y-121258029D01*
X70283093Y-121776091D01*
X70539399Y-121835242D01*
X70513109Y-121894393D01*
X70263386Y-121894393D01*
X70132628Y-122361380D01*
X69218442Y-122328139D01*
X69218442Y-122643588D01*
X68883271Y-122801314D01*
X66359658Y-122761885D01*
X64309220Y-122761885D01*
X62041909Y-122702735D01*
X61061098Y-122613569D01*
X60701241Y-122801322D01*
X60228066Y-123116774D01*
X60050622Y-123254782D01*
X59715451Y-123412509D01*
X59399998Y-123629382D01*
X59242272Y-123826541D01*
X59212699Y-123895544D01*
X59538006Y-123865973D01*
X59952038Y-123432231D01*
X60760384Y-123313933D01*
X61529301Y-123097060D01*
X62278500Y-122998480D01*
X63007985Y-122998480D01*
X63205143Y-123294215D01*
X63007985Y-123451941D01*
X62179925Y-123550521D01*
X61411011Y-123649100D01*
X60523800Y-123806822D01*
X60740674Y-123964549D01*
X61253281Y-124063128D01*
X61194130Y-124496874D01*
X60681519Y-124536303D01*
X60385785Y-124358863D01*
X60247773Y-124102557D01*
X60011185Y-124358863D01*
X59261986Y-124339152D01*
X59143692Y-124516596D01*
X58788809Y-124713751D01*
X58749379Y-125088351D01*
X58766702Y-125313556D01*
X58867671Y-125206648D01*
X59656300Y-124772902D01*
X60070332Y-124792613D01*
X60208340Y-125246073D01*
X59912606Y-125246073D01*
X59380280Y-125502379D01*
X58887387Y-125896693D01*
X58631083Y-126251578D01*
X58236769Y-126882479D01*
X58095684Y-127462493D01*
X57935915Y-127474784D01*
X57562200Y-127578594D01*
X57546719Y-127690833D01*
X57323482Y-127690833D01*
X57334547Y-127641831D01*
X57562200Y-127578594D01*
X57625578Y-127119074D01*
X57921315Y-126369876D01*
X58028116Y-126194417D01*
X58335347Y-126113566D01*
X58788809Y-125600958D01*
X58766702Y-125313556D01*
X58197335Y-125916415D01*
X58028116Y-126194417D01*
X57960747Y-126212145D01*
X57605864Y-126783900D01*
X57448138Y-127138781D01*
X57334547Y-127641831D01*
X57211972Y-127675879D01*
X56708949Y-127999252D01*
X56679226Y-127434516D01*
X56856667Y-126882475D01*
X57112973Y-126488162D01*
X57369277Y-126093848D01*
X57743876Y-125699530D01*
X58000180Y-125423510D01*
X58039610Y-124989764D01*
X58236767Y-124496871D01*
X58421599Y-124299716D01*
X58571936Y-124299716D01*
X59123978Y-124102564D01*
X59212699Y-123895544D01*
X59104260Y-123905402D01*
X58606123Y-124145878D01*
X58571936Y-124299716D01*
X58421599Y-124299716D01*
X58532502Y-124181418D01*
X58606123Y-124145878D01*
X58729662Y-123589949D01*
X59084549Y-123116770D01*
X59853463Y-122919615D01*
X60168915Y-122604163D01*
X60337020Y-122286631D01*
X60425217Y-122328135D01*
X60957543Y-122604155D01*
X61061098Y-122613569D01*
X61154706Y-122564730D01*
X60878682Y-122091551D01*
X60346356Y-122268996D01*
X60337020Y-122286631D01*
X59419713Y-121854956D01*
X58197339Y-121342349D01*
X56738373Y-120514289D01*
X56265194Y-120277697D01*
X56265194Y-120277693D01*
X57389016Y-120277693D01*
X58946536Y-121007186D01*
X59103264Y-121027502D01*
X60937832Y-122091551D01*
X62416516Y-122111262D01*
X68153798Y-122229560D01*
X68764988Y-122111262D01*
X68942429Y-121874674D01*
X69671910Y-121776095D01*
X69671910Y-121686224D01*
X68626965Y-121716956D01*
X66951127Y-121657805D01*
X65018986Y-121500079D01*
X63106556Y-121460650D01*
X61351857Y-121224059D01*
X60011185Y-121145197D01*
X59103264Y-121027502D01*
X58966258Y-120948039D01*
X57650951Y-120284241D01*
X57389016Y-120277693D01*
X56265194Y-120277693D01*
X56146899Y-119627078D01*
X56225758Y-118463847D01*
X56282469Y-116630290D01*
X56738377Y-116630290D01*
X56856671Y-119883391D01*
X57650951Y-120284241D01*
X58966275Y-120317122D01*
X58985985Y-119745364D01*
X59045136Y-119114462D01*
X59045136Y-118680716D01*
X59262009Y-118522990D01*
X59597180Y-118522990D01*
X59636609Y-118996169D01*
X59459164Y-119291903D01*
X59459164Y-119804511D01*
X59419735Y-120474845D01*
X59754906Y-120474845D01*
X59794335Y-120159396D01*
X59814045Y-119548205D01*
X59833756Y-118897586D01*
X60149209Y-118739859D01*
X60464654Y-118739859D01*
X60464654Y-119981959D01*
X60267495Y-120494567D01*
X60602662Y-120474856D01*
X62160206Y-120652297D01*
X62199635Y-120435423D01*
X62337643Y-120041110D01*
X62298214Y-119528502D01*
X62081341Y-119390490D01*
X61746171Y-119331339D01*
X60918110Y-119390490D01*
X60602658Y-119232764D01*
X60681519Y-118779303D01*
X61884182Y-118779303D01*
X62909401Y-118996176D01*
X63007981Y-119489070D01*
X62869973Y-120080542D01*
X62751675Y-120731162D01*
X63481160Y-120790312D01*
X64545399Y-120770609D01*
X65176716Y-120770609D01*
X65452733Y-120908618D01*
X66556817Y-121026911D01*
X67798909Y-121086062D01*
X67759480Y-120317149D01*
X67739769Y-119331359D01*
X67754665Y-118996188D01*
X67936921Y-118996188D01*
X67936921Y-118996184D01*
X68390397Y-118996184D01*
X68410107Y-119981970D01*
X68429818Y-121086051D01*
X68686123Y-121086051D01*
X69238202Y-121007182D01*
X69376175Y-120987471D01*
X69376175Y-120790312D01*
X69395886Y-120060832D01*
X69514180Y-119075045D01*
X69553608Y-117872386D01*
X69632470Y-117142901D01*
X69681559Y-116455695D01*
X70199110Y-116505784D01*
X70204228Y-116275412D01*
X69691620Y-116314841D01*
X69681559Y-116455695D01*
X69652192Y-116452853D01*
X68981854Y-116275408D01*
X68483315Y-116078618D01*
X68449536Y-116788020D01*
X68410107Y-117478072D01*
X68390397Y-118227271D01*
X68390397Y-118996184D01*
X67936921Y-118996184D01*
X67936921Y-118266703D01*
X67779198Y-118266703D01*
X67779198Y-118444148D01*
X67754665Y-118996188D01*
X67424309Y-118996188D01*
X66911702Y-118956759D01*
X66063923Y-118858180D01*
X65295010Y-118818751D01*
X65275300Y-119370795D01*
X65295010Y-120060843D01*
X65176716Y-120770609D01*
X64545399Y-120770609D01*
X64545811Y-120770602D01*
X64624672Y-120119982D01*
X64624672Y-118917323D01*
X64821831Y-118306136D01*
X65314724Y-118168128D01*
X66241364Y-118108977D01*
X67128575Y-118266703D01*
X67779198Y-118266703D01*
X67779198Y-117044325D01*
X67818627Y-116176833D01*
X67996596Y-115916725D01*
X68232655Y-115979674D01*
X68483315Y-116078618D01*
X68488965Y-115959960D01*
X68074933Y-115802233D01*
X67996596Y-115916725D01*
X67641182Y-115821948D01*
X67184708Y-115683943D01*
X68962140Y-115683943D01*
X69395882Y-115782523D01*
X69906733Y-115682572D01*
X70085934Y-115821952D01*
X70299816Y-115673881D01*
X70302807Y-115605078D01*
X69906733Y-115682572D01*
X69731053Y-115545931D01*
X69238160Y-115368491D01*
X68981854Y-115427641D01*
X68972083Y-115425343D01*
X68962140Y-115683943D01*
X67184708Y-115683943D01*
X66793404Y-115565642D01*
X65866765Y-115368483D01*
X64880978Y-115250189D01*
X63757180Y-115131896D01*
X62495373Y-114875590D01*
X61588448Y-114560137D01*
X60504082Y-114086959D01*
X59774598Y-113653214D01*
X59084549Y-113120888D01*
X58749381Y-112647709D01*
X58531054Y-111606463D01*
X58453648Y-111740786D01*
X57724165Y-113101174D01*
X57349566Y-114047530D01*
X57073544Y-115565642D01*
X56738377Y-116630290D01*
X56282469Y-116630290D01*
X56284909Y-116551421D01*
X56659508Y-115072737D01*
X56836951Y-113870076D01*
X57034108Y-113180028D01*
X57994571Y-111425332D01*
X58493075Y-111425332D01*
X58531054Y-111606463D01*
X59087857Y-110640236D01*
X59123971Y-110893010D01*
X59183121Y-111504199D01*
X59202832Y-112174534D01*
X59538003Y-112785721D01*
X59991463Y-113239184D01*
X60740662Y-113594069D01*
X61627873Y-113988383D01*
X62593945Y-114244689D01*
X63836037Y-114579856D01*
X65295002Y-114717864D01*
X65728749Y-114954455D01*
X66911694Y-114934744D01*
X67049706Y-115171332D01*
X68173504Y-115230483D01*
X68535322Y-115204007D01*
X68646687Y-115348780D01*
X68972083Y-115425343D01*
X68981850Y-115171332D01*
X68535322Y-115204007D01*
X68449528Y-115092475D01*
X67936921Y-115053046D01*
X67168004Y-114954466D01*
X66615964Y-114816455D01*
X65886479Y-114678446D01*
X65156994Y-114619296D01*
X64447228Y-114560145D01*
X63481156Y-114362986D01*
X62712243Y-113948956D01*
X62002472Y-113554640D01*
X61332139Y-113160327D01*
X60878678Y-112706866D01*
X60464650Y-112115391D01*
X60149197Y-111642213D01*
X60122582Y-111109879D01*
X60720955Y-111109879D01*
X60799824Y-111721070D01*
X60996983Y-111977374D01*
X61272999Y-112312541D01*
X61706746Y-112766005D01*
X62258786Y-113101172D01*
X62712246Y-113298329D01*
X63264287Y-113594067D01*
X63974057Y-113870085D01*
X64624676Y-114027812D01*
X65235859Y-114027812D01*
X65511883Y-114165824D01*
X65785290Y-114123763D01*
X65866780Y-114205252D01*
X66280812Y-114284113D01*
X66331368Y-114164044D01*
X66694825Y-114303836D01*
X67227150Y-114382697D01*
X68074929Y-114461566D01*
X68646687Y-114678439D01*
X69060715Y-114777018D01*
X69474747Y-114895312D01*
X70184514Y-115210764D01*
X70342240Y-115644511D01*
X70299816Y-115673881D01*
X70263379Y-116512004D01*
X70199110Y-116505784D01*
X70184517Y-117162623D01*
X70007077Y-118266703D01*
X70026787Y-119784815D01*
X70026787Y-120803456D01*
X70302807Y-120573439D01*
X71052006Y-120494578D01*
X71446320Y-120317137D01*
X71761773Y-119903105D01*
X72116654Y-119607371D01*
X72708127Y-119351065D01*
X72767277Y-119232772D01*
X73260171Y-119213061D01*
X73831925Y-118601870D01*
X74245957Y-118168124D01*
X75152882Y-118128695D01*
X75626061Y-118128695D01*
X75882367Y-118483576D01*
X76493554Y-118108977D01*
X76848435Y-118286418D01*
X77242753Y-118306128D01*
X76434407Y-117497782D01*
X76079525Y-117142897D01*
X76020375Y-116590857D01*
X75969675Y-115999388D01*
X76414692Y-115999388D01*
X76532986Y-116728869D01*
X76662867Y-116830918D01*
X76690697Y-116650008D01*
X76592118Y-116255694D01*
X76542987Y-116122338D01*
X76414692Y-115999388D01*
X75969675Y-115999388D01*
X75961224Y-115900805D01*
X75948214Y-115840091D01*
X76000660Y-115585352D01*
X75547184Y-114284121D01*
X75498544Y-114338842D01*
X75093731Y-113278613D01*
X74679699Y-112785718D01*
X74265667Y-112253392D01*
X73575615Y-111543625D01*
X73122155Y-111149312D01*
X72688408Y-110636700D01*
X72652586Y-110505361D01*
X72540044Y-110419829D01*
X72629258Y-110419829D01*
X72652586Y-110505361D01*
X72747578Y-110577555D01*
X72778246Y-110557839D01*
X73161599Y-110557839D01*
X73595345Y-110932438D01*
X73496758Y-110794427D01*
X73509290Y-110712969D01*
X73279877Y-110419829D01*
X73178399Y-110361842D01*
X73161599Y-110557839D01*
X72778246Y-110557839D01*
X73023579Y-110400113D01*
X73023579Y-110273372D01*
X73003857Y-110262103D01*
X72629258Y-110419829D01*
X72540044Y-110419829D01*
X72254685Y-110202956D01*
X71860367Y-109769208D01*
X71426621Y-109256598D01*
X71229462Y-108763703D01*
X71199985Y-108634007D01*
X71170323Y-109138306D01*
X71170323Y-109552336D01*
X71071743Y-110064946D01*
X70598565Y-110498692D01*
X69652211Y-110912722D01*
X68666421Y-111425332D01*
X68094662Y-111681635D01*
X67641202Y-111898509D01*
X67246888Y-112529412D01*
X66931435Y-113061738D01*
X66615983Y-113534917D01*
X66438538Y-113909516D01*
X66331368Y-114164044D01*
X66182217Y-114106679D01*
X66017813Y-114046894D01*
X66024491Y-114086964D01*
X65785290Y-114123763D01*
X65709054Y-114047526D01*
X65777511Y-113959511D01*
X66017813Y-114046894D01*
X65985058Y-113850369D01*
X65913335Y-113784882D01*
X65777511Y-113959511D01*
X65748475Y-113948952D01*
X65235863Y-114027812D01*
X65235859Y-114027812D01*
X65196431Y-114008097D01*
X64821831Y-113436341D01*
X64368371Y-112746291D01*
X64190926Y-112036524D01*
X64092347Y-111326756D01*
X64072636Y-110281821D01*
X64072636Y-110163527D01*
X64644391Y-110163527D01*
X64664101Y-110853575D01*
X64768754Y-111516381D01*
X64782399Y-111661917D01*
X64791265Y-111695904D01*
X64861264Y-112430834D01*
X65078133Y-112884297D01*
X65531598Y-113436339D01*
X65913335Y-113784882D01*
X65985077Y-113692643D01*
X66201951Y-113357474D01*
X66379391Y-112923730D01*
X66635697Y-112568844D01*
X66931435Y-111997088D01*
X67306035Y-111563344D01*
X67838356Y-111228175D01*
X68350968Y-110912722D01*
X69041016Y-110656418D01*
X69573342Y-110340966D01*
X70145100Y-109966366D01*
X70381691Y-109828358D01*
X70559132Y-109453759D01*
X70578843Y-108803141D01*
X70531526Y-108329959D01*
X71130883Y-108329959D01*
X71199985Y-108634007D01*
X71209752Y-108467970D01*
X71453296Y-108172232D01*
X71663212Y-108172232D01*
X71761792Y-108684842D01*
X71880085Y-109079156D01*
X72057526Y-109276316D01*
X72412411Y-109690346D01*
X72491272Y-109512904D01*
X72494701Y-109493188D01*
X73003869Y-109493188D01*
X73023579Y-109946652D01*
X73023579Y-110273372D01*
X73178399Y-110361842D01*
X73220749Y-109867787D01*
X73226833Y-109827633D01*
X73240460Y-109848073D01*
X73339039Y-109572051D01*
X73297940Y-109358334D01*
X73226833Y-109827633D01*
X73003869Y-109493188D01*
X72494701Y-109493188D01*
X72570134Y-109059441D01*
X72648995Y-108566548D01*
X72925015Y-108349675D01*
X73220749Y-108389105D01*
X73240460Y-109059441D01*
X73297940Y-109358334D01*
X73319329Y-109217168D01*
X73358758Y-108724272D01*
X73398186Y-108329959D01*
X73319317Y-108093369D01*
X72944718Y-107837063D01*
X72274384Y-107797633D01*
X71899785Y-107699053D01*
X71679984Y-107685732D01*
X71663212Y-108172232D01*
X71453296Y-108172232D01*
X71485768Y-108132802D01*
X71257430Y-107666613D01*
X71167946Y-107644242D01*
X71130883Y-108329959D01*
X70531526Y-108329959D01*
X70499981Y-108014510D01*
X70460553Y-107304743D01*
X70322545Y-106989291D01*
X69967660Y-106378102D01*
X69691639Y-105865492D01*
X69455048Y-105274020D01*
X69257889Y-104682547D01*
X69255850Y-104623398D01*
X69770489Y-104623398D01*
X69849358Y-104958567D01*
X69967652Y-105274020D01*
X70145096Y-105806346D01*
X70381688Y-106180945D01*
X70559128Y-106594975D01*
X70697136Y-106811848D01*
X70833164Y-106964879D01*
X70894284Y-107186438D01*
X70913994Y-107580754D01*
X71167946Y-107644242D01*
X71170311Y-107600476D01*
X71225036Y-107600476D01*
X71249165Y-107649739D01*
X71249165Y-107659623D01*
X71254154Y-107659925D01*
X71257430Y-107666613D01*
X71308312Y-107679333D01*
X71315834Y-107663663D01*
X71679984Y-107685732D01*
X71682923Y-107600476D01*
X71346164Y-107600476D01*
X71315834Y-107663663D01*
X71254154Y-107659925D01*
X71249165Y-107649739D01*
X71249165Y-107600476D01*
X71346164Y-107600476D01*
X71544899Y-107186446D01*
X71519961Y-107089464D01*
X71249165Y-107048434D01*
X71249165Y-107600476D01*
X71225036Y-107600476D01*
X71012589Y-107166731D01*
X70907435Y-107048434D01*
X70833164Y-106964879D01*
X70736558Y-106614682D01*
X70559113Y-106161219D01*
X70480252Y-105609179D01*
X70164799Y-105116286D01*
X69908494Y-104682540D01*
X69777365Y-104485849D01*
X69770489Y-104623398D01*
X69255850Y-104623398D01*
X69238179Y-104110791D01*
X69250430Y-103804425D01*
X69297303Y-103893910D01*
X69671902Y-104327656D01*
X69777365Y-104485849D01*
X69790200Y-104229083D01*
X69257889Y-103617898D01*
X69250430Y-103804425D01*
X69080433Y-103479880D01*
X69048896Y-103301179D01*
X68764985Y-103460169D01*
X68173512Y-103795338D01*
X67582039Y-104189654D01*
X67187726Y-104327664D01*
X66714547Y-104662833D01*
X66241368Y-105116295D01*
X65965348Y-105688052D01*
X65630181Y-106397818D01*
X65354161Y-107048438D01*
X64959847Y-108093373D01*
X64703541Y-108763707D01*
X64703541Y-109434044D01*
X64644391Y-110163527D01*
X64072636Y-110163527D01*
X64072636Y-109512908D01*
X64210644Y-108862288D01*
X64368371Y-108231383D01*
X64644394Y-107541333D01*
X64880982Y-106930144D01*
X65078137Y-106496398D01*
X65166122Y-106258839D01*
X65571038Y-105865492D01*
X65748482Y-104781127D01*
X65666321Y-104846856D01*
X65452736Y-105471179D01*
X65275296Y-105964072D01*
X65166122Y-106258839D01*
X64880986Y-106535828D01*
X64072640Y-107304741D01*
X63737473Y-107699057D01*
X63500886Y-108211667D01*
X63264294Y-108763707D01*
X63146000Y-109158022D01*
X63106556Y-109690346D01*
X62672814Y-109769206D01*
X62475655Y-109650910D01*
X62475655Y-109118590D01*
X61943333Y-109434043D01*
X61450440Y-109749491D01*
X60977261Y-110242386D01*
X60819535Y-110498692D01*
X60720955Y-111109879D01*
X60122582Y-111109879D01*
X60109768Y-110853583D01*
X60168919Y-110360692D01*
X59892899Y-110064953D01*
X59857699Y-109748128D01*
X59123978Y-110577555D01*
X59087857Y-110640236D01*
X59045102Y-110340968D01*
X58493075Y-111425332D01*
X57994571Y-111425332D01*
X58059325Y-111307032D01*
X58374777Y-110695841D01*
X58828240Y-109907212D01*
X58988986Y-109710070D01*
X59853470Y-109710070D01*
X59857699Y-109748128D01*
X59894380Y-109706661D01*
X60326649Y-109670640D01*
X60780110Y-109690350D01*
X61470162Y-109079159D01*
X62041916Y-108684846D01*
X62455948Y-108389109D01*
X62929127Y-108231383D01*
X63343742Y-107439845D01*
X63599450Y-107403315D01*
X64466942Y-106634402D01*
X64042768Y-106551922D01*
X63540318Y-107087868D01*
X63362874Y-107403321D01*
X63343742Y-107439845D01*
X62909398Y-107501895D01*
X62022191Y-107955357D01*
X61095551Y-108566546D01*
X60484364Y-109039725D01*
X60030900Y-109552334D01*
X59894380Y-109706661D01*
X59853470Y-109710070D01*
X58988986Y-109710070D01*
X59873173Y-108625689D01*
X60602658Y-108132796D01*
X61647591Y-107442746D01*
X62948830Y-106752696D01*
X63757176Y-106496390D01*
X64042768Y-106551922D01*
X64131791Y-106456965D01*
X64526104Y-105885209D01*
X65255589Y-105175442D01*
X65666321Y-104846856D01*
X65709042Y-104721980D01*
X66044213Y-104386811D01*
X66911705Y-103795338D01*
X67562325Y-103598179D01*
X67996068Y-103223580D01*
X68567826Y-102888413D01*
X68901614Y-102785709D01*
X69021283Y-103144711D01*
X69048896Y-103301179D01*
X69257878Y-103184149D01*
X69080437Y-102730687D01*
X68901614Y-102785709D01*
X68883271Y-102730681D01*
X69159295Y-102691250D01*
X69455029Y-102750401D01*
X69711335Y-102986991D01*
X69770485Y-103420737D01*
X69849347Y-103716473D01*
X70026787Y-103913630D01*
X70302807Y-104386809D01*
X70775986Y-104997998D01*
X70973145Y-105471177D01*
X71190018Y-105983786D01*
X71367459Y-106496396D01*
X71519961Y-107089464D01*
X71899785Y-107147013D01*
X72353249Y-107304740D01*
X72964436Y-107442750D01*
X73437615Y-107580760D01*
X73772782Y-107699055D01*
X74048802Y-108073655D01*
X74068512Y-108783421D01*
X73851639Y-109118590D01*
X73654480Y-109808638D01*
X73575619Y-110281817D01*
X73509290Y-110712969D01*
X73634759Y-110873292D01*
X73930493Y-111188744D01*
X74383957Y-111721070D01*
X74778271Y-112016804D01*
X75074006Y-112391404D01*
X75507752Y-112825148D01*
X75803486Y-113456053D01*
X75980927Y-113909518D01*
X76118935Y-114362979D01*
X76335808Y-115053031D01*
X76394959Y-115545924D01*
X76454110Y-115881095D01*
X76542987Y-116122338D01*
X76887871Y-116452853D01*
X77361046Y-116807734D01*
X77952519Y-117241480D01*
X78701718Y-117773802D01*
X79293190Y-118089255D01*
X80081822Y-118523001D01*
X80929600Y-118877883D01*
X81225335Y-119015895D01*
X81463776Y-119254336D01*
X81580224Y-119232772D01*
X81777382Y-119351065D01*
X81994256Y-119705947D01*
X82013966Y-120376280D01*
X82013966Y-120829749D01*
X81777379Y-121263495D01*
X81383061Y-121776103D01*
X80949315Y-122249282D01*
X80081818Y-122683028D01*
X79431199Y-122821036D01*
X78780579Y-122978762D01*
X78019348Y-123019360D01*
X78504567Y-123136481D01*
X78622068Y-123206983D01*
X78662285Y-123175906D01*
X79115746Y-123294200D01*
X79056595Y-123708232D01*
X78386262Y-124082831D01*
X77518769Y-124634875D01*
X76887867Y-124792601D01*
X75704922Y-124812312D01*
X73634770Y-124832022D01*
X73094832Y-124983878D01*
X73457322Y-125029193D01*
X73930501Y-125305216D01*
X74167092Y-125561522D01*
X74265671Y-126034701D01*
X74029080Y-126488162D01*
X73674199Y-127138781D01*
X73289454Y-127623897D01*
X73516491Y-127907694D01*
X73595360Y-128440020D01*
X73753087Y-129011778D01*
X73730001Y-129219562D01*
X73963234Y-129284651D01*
X74727395Y-129525969D01*
X74771997Y-129648623D01*
X74948594Y-129787379D01*
X75029034Y-130129241D01*
X74968705Y-130290118D01*
X74787720Y-130450995D01*
X74948594Y-130571654D01*
X75299381Y-130699210D01*
X75350792Y-130631980D01*
X75732873Y-130290118D01*
X76476929Y-130270007D01*
X77019887Y-130249896D01*
X77442189Y-130792857D01*
X77361748Y-131335814D01*
X77180764Y-131557021D01*
X77180764Y-131959212D01*
X77080212Y-132421733D01*
X77125817Y-132938578D01*
X77380200Y-133134257D01*
X77398574Y-133740443D01*
X77659119Y-133766497D01*
X78309948Y-133766497D01*
X78719040Y-133989642D01*
X79090943Y-134342948D01*
X79332680Y-134733447D01*
X80206650Y-134677657D01*
X81503956Y-134575237D01*
X81554295Y-134212782D01*
X82159150Y-134212782D01*
X82176822Y-134619127D01*
X82289307Y-134956580D01*
X82307908Y-135607413D01*
X82456669Y-136072291D01*
X82493859Y-136667338D01*
X82624024Y-137150813D01*
X82865761Y-137634287D01*
X83181878Y-137931811D01*
X83739731Y-137969000D01*
X84502133Y-137652884D01*
X85097176Y-137466933D01*
X86026932Y-137113623D01*
X86845120Y-136704527D01*
X87365784Y-136481387D01*
X87719094Y-136239649D01*
X88444306Y-135811961D01*
X88871995Y-135607413D01*
X89188111Y-135347079D01*
X89206711Y-135012370D01*
X89429856Y-134807822D01*
X89671593Y-134956580D01*
X89969113Y-134975180D01*
X89913334Y-134696250D01*
X90006306Y-134528891D01*
X90359616Y-134584681D01*
X90489785Y-134640471D01*
X90731522Y-134491709D01*
X90880284Y-134287161D01*
X91106422Y-133747908D01*
X91122014Y-133747908D01*
X91233586Y-134064028D01*
X91652845Y-134194141D01*
X91735646Y-134064025D01*
X91317856Y-133823469D01*
X91289364Y-133840880D01*
X91152303Y-133738085D01*
X91122014Y-133747908D01*
X91106422Y-133747908D01*
X91120534Y-133714258D01*
X91152303Y-133738085D01*
X91163344Y-133734504D01*
X91317856Y-133823469D01*
X91624081Y-133636332D01*
X91631395Y-133582704D01*
X91163344Y-133734504D01*
X91122021Y-133710711D01*
X91120534Y-133714258D01*
X90991841Y-133617739D01*
X90880272Y-133283026D01*
X90824482Y-132873934D01*
X90847062Y-132557810D01*
X91493924Y-132557810D01*
X91568303Y-132818144D01*
X91679875Y-133227240D01*
X91631395Y-133582704D01*
X91810032Y-133524767D01*
X92516652Y-133413199D01*
X93223271Y-133004107D01*
X93967076Y-132502036D01*
X94394764Y-132018561D01*
X94803860Y-131516490D01*
X95064198Y-131367728D01*
X95064198Y-130977221D01*
X94506344Y-130865653D01*
X93836918Y-130940032D01*
X93465016Y-131181769D01*
X92962948Y-131683837D01*
X92665425Y-132111525D01*
X92219136Y-132316073D01*
X91605496Y-132353263D01*
X91493924Y-132557810D01*
X90847062Y-132557810D01*
X90861672Y-132353270D01*
X90805882Y-131646655D01*
X90694314Y-131144583D01*
X90266625Y-130549540D01*
X89894722Y-130233424D01*
X89392651Y-129898711D01*
X89150914Y-129917311D01*
X89299675Y-130047476D01*
X89652985Y-130344996D01*
X89969101Y-130605330D01*
X90210839Y-130884257D01*
X90396790Y-131535086D01*
X90489770Y-132130129D01*
X90601338Y-132743769D01*
X90619938Y-133301627D01*
X90675728Y-133859481D01*
X90582749Y-134082621D01*
X90378201Y-134082621D01*
X90155060Y-133952452D01*
X90062088Y-134045432D01*
X90099278Y-134305762D01*
X89801754Y-134491713D01*
X89467045Y-134342951D01*
X89578614Y-133971049D01*
X89987710Y-133878077D01*
X90080689Y-133580557D01*
X89969117Y-132799559D01*
X89857548Y-132130129D01*
X89522835Y-130940039D01*
X89076554Y-130530943D01*
X88388531Y-130121852D01*
X87756295Y-129973090D01*
X87086869Y-129917300D01*
X86845131Y-130159037D01*
X86436039Y-130214827D01*
X86380249Y-130623919D01*
X86640584Y-130977225D01*
X86770749Y-131349127D01*
X87607529Y-131311938D01*
X88165383Y-131274748D01*
X88518692Y-131590869D01*
X88723240Y-131832606D01*
X88667462Y-132223105D01*
X88239773Y-132204505D01*
X87960843Y-131869792D01*
X87272824Y-131962763D01*
X86993893Y-132241694D01*
X86398850Y-132334666D01*
X86231495Y-132613597D01*
X85524876Y-132613597D01*
X85171567Y-133097071D01*
X84967019Y-133134261D01*
X84688092Y-133431784D01*
X84204617Y-133952448D01*
X83628167Y-133878070D01*
X83312050Y-133413191D01*
X82828576Y-133283026D01*
X82512459Y-133375998D01*
X82159150Y-133673522D01*
X82159150Y-134212782D01*
X81554295Y-134212782D01*
X81582703Y-134008235D01*
X81712872Y-133375998D01*
G37*
X81712872Y-133375998D02*
X82121964Y-132855334D01*
X82475274Y-132650786D01*
X83070317Y-132650786D01*
X83460816Y-132818144D01*
X83609574Y-133078475D01*
X83739743Y-133283023D01*
X84093052Y-133283023D01*
X84446362Y-132836741D01*
X84911240Y-132446242D01*
X85152977Y-132092932D01*
X85655049Y-131832602D01*
X86380257Y-131814002D01*
X86212899Y-131256148D01*
X85952569Y-131107386D01*
X85766617Y-130400771D01*
X85915379Y-130028868D01*
X86250092Y-129675559D01*
X86417447Y-129322249D01*
X86956707Y-129210681D01*
X88221177Y-129266459D01*
X89429867Y-129340838D01*
X90006314Y-129675551D01*
X90526978Y-130047454D01*
X90954667Y-130475142D01*
X91419545Y-130902831D01*
X91493924Y-131386305D01*
X91456730Y-131869780D01*
X92107564Y-131832591D01*
X92591038Y-131311926D01*
X92814183Y-130921427D01*
X93353444Y-130549525D01*
X93892704Y-130326384D01*
X94450558Y-130344985D01*
X95194363Y-130400775D01*
X95510479Y-130698298D01*
X95677838Y-131088797D01*
X95584858Y-131497893D01*
X95250149Y-131869795D01*
X94822461Y-132613604D01*
X94357579Y-132966910D01*
X93632367Y-133654933D01*
X92795582Y-134008242D01*
X92200535Y-134119811D01*
X91772847Y-134231383D01*
X91652845Y-134194141D01*
X91345150Y-134677664D01*
X90954651Y-135030974D01*
X90638535Y-135328494D01*
X90080681Y-135514445D01*
X89429852Y-135886347D01*
X88555878Y-136425608D01*
X87849263Y-136871890D01*
X86938099Y-137336768D01*
X86008339Y-137708670D01*
X84985604Y-138192145D01*
X84316178Y-138433882D01*
X83683941Y-138657023D01*
X83246709Y-138569577D01*
X83814122Y-138917349D01*
X84595120Y-139568179D01*
X85338929Y-140311987D01*
X85673642Y-141148768D01*
X85896782Y-142041339D01*
X85814594Y-142452281D01*
X85825547Y-142453498D01*
X90413605Y-149855322D01*
X93740246Y-152499131D01*
X93872883Y-152394255D01*
X95068974Y-152234778D01*
X96424550Y-152298567D01*
X97381421Y-152458045D01*
X98370190Y-152601576D01*
X99438702Y-152856742D01*
X100220150Y-153143805D01*
X101033497Y-153558455D01*
X101846837Y-154036894D01*
X102420964Y-154515334D01*
X102835606Y-155041617D01*
X103106724Y-155456267D01*
X103132847Y-155926432D01*
X103146954Y-155925818D01*
X103146954Y-157131186D01*
X102433568Y-157942961D01*
X101646389Y-158508750D01*
X96406727Y-158459548D01*
X96037739Y-158238150D01*
X91413060Y-158041358D01*
X90921074Y-158311949D01*
X85509213Y-158188956D01*
X84894230Y-157401778D01*
X84805355Y-156712988D01*
X85337002Y-156712988D01*
X85361611Y-157278777D01*
X85706002Y-157598570D01*
X86099591Y-157696967D01*
X90650475Y-157844565D01*
X91019467Y-157549368D01*
X95890141Y-157696967D01*
X96234532Y-157869162D01*
X101744786Y-157893775D01*
X102335171Y-157352591D01*
X102488598Y-156870396D01*
X102692097Y-156923483D01*
X102835629Y-156301512D01*
X102552646Y-156301512D01*
X102547640Y-156341564D01*
X102507367Y-156811408D01*
X102488598Y-156870396D01*
X102440053Y-156857732D01*
X101991016Y-156827796D01*
X102325299Y-156827796D01*
X102440053Y-156857732D01*
X102482762Y-156860579D01*
X102547640Y-156341564D01*
X102551073Y-156301512D01*
X102552646Y-156301512D01*
X102556561Y-156270194D01*
X102553763Y-156270124D01*
X102551073Y-156301512D01*
X102405034Y-156301512D01*
X102325299Y-156827796D01*
X101991016Y-156827796D01*
X101375790Y-156786780D01*
X100859204Y-156909773D01*
X100096623Y-156983573D01*
X99358639Y-156934371D01*
X98842053Y-157180365D01*
X90847260Y-157131163D01*
X90010880Y-156934371D01*
X87083558Y-156860571D01*
X86443974Y-156688376D01*
X85337002Y-156712988D01*
X84805355Y-156712988D01*
X84799590Y-156668303D01*
X92294034Y-156668303D01*
X93011693Y-156684256D01*
X93011693Y-156560663D01*
X92348912Y-156534873D01*
X92312856Y-156534193D01*
X92294034Y-156668303D01*
X84799590Y-156668303D01*
X84697438Y-155876616D01*
X84820435Y-154745047D01*
X85361622Y-153490477D01*
X85804410Y-152580306D01*
X85822230Y-152565675D01*
X85952569Y-152659178D01*
X86454651Y-152212920D01*
X86341142Y-152139641D01*
X85822230Y-152565675D01*
X85097191Y-152045539D01*
X84186028Y-151357512D01*
X83330651Y-151264540D01*
X81936013Y-150874045D01*
X81865811Y-150818244D01*
X83442219Y-150818244D01*
X83981480Y-150892638D01*
X84010258Y-150815297D01*
X84297612Y-150892661D01*
X84985631Y-151264563D01*
X86341142Y-152139641D01*
X86385396Y-152103308D01*
X86859559Y-151592673D01*
X87315487Y-151191458D01*
X87570805Y-150954375D01*
X88008496Y-150699057D01*
X88464421Y-150680831D01*
X88810925Y-150936148D01*
X88810925Y-151392073D01*
X88774457Y-151501494D01*
X88829167Y-151775046D01*
X89139199Y-151793273D01*
X89412755Y-151847983D01*
X89649838Y-152012122D01*
X89813973Y-152267439D01*
X89959870Y-152613944D01*
X90051049Y-153106345D01*
X89886918Y-153598746D01*
X89613358Y-154072905D01*
X89303330Y-154382933D01*
X89084485Y-154419402D01*
X88975060Y-154182318D01*
X89011540Y-153999945D01*
X89157437Y-153744628D01*
X89321568Y-153452834D01*
X89485703Y-153124564D01*
X89503933Y-152905722D01*
X89430985Y-152650405D01*
X89139191Y-152340376D01*
X88920346Y-152212714D01*
X88446183Y-152085051D01*
X88209099Y-152158003D01*
X88081440Y-151920920D01*
X88063210Y-151683837D01*
X88172635Y-151410277D01*
X88044972Y-151300856D01*
X87789654Y-151574408D01*
X87424912Y-151775015D01*
X87041932Y-152103285D01*
X86859562Y-152303893D01*
X86513058Y-152686865D01*
X86367161Y-152942183D01*
X86148316Y-153489295D01*
X85801812Y-154072882D01*
X85619439Y-154528807D01*
X85455307Y-155021208D01*
X85327645Y-155750693D01*
X85418835Y-156334273D01*
X87406674Y-156334273D01*
X87680230Y-156407225D01*
X90744057Y-156461936D01*
X91382351Y-156516646D01*
X92312856Y-156534193D01*
X92385805Y-156014441D01*
X92963856Y-156014441D01*
X93011693Y-156445037D01*
X93011693Y-156560663D01*
X95029156Y-156639166D01*
X98989651Y-156688368D01*
X99752232Y-156417777D01*
X100883801Y-156417777D01*
X101572583Y-156245581D01*
X102553763Y-156270124D01*
X102581166Y-155950430D01*
X102626859Y-155948443D01*
X102628300Y-155950659D01*
X102660183Y-156173926D01*
X103138623Y-156030394D01*
X103132847Y-155926432D01*
X102626859Y-155948443D01*
X102213650Y-155312743D01*
X101352467Y-154499396D01*
X99757672Y-153702002D01*
X98083142Y-153223563D01*
X96727566Y-153000289D01*
X95053036Y-152968390D01*
X94128056Y-153032179D01*
X93569874Y-153367087D01*
X93250920Y-153957160D01*
X93155232Y-154674819D01*
X93075490Y-155312735D01*
X92963856Y-156014441D01*
X92385805Y-156014441D01*
X92421620Y-155759268D01*
X92485409Y-155073508D01*
X92628941Y-154132582D01*
X92868161Y-153414923D01*
X93187123Y-152936484D01*
X93242568Y-152892644D01*
X93424511Y-153027533D01*
X93818799Y-152561560D01*
X93740246Y-152499131D01*
X93242568Y-152892644D01*
X92385029Y-152256880D01*
X91112561Y-151235320D01*
X90108925Y-150482588D01*
X89499573Y-149478949D01*
X88442170Y-147668822D01*
X86811261Y-144908820D01*
X85520871Y-143009078D01*
X84817669Y-142921180D01*
X84693672Y-142928931D01*
X85004220Y-143342993D01*
X85580670Y-144086802D01*
X86026951Y-144830611D01*
X86398854Y-145537226D01*
X86398854Y-146559958D01*
X86231499Y-147155005D01*
X86175709Y-147880217D01*
X85692235Y-148661215D01*
X85097191Y-149144690D01*
X84557930Y-149590979D01*
X84279004Y-150093047D01*
X84010258Y-150815297D01*
X83484704Y-150673803D01*
X83442219Y-150818244D01*
X81865811Y-150818244D01*
X81210801Y-150297598D01*
X80318234Y-149274863D01*
X79890545Y-148456679D01*
X79890885Y-148441718D01*
X80076500Y-148438079D01*
X79964928Y-147805846D01*
X79905282Y-147808468D01*
X79890885Y-148441718D01*
X78179791Y-148475272D01*
X77677723Y-148177748D01*
X77064084Y-148196349D01*
X76431847Y-148382300D01*
X75855401Y-147805846D01*
X75502091Y-146931868D01*
X73765062Y-147029273D01*
X73395413Y-147847777D01*
X73009175Y-148798522D01*
X72474381Y-149778975D01*
X71909874Y-150373191D01*
X70840291Y-150700011D01*
X69770703Y-150789137D01*
X68879384Y-150759429D01*
X68404011Y-151086249D01*
X67780087Y-151353644D01*
X66427764Y-151747049D01*
X66591668Y-151829001D01*
X67423565Y-152155821D01*
X68136624Y-152542060D01*
X68671418Y-153195693D01*
X69087369Y-153819617D01*
X69146790Y-154562384D01*
X69206212Y-155513121D01*
X68998234Y-156107337D01*
X68968514Y-156107337D01*
X68968514Y-156196486D01*
X68285168Y-156434172D01*
X65403233Y-156553015D01*
X64006833Y-156612433D01*
X62937245Y-156909545D01*
X59966176Y-157117514D01*
X57113953Y-157117514D01*
X56929085Y-156166770D01*
X57589324Y-156166770D01*
X57767590Y-156731268D01*
X61332871Y-156404456D01*
X63739438Y-156137061D01*
X63764195Y-156107352D01*
X68493146Y-156107352D01*
X68641705Y-156107337D01*
X68968514Y-156107337D01*
X68968514Y-155839957D01*
X68519885Y-155839957D01*
X68493146Y-156107352D01*
X63764195Y-156107352D01*
X64036545Y-155780532D01*
X64393075Y-155721114D01*
X64482205Y-156077643D01*
X67482983Y-155958800D01*
X68404011Y-155839957D01*
X68519885Y-155839957D01*
X68582276Y-155216033D01*
X68568144Y-154975768D01*
X67453274Y-155305159D01*
X64957577Y-155245741D01*
X62699563Y-155542853D01*
X60500973Y-155572562D01*
X57589324Y-155972197D01*
X57589324Y-156166770D01*
X56929085Y-156166770D01*
X56905978Y-156047934D01*
X56905978Y-155988509D01*
X57470479Y-155988509D01*
X57589324Y-155972197D01*
X57589324Y-155810240D01*
X57568885Y-155387841D01*
X57470484Y-155394293D01*
X57470479Y-155988509D01*
X56905978Y-155988509D01*
X56905978Y-154502974D01*
X56993008Y-153458601D01*
X57084239Y-153492812D01*
X57262503Y-153195708D01*
X57118611Y-153062884D01*
X56995108Y-153433394D01*
X56993008Y-153458601D01*
X56608870Y-153314551D01*
X56430604Y-152987731D01*
X56430604Y-152839179D01*
X56876265Y-152839179D01*
X57118611Y-153062884D01*
X57292214Y-152542075D01*
X57440768Y-151591330D01*
X57975562Y-151561614D01*
X58094405Y-151977561D01*
X57856722Y-152452933D01*
X57648747Y-153106566D01*
X57500193Y-153968176D01*
X57568885Y-155387841D01*
X59282837Y-155275450D01*
X60062694Y-155186324D01*
X61808240Y-155186324D01*
X62343033Y-155037772D01*
X62335282Y-154918921D01*
X62283619Y-154918921D01*
X61808240Y-154980261D01*
X61808240Y-155186324D01*
X60062694Y-155186324D01*
X61362587Y-155037764D01*
X61808240Y-154980261D01*
X61808240Y-153700789D01*
X62253903Y-153671080D01*
X62335282Y-154918921D01*
X64393078Y-154918921D01*
X64615894Y-154859503D01*
X64809022Y-154859503D01*
X65403233Y-154829787D01*
X65412817Y-154681235D01*
X65284398Y-154681235D01*
X64814452Y-154806554D01*
X64809022Y-154859503D01*
X64615894Y-154859503D01*
X64814452Y-154806554D01*
X64927865Y-153700789D01*
X64363362Y-152631201D01*
X64630757Y-152393515D01*
X65016995Y-152660910D01*
X65224968Y-153314543D01*
X65462655Y-153908759D01*
X65412817Y-154681235D01*
X67750386Y-154681235D01*
X68499962Y-154342713D01*
X68552567Y-154710951D01*
X68568144Y-154975768D01*
X68760548Y-154918921D01*
X68671418Y-154265280D01*
X68499962Y-154342713D01*
X68463437Y-154087027D01*
X67898930Y-153136283D01*
X67275006Y-152720336D01*
X66561947Y-152334098D01*
X65640919Y-152155837D01*
X64749600Y-152244963D01*
X64125676Y-152423232D01*
X63828568Y-152750044D01*
X63382908Y-153284842D01*
X62877827Y-153641371D01*
X62521298Y-153611662D01*
X62135060Y-153403685D01*
X61956795Y-152898604D01*
X61719109Y-152363814D01*
X61481427Y-151888442D01*
X61511136Y-151413069D01*
X61006054Y-151264510D01*
X60708947Y-151413069D01*
X60352421Y-151413069D01*
X60144444Y-150937697D01*
X60025601Y-150670302D01*
X59787915Y-150402899D01*
X59936467Y-149897818D01*
X60263287Y-150016661D01*
X60471261Y-150462325D01*
X60500969Y-150729720D01*
X60708943Y-150818846D01*
X61540844Y-150759429D01*
X61897374Y-150967406D01*
X62075638Y-151294226D01*
X62016217Y-151858725D01*
X62045926Y-152274672D01*
X62343033Y-152601492D01*
X62402455Y-152987731D01*
X62580719Y-153225417D01*
X63145226Y-152809470D01*
X63412621Y-152393515D01*
X63709729Y-152036986D01*
X63737689Y-151974076D01*
X63828568Y-152155837D01*
X64036538Y-151680449D01*
X64016732Y-151621031D01*
X65462658Y-151621031D01*
X66146000Y-151829016D01*
X66427764Y-151747049D01*
X65938031Y-151502181D01*
X65758546Y-151482951D01*
X65462658Y-151621031D01*
X64016732Y-151621031D01*
X63980831Y-151513326D01*
X63947415Y-151502188D01*
X63737689Y-151974076D01*
X63561173Y-151621039D01*
X63472043Y-151264510D01*
X63412621Y-151056540D01*
X63293778Y-150581168D01*
X63382908Y-150194930D01*
X63947411Y-149749266D01*
X64511918Y-149778975D01*
X64838734Y-150046370D01*
X64898156Y-150492026D01*
X64571335Y-150492026D01*
X64363362Y-150284056D01*
X64036541Y-150313765D01*
X63858277Y-150462317D01*
X63947407Y-150640578D01*
X64303937Y-150818846D01*
X64185093Y-151145659D01*
X63887986Y-151234786D01*
X63980831Y-151513326D01*
X64214814Y-151591315D01*
X65106133Y-151413054D01*
X65758546Y-151482951D01*
X66353978Y-151205084D01*
X67245297Y-150907981D01*
X67958355Y-150670294D01*
X68359942Y-150241933D01*
X69206200Y-150194922D01*
X69296137Y-150104986D01*
X69146782Y-150076079D01*
X68404015Y-150194922D01*
X68359942Y-150241933D01*
X68136612Y-150254340D01*
X65492360Y-149927527D01*
X64303929Y-149422446D01*
X63709713Y-149273894D01*
X63442318Y-149273894D01*
X63382897Y-149511580D01*
X63620583Y-149808692D01*
X63353188Y-150016661D01*
X63026368Y-149719557D01*
X62818390Y-148976790D01*
X62461861Y-148531127D01*
X61748809Y-148174600D01*
X61511132Y-148293440D01*
X60382126Y-149303603D01*
X60025597Y-149778975D01*
X59312539Y-150373191D01*
X59104565Y-150818854D01*
X58540061Y-150997115D01*
X57945847Y-151175383D01*
X57440766Y-151413069D01*
X57084239Y-151799307D01*
X56965395Y-152542075D01*
X56876265Y-152839179D01*
X56430604Y-152839179D01*
X56430604Y-152363806D01*
X56668290Y-151739882D01*
X56995108Y-151086249D01*
X57589320Y-150670302D01*
X58777749Y-150402899D01*
X58926302Y-150076087D01*
X59579937Y-149481871D01*
X59906754Y-149036215D01*
X60292992Y-148620261D01*
X60887208Y-148234023D01*
X61004490Y-148144889D01*
X61689385Y-148144889D01*
X61748809Y-148174600D01*
X62105347Y-147996329D01*
X62205047Y-147849403D01*
X62699559Y-148234023D01*
X62395457Y-147568798D01*
X62205047Y-147849403D01*
X62164769Y-147818076D01*
X61689385Y-148144889D01*
X61004490Y-148144889D01*
X61629975Y-147669524D01*
X61986504Y-147372412D01*
X62000765Y-147194152D01*
X62224190Y-147194152D01*
X62395457Y-147568798D01*
X62669850Y-147164427D01*
X62628894Y-146905031D01*
X62610428Y-146867331D01*
X62224190Y-147194152D01*
X62000765Y-147194152D01*
X62045926Y-146629645D01*
X61927083Y-145084689D01*
X61645688Y-144624223D01*
X61374650Y-144829333D01*
X60208298Y-145352183D01*
X59323475Y-145734267D01*
X58820738Y-145834815D01*
X57513617Y-145995692D01*
X56508139Y-146035910D01*
X54336308Y-146377776D01*
X52385680Y-146478324D01*
X51239436Y-146216902D01*
X48645302Y-145311972D01*
X46594128Y-144547812D01*
X45307118Y-144024962D01*
X44744050Y-143562441D01*
X41023781Y-139480200D01*
X40782466Y-138836695D01*
X39053046Y-131235282D01*
X39081439Y-131154833D01*
X39616110Y-131154833D01*
X39937863Y-132602721D01*
X40199287Y-134151156D01*
X40483204Y-135712701D01*
X40594806Y-136884528D01*
X41486127Y-139320815D01*
X41459755Y-139092255D01*
X41446080Y-139077998D01*
X41084108Y-137710547D01*
X40521040Y-135920798D01*
X40483204Y-135712701D01*
X40311848Y-133913466D01*
X40862202Y-133913466D01*
X41459755Y-139092255D01*
X45226677Y-143019473D01*
X45407662Y-143321116D01*
X51762282Y-145714152D01*
X53270499Y-145955466D01*
X56769562Y-145452727D01*
X59283253Y-145151084D01*
X60740679Y-144549895D01*
X61600266Y-144549895D01*
X61645688Y-144624223D01*
X62118706Y-144266265D01*
X62141347Y-144248923D01*
X62075638Y-144133933D01*
X61600266Y-144549895D01*
X60740679Y-144549895D01*
X60892018Y-144487467D01*
X62621441Y-143160239D01*
X63586701Y-141913447D01*
X64069329Y-141149287D01*
X63727467Y-140465560D01*
X63264947Y-139902491D01*
X62058373Y-139520407D01*
X61354538Y-139057891D01*
X61291687Y-138969898D01*
X60892022Y-138836676D01*
X60687857Y-138776354D01*
X61153443Y-138776354D01*
X61291687Y-138969898D01*
X61495308Y-139037772D01*
X61615967Y-138695910D01*
X61623415Y-138621434D01*
X61615963Y-138615473D01*
X61153443Y-138776354D01*
X60687857Y-138776354D01*
X60007203Y-138575251D01*
X59888589Y-138397331D01*
X59253975Y-138288983D01*
X59139942Y-138285117D01*
X59231328Y-138285117D01*
X59253975Y-138288983D01*
X59829364Y-138308493D01*
X59888589Y-138397331D01*
X59993729Y-138415282D01*
X60235467Y-137913210D01*
X60267299Y-137879995D01*
X60590378Y-138132842D01*
X61032792Y-138253501D01*
X60892022Y-137650214D01*
X60730075Y-137430429D01*
X60663159Y-137466929D01*
X60267299Y-137879995D01*
X60127862Y-137770869D01*
X59882925Y-138153580D01*
X59725670Y-137911650D01*
X59436174Y-137834453D01*
X59231328Y-138285117D01*
X59139942Y-138285117D01*
X58800629Y-138273612D01*
X58016352Y-138052409D01*
X56689124Y-137650214D01*
X55663537Y-137408900D01*
X53994443Y-136443640D01*
X52667212Y-135458273D01*
X51158995Y-134131041D01*
X49429574Y-132602713D01*
X48761329Y-131884970D01*
X46804341Y-130615573D01*
X47606530Y-132517054D01*
X47190581Y-132725031D01*
X45705046Y-130615573D01*
X45823889Y-134032302D01*
X45407939Y-134240279D01*
X43981825Y-131477187D01*
X44130379Y-135725817D01*
X43744141Y-135814948D01*
X42258605Y-132071402D01*
X42377449Y-137419329D01*
X41842656Y-137359908D01*
X40862202Y-133913466D01*
X40311848Y-133913466D01*
X40060014Y-131269206D01*
X40535386Y-131150363D01*
X41812946Y-135250437D01*
X41634682Y-130526438D01*
X42080342Y-130437308D01*
X43595587Y-134240279D01*
X43476744Y-129961939D01*
X43744141Y-129872809D01*
X45348519Y-132992430D01*
X45170254Y-129545989D01*
X45497071Y-129456858D01*
X46358681Y-130704707D01*
X46091284Y-129664832D01*
X46239838Y-129545989D01*
X47146014Y-130079032D01*
X48343659Y-131436362D01*
X48761329Y-131884970D01*
X49002932Y-132041686D01*
X47755084Y-130437308D01*
X47146014Y-130079032D01*
X47137084Y-130068911D01*
X45990839Y-128701464D01*
X45427771Y-127897078D01*
X44160870Y-126529631D01*
X43296158Y-125262728D01*
X42813530Y-124639330D01*
X42270571Y-125483935D01*
X41506407Y-126851386D01*
X41023778Y-127736205D01*
X40440602Y-129204203D01*
X39957973Y-130471106D01*
X39616110Y-131154833D01*
X39081439Y-131154833D01*
X39656332Y-129525969D01*
X40340057Y-127836768D01*
X41224878Y-126207892D01*
X42511889Y-124076277D01*
X42873861Y-123975730D01*
X43356492Y-124438250D01*
X44824488Y-126569865D01*
X46272376Y-127997641D01*
X46915881Y-129043337D01*
X48202893Y-130511336D01*
X49630671Y-132059771D01*
X52305241Y-134392478D01*
X53813460Y-135578944D01*
X55080361Y-136363215D01*
X55965180Y-136906172D01*
X57292412Y-137268145D01*
X58478875Y-137489352D01*
X58157120Y-137026831D01*
X58036465Y-136544203D01*
X58039043Y-136443659D01*
X58700079Y-136443659D01*
X58740300Y-136906176D01*
X59041943Y-137368697D01*
X59122384Y-137750777D01*
X59436174Y-137834453D01*
X59603230Y-137466929D01*
X59727479Y-137268134D01*
X60610489Y-137268134D01*
X60730075Y-137430429D01*
X61276799Y-137132216D01*
X61370349Y-137095796D01*
X61535527Y-137690432D01*
X61656186Y-138293719D01*
X61623415Y-138621434D01*
X61917607Y-138856791D01*
X62138814Y-138434489D01*
X62440457Y-138253504D01*
X62802430Y-138313834D01*
X63104073Y-138575259D01*
X63104073Y-139198657D01*
X63506264Y-139620959D01*
X63908455Y-139842166D01*
X64250317Y-140324793D01*
X64451413Y-141008517D01*
X64551961Y-141631915D01*
X64129662Y-142295531D01*
X63606812Y-143019477D01*
X63063855Y-143542323D01*
X62141347Y-144248923D01*
X62551011Y-144965834D01*
X62580719Y-146599921D01*
X62628894Y-146905031D01*
X63323483Y-148323157D01*
X63561169Y-148679686D01*
X65848893Y-149333319D01*
X67364136Y-149630423D01*
X69622147Y-149660132D01*
X69740990Y-149927527D01*
X69354752Y-150046370D01*
X69296137Y-150104986D01*
X70067814Y-150254340D01*
X70959137Y-150076079D01*
X71850457Y-149660132D01*
X72266408Y-149125334D01*
X72474385Y-148531119D01*
X72860623Y-147461539D01*
X73220357Y-146844845D01*
X73512410Y-147043440D01*
X73765062Y-147029273D01*
X73811364Y-146926749D01*
X73276570Y-146748480D01*
X73220357Y-146844845D01*
X73047532Y-146727324D01*
X71634297Y-145946326D01*
X68566098Y-147043440D01*
X67599148Y-147080634D01*
X67152863Y-146801711D01*
X65181775Y-144291361D01*
X65386323Y-143993842D01*
X68845021Y-145128146D01*
X72061986Y-145481455D01*
X73196290Y-146169478D01*
X73791333Y-146467002D01*
X75632252Y-146429808D01*
X75634248Y-146431452D01*
X75836796Y-146950484D01*
X76208699Y-147545531D01*
X76317585Y-147521334D01*
X76710774Y-147843039D01*
X77026890Y-147694274D01*
X77770699Y-147694274D01*
X78272770Y-147880225D01*
X79905282Y-147808468D01*
X79909146Y-147638495D01*
X79934357Y-147441839D01*
X80150876Y-147433966D01*
X80153201Y-147396765D01*
X80541386Y-147396765D01*
X80671551Y-148791403D01*
X81136429Y-149442237D01*
X81768666Y-149944304D01*
X82698426Y-150409186D01*
X83330662Y-150632331D01*
X83484704Y-150673803D01*
X83535199Y-150502127D01*
X83702557Y-150074439D01*
X83907105Y-149665343D01*
X84043818Y-149523747D01*
X84148827Y-149646758D01*
X84446362Y-149256270D01*
X84377371Y-149178281D01*
X84043818Y-149523747D01*
X83497998Y-148884352D01*
X83479405Y-148772795D01*
X84018670Y-148772795D01*
X84377371Y-149178281D01*
X84427769Y-149126082D01*
X84762482Y-148828559D01*
X84826783Y-148757113D01*
X84911236Y-148828574D01*
X85320328Y-148363692D01*
X85234896Y-148303658D01*
X84826783Y-148757113D01*
X84427762Y-148419478D01*
X84130242Y-148438079D01*
X84018670Y-148772795D01*
X83479405Y-148772795D01*
X83423619Y-148438071D01*
X84093049Y-147805838D01*
X84632309Y-147880217D01*
X85234896Y-148303658D01*
X85264554Y-148270705D01*
X85524884Y-147880210D01*
X85600198Y-147453437D01*
X85841000Y-147545508D01*
X85896786Y-147006247D01*
X85709677Y-146975063D01*
X85636456Y-147247977D01*
X85600198Y-147453437D01*
X85208764Y-147303771D01*
X85022812Y-147024840D01*
X85061692Y-146597159D01*
X85394711Y-146597159D01*
X85450501Y-146931868D01*
X85709677Y-146975063D01*
X85839284Y-146491982D01*
X85673642Y-146448393D01*
X85394711Y-146597159D01*
X85061692Y-146597159D01*
X85097191Y-146206656D01*
X85469094Y-145871943D01*
X85835429Y-145871943D01*
X85841004Y-145890525D01*
X85841004Y-146485572D01*
X85839284Y-146491982D01*
X86026948Y-146541365D01*
X85915379Y-145871943D01*
X85835429Y-145871943D01*
X85617859Y-145146716D01*
X85590927Y-145097603D01*
X85803807Y-145090949D01*
X85152974Y-144068221D01*
X85011645Y-144179267D01*
X84874054Y-143993819D01*
X84502152Y-143566130D01*
X83966410Y-142983116D01*
X82884369Y-143231452D01*
X81694279Y-144161208D01*
X80931878Y-144979399D01*
X80597165Y-145964942D01*
X80541386Y-147396765D01*
X80153201Y-147396765D01*
X80188069Y-146838896D01*
X80006516Y-146851712D01*
X80002118Y-146913283D01*
X79934357Y-147441839D01*
X78105408Y-147508345D01*
X77956646Y-147210822D01*
X77380196Y-147043463D01*
X77231434Y-146820319D01*
X76971104Y-147043463D01*
X76878125Y-147396773D01*
X76317585Y-147521334D01*
X76301682Y-147508322D01*
X76059945Y-147043448D01*
X75948372Y-146690138D01*
X75634248Y-146431452D01*
X75539277Y-146188086D01*
X73698357Y-146132292D01*
X70518586Y-144458731D01*
X68361546Y-143175666D01*
X66780957Y-141650862D01*
X66241696Y-141018626D01*
X66130127Y-139623988D01*
X65181775Y-140497958D01*
X65033013Y-140014483D01*
X66055748Y-138973155D01*
X67190053Y-138136370D01*
X67338814Y-138564059D01*
X66576413Y-139159106D01*
X66687985Y-139828532D01*
X66911126Y-140944239D01*
X67376004Y-141539282D01*
X68621880Y-142729373D01*
X69718995Y-143435992D01*
X71095036Y-144198393D01*
X72787194Y-145090960D01*
X73847119Y-145630221D01*
X74665307Y-145574431D01*
X75762421Y-145611621D01*
X76394658Y-146745925D01*
X76766560Y-146745925D01*
X76878132Y-146467002D01*
X77566151Y-146429808D01*
X77789292Y-146745925D01*
X78402932Y-146745925D01*
X78607480Y-146950469D01*
X80006516Y-146851712D01*
X80095097Y-145611624D01*
X80467000Y-144514510D01*
X81303780Y-143473181D01*
X82289322Y-142878134D01*
X83144700Y-142506232D01*
X83944291Y-142283091D01*
X84378366Y-142310800D01*
X84504363Y-142830530D01*
X83869915Y-142878108D01*
X83966410Y-142983116D01*
X84018673Y-142971121D01*
X84693672Y-142928931D01*
X84674431Y-142903276D01*
X84817669Y-142921180D01*
X84911244Y-142915331D01*
X84830259Y-142413245D01*
X85190163Y-142413245D01*
X85785210Y-142599196D01*
X85814594Y-142452281D01*
X85197202Y-142383681D01*
X85190163Y-142413245D01*
X84830259Y-142413245D01*
X84818707Y-142341625D01*
X85197202Y-142383681D01*
X85283143Y-142022746D01*
X85227353Y-141353316D01*
X84892643Y-140739676D01*
X84427762Y-140144633D01*
X83628171Y-139493804D01*
X82475274Y-138842974D01*
X81378159Y-138359500D01*
X79853360Y-137764456D01*
X78607483Y-137262389D01*
X77566155Y-136890486D01*
X77163259Y-136797511D01*
X78774838Y-136797511D01*
X79239708Y-136964865D01*
X79272141Y-136925946D01*
X79778977Y-137132216D01*
X81080639Y-137578501D01*
X81768658Y-137894618D01*
X82382298Y-138192141D01*
X82676860Y-138320210D01*
X82940133Y-138508261D01*
X83246709Y-138569577D01*
X83237675Y-138564040D01*
X82676860Y-138320210D01*
X82549634Y-138229334D01*
X82270707Y-137727263D01*
X82121945Y-137411147D01*
X81973183Y-136592959D01*
X81750042Y-135886340D01*
X81657071Y-135514437D01*
X81526906Y-135179728D01*
X81515806Y-135144581D01*
X80857483Y-135198321D01*
X80020699Y-135198321D01*
X79500035Y-135216921D01*
X79500035Y-136276847D01*
X79425656Y-136741725D01*
X79272141Y-136925946D01*
X78790550Y-136729951D01*
X78774838Y-136797511D01*
X77163259Y-136797511D01*
X76357468Y-136611559D01*
X75353329Y-136351225D01*
X74293404Y-136276847D01*
X73702550Y-136901463D01*
X73661171Y-137466921D01*
X73400837Y-137987586D01*
X72657033Y-138322295D01*
X71634297Y-138935935D01*
X71150822Y-139419409D01*
X70834702Y-139754138D01*
X70778924Y-140349181D01*
X70592972Y-140590918D01*
X70258263Y-140293395D01*
X70481404Y-139438017D01*
X70946282Y-138731398D01*
X71262398Y-138210734D01*
X68770646Y-137950400D01*
X66446251Y-137039240D01*
X65144593Y-137634284D01*
X63712765Y-136183863D01*
X61370349Y-137095796D01*
X61334431Y-136966490D01*
X60610489Y-137268134D01*
X59727479Y-137268134D01*
X59882161Y-137020648D01*
X60997868Y-136462790D01*
X62034870Y-135961016D01*
X62943192Y-135961016D01*
X63968781Y-135940905D01*
X63925738Y-135831643D01*
X62984489Y-135867161D01*
X62943192Y-135961016D01*
X62034870Y-135961016D01*
X62150769Y-135904936D01*
X62968956Y-135867747D01*
X62984489Y-135867161D01*
X63164399Y-135458277D01*
X63155116Y-135418055D01*
X61213776Y-135418055D01*
X60751256Y-135498496D01*
X60248520Y-135840357D01*
X59786000Y-136081671D01*
X58881070Y-136121890D01*
X58778548Y-136098395D01*
X58700079Y-136443659D01*
X58039043Y-136443659D01*
X58052164Y-135931931D01*
X58778548Y-136098395D01*
X58800627Y-136001246D01*
X58056574Y-135759932D01*
X58052164Y-135931931D01*
X57915810Y-135900683D01*
X57232085Y-135659369D01*
X56628798Y-135438162D01*
X56387484Y-134834879D01*
X56337210Y-134633784D01*
X58257685Y-134633784D01*
X58579438Y-134875098D01*
X58840861Y-134694113D01*
X58840861Y-134683877D01*
X58303802Y-134495436D01*
X58257685Y-134633784D01*
X56337210Y-134633784D01*
X56221578Y-134171263D01*
X57855494Y-134171263D01*
X57895714Y-134352248D01*
X58303802Y-134495436D01*
X58378344Y-134271811D01*
X58338124Y-133889731D01*
X58197354Y-133628306D01*
X57976149Y-133728854D01*
X57855494Y-134171263D01*
X56221578Y-134171263D01*
X56186387Y-134030497D01*
X56085839Y-133145678D01*
X55985291Y-132482062D01*
X55844521Y-131778227D01*
X55844521Y-130953734D01*
X55813827Y-130370558D01*
X56327157Y-130370558D01*
X56328885Y-130468357D01*
X56333441Y-130576053D01*
X56347267Y-130792859D01*
X56367377Y-131034175D01*
X56528254Y-131798339D01*
X56568474Y-132220637D01*
X56648915Y-132924475D01*
X56870120Y-133467433D01*
X56950560Y-133708750D01*
X57252204Y-133990283D01*
X57533736Y-133970172D01*
X57433188Y-133487540D01*
X57674502Y-133145678D01*
X57935925Y-132944583D01*
X58257679Y-133025023D01*
X58378338Y-133246230D01*
X58458779Y-133507655D01*
X58700095Y-133829405D01*
X58700095Y-133889735D01*
X58840861Y-134352252D01*
X58840861Y-134683877D01*
X59041962Y-134754439D01*
X59424046Y-135056082D01*
X60007222Y-135035971D01*
X60129227Y-135021330D01*
X60147969Y-135096297D01*
X60476776Y-134979624D01*
X60129227Y-135021330D01*
X60027310Y-134613665D01*
X59665337Y-134613665D01*
X59403912Y-134432681D01*
X59162598Y-133990271D01*
X59160587Y-133909834D01*
X59685448Y-133909834D01*
X59806103Y-134131041D01*
X60007199Y-134211482D01*
X60469719Y-134412577D01*
X60771363Y-134875094D01*
X60476776Y-134979624D01*
X60509961Y-134975642D01*
X60650698Y-134935431D01*
X63043740Y-134935431D01*
X63155116Y-135418055D01*
X63244839Y-135418055D01*
X63184533Y-134935423D01*
X63043894Y-134933118D01*
X63043740Y-134935431D01*
X60650698Y-134935431D01*
X61073029Y-134814765D01*
X61957848Y-134915312D01*
X63043894Y-134933118D01*
X63063851Y-134633788D01*
X63063851Y-134553347D01*
X63606808Y-134553347D01*
X63707356Y-135277293D01*
X63925738Y-135831643D01*
X63954499Y-135830557D01*
X64456570Y-136035105D01*
X66539227Y-136481387D01*
X68584694Y-137262385D01*
X70555783Y-137522715D01*
X71783062Y-137690074D01*
X71857441Y-137262385D01*
X72285130Y-137243785D01*
X72508271Y-137634284D01*
X72619839Y-137429736D01*
X72898770Y-137355357D01*
X72980811Y-136797499D01*
X73066113Y-136797499D01*
X73642575Y-136964865D01*
X73702550Y-136901463D01*
X73716961Y-136704520D01*
X73141899Y-136719269D01*
X73066113Y-136797499D01*
X72980811Y-136797499D01*
X72991749Y-136723120D01*
X73141899Y-136719269D01*
X73642563Y-136202456D01*
X73066113Y-136239646D01*
X73084713Y-135942122D01*
X73191221Y-135886332D01*
X75111592Y-135886332D01*
X75744932Y-135901065D01*
X76431843Y-136035098D01*
X77101273Y-136128077D01*
X78179791Y-136481387D01*
X78790550Y-136729951D01*
X78960789Y-135997920D01*
X78942189Y-135533038D01*
X78774830Y-134956587D01*
X78692618Y-134826419D01*
X81415333Y-134826419D01*
X81515806Y-135144581D01*
X81768643Y-135123942D01*
X81655333Y-134699028D01*
X81489731Y-134677661D01*
X81503937Y-134575376D01*
X81503987Y-134575234D01*
X81619881Y-134566084D01*
X81655333Y-134699028D01*
X82066182Y-134752040D01*
X82177750Y-134640471D01*
X82176822Y-134619127D01*
X82140545Y-134510298D01*
X81526906Y-134510298D01*
X81503987Y-134575234D01*
X81503956Y-134575237D01*
X81503937Y-134575376D01*
X81415333Y-134826419D01*
X78692618Y-134826419D01*
X78551690Y-134603282D01*
X78254166Y-134361544D01*
X77752095Y-134417334D01*
X77250027Y-134398734D01*
X77026883Y-134324355D01*
X76968787Y-134227527D01*
X76915326Y-134287158D01*
X76487637Y-134659060D01*
X76152924Y-134993773D01*
X76097134Y-135421462D01*
X75911183Y-135495841D01*
X75911183Y-135904933D01*
X75744932Y-135901065D01*
X75669446Y-135886336D01*
X75122542Y-135839792D01*
X75111592Y-135886332D01*
X73191221Y-135886332D01*
X73475213Y-135737574D01*
X73995877Y-135514433D01*
X74086194Y-135440055D01*
X74776871Y-135440055D01*
X74795472Y-135811957D01*
X75122542Y-135839792D01*
X75185971Y-135570212D01*
X75409112Y-135291285D01*
X75356350Y-134957156D01*
X74776871Y-135440055D01*
X74086194Y-135440055D01*
X74628113Y-134993769D01*
X75022582Y-134726093D01*
X75148781Y-134770632D01*
X75353322Y-134937975D01*
X75356350Y-134957156D01*
X75446301Y-134882197D01*
X75148778Y-134640460D01*
X75022582Y-134726093D01*
X74832661Y-134659064D01*
X74330594Y-134919394D01*
X73475216Y-135086753D01*
X73140503Y-135086753D01*
X73103314Y-134752040D01*
X73586789Y-134510302D01*
X73921502Y-134268565D01*
X74081702Y-134194186D01*
X75725232Y-134194186D01*
X75985562Y-134287158D01*
X76174886Y-134138404D01*
X76915314Y-134138404D01*
X76968787Y-134227527D01*
X77398800Y-133747897D01*
X77398574Y-133740443D01*
X77287217Y-133729308D01*
X76915314Y-134138404D01*
X76174886Y-134138404D01*
X76506226Y-133878066D01*
X76692177Y-133654925D01*
X76803746Y-133450377D01*
X76665358Y-133173595D01*
X76617798Y-133208640D01*
X76357468Y-133636328D01*
X76059945Y-133915255D01*
X75725232Y-134194186D01*
X74081702Y-134194186D01*
X74442166Y-134026827D01*
X75000020Y-134026827D01*
X75613659Y-133636328D01*
X76003561Y-133152854D01*
X76654988Y-133152854D01*
X76665358Y-133173595D01*
X76935728Y-132974375D01*
X77140542Y-133105456D01*
X77125817Y-132938578D01*
X77009318Y-132848964D01*
X76971108Y-132948306D01*
X76935728Y-132974375D01*
X76813787Y-132896332D01*
X76654988Y-133152854D01*
X76003561Y-133152854D01*
X76078541Y-133059878D01*
X76506230Y-132669379D01*
X76560672Y-132629454D01*
X76637791Y-132783694D01*
X76813787Y-132896332D01*
X76896725Y-132762354D01*
X77009318Y-132848964D01*
X77064087Y-132706568D01*
X76785157Y-132464831D01*
X76560672Y-132629454D01*
X76476918Y-132461943D01*
X76557358Y-132019534D01*
X76678017Y-131657561D01*
X76758458Y-131355918D01*
X76879117Y-130973834D01*
X76597580Y-130752627D01*
X76295937Y-130752627D01*
X75853528Y-130853175D01*
X75551884Y-131074381D01*
X75391011Y-131436354D01*
X75089367Y-131878768D01*
X74848050Y-132180411D01*
X74365422Y-132441836D01*
X73822465Y-132502165D01*
X72676220Y-132502165D01*
X72374577Y-132220629D01*
X72173481Y-131818438D01*
X72221745Y-131697783D01*
X72595780Y-131697783D01*
X72636002Y-131701281D01*
X72636002Y-131979315D01*
X73098523Y-132099974D01*
X73577601Y-132099974D01*
X73581151Y-132120085D01*
X74224659Y-131939101D01*
X74217099Y-131895250D01*
X74184437Y-131898879D01*
X73842576Y-132039645D01*
X73641480Y-132099974D01*
X73577601Y-132099974D01*
X73520821Y-131778224D01*
X72636002Y-131701281D01*
X72636002Y-131666180D01*
X72651079Y-131654334D01*
X72917538Y-131597235D01*
X73339837Y-131577124D01*
X73581151Y-131577124D01*
X73782246Y-131557013D01*
X74149731Y-131504514D01*
X74217099Y-131895250D01*
X74546410Y-131858660D01*
X74767617Y-131557017D01*
X74901549Y-131231751D01*
X75049149Y-131275485D01*
X75391007Y-130732527D01*
X75299381Y-130699210D01*
X75089367Y-130973841D01*
X74908383Y-131215155D01*
X74901549Y-131231751D01*
X74561958Y-131131132D01*
X74385533Y-131275477D01*
X74204545Y-131496684D01*
X74149731Y-131504514D01*
X74124112Y-131355925D01*
X73158848Y-131255374D01*
X72651079Y-131654334D01*
X72636002Y-131657565D01*
X72636002Y-131666180D01*
X72595780Y-131697783D01*
X72221745Y-131697783D01*
X72253922Y-131617343D01*
X72615895Y-131174929D01*
X73138745Y-131134711D01*
X73782250Y-131094493D01*
X74104001Y-130853175D01*
X74276544Y-130935996D01*
X74506188Y-131114607D01*
X74561958Y-131131132D01*
X74606740Y-131094493D01*
X74276544Y-130935996D01*
X74144215Y-130833075D01*
X74284981Y-130531432D01*
X74445859Y-130270007D01*
X74376440Y-129922924D01*
X73641476Y-129887927D01*
X73606841Y-129867816D01*
X74365418Y-129867816D01*
X74376440Y-129922924D01*
X74486081Y-129928145D01*
X74807835Y-129747176D01*
X74771997Y-129648623D01*
X74667061Y-129566172D01*
X74365418Y-129867816D01*
X73606841Y-129867816D01*
X73018082Y-129525954D01*
X71851727Y-129727049D01*
X71107674Y-129968367D01*
X70162526Y-130330340D01*
X69599461Y-130551547D01*
X69016282Y-130672206D01*
X68614090Y-130973849D01*
X67930363Y-131516806D01*
X67608613Y-131898886D01*
X67206421Y-132260859D01*
X66824341Y-132361411D01*
X66703682Y-132120093D01*
X66743901Y-131838561D01*
X66562916Y-131697791D01*
X65818863Y-131858668D01*
X65477002Y-132200530D01*
X65215577Y-132522280D01*
X65094918Y-132642939D01*
X64793274Y-132723380D01*
X64632397Y-132401629D01*
X64853604Y-132180422D01*
X65235684Y-131677683D01*
X65637875Y-131355933D01*
X66160721Y-131134726D01*
X66663460Y-131074397D01*
X66924885Y-131154837D01*
X67166203Y-131315714D01*
X67196286Y-131294092D01*
X67286854Y-131376036D01*
X67769490Y-130973841D01*
X67710866Y-130924237D01*
X67196286Y-131294092D01*
X66864556Y-130993952D01*
X66562912Y-130772746D01*
X65778641Y-130873294D01*
X65215573Y-131034171D01*
X64753052Y-131597239D01*
X64290532Y-132160308D01*
X64089436Y-132683158D01*
X63767682Y-133507651D01*
X63606808Y-134553347D01*
X63063851Y-134553347D01*
X63063851Y-134251708D01*
X62882866Y-134030501D01*
X62862755Y-133668528D01*
X63224728Y-133547869D01*
X63325276Y-133266333D01*
X63586701Y-132703269D01*
X63747578Y-132301077D01*
X63425828Y-132099982D01*
X63791965Y-131541136D01*
X63888348Y-131677680D01*
X64330758Y-131396147D01*
X64199470Y-131232034D01*
X63807908Y-131516802D01*
X63791965Y-131541136D01*
X63405720Y-130993956D01*
X63320424Y-130752288D01*
X63104077Y-130792853D01*
X62621449Y-130752635D01*
X62219258Y-130430880D01*
X61937722Y-130149348D01*
X61555642Y-130229788D01*
X61455090Y-130551539D01*
X61274106Y-130873290D01*
X60892022Y-130993949D01*
X60308846Y-131134715D01*
X60047421Y-131798331D01*
X59886544Y-132441840D01*
X59705559Y-132763590D01*
X59685448Y-133909834D01*
X59160587Y-133909834D01*
X59142487Y-133185893D01*
X59243035Y-132803809D01*
X59383805Y-132180415D01*
X59524571Y-131738001D01*
X59765885Y-131054278D01*
X59987092Y-130772742D01*
X59403912Y-130511317D01*
X59323472Y-130068907D01*
X59524567Y-129445513D01*
X59966977Y-130008582D01*
X60248513Y-130249896D01*
X60268624Y-130652087D01*
X60851800Y-130511321D01*
X61052895Y-130229788D01*
X61160148Y-129988471D01*
X62420350Y-129988471D01*
X62661664Y-130008582D01*
X62902981Y-130290114D01*
X63165148Y-130206698D01*
X63285061Y-130652094D01*
X63320424Y-130752288D01*
X63425831Y-130732524D01*
X63345391Y-130149348D01*
X63165148Y-130206698D01*
X63144295Y-130129244D01*
X62963311Y-129948260D01*
X62500790Y-129546069D01*
X62449241Y-129540643D01*
X62420350Y-129988471D01*
X61160148Y-129988471D01*
X61294213Y-129686827D01*
X61595856Y-129546061D01*
X61708440Y-129309633D01*
X62118710Y-129505850D01*
X62449241Y-129540643D01*
X62460568Y-129365073D01*
X61796952Y-129123759D01*
X61708440Y-129309633D01*
X61656189Y-129284644D01*
X61173562Y-129043326D01*
X60630600Y-128701464D01*
X59946877Y-128279162D01*
X59625123Y-128138396D01*
X59041947Y-127937300D01*
X57875592Y-127957411D01*
X57232087Y-128178618D01*
X56829896Y-128600916D01*
X56568472Y-129023219D01*
X56367377Y-129706946D01*
X56361092Y-129776701D01*
X56347267Y-129948259D01*
X56339882Y-130054541D01*
X56333441Y-130165065D01*
X56328885Y-130272760D01*
X56327157Y-130370558D01*
X55813827Y-130370558D01*
X55804301Y-130189574D01*
X55904851Y-129123767D01*
X56226603Y-128500373D01*
X56648905Y-128037852D01*
X56708949Y-127999252D01*
X56718657Y-128183715D01*
X57310128Y-127749972D01*
X57323482Y-127690833D01*
X57546719Y-127690833D01*
X58059327Y-127611960D01*
X58095684Y-127462493D01*
X58981612Y-127394343D01*
X59665337Y-127494891D01*
X60127858Y-127776423D01*
X60892018Y-128178614D01*
X61334431Y-128460147D01*
X61595856Y-128701464D01*
X62018155Y-128842230D01*
X62701882Y-129204203D01*
X63124184Y-129385188D01*
X63345391Y-129747161D01*
X63486157Y-130089022D01*
X63647034Y-130471106D01*
X63868241Y-130913516D01*
X64169884Y-131195052D01*
X64199470Y-131232034D01*
X64250321Y-131195052D01*
X64511746Y-131074393D01*
X64692730Y-130853186D01*
X65115029Y-130290118D01*
X65537331Y-129928145D01*
X65576074Y-129969470D01*
X65497105Y-130028697D01*
X65718312Y-130330336D01*
X65865015Y-130255104D01*
X66040070Y-130290114D01*
X66562916Y-130390662D01*
X66904778Y-130430880D01*
X67246640Y-130531432D01*
X67710866Y-130924237D01*
X67809708Y-130853194D01*
X68513546Y-130249907D01*
X69076611Y-130048812D01*
X69961434Y-129787387D01*
X71188115Y-129385195D01*
X72213704Y-129023223D01*
X73098523Y-129043334D01*
X73108153Y-129046021D01*
X73141877Y-129248366D01*
X73713658Y-129366660D01*
X73730001Y-129219562D01*
X73108153Y-129046021D01*
X73063015Y-128775187D01*
X72905289Y-128065421D01*
X72609555Y-127749968D01*
X72215237Y-127158496D01*
X72151635Y-127059912D01*
X72846131Y-127059912D01*
X73220738Y-127710539D01*
X73289454Y-127623897D01*
X73122178Y-127414801D01*
X72859288Y-127046755D01*
X72846131Y-127059912D01*
X72151635Y-127059912D01*
X71820923Y-126547309D01*
X71505471Y-126271288D01*
X71268883Y-125916407D01*
X71268883Y-125443221D01*
X71801198Y-125443221D01*
X71860364Y-125443221D01*
X71919514Y-125679820D01*
X72156102Y-126113566D01*
X72491272Y-126468447D01*
X72826443Y-127000773D01*
X72859288Y-127046755D01*
X73378457Y-126527587D01*
X73615044Y-125837535D01*
X73181302Y-125541800D01*
X72530682Y-125443221D01*
X71860364Y-125443221D01*
X71820935Y-125285502D01*
X71864165Y-125060709D01*
X71919499Y-125068614D01*
X73003865Y-125009463D01*
X73094832Y-124983878D01*
X72984147Y-124970042D01*
X72668694Y-124950331D01*
X71896261Y-124893809D01*
X71864165Y-125060709D01*
X71842515Y-125057617D01*
X71801198Y-125443221D01*
X71268883Y-125443221D01*
X71268883Y-125403800D01*
X71389728Y-125029185D01*
X71643479Y-125029185D01*
X71842515Y-125057617D01*
X71860348Y-124891181D01*
X71896261Y-124893809D01*
X71919514Y-124772894D01*
X71998375Y-124280001D01*
X72012096Y-124221687D01*
X71998360Y-124220854D01*
X71643479Y-125029185D01*
X71389728Y-125029185D01*
X71466042Y-124792613D01*
X71505471Y-124378581D01*
X71505471Y-123491370D01*
X71604050Y-123235064D01*
X71584340Y-122781603D01*
X71249173Y-122446436D01*
X70637986Y-122446436D01*
X70125374Y-122387286D01*
X70132628Y-122361380D01*
X70302807Y-122367568D01*
X70513109Y-121894393D01*
X70992871Y-121894393D01*
X71406903Y-121992972D01*
X71663208Y-122130984D01*
X71899796Y-122466151D01*
X72096955Y-122604163D01*
X72175816Y-123077342D01*
X72175816Y-123550517D01*
X72077237Y-123944834D01*
X72012096Y-124221687D01*
X73299603Y-124299716D01*
X73930504Y-124319426D01*
X75093735Y-124279997D01*
X75744355Y-124299708D01*
X76572415Y-124240557D01*
X77380761Y-124023684D01*
X77893368Y-123747664D01*
X78120241Y-123587518D01*
X78445412Y-123668810D01*
X78800301Y-123313925D01*
X78622068Y-123206983D01*
X78228539Y-123511073D01*
X78120241Y-123587518D01*
X77735642Y-123491370D01*
X76966729Y-123195632D01*
X75961224Y-122919615D01*
X75290890Y-122683024D01*
X74265671Y-122485865D01*
X73516472Y-122446436D01*
X72077225Y-122446436D01*
X71899785Y-122170416D01*
X72064559Y-121992968D01*
X74521985Y-121992968D01*
X77301899Y-123057624D01*
X78019348Y-123019360D01*
X77932812Y-122998473D01*
X77104748Y-122722453D01*
X76513276Y-122564726D01*
X75626065Y-122071833D01*
X75034267Y-121961731D01*
X74521985Y-121992968D01*
X72064559Y-121992968D01*
X72156090Y-121894396D01*
X73654488Y-121894396D01*
X74778286Y-121914107D01*
X75034267Y-121961731D01*
X76138676Y-121894389D01*
X76769581Y-122052115D01*
X77361054Y-122150694D01*
X78011674Y-122387286D01*
X79155186Y-122347857D01*
X79805806Y-122249278D01*
X80555005Y-121874682D01*
X80909886Y-121480364D01*
X80988747Y-121204344D01*
X80969037Y-120829749D01*
X80890175Y-120297423D01*
X80791796Y-119608773D01*
X80789623Y-119607371D01*
X80791596Y-119607371D01*
X80791796Y-119608773D01*
X80850731Y-119646796D01*
X81560502Y-119351061D01*
X81463776Y-119254336D01*
X81047902Y-119331351D01*
X80791596Y-119607371D01*
X80789623Y-119607371D01*
X80239544Y-119252482D01*
X79825516Y-118937029D01*
X79115750Y-118641295D01*
X78543992Y-118286414D01*
X78051098Y-117793521D01*
X77637070Y-117596362D01*
X77085030Y-117162615D01*
X76662867Y-116830918D01*
X76651269Y-116906314D01*
X76730137Y-117202048D01*
X77104733Y-117576647D01*
X77499051Y-117832953D01*
X77814503Y-118148406D01*
X78189103Y-118345564D01*
X78504555Y-118483576D01*
X78977730Y-118661017D01*
X78958020Y-118996188D01*
X78603138Y-119114482D01*
X77873658Y-119094771D01*
X77163888Y-118976473D01*
X76848435Y-118759600D01*
X76631566Y-118700450D01*
X76237248Y-118937037D01*
X75842934Y-118897608D01*
X75192315Y-118799029D01*
X74778283Y-118700450D01*
X74581124Y-118641299D01*
X74285389Y-119035613D01*
X73969937Y-119370783D01*
X73733346Y-119567942D01*
X73279885Y-119646803D01*
X73122159Y-119824248D01*
X72688412Y-119981974D01*
X72116654Y-120179133D01*
X72116654Y-120474867D01*
X71919495Y-120849467D01*
X71209729Y-121066340D01*
X70657685Y-121046630D01*
X70267398Y-121258029D01*
X70263382Y-121125472D01*
X70026791Y-121046610D01*
X70013855Y-121045911D01*
X70001736Y-121211534D01*
X69711335Y-121066332D01*
X69752774Y-121031800D01*
X70013855Y-121045911D01*
X70026787Y-120869181D01*
X70026787Y-120803456D01*
X69752774Y-121031800D01*
X69297310Y-121007182D01*
X69671910Y-121381781D01*
X69671910Y-121686224D01*
X69967637Y-121677527D01*
X70001736Y-121211534D01*
X70184514Y-121302924D01*
X70267398Y-121258029D01*
X70283093Y-121776091D01*
X70539399Y-121835242D01*
X70513109Y-121894393D01*
X70263386Y-121894393D01*
X70132628Y-122361380D01*
X69218442Y-122328139D01*
X69218442Y-122643588D01*
X68883271Y-122801314D01*
X66359658Y-122761885D01*
X64309220Y-122761885D01*
X62041909Y-122702735D01*
X61061098Y-122613569D01*
X60701241Y-122801322D01*
X60228066Y-123116774D01*
X60050622Y-123254782D01*
X59715451Y-123412509D01*
X59399998Y-123629382D01*
X59242272Y-123826541D01*
X59212699Y-123895544D01*
X59538006Y-123865973D01*
X59952038Y-123432231D01*
X60760384Y-123313933D01*
X61529301Y-123097060D01*
X62278500Y-122998480D01*
X63007985Y-122998480D01*
X63205143Y-123294215D01*
X63007985Y-123451941D01*
X62179925Y-123550521D01*
X61411011Y-123649100D01*
X60523800Y-123806822D01*
X60740674Y-123964549D01*
X61253281Y-124063128D01*
X61194130Y-124496874D01*
X60681519Y-124536303D01*
X60385785Y-124358863D01*
X60247773Y-124102557D01*
X60011185Y-124358863D01*
X59261986Y-124339152D01*
X59143692Y-124516596D01*
X58788809Y-124713751D01*
X58749379Y-125088351D01*
X58766702Y-125313556D01*
X58867671Y-125206648D01*
X59656300Y-124772902D01*
X60070332Y-124792613D01*
X60208340Y-125246073D01*
X59912606Y-125246073D01*
X59380280Y-125502379D01*
X58887387Y-125896693D01*
X58631083Y-126251578D01*
X58236769Y-126882479D01*
X58095684Y-127462493D01*
X57935915Y-127474784D01*
X57562200Y-127578594D01*
X57546719Y-127690833D01*
X57323482Y-127690833D01*
X57334547Y-127641831D01*
X57562200Y-127578594D01*
X57625578Y-127119074D01*
X57921315Y-126369876D01*
X58028116Y-126194417D01*
X58335347Y-126113566D01*
X58788809Y-125600958D01*
X58766702Y-125313556D01*
X58197335Y-125916415D01*
X58028116Y-126194417D01*
X57960747Y-126212145D01*
X57605864Y-126783900D01*
X57448138Y-127138781D01*
X57334547Y-127641831D01*
X57211972Y-127675879D01*
X56708949Y-127999252D01*
X56679226Y-127434516D01*
X56856667Y-126882475D01*
X57112973Y-126488162D01*
X57369277Y-126093848D01*
X57743876Y-125699530D01*
X58000180Y-125423510D01*
X58039610Y-124989764D01*
X58236767Y-124496871D01*
X58421599Y-124299716D01*
X58571936Y-124299716D01*
X59123978Y-124102564D01*
X59212699Y-123895544D01*
X59104260Y-123905402D01*
X58606123Y-124145878D01*
X58571936Y-124299716D01*
X58421599Y-124299716D01*
X58532502Y-124181418D01*
X58606123Y-124145878D01*
X58729662Y-123589949D01*
X59084549Y-123116770D01*
X59853463Y-122919615D01*
X60168915Y-122604163D01*
X60337020Y-122286631D01*
X60425217Y-122328135D01*
X60957543Y-122604155D01*
X61061098Y-122613569D01*
X61154706Y-122564730D01*
X60878682Y-122091551D01*
X60346356Y-122268996D01*
X60337020Y-122286631D01*
X59419713Y-121854956D01*
X58197339Y-121342349D01*
X56738373Y-120514289D01*
X56265194Y-120277697D01*
X56265194Y-120277693D01*
X57389016Y-120277693D01*
X58946536Y-121007186D01*
X59103264Y-121027502D01*
X60937832Y-122091551D01*
X62416516Y-122111262D01*
X68153798Y-122229560D01*
X68764988Y-122111262D01*
X68942429Y-121874674D01*
X69671910Y-121776095D01*
X69671910Y-121686224D01*
X68626965Y-121716956D01*
X66951127Y-121657805D01*
X65018986Y-121500079D01*
X63106556Y-121460650D01*
X61351857Y-121224059D01*
X60011185Y-121145197D01*
X59103264Y-121027502D01*
X58966258Y-120948039D01*
X57650951Y-120284241D01*
X57389016Y-120277693D01*
X56265194Y-120277693D01*
X56146899Y-119627078D01*
X56225758Y-118463847D01*
X56282469Y-116630290D01*
X56738377Y-116630290D01*
X56856671Y-119883391D01*
X57650951Y-120284241D01*
X58966275Y-120317122D01*
X58985985Y-119745364D01*
X59045136Y-119114462D01*
X59045136Y-118680716D01*
X59262009Y-118522990D01*
X59597180Y-118522990D01*
X59636609Y-118996169D01*
X59459164Y-119291903D01*
X59459164Y-119804511D01*
X59419735Y-120474845D01*
X59754906Y-120474845D01*
X59794335Y-120159396D01*
X59814045Y-119548205D01*
X59833756Y-118897586D01*
X60149209Y-118739859D01*
X60464654Y-118739859D01*
X60464654Y-119981959D01*
X60267495Y-120494567D01*
X60602662Y-120474856D01*
X62160206Y-120652297D01*
X62199635Y-120435423D01*
X62337643Y-120041110D01*
X62298214Y-119528502D01*
X62081341Y-119390490D01*
X61746171Y-119331339D01*
X60918110Y-119390490D01*
X60602658Y-119232764D01*
X60681519Y-118779303D01*
X61884182Y-118779303D01*
X62909401Y-118996176D01*
X63007981Y-119489070D01*
X62869973Y-120080542D01*
X62751675Y-120731162D01*
X63481160Y-120790312D01*
X64545399Y-120770609D01*
X65176716Y-120770609D01*
X65452733Y-120908618D01*
X66556817Y-121026911D01*
X67798909Y-121086062D01*
X67759480Y-120317149D01*
X67739769Y-119331359D01*
X67754665Y-118996188D01*
X67936921Y-118996188D01*
X67936921Y-118996184D01*
X68390397Y-118996184D01*
X68410107Y-119981970D01*
X68429818Y-121086051D01*
X68686123Y-121086051D01*
X69238202Y-121007182D01*
X69376175Y-120987471D01*
X69376175Y-120790312D01*
X69395886Y-120060832D01*
X69514180Y-119075045D01*
X69553608Y-117872386D01*
X69632470Y-117142901D01*
X69681559Y-116455695D01*
X70199110Y-116505784D01*
X70204228Y-116275412D01*
X69691620Y-116314841D01*
X69681559Y-116455695D01*
X69652192Y-116452853D01*
X68981854Y-116275408D01*
X68483315Y-116078618D01*
X68449536Y-116788020D01*
X68410107Y-117478072D01*
X68390397Y-118227271D01*
X68390397Y-118996184D01*
X67936921Y-118996184D01*
X67936921Y-118266703D01*
X67779198Y-118266703D01*
X67779198Y-118444148D01*
X67754665Y-118996188D01*
X67424309Y-118996188D01*
X66911702Y-118956759D01*
X66063923Y-118858180D01*
X65295010Y-118818751D01*
X65275300Y-119370795D01*
X65295010Y-120060843D01*
X65176716Y-120770609D01*
X64545399Y-120770609D01*
X64545811Y-120770602D01*
X64624672Y-120119982D01*
X64624672Y-118917323D01*
X64821831Y-118306136D01*
X65314724Y-118168128D01*
X66241364Y-118108977D01*
X67128575Y-118266703D01*
X67779198Y-118266703D01*
X67779198Y-117044325D01*
X67818627Y-116176833D01*
X67996596Y-115916725D01*
X68232655Y-115979674D01*
X68483315Y-116078618D01*
X68488965Y-115959960D01*
X68074933Y-115802233D01*
X67996596Y-115916725D01*
X67641182Y-115821948D01*
X67184708Y-115683943D01*
X68962140Y-115683943D01*
X69395882Y-115782523D01*
X69906733Y-115682572D01*
X70085934Y-115821952D01*
X70299816Y-115673881D01*
X70302807Y-115605078D01*
X69906733Y-115682572D01*
X69731053Y-115545931D01*
X69238160Y-115368491D01*
X68981854Y-115427641D01*
X68972083Y-115425343D01*
X68962140Y-115683943D01*
X67184708Y-115683943D01*
X66793404Y-115565642D01*
X65866765Y-115368483D01*
X64880978Y-115250189D01*
X63757180Y-115131896D01*
X62495373Y-114875590D01*
X61588448Y-114560137D01*
X60504082Y-114086959D01*
X59774598Y-113653214D01*
X59084549Y-113120888D01*
X58749381Y-112647709D01*
X58531054Y-111606463D01*
X58453648Y-111740786D01*
X57724165Y-113101174D01*
X57349566Y-114047530D01*
X57073544Y-115565642D01*
X56738377Y-116630290D01*
X56282469Y-116630290D01*
X56284909Y-116551421D01*
X56659508Y-115072737D01*
X56836951Y-113870076D01*
X57034108Y-113180028D01*
X57994571Y-111425332D01*
X58493075Y-111425332D01*
X58531054Y-111606463D01*
X59087857Y-110640236D01*
X59123971Y-110893010D01*
X59183121Y-111504199D01*
X59202832Y-112174534D01*
X59538003Y-112785721D01*
X59991463Y-113239184D01*
X60740662Y-113594069D01*
X61627873Y-113988383D01*
X62593945Y-114244689D01*
X63836037Y-114579856D01*
X65295002Y-114717864D01*
X65728749Y-114954455D01*
X66911694Y-114934744D01*
X67049706Y-115171332D01*
X68173504Y-115230483D01*
X68535322Y-115204007D01*
X68646687Y-115348780D01*
X68972083Y-115425343D01*
X68981850Y-115171332D01*
X68535322Y-115204007D01*
X68449528Y-115092475D01*
X67936921Y-115053046D01*
X67168004Y-114954466D01*
X66615964Y-114816455D01*
X65886479Y-114678446D01*
X65156994Y-114619296D01*
X64447228Y-114560145D01*
X63481156Y-114362986D01*
X62712243Y-113948956D01*
X62002472Y-113554640D01*
X61332139Y-113160327D01*
X60878678Y-112706866D01*
X60464650Y-112115391D01*
X60149197Y-111642213D01*
X60122582Y-111109879D01*
X60720955Y-111109879D01*
X60799824Y-111721070D01*
X60996983Y-111977374D01*
X61272999Y-112312541D01*
X61706746Y-112766005D01*
X62258786Y-113101172D01*
X62712246Y-113298329D01*
X63264287Y-113594067D01*
X63974057Y-113870085D01*
X64624676Y-114027812D01*
X65235859Y-114027812D01*
X65511883Y-114165824D01*
X65785290Y-114123763D01*
X65866780Y-114205252D01*
X66280812Y-114284113D01*
X66331368Y-114164044D01*
X66694825Y-114303836D01*
X67227150Y-114382697D01*
X68074929Y-114461566D01*
X68646687Y-114678439D01*
X69060715Y-114777018D01*
X69474747Y-114895312D01*
X70184514Y-115210764D01*
X70342240Y-115644511D01*
X70299816Y-115673881D01*
X70263379Y-116512004D01*
X70199110Y-116505784D01*
X70184517Y-117162623D01*
X70007077Y-118266703D01*
X70026787Y-119784815D01*
X70026787Y-120803456D01*
X70302807Y-120573439D01*
X71052006Y-120494578D01*
X71446320Y-120317137D01*
X71761773Y-119903105D01*
X72116654Y-119607371D01*
X72708127Y-119351065D01*
X72767277Y-119232772D01*
X73260171Y-119213061D01*
X73831925Y-118601870D01*
X74245957Y-118168124D01*
X75152882Y-118128695D01*
X75626061Y-118128695D01*
X75882367Y-118483576D01*
X76493554Y-118108977D01*
X76848435Y-118286418D01*
X77242753Y-118306128D01*
X76434407Y-117497782D01*
X76079525Y-117142897D01*
X76020375Y-116590857D01*
X75969675Y-115999388D01*
X76414692Y-115999388D01*
X76532986Y-116728869D01*
X76662867Y-116830918D01*
X76690697Y-116650008D01*
X76592118Y-116255694D01*
X76542987Y-116122338D01*
X76414692Y-115999388D01*
X75969675Y-115999388D01*
X75961224Y-115900805D01*
X75948214Y-115840091D01*
X76000660Y-115585352D01*
X75547184Y-114284121D01*
X75498544Y-114338842D01*
X75093731Y-113278613D01*
X74679699Y-112785718D01*
X74265667Y-112253392D01*
X73575615Y-111543625D01*
X73122155Y-111149312D01*
X72688408Y-110636700D01*
X72652586Y-110505361D01*
X72540044Y-110419829D01*
X72629258Y-110419829D01*
X72652586Y-110505361D01*
X72747578Y-110577555D01*
X72778246Y-110557839D01*
X73161599Y-110557839D01*
X73595345Y-110932438D01*
X73496758Y-110794427D01*
X73509290Y-110712969D01*
X73279877Y-110419829D01*
X73178399Y-110361842D01*
X73161599Y-110557839D01*
X72778246Y-110557839D01*
X73023579Y-110400113D01*
X73023579Y-110273372D01*
X73003857Y-110262103D01*
X72629258Y-110419829D01*
X72540044Y-110419829D01*
X72254685Y-110202956D01*
X71860367Y-109769208D01*
X71426621Y-109256598D01*
X71229462Y-108763703D01*
X71199985Y-108634007D01*
X71170323Y-109138306D01*
X71170323Y-109552336D01*
X71071743Y-110064946D01*
X70598565Y-110498692D01*
X69652211Y-110912722D01*
X68666421Y-111425332D01*
X68094662Y-111681635D01*
X67641202Y-111898509D01*
X67246888Y-112529412D01*
X66931435Y-113061738D01*
X66615983Y-113534917D01*
X66438538Y-113909516D01*
X66331368Y-114164044D01*
X66182217Y-114106679D01*
X66017813Y-114046894D01*
X66024491Y-114086964D01*
X65785290Y-114123763D01*
X65709054Y-114047526D01*
X65777511Y-113959511D01*
X66017813Y-114046894D01*
X65985058Y-113850369D01*
X65913335Y-113784882D01*
X65777511Y-113959511D01*
X65748475Y-113948952D01*
X65235863Y-114027812D01*
X65235859Y-114027812D01*
X65196431Y-114008097D01*
X64821831Y-113436341D01*
X64368371Y-112746291D01*
X64190926Y-112036524D01*
X64092347Y-111326756D01*
X64072636Y-110281821D01*
X64072636Y-110163527D01*
X64644391Y-110163527D01*
X64664101Y-110853575D01*
X64768754Y-111516381D01*
X64782399Y-111661917D01*
X64791265Y-111695904D01*
X64861264Y-112430834D01*
X65078133Y-112884297D01*
X65531598Y-113436339D01*
X65913335Y-113784882D01*
X65985077Y-113692643D01*
X66201951Y-113357474D01*
X66379391Y-112923730D01*
X66635697Y-112568844D01*
X66931435Y-111997088D01*
X67306035Y-111563344D01*
X67838356Y-111228175D01*
X68350968Y-110912722D01*
X69041016Y-110656418D01*
X69573342Y-110340966D01*
X70145100Y-109966366D01*
X70381691Y-109828358D01*
X70559132Y-109453759D01*
X70578843Y-108803141D01*
X70531526Y-108329959D01*
X71130883Y-108329959D01*
X71199985Y-108634007D01*
X71209752Y-108467970D01*
X71453296Y-108172232D01*
X71663212Y-108172232D01*
X71761792Y-108684842D01*
X71880085Y-109079156D01*
X72057526Y-109276316D01*
X72412411Y-109690346D01*
X72491272Y-109512904D01*
X72494701Y-109493188D01*
X73003869Y-109493188D01*
X73023579Y-109946652D01*
X73023579Y-110273372D01*
X73178399Y-110361842D01*
X73220749Y-109867787D01*
X73226833Y-109827633D01*
X73240460Y-109848073D01*
X73339039Y-109572051D01*
X73297940Y-109358334D01*
X73226833Y-109827633D01*
X73003869Y-109493188D01*
X72494701Y-109493188D01*
X72570134Y-109059441D01*
X72648995Y-108566548D01*
X72925015Y-108349675D01*
X73220749Y-108389105D01*
X73240460Y-109059441D01*
X73297940Y-109358334D01*
X73319329Y-109217168D01*
X73358758Y-108724272D01*
X73398186Y-108329959D01*
X73319317Y-108093369D01*
X72944718Y-107837063D01*
X72274384Y-107797633D01*
X71899785Y-107699053D01*
X71679984Y-107685732D01*
X71663212Y-108172232D01*
X71453296Y-108172232D01*
X71485768Y-108132802D01*
X71257430Y-107666613D01*
X71167946Y-107644242D01*
X71130883Y-108329959D01*
X70531526Y-108329959D01*
X70499981Y-108014510D01*
X70460553Y-107304743D01*
X70322545Y-106989291D01*
X69967660Y-106378102D01*
X69691639Y-105865492D01*
X69455048Y-105274020D01*
X69257889Y-104682547D01*
X69255850Y-104623398D01*
X69770489Y-104623398D01*
X69849358Y-104958567D01*
X69967652Y-105274020D01*
X70145096Y-105806346D01*
X70381688Y-106180945D01*
X70559128Y-106594975D01*
X70697136Y-106811848D01*
X70833164Y-106964879D01*
X70894284Y-107186438D01*
X70913994Y-107580754D01*
X71167946Y-107644242D01*
X71170311Y-107600476D01*
X71225036Y-107600476D01*
X71249165Y-107649739D01*
X71249165Y-107659623D01*
X71254154Y-107659925D01*
X71257430Y-107666613D01*
X71308312Y-107679333D01*
X71315834Y-107663663D01*
X71679984Y-107685732D01*
X71682923Y-107600476D01*
X71346164Y-107600476D01*
X71315834Y-107663663D01*
X71254154Y-107659925D01*
X71249165Y-107649739D01*
X71249165Y-107600476D01*
X71346164Y-107600476D01*
X71544899Y-107186446D01*
X71519961Y-107089464D01*
X71249165Y-107048434D01*
X71249165Y-107600476D01*
X71225036Y-107600476D01*
X71012589Y-107166731D01*
X70907435Y-107048434D01*
X70833164Y-106964879D01*
X70736558Y-106614682D01*
X70559113Y-106161219D01*
X70480252Y-105609179D01*
X70164799Y-105116286D01*
X69908494Y-104682540D01*
X69777365Y-104485849D01*
X69770489Y-104623398D01*
X69255850Y-104623398D01*
X69238179Y-104110791D01*
X69250430Y-103804425D01*
X69297303Y-103893910D01*
X69671902Y-104327656D01*
X69777365Y-104485849D01*
X69790200Y-104229083D01*
X69257889Y-103617898D01*
X69250430Y-103804425D01*
X69080433Y-103479880D01*
X69048896Y-103301179D01*
X68764985Y-103460169D01*
X68173512Y-103795338D01*
X67582039Y-104189654D01*
X67187726Y-104327664D01*
X66714547Y-104662833D01*
X66241368Y-105116295D01*
X65965348Y-105688052D01*
X65630181Y-106397818D01*
X65354161Y-107048438D01*
X64959847Y-108093373D01*
X64703541Y-108763707D01*
X64703541Y-109434044D01*
X64644391Y-110163527D01*
X64072636Y-110163527D01*
X64072636Y-109512908D01*
X64210644Y-108862288D01*
X64368371Y-108231383D01*
X64644394Y-107541333D01*
X64880982Y-106930144D01*
X65078137Y-106496398D01*
X65166122Y-106258839D01*
X65571038Y-105865492D01*
X65748482Y-104781127D01*
X65666321Y-104846856D01*
X65452736Y-105471179D01*
X65275296Y-105964072D01*
X65166122Y-106258839D01*
X64880986Y-106535828D01*
X64072640Y-107304741D01*
X63737473Y-107699057D01*
X63500886Y-108211667D01*
X63264294Y-108763707D01*
X63146000Y-109158022D01*
X63106556Y-109690346D01*
X62672814Y-109769206D01*
X62475655Y-109650910D01*
X62475655Y-109118590D01*
X61943333Y-109434043D01*
X61450440Y-109749491D01*
X60977261Y-110242386D01*
X60819535Y-110498692D01*
X60720955Y-111109879D01*
X60122582Y-111109879D01*
X60109768Y-110853583D01*
X60168919Y-110360692D01*
X59892899Y-110064953D01*
X59857699Y-109748128D01*
X59123978Y-110577555D01*
X59087857Y-110640236D01*
X59045102Y-110340968D01*
X58493075Y-111425332D01*
X57994571Y-111425332D01*
X58059325Y-111307032D01*
X58374777Y-110695841D01*
X58828240Y-109907212D01*
X58988986Y-109710070D01*
X59853470Y-109710070D01*
X59857699Y-109748128D01*
X59894380Y-109706661D01*
X60326649Y-109670640D01*
X60780110Y-109690350D01*
X61470162Y-109079159D01*
X62041916Y-108684846D01*
X62455948Y-108389109D01*
X62929127Y-108231383D01*
X63343742Y-107439845D01*
X63599450Y-107403315D01*
X64466942Y-106634402D01*
X64042768Y-106551922D01*
X63540318Y-107087868D01*
X63362874Y-107403321D01*
X63343742Y-107439845D01*
X62909398Y-107501895D01*
X62022191Y-107955357D01*
X61095551Y-108566546D01*
X60484364Y-109039725D01*
X60030900Y-109552334D01*
X59894380Y-109706661D01*
X59853470Y-109710070D01*
X58988986Y-109710070D01*
X59873173Y-108625689D01*
X60602658Y-108132796D01*
X61647591Y-107442746D01*
X62948830Y-106752696D01*
X63757176Y-106496390D01*
X64042768Y-106551922D01*
X64131791Y-106456965D01*
X64526104Y-105885209D01*
X65255589Y-105175442D01*
X65666321Y-104846856D01*
X65709042Y-104721980D01*
X66044213Y-104386811D01*
X66911705Y-103795338D01*
X67562325Y-103598179D01*
X67996068Y-103223580D01*
X68567826Y-102888413D01*
X68901614Y-102785709D01*
X69021283Y-103144711D01*
X69048896Y-103301179D01*
X69257878Y-103184149D01*
X69080437Y-102730687D01*
X68901614Y-102785709D01*
X68883271Y-102730681D01*
X69159295Y-102691250D01*
X69455029Y-102750401D01*
X69711335Y-102986991D01*
X69770485Y-103420737D01*
X69849347Y-103716473D01*
X70026787Y-103913630D01*
X70302807Y-104386809D01*
X70775986Y-104997998D01*
X70973145Y-105471177D01*
X71190018Y-105983786D01*
X71367459Y-106496396D01*
X71519961Y-107089464D01*
X71899785Y-107147013D01*
X72353249Y-107304740D01*
X72964436Y-107442750D01*
X73437615Y-107580760D01*
X73772782Y-107699055D01*
X74048802Y-108073655D01*
X74068512Y-108783421D01*
X73851639Y-109118590D01*
X73654480Y-109808638D01*
X73575619Y-110281817D01*
X73509290Y-110712969D01*
X73634759Y-110873292D01*
X73930493Y-111188744D01*
X74383957Y-111721070D01*
X74778271Y-112016804D01*
X75074006Y-112391404D01*
X75507752Y-112825148D01*
X75803486Y-113456053D01*
X75980927Y-113909518D01*
X76118935Y-114362979D01*
X76335808Y-115053031D01*
X76394959Y-115545924D01*
X76454110Y-115881095D01*
X76542987Y-116122338D01*
X76887871Y-116452853D01*
X77361046Y-116807734D01*
X77952519Y-117241480D01*
X78701718Y-117773802D01*
X79293190Y-118089255D01*
X80081822Y-118523001D01*
X80929600Y-118877883D01*
X81225335Y-119015895D01*
X81463776Y-119254336D01*
X81580224Y-119232772D01*
X81777382Y-119351065D01*
X81994256Y-119705947D01*
X82013966Y-120376280D01*
X82013966Y-120829749D01*
X81777379Y-121263495D01*
X81383061Y-121776103D01*
X80949315Y-122249282D01*
X80081818Y-122683028D01*
X79431199Y-122821036D01*
X78780579Y-122978762D01*
X78019348Y-123019360D01*
X78504567Y-123136481D01*
X78622068Y-123206983D01*
X78662285Y-123175906D01*
X79115746Y-123294200D01*
X79056595Y-123708232D01*
X78386262Y-124082831D01*
X77518769Y-124634875D01*
X76887867Y-124792601D01*
X75704922Y-124812312D01*
X73634770Y-124832022D01*
X73094832Y-124983878D01*
X73457322Y-125029193D01*
X73930501Y-125305216D01*
X74167092Y-125561522D01*
X74265671Y-126034701D01*
X74029080Y-126488162D01*
X73674199Y-127138781D01*
X73289454Y-127623897D01*
X73516491Y-127907694D01*
X73595360Y-128440020D01*
X73753087Y-129011778D01*
X73730001Y-129219562D01*
X73963234Y-129284651D01*
X74727395Y-129525969D01*
X74771997Y-129648623D01*
X74948594Y-129787379D01*
X75029034Y-130129241D01*
X74968705Y-130290118D01*
X74787720Y-130450995D01*
X74948594Y-130571654D01*
X75299381Y-130699210D01*
X75350792Y-130631980D01*
X75732873Y-130290118D01*
X76476929Y-130270007D01*
X77019887Y-130249896D01*
X77442189Y-130792857D01*
X77361748Y-131335814D01*
X77180764Y-131557021D01*
X77180764Y-131959212D01*
X77080212Y-132421733D01*
X77125817Y-132938578D01*
X77380200Y-133134257D01*
X77398574Y-133740443D01*
X77659119Y-133766497D01*
X78309948Y-133766497D01*
X78719040Y-133989642D01*
X79090943Y-134342948D01*
X79332680Y-134733447D01*
X80206650Y-134677657D01*
X81503956Y-134575237D01*
X81554295Y-134212782D01*
X82159150Y-134212782D01*
X82176822Y-134619127D01*
X82289307Y-134956580D01*
X82307908Y-135607413D01*
X82456669Y-136072291D01*
X82493859Y-136667338D01*
X82624024Y-137150813D01*
X82865761Y-137634287D01*
X83181878Y-137931811D01*
X83739731Y-137969000D01*
X84502133Y-137652884D01*
X85097176Y-137466933D01*
X86026932Y-137113623D01*
X86845120Y-136704527D01*
X87365784Y-136481387D01*
X87719094Y-136239649D01*
X88444306Y-135811961D01*
X88871995Y-135607413D01*
X89188111Y-135347079D01*
X89206711Y-135012370D01*
X89429856Y-134807822D01*
X89671593Y-134956580D01*
X89969113Y-134975180D01*
X89913334Y-134696250D01*
X90006306Y-134528891D01*
X90359616Y-134584681D01*
X90489785Y-134640471D01*
X90731522Y-134491709D01*
X90880284Y-134287161D01*
X91106422Y-133747908D01*
X91122014Y-133747908D01*
X91233586Y-134064028D01*
X91652845Y-134194141D01*
X91735646Y-134064025D01*
X91317856Y-133823469D01*
X91289364Y-133840880D01*
X91152303Y-133738085D01*
X91122014Y-133747908D01*
X91106422Y-133747908D01*
X91120534Y-133714258D01*
X91152303Y-133738085D01*
X91163344Y-133734504D01*
X91317856Y-133823469D01*
X91624081Y-133636332D01*
X91631395Y-133582704D01*
X91163344Y-133734504D01*
X91122021Y-133710711D01*
X91120534Y-133714258D01*
X90991841Y-133617739D01*
X90880272Y-133283026D01*
X90824482Y-132873934D01*
X90847062Y-132557810D01*
X91493924Y-132557810D01*
X91568303Y-132818144D01*
X91679875Y-133227240D01*
X91631395Y-133582704D01*
X91810032Y-133524767D01*
X92516652Y-133413199D01*
X93223271Y-133004107D01*
X93967076Y-132502036D01*
X94394764Y-132018561D01*
X94803860Y-131516490D01*
X95064198Y-131367728D01*
X95064198Y-130977221D01*
X94506344Y-130865653D01*
X93836918Y-130940032D01*
X93465016Y-131181769D01*
X92962948Y-131683837D01*
X92665425Y-132111525D01*
X92219136Y-132316073D01*
X91605496Y-132353263D01*
X91493924Y-132557810D01*
X90847062Y-132557810D01*
X90861672Y-132353270D01*
X90805882Y-131646655D01*
X90694314Y-131144583D01*
X90266625Y-130549540D01*
X89894722Y-130233424D01*
X89392651Y-129898711D01*
X89150914Y-129917311D01*
X89299675Y-130047476D01*
X89652985Y-130344996D01*
X89969101Y-130605330D01*
X90210839Y-130884257D01*
X90396790Y-131535086D01*
X90489770Y-132130129D01*
X90601338Y-132743769D01*
X90619938Y-133301627D01*
X90675728Y-133859481D01*
X90582749Y-134082621D01*
X90378201Y-134082621D01*
X90155060Y-133952452D01*
X90062088Y-134045432D01*
X90099278Y-134305762D01*
X89801754Y-134491713D01*
X89467045Y-134342951D01*
X89578614Y-133971049D01*
X89987710Y-133878077D01*
X90080689Y-133580557D01*
X89969117Y-132799559D01*
X89857548Y-132130129D01*
X89522835Y-130940039D01*
X89076554Y-130530943D01*
X88388531Y-130121852D01*
X87756295Y-129973090D01*
X87086869Y-129917300D01*
X86845131Y-130159037D01*
X86436039Y-130214827D01*
X86380249Y-130623919D01*
X86640584Y-130977225D01*
X86770749Y-131349127D01*
X87607529Y-131311938D01*
X88165383Y-131274748D01*
X88518692Y-131590869D01*
X88723240Y-131832606D01*
X88667462Y-132223105D01*
X88239773Y-132204505D01*
X87960843Y-131869792D01*
X87272824Y-131962763D01*
X86993893Y-132241694D01*
X86398850Y-132334666D01*
X86231495Y-132613597D01*
X85524876Y-132613597D01*
X85171567Y-133097071D01*
X84967019Y-133134261D01*
X84688092Y-133431784D01*
X84204617Y-133952448D01*
X83628167Y-133878070D01*
X83312050Y-133413191D01*
X82828576Y-133283026D01*
X82512459Y-133375998D01*
X82159150Y-133673522D01*
X82159150Y-134212782D01*
X81554295Y-134212782D01*
X81582703Y-134008235D01*
X81712872Y-133375998D01*
D11*
%TO.C,U1*%
X144631227Y-35892843D02*
X144631227Y-36612510D01*
X144673561Y-36697177D01*
X144715894Y-36739510D01*
X144800561Y-36781843D01*
X144969894Y-36781843D01*
X145054561Y-36739510D01*
X145096894Y-36697177D01*
X145139227Y-36612510D01*
X145139227Y-35892843D01*
X146028227Y-36781843D02*
X145520227Y-36781843D01*
X145774227Y-36781843D02*
X145774227Y-35892843D01*
X145689561Y-36019843D01*
X145604894Y-36104510D01*
X145520227Y-36146843D01*
D12*
X141641889Y-47611919D02*
X141728975Y-47640948D01*
X141874118Y-47640948D01*
X141932175Y-47611919D01*
X141961203Y-47582891D01*
X141990232Y-47524834D01*
X141990232Y-47466777D01*
X141961203Y-47408719D01*
X141932175Y-47379691D01*
X141874118Y-47350662D01*
X141758003Y-47321634D01*
X141699946Y-47292605D01*
X141670918Y-47263577D01*
X141641889Y-47205519D01*
X141641889Y-47147462D01*
X141670918Y-47089405D01*
X141699946Y-47060377D01*
X141758003Y-47031348D01*
X141903146Y-47031348D01*
X141990232Y-47060377D01*
X142483718Y-47611919D02*
X142425661Y-47640948D01*
X142309546Y-47640948D01*
X142251489Y-47611919D01*
X142222461Y-47553862D01*
X142222461Y-47321634D01*
X142251489Y-47263577D01*
X142309546Y-47234548D01*
X142425661Y-47234548D01*
X142483718Y-47263577D01*
X142512746Y-47321634D01*
X142512746Y-47379691D01*
X142222461Y-47437748D01*
X143006232Y-47611919D02*
X142948175Y-47640948D01*
X142832061Y-47640948D01*
X142774003Y-47611919D01*
X142744975Y-47553862D01*
X142744975Y-47321634D01*
X142774003Y-47263577D01*
X142832061Y-47234548D01*
X142948175Y-47234548D01*
X143006232Y-47263577D01*
X143035261Y-47321634D01*
X143035261Y-47379691D01*
X142744975Y-47437748D01*
X143528746Y-47611919D02*
X143470689Y-47640948D01*
X143354575Y-47640948D01*
X143296518Y-47611919D01*
X143267489Y-47553862D01*
X143267489Y-47321634D01*
X143296518Y-47263577D01*
X143354575Y-47234548D01*
X143470689Y-47234548D01*
X143528746Y-47263577D01*
X143557775Y-47321634D01*
X143557775Y-47379691D01*
X143267489Y-47437748D01*
X144080289Y-47640948D02*
X144080289Y-47031348D01*
X144080289Y-47611919D02*
X144022232Y-47640948D01*
X143906118Y-47640948D01*
X143848061Y-47611919D01*
X143819032Y-47582891D01*
X143790003Y-47524834D01*
X143790003Y-47350662D01*
X143819032Y-47292605D01*
X143848061Y-47263577D01*
X143906118Y-47234548D01*
X144022232Y-47234548D01*
X144080289Y-47263577D01*
X144631832Y-47234548D02*
X144631832Y-47640948D01*
X144370575Y-47234548D02*
X144370575Y-47553862D01*
X144399603Y-47611919D01*
X144457661Y-47640948D01*
X144544746Y-47640948D01*
X144602803Y-47611919D01*
X144631832Y-47582891D01*
X144922118Y-47640948D02*
X144922118Y-47234548D01*
X144922118Y-47031348D02*
X144893089Y-47060377D01*
X144922118Y-47089405D01*
X144951146Y-47060377D01*
X144922118Y-47031348D01*
X144922118Y-47089405D01*
X145212403Y-47234548D02*
X145212403Y-47640948D01*
X145212403Y-47292605D02*
X145241432Y-47263577D01*
X145299489Y-47234548D01*
X145386575Y-47234548D01*
X145444632Y-47263577D01*
X145473661Y-47321634D01*
X145473661Y-47640948D01*
X145851032Y-47640948D02*
X145792975Y-47611919D01*
X145763946Y-47582891D01*
X145734918Y-47524834D01*
X145734918Y-47350662D01*
X145763946Y-47292605D01*
X145792975Y-47263577D01*
X145851032Y-47234548D01*
X145938118Y-47234548D01*
X145996175Y-47263577D01*
X146025203Y-47292605D01*
X146054232Y-47350662D01*
X146054232Y-47524834D01*
X146025203Y-47582891D01*
X145996175Y-47611919D01*
X145938118Y-47640948D01*
X145851032Y-47640948D01*
X146257432Y-47031348D02*
X146663832Y-47640948D01*
X146663832Y-47031348D02*
X146257432Y-47640948D01*
X146896061Y-47640948D02*
X146896061Y-47031348D01*
X147157318Y-47466777D02*
X147447603Y-47466777D01*
X147099261Y-47640948D02*
X147302461Y-47031348D01*
X147505661Y-47640948D01*
X147824975Y-47031348D02*
X147941089Y-47031348D01*
X147999146Y-47060377D01*
X148057203Y-47118434D01*
X148086232Y-47234548D01*
X148086232Y-47437748D01*
X148057203Y-47553862D01*
X147999146Y-47611919D01*
X147941089Y-47640948D01*
X147824975Y-47640948D01*
X147766918Y-47611919D01*
X147708861Y-47553862D01*
X147679832Y-47437748D01*
X147679832Y-47234548D01*
X147708861Y-47118434D01*
X147766918Y-47060377D01*
X147824975Y-47031348D01*
D13*
%TO.C,D20*%
X116872380Y-50756151D02*
X115872380Y-50756151D01*
X115872380Y-50518056D01*
X115920000Y-50375199D01*
X116015238Y-50279961D01*
X116110476Y-50232342D01*
X116300952Y-50184723D01*
X116443809Y-50184723D01*
X116634285Y-50232342D01*
X116729523Y-50279961D01*
X116824761Y-50375199D01*
X116872380Y-50518056D01*
X116872380Y-50756151D01*
X115967619Y-49803770D02*
X115920000Y-49756151D01*
X115872380Y-49660913D01*
X115872380Y-49422818D01*
X115920000Y-49327580D01*
X115967619Y-49279961D01*
X116062857Y-49232342D01*
X116158095Y-49232342D01*
X116300952Y-49279961D01*
X116872380Y-49851389D01*
X116872380Y-49232342D01*
X115872380Y-48613294D02*
X115872380Y-48518056D01*
X115920000Y-48422818D01*
X115967619Y-48375199D01*
X116062857Y-48327580D01*
X116253333Y-48279961D01*
X116491428Y-48279961D01*
X116681904Y-48327580D01*
X116777142Y-48375199D01*
X116824761Y-48422818D01*
X116872380Y-48518056D01*
X116872380Y-48613294D01*
X116824761Y-48708532D01*
X116777142Y-48756151D01*
X116681904Y-48803770D01*
X116491428Y-48851389D01*
X116253333Y-48851389D01*
X116062857Y-48803770D01*
X115967619Y-48756151D01*
X115920000Y-48708532D01*
X115872380Y-48613294D01*
X116552380Y-45993770D02*
X115552380Y-45993770D01*
X116552380Y-45422342D02*
X115980952Y-45850913D01*
X115552380Y-45422342D02*
X116123809Y-45993770D01*
%TO.C,D19*%
X114272380Y-48566149D02*
X113272380Y-48566149D01*
X113272380Y-48328054D01*
X113320000Y-48185197D01*
X113415238Y-48089959D01*
X113510476Y-48042340D01*
X113700952Y-47994721D01*
X113843809Y-47994721D01*
X114034285Y-48042340D01*
X114129523Y-48089959D01*
X114224761Y-48185197D01*
X114272380Y-48328054D01*
X114272380Y-48566149D01*
X114272380Y-47042340D02*
X114272380Y-47613768D01*
X114272380Y-47328054D02*
X113272380Y-47328054D01*
X113415238Y-47423292D01*
X113510476Y-47518530D01*
X113558095Y-47613768D01*
X114272380Y-46566149D02*
X114272380Y-46375673D01*
X114224761Y-46280435D01*
X114177142Y-46232816D01*
X114034285Y-46137578D01*
X113843809Y-46089959D01*
X113462857Y-46089959D01*
X113367619Y-46137578D01*
X113320000Y-46185197D01*
X113272380Y-46280435D01*
X113272380Y-46470911D01*
X113320000Y-46566149D01*
X113367619Y-46613768D01*
X113462857Y-46661387D01*
X113700952Y-46661387D01*
X113796190Y-46613768D01*
X113843809Y-46566149D01*
X113891428Y-46470911D01*
X113891428Y-46280435D01*
X113843809Y-46185197D01*
X113796190Y-46137578D01*
X113700952Y-46089959D01*
X113952380Y-43803768D02*
X112952380Y-43803768D01*
X113952380Y-43232340D02*
X113380952Y-43660911D01*
X112952380Y-43232340D02*
X113523809Y-43803768D01*
%TO.C,D18*%
X111672380Y-46566150D02*
X110672380Y-46566150D01*
X110672380Y-46328055D01*
X110720000Y-46185198D01*
X110815238Y-46089960D01*
X110910476Y-46042341D01*
X111100952Y-45994722D01*
X111243809Y-45994722D01*
X111434285Y-46042341D01*
X111529523Y-46089960D01*
X111624761Y-46185198D01*
X111672380Y-46328055D01*
X111672380Y-46566150D01*
X111672380Y-45042341D02*
X111672380Y-45613769D01*
X111672380Y-45328055D02*
X110672380Y-45328055D01*
X110815238Y-45423293D01*
X110910476Y-45518531D01*
X110958095Y-45613769D01*
X111100952Y-44470912D02*
X111053333Y-44566150D01*
X111005714Y-44613769D01*
X110910476Y-44661388D01*
X110862857Y-44661388D01*
X110767619Y-44613769D01*
X110720000Y-44566150D01*
X110672380Y-44470912D01*
X110672380Y-44280436D01*
X110720000Y-44185198D01*
X110767619Y-44137579D01*
X110862857Y-44089960D01*
X110910476Y-44089960D01*
X111005714Y-44137579D01*
X111053333Y-44185198D01*
X111100952Y-44280436D01*
X111100952Y-44470912D01*
X111148571Y-44566150D01*
X111196190Y-44613769D01*
X111291428Y-44661388D01*
X111481904Y-44661388D01*
X111577142Y-44613769D01*
X111624761Y-44566150D01*
X111672380Y-44470912D01*
X111672380Y-44280436D01*
X111624761Y-44185198D01*
X111577142Y-44137579D01*
X111481904Y-44089960D01*
X111291428Y-44089960D01*
X111196190Y-44137579D01*
X111148571Y-44185198D01*
X111100952Y-44280436D01*
X111352380Y-41803769D02*
X110352380Y-41803769D01*
X111352380Y-41232341D02*
X110780952Y-41660912D01*
X110352380Y-41232341D02*
X110923809Y-41803769D01*
%TO.C,D17*%
X109072380Y-44756153D02*
X108072380Y-44756153D01*
X108072380Y-44518058D01*
X108120000Y-44375201D01*
X108215238Y-44279963D01*
X108310476Y-44232344D01*
X108500952Y-44184725D01*
X108643809Y-44184725D01*
X108834285Y-44232344D01*
X108929523Y-44279963D01*
X109024761Y-44375201D01*
X109072380Y-44518058D01*
X109072380Y-44756153D01*
X109072380Y-43232344D02*
X109072380Y-43803772D01*
X109072380Y-43518058D02*
X108072380Y-43518058D01*
X108215238Y-43613296D01*
X108310476Y-43708534D01*
X108358095Y-43803772D01*
X108072380Y-42899010D02*
X108072380Y-42232344D01*
X109072380Y-42660915D01*
X108752380Y-39993772D02*
X107752380Y-39993772D01*
X108752380Y-39422344D02*
X108180952Y-39850915D01*
X107752380Y-39422344D02*
X108323809Y-39993772D01*
%TO.C,D16*%
X106472380Y-50566151D02*
X105472380Y-50566151D01*
X105472380Y-50328056D01*
X105520000Y-50185199D01*
X105615238Y-50089961D01*
X105710476Y-50042342D01*
X105900952Y-49994723D01*
X106043809Y-49994723D01*
X106234285Y-50042342D01*
X106329523Y-50089961D01*
X106424761Y-50185199D01*
X106472380Y-50328056D01*
X106472380Y-50566151D01*
X106472380Y-49042342D02*
X106472380Y-49613770D01*
X106472380Y-49328056D02*
X105472380Y-49328056D01*
X105615238Y-49423294D01*
X105710476Y-49518532D01*
X105758095Y-49613770D01*
X105472380Y-48185199D02*
X105472380Y-48375675D01*
X105520000Y-48470913D01*
X105567619Y-48518532D01*
X105710476Y-48613770D01*
X105900952Y-48661389D01*
X106281904Y-48661389D01*
X106377142Y-48613770D01*
X106424761Y-48566151D01*
X106472380Y-48470913D01*
X106472380Y-48280437D01*
X106424761Y-48185199D01*
X106377142Y-48137580D01*
X106281904Y-48089961D01*
X106043809Y-48089961D01*
X105948571Y-48137580D01*
X105900952Y-48185199D01*
X105853333Y-48280437D01*
X105853333Y-48470913D01*
X105900952Y-48566151D01*
X105948571Y-48613770D01*
X106043809Y-48661389D01*
X106152380Y-45803770D02*
X105152380Y-45803770D01*
X106152380Y-45232342D02*
X105580952Y-45660913D01*
X105152380Y-45232342D02*
X105723809Y-45803770D01*
%TO.C,D15*%
X103872380Y-48566152D02*
X102872380Y-48566152D01*
X102872380Y-48328057D01*
X102920000Y-48185200D01*
X103015238Y-48089962D01*
X103110476Y-48042343D01*
X103300952Y-47994724D01*
X103443809Y-47994724D01*
X103634285Y-48042343D01*
X103729523Y-48089962D01*
X103824761Y-48185200D01*
X103872380Y-48328057D01*
X103872380Y-48566152D01*
X103872380Y-47042343D02*
X103872380Y-47613771D01*
X103872380Y-47328057D02*
X102872380Y-47328057D01*
X103015238Y-47423295D01*
X103110476Y-47518533D01*
X103158095Y-47613771D01*
X102872380Y-46137581D02*
X102872380Y-46613771D01*
X103348571Y-46661390D01*
X103300952Y-46613771D01*
X103253333Y-46518533D01*
X103253333Y-46280438D01*
X103300952Y-46185200D01*
X103348571Y-46137581D01*
X103443809Y-46089962D01*
X103681904Y-46089962D01*
X103777142Y-46137581D01*
X103824761Y-46185200D01*
X103872380Y-46280438D01*
X103872380Y-46518533D01*
X103824761Y-46613771D01*
X103777142Y-46661390D01*
X103552380Y-43803771D02*
X102552380Y-43803771D01*
X103552380Y-43232343D02*
X102980952Y-43660914D01*
X102552380Y-43232343D02*
X103123809Y-43803771D01*
%TO.C,D14*%
X101272380Y-46566150D02*
X100272380Y-46566150D01*
X100272380Y-46328055D01*
X100320000Y-46185198D01*
X100415238Y-46089960D01*
X100510476Y-46042341D01*
X100700952Y-45994722D01*
X100843809Y-45994722D01*
X101034285Y-46042341D01*
X101129523Y-46089960D01*
X101224761Y-46185198D01*
X101272380Y-46328055D01*
X101272380Y-46566150D01*
X101272380Y-45042341D02*
X101272380Y-45613769D01*
X101272380Y-45328055D02*
X100272380Y-45328055D01*
X100415238Y-45423293D01*
X100510476Y-45518531D01*
X100558095Y-45613769D01*
X100605714Y-44185198D02*
X101272380Y-44185198D01*
X100224761Y-44423293D02*
X100939047Y-44661388D01*
X100939047Y-44042341D01*
X100952380Y-41803769D02*
X99952380Y-41803769D01*
X100952380Y-41232341D02*
X100380952Y-41660912D01*
X99952380Y-41232341D02*
X100523809Y-41803769D01*
%TO.C,D13*%
X98672380Y-44756149D02*
X97672380Y-44756149D01*
X97672380Y-44518054D01*
X97720000Y-44375197D01*
X97815238Y-44279959D01*
X97910476Y-44232340D01*
X98100952Y-44184721D01*
X98243809Y-44184721D01*
X98434285Y-44232340D01*
X98529523Y-44279959D01*
X98624761Y-44375197D01*
X98672380Y-44518054D01*
X98672380Y-44756149D01*
X98672380Y-43232340D02*
X98672380Y-43803768D01*
X98672380Y-43518054D02*
X97672380Y-43518054D01*
X97815238Y-43613292D01*
X97910476Y-43708530D01*
X97958095Y-43803768D01*
X97672380Y-42899006D02*
X97672380Y-42279959D01*
X98053333Y-42613292D01*
X98053333Y-42470435D01*
X98100952Y-42375197D01*
X98148571Y-42327578D01*
X98243809Y-42279959D01*
X98481904Y-42279959D01*
X98577142Y-42327578D01*
X98624761Y-42375197D01*
X98672380Y-42470435D01*
X98672380Y-42756149D01*
X98624761Y-42851387D01*
X98577142Y-42899006D01*
X98352380Y-39993768D02*
X97352380Y-39993768D01*
X98352380Y-39422340D02*
X97780952Y-39850911D01*
X97352380Y-39422340D02*
X97923809Y-39993768D01*
%TO.C,D12*%
X96072380Y-50756151D02*
X95072380Y-50756151D01*
X95072380Y-50518056D01*
X95120000Y-50375199D01*
X95215238Y-50279961D01*
X95310476Y-50232342D01*
X95500952Y-50184723D01*
X95643809Y-50184723D01*
X95834285Y-50232342D01*
X95929523Y-50279961D01*
X96024761Y-50375199D01*
X96072380Y-50518056D01*
X96072380Y-50756151D01*
X96072380Y-49232342D02*
X96072380Y-49803770D01*
X96072380Y-49518056D02*
X95072380Y-49518056D01*
X95215238Y-49613294D01*
X95310476Y-49708532D01*
X95358095Y-49803770D01*
X95167619Y-48851389D02*
X95120000Y-48803770D01*
X95072380Y-48708532D01*
X95072380Y-48470437D01*
X95120000Y-48375199D01*
X95167619Y-48327580D01*
X95262857Y-48279961D01*
X95358095Y-48279961D01*
X95500952Y-48327580D01*
X96072380Y-48899008D01*
X96072380Y-48279961D01*
X95752380Y-45993770D02*
X94752380Y-45993770D01*
X95752380Y-45422342D02*
X95180952Y-45850913D01*
X94752380Y-45422342D02*
X95323809Y-45993770D01*
%TO.C,D11*%
X93472380Y-48756153D02*
X92472380Y-48756153D01*
X92472380Y-48518058D01*
X92520000Y-48375201D01*
X92615238Y-48279963D01*
X92710476Y-48232344D01*
X92900952Y-48184725D01*
X93043809Y-48184725D01*
X93234285Y-48232344D01*
X93329523Y-48279963D01*
X93424761Y-48375201D01*
X93472380Y-48518058D01*
X93472380Y-48756153D01*
X93472380Y-47232344D02*
X93472380Y-47803772D01*
X93472380Y-47518058D02*
X92472380Y-47518058D01*
X92615238Y-47613296D01*
X92710476Y-47708534D01*
X92758095Y-47803772D01*
X93472380Y-46279963D02*
X93472380Y-46851391D01*
X93472380Y-46565677D02*
X92472380Y-46565677D01*
X92615238Y-46660915D01*
X92710476Y-46756153D01*
X92758095Y-46851391D01*
X93152380Y-43993772D02*
X92152380Y-43993772D01*
X93152380Y-43422344D02*
X92580952Y-43850915D01*
X92152380Y-43422344D02*
X92723809Y-43993772D01*
%TO.C,D10*%
X90872380Y-46686154D02*
X89872380Y-46686154D01*
X89872380Y-46448059D01*
X89920000Y-46305202D01*
X90015238Y-46209964D01*
X90110476Y-46162345D01*
X90300952Y-46114726D01*
X90443809Y-46114726D01*
X90634285Y-46162345D01*
X90729523Y-46209964D01*
X90824761Y-46305202D01*
X90872380Y-46448059D01*
X90872380Y-46686154D01*
X90872380Y-45162345D02*
X90872380Y-45733773D01*
X90872380Y-45448059D02*
X89872380Y-45448059D01*
X90015238Y-45543297D01*
X90110476Y-45638535D01*
X90158095Y-45733773D01*
X89872380Y-44543297D02*
X89872380Y-44448059D01*
X89920000Y-44352821D01*
X89967619Y-44305202D01*
X90062857Y-44257583D01*
X90253333Y-44209964D01*
X90491428Y-44209964D01*
X90681904Y-44257583D01*
X90777142Y-44305202D01*
X90824761Y-44352821D01*
X90872380Y-44448059D01*
X90872380Y-44543297D01*
X90824761Y-44638535D01*
X90777142Y-44686154D01*
X90681904Y-44733773D01*
X90491428Y-44781392D01*
X90253333Y-44781392D01*
X90062857Y-44733773D01*
X89967619Y-44686154D01*
X89920000Y-44638535D01*
X89872380Y-44543297D01*
X90552380Y-41923773D02*
X89552380Y-41923773D01*
X90552380Y-41352345D02*
X89980952Y-41780916D01*
X89552380Y-41352345D02*
X90123809Y-41923773D01*
%TO.C,D9*%
X88272380Y-44399960D02*
X87272380Y-44399960D01*
X87272380Y-44161865D01*
X87320000Y-44019007D01*
X87415238Y-43923769D01*
X87510476Y-43876150D01*
X87700952Y-43828531D01*
X87843809Y-43828531D01*
X88034285Y-43876150D01*
X88129523Y-43923769D01*
X88224761Y-44019007D01*
X88272380Y-44161865D01*
X88272380Y-44399960D01*
X88272380Y-43352341D02*
X88272380Y-43161865D01*
X88224761Y-43066626D01*
X88177142Y-43019007D01*
X88034285Y-42923769D01*
X87843809Y-42876150D01*
X87462857Y-42876150D01*
X87367619Y-42923769D01*
X87320000Y-42971388D01*
X87272380Y-43066626D01*
X87272380Y-43257103D01*
X87320000Y-43352341D01*
X87367619Y-43399960D01*
X87462857Y-43447579D01*
X87700952Y-43447579D01*
X87796190Y-43399960D01*
X87843809Y-43352341D01*
X87891428Y-43257103D01*
X87891428Y-43066626D01*
X87843809Y-42971388D01*
X87796190Y-42923769D01*
X87700952Y-42876150D01*
X87952380Y-40113769D02*
X86952380Y-40113769D01*
X87952380Y-39542341D02*
X87380952Y-39970912D01*
X86952380Y-39542341D02*
X87523809Y-40113769D01*
%TO.C,D8*%
X85619530Y-50279963D02*
X84619530Y-50279963D01*
X84619530Y-50041868D01*
X84667150Y-49899010D01*
X84762388Y-49803772D01*
X84857626Y-49756153D01*
X85048102Y-49708534D01*
X85190959Y-49708534D01*
X85381435Y-49756153D01*
X85476673Y-49803772D01*
X85571911Y-49899010D01*
X85619530Y-50041868D01*
X85619530Y-50279963D01*
X85048102Y-49137106D02*
X85000483Y-49232344D01*
X84952864Y-49279963D01*
X84857626Y-49327582D01*
X84810007Y-49327582D01*
X84714769Y-49279963D01*
X84667150Y-49232344D01*
X84619530Y-49137106D01*
X84619530Y-48946629D01*
X84667150Y-48851391D01*
X84714769Y-48803772D01*
X84810007Y-48756153D01*
X84857626Y-48756153D01*
X84952864Y-48803772D01*
X85000483Y-48851391D01*
X85048102Y-48946629D01*
X85048102Y-49137106D01*
X85095721Y-49232344D01*
X85143340Y-49279963D01*
X85238578Y-49327582D01*
X85429054Y-49327582D01*
X85524292Y-49279963D01*
X85571911Y-49232344D01*
X85619530Y-49137106D01*
X85619530Y-48946629D01*
X85571911Y-48851391D01*
X85524292Y-48803772D01*
X85429054Y-48756153D01*
X85238578Y-48756153D01*
X85143340Y-48803772D01*
X85095721Y-48851391D01*
X85048102Y-48946629D01*
X85299530Y-45993772D02*
X84299530Y-45993772D01*
X85299530Y-45422344D02*
X84728102Y-45850915D01*
X84299530Y-45422344D02*
X84870959Y-45993772D01*
%TO.C,D7*%
X83019536Y-48209959D02*
X82019536Y-48209959D01*
X82019536Y-47971864D01*
X82067156Y-47829006D01*
X82162394Y-47733768D01*
X82257632Y-47686149D01*
X82448108Y-47638530D01*
X82590965Y-47638530D01*
X82781441Y-47686149D01*
X82876679Y-47733768D01*
X82971917Y-47829006D01*
X83019536Y-47971864D01*
X83019536Y-48209959D01*
X82019536Y-47305197D02*
X82019536Y-46638530D01*
X83019536Y-47067102D01*
X82699536Y-43923768D02*
X81699536Y-43923768D01*
X82699536Y-43352340D02*
X82128108Y-43780911D01*
X81699536Y-43352340D02*
X82270965Y-43923768D01*
%TO.C,D6*%
X80419532Y-46209962D02*
X79419532Y-46209962D01*
X79419532Y-45971867D01*
X79467152Y-45829009D01*
X79562390Y-45733771D01*
X79657628Y-45686152D01*
X79848104Y-45638533D01*
X79990961Y-45638533D01*
X80181437Y-45686152D01*
X80276675Y-45733771D01*
X80371913Y-45829009D01*
X80419532Y-45971867D01*
X80419532Y-46209962D01*
X79419532Y-44781390D02*
X79419532Y-44971867D01*
X79467152Y-45067105D01*
X79514771Y-45114724D01*
X79657628Y-45209962D01*
X79848104Y-45257581D01*
X80229056Y-45257581D01*
X80324294Y-45209962D01*
X80371913Y-45162343D01*
X80419532Y-45067105D01*
X80419532Y-44876628D01*
X80371913Y-44781390D01*
X80324294Y-44733771D01*
X80229056Y-44686152D01*
X79990961Y-44686152D01*
X79895723Y-44733771D01*
X79848104Y-44781390D01*
X79800485Y-44876628D01*
X79800485Y-45067105D01*
X79848104Y-45162343D01*
X79895723Y-45209962D01*
X79990961Y-45257581D01*
X80099532Y-41923771D02*
X79099532Y-41923771D01*
X80099532Y-41352343D02*
X79528104Y-41780914D01*
X79099532Y-41352343D02*
X79670961Y-41923771D01*
%TO.C,D5*%
X77772380Y-44399963D02*
X76772380Y-44399963D01*
X76772380Y-44161868D01*
X76820000Y-44019010D01*
X76915238Y-43923772D01*
X77010476Y-43876153D01*
X77200952Y-43828534D01*
X77343809Y-43828534D01*
X77534285Y-43876153D01*
X77629523Y-43923772D01*
X77724761Y-44019010D01*
X77772380Y-44161868D01*
X77772380Y-44399963D01*
X76772380Y-42923772D02*
X76772380Y-43399963D01*
X77248571Y-43447582D01*
X77200952Y-43399963D01*
X77153333Y-43304725D01*
X77153333Y-43066629D01*
X77200952Y-42971391D01*
X77248571Y-42923772D01*
X77343809Y-42876153D01*
X77581904Y-42876153D01*
X77677142Y-42923772D01*
X77724761Y-42971391D01*
X77772380Y-43066629D01*
X77772380Y-43304725D01*
X77724761Y-43399963D01*
X77677142Y-43447582D01*
X77452380Y-40113772D02*
X76452380Y-40113772D01*
X77452380Y-39542344D02*
X76880952Y-39970915D01*
X76452380Y-39542344D02*
X77023809Y-40113772D01*
%TO.C,D4*%
X75172380Y-50209961D02*
X74172380Y-50209961D01*
X74172380Y-49971866D01*
X74220000Y-49829008D01*
X74315238Y-49733770D01*
X74410476Y-49686151D01*
X74600952Y-49638532D01*
X74743809Y-49638532D01*
X74934285Y-49686151D01*
X75029523Y-49733770D01*
X75124761Y-49829008D01*
X75172380Y-49971866D01*
X75172380Y-50209961D01*
X74505714Y-48781389D02*
X75172380Y-48781389D01*
X74124761Y-49019485D02*
X74839047Y-49257580D01*
X74839047Y-48638532D01*
X74852380Y-45923770D02*
X73852380Y-45923770D01*
X74852380Y-45352342D02*
X74280952Y-45780913D01*
X73852380Y-45352342D02*
X74423809Y-45923770D01*
%TO.C,D3*%
X72672380Y-48209959D02*
X71672380Y-48209959D01*
X71672380Y-47971864D01*
X71720000Y-47829006D01*
X71815238Y-47733768D01*
X71910476Y-47686149D01*
X72100952Y-47638530D01*
X72243809Y-47638530D01*
X72434285Y-47686149D01*
X72529523Y-47733768D01*
X72624761Y-47829006D01*
X72672380Y-47971864D01*
X72672380Y-48209959D01*
X71672380Y-47305197D02*
X71672380Y-46686149D01*
X72053333Y-47019483D01*
X72053333Y-46876625D01*
X72100952Y-46781387D01*
X72148571Y-46733768D01*
X72243809Y-46686149D01*
X72481904Y-46686149D01*
X72577142Y-46733768D01*
X72624761Y-46781387D01*
X72672380Y-46876625D01*
X72672380Y-47162340D01*
X72624761Y-47257578D01*
X72577142Y-47305197D01*
X72352380Y-43923768D02*
X71352380Y-43923768D01*
X72352380Y-43352340D02*
X71780952Y-43780911D01*
X71352380Y-43352340D02*
X71923809Y-43923768D01*
%TO.C,D2*%
X69972380Y-46209961D02*
X68972380Y-46209961D01*
X68972380Y-45971866D01*
X69020000Y-45829008D01*
X69115238Y-45733770D01*
X69210476Y-45686151D01*
X69400952Y-45638532D01*
X69543809Y-45638532D01*
X69734285Y-45686151D01*
X69829523Y-45733770D01*
X69924761Y-45829008D01*
X69972380Y-45971866D01*
X69972380Y-46209961D01*
X69067619Y-45257580D02*
X69020000Y-45209961D01*
X68972380Y-45114723D01*
X68972380Y-44876627D01*
X69020000Y-44781389D01*
X69067619Y-44733770D01*
X69162857Y-44686151D01*
X69258095Y-44686151D01*
X69400952Y-44733770D01*
X69972380Y-45305199D01*
X69972380Y-44686151D01*
X69652380Y-41923770D02*
X68652380Y-41923770D01*
X69652380Y-41352342D02*
X69080952Y-41780913D01*
X68652380Y-41352342D02*
X69223809Y-41923770D01*
%TO.C,D1*%
X67372380Y-44399961D02*
X66372380Y-44399961D01*
X66372380Y-44161866D01*
X66420000Y-44019008D01*
X66515238Y-43923770D01*
X66610476Y-43876151D01*
X66800952Y-43828532D01*
X66943809Y-43828532D01*
X67134285Y-43876151D01*
X67229523Y-43923770D01*
X67324761Y-44019008D01*
X67372380Y-44161866D01*
X67372380Y-44399961D01*
X67372380Y-42876151D02*
X67372380Y-43447580D01*
X67372380Y-43161866D02*
X66372380Y-43161866D01*
X66515238Y-43257104D01*
X66610476Y-43352342D01*
X66658095Y-43447580D01*
X67052380Y-40113770D02*
X66052380Y-40113770D01*
X67052380Y-39542342D02*
X66480952Y-39970913D01*
X66052380Y-39542342D02*
X66623809Y-40113770D01*
D14*
%TO.C,U1*%
X142324061Y-40380177D02*
X147404061Y-40380177D01*
X147404061Y-40380177D02*
X147404061Y-37840177D01*
X142324061Y-37840177D02*
X147404061Y-37840177D01*
X142324061Y-40380177D02*
X142324061Y-37840177D01*
X142324061Y-57525177D02*
X148039061Y-57525177D01*
X148039061Y-57525177D02*
X148039061Y-54985177D01*
X142324061Y-54985177D02*
X148039061Y-54985177D01*
X142324061Y-57525177D02*
X142324061Y-54985177D01*
X139657061Y-39745177D02*
X141435061Y-39745177D01*
X141435061Y-39745177D02*
X141435061Y-37078177D01*
X139657061Y-37078177D02*
X141435061Y-37078177D01*
X139657061Y-39745177D02*
X139657061Y-37078177D01*
X139657061Y-43811717D02*
X141435061Y-43811717D01*
X141435061Y-43811717D02*
X141435061Y-41142177D01*
X139657061Y-41142177D02*
X141435061Y-41142177D01*
X139657061Y-43811717D02*
X139657061Y-41142177D01*
X148293061Y-43811717D02*
X150071061Y-43811717D01*
X150071061Y-43811717D02*
X150071061Y-41142177D01*
X148293061Y-41142177D02*
X150071061Y-41142177D01*
X148293061Y-43811717D02*
X148293061Y-41142177D01*
X148293061Y-39745177D02*
X150071061Y-39745177D01*
X150071061Y-39745177D02*
X150071061Y-37078177D01*
X148293061Y-37078177D02*
X150071061Y-37078177D01*
X148293061Y-39745177D02*
X148293061Y-37078177D01*
D15*
X135974061Y-58160177D02*
X153771841Y-58160177D01*
X153771841Y-58160177D02*
X153771841Y-37161997D01*
X153771841Y-37161997D02*
X136644621Y-37161997D01*
X136644621Y-37161997D02*
X135974061Y-37832557D01*
X135974061Y-37832557D02*
X135974061Y-58160177D01*
X140373341Y-35737057D02*
X149367481Y-35737057D01*
X149367481Y-35737057D02*
X149367481Y-43090357D01*
X149367481Y-43090357D02*
X140368261Y-43090357D01*
X140368261Y-43090357D02*
X140368261Y-35737057D01*
D16*
X135212061Y-39999177D02*
G75*
G03*
X135212061Y-39999177I-127000J0D01*
G01*
D17*
%TO.C,D20*%
X115420000Y-51661866D02*
X115420000Y-47421866D01*
X115420000Y-48141866D02*
X113180000Y-48141866D01*
X115420000Y-48021866D02*
X113180000Y-48021866D01*
X113180000Y-51661866D02*
X115420000Y-51661866D01*
X115420000Y-48261866D02*
X113180000Y-48261866D01*
X114300000Y-46771866D02*
X114300000Y-47421866D01*
X115420000Y-47421866D02*
X113180000Y-47421866D01*
X113180000Y-47421866D02*
X113180000Y-51661866D01*
X114300000Y-52311866D02*
X114300000Y-51661866D01*
%TO.C,D19*%
X111700000Y-50121864D02*
X111700000Y-49471864D01*
X110580000Y-45231864D02*
X110580000Y-49471864D01*
X112820000Y-45231864D02*
X110580000Y-45231864D01*
X111700000Y-44581864D02*
X111700000Y-45231864D01*
X112820000Y-46071864D02*
X110580000Y-46071864D01*
X110580000Y-49471864D02*
X112820000Y-49471864D01*
X112820000Y-45831864D02*
X110580000Y-45831864D01*
X112820000Y-45951864D02*
X110580000Y-45951864D01*
X112820000Y-49471864D02*
X112820000Y-45231864D01*
%TO.C,D18*%
X109100000Y-48121865D02*
X109100000Y-47471865D01*
X107980000Y-43231865D02*
X107980000Y-47471865D01*
X110220000Y-43231865D02*
X107980000Y-43231865D01*
X109100000Y-42581865D02*
X109100000Y-43231865D01*
X110220000Y-44071865D02*
X107980000Y-44071865D01*
X107980000Y-47471865D02*
X110220000Y-47471865D01*
X110220000Y-43831865D02*
X107980000Y-43831865D01*
X110220000Y-43951865D02*
X107980000Y-43951865D01*
X110220000Y-47471865D02*
X110220000Y-43231865D01*
%TO.C,D17*%
X106500000Y-46311868D02*
X106500000Y-45661868D01*
X105380000Y-41421868D02*
X105380000Y-45661868D01*
X107620000Y-41421868D02*
X105380000Y-41421868D01*
X106500000Y-40771868D02*
X106500000Y-41421868D01*
X107620000Y-42261868D02*
X105380000Y-42261868D01*
X105380000Y-45661868D02*
X107620000Y-45661868D01*
X107620000Y-42021868D02*
X105380000Y-42021868D01*
X107620000Y-42141868D02*
X105380000Y-42141868D01*
X107620000Y-45661868D02*
X107620000Y-41421868D01*
%TO.C,D16*%
X103900000Y-52121866D02*
X103900000Y-51471866D01*
X102780000Y-47231866D02*
X102780000Y-51471866D01*
X105020000Y-47231866D02*
X102780000Y-47231866D01*
X103900000Y-46581866D02*
X103900000Y-47231866D01*
X105020000Y-48071866D02*
X102780000Y-48071866D01*
X102780000Y-51471866D02*
X105020000Y-51471866D01*
X105020000Y-47831866D02*
X102780000Y-47831866D01*
X105020000Y-47951866D02*
X102780000Y-47951866D01*
X105020000Y-51471866D02*
X105020000Y-47231866D01*
%TO.C,D15*%
X101300000Y-50121867D02*
X101300000Y-49471867D01*
X100180000Y-45231867D02*
X100180000Y-49471867D01*
X102420000Y-45231867D02*
X100180000Y-45231867D01*
X101300000Y-44581867D02*
X101300000Y-45231867D01*
X102420000Y-46071867D02*
X100180000Y-46071867D01*
X100180000Y-49471867D02*
X102420000Y-49471867D01*
X102420000Y-45831867D02*
X100180000Y-45831867D01*
X102420000Y-45951867D02*
X100180000Y-45951867D01*
X102420000Y-49471867D02*
X102420000Y-45231867D01*
%TO.C,D14*%
X98700000Y-48121865D02*
X98700000Y-47471865D01*
X97580000Y-43231865D02*
X97580000Y-47471865D01*
X99820000Y-43231865D02*
X97580000Y-43231865D01*
X98700000Y-42581865D02*
X98700000Y-43231865D01*
X99820000Y-44071865D02*
X97580000Y-44071865D01*
X97580000Y-47471865D02*
X99820000Y-47471865D01*
X99820000Y-43831865D02*
X97580000Y-43831865D01*
X99820000Y-43951865D02*
X97580000Y-43951865D01*
X99820000Y-47471865D02*
X99820000Y-43231865D01*
%TO.C,D13*%
X96100000Y-46311864D02*
X96100000Y-45661864D01*
X94980000Y-41421864D02*
X94980000Y-45661864D01*
X97220000Y-41421864D02*
X94980000Y-41421864D01*
X96100000Y-40771864D02*
X96100000Y-41421864D01*
X97220000Y-42261864D02*
X94980000Y-42261864D01*
X94980000Y-45661864D02*
X97220000Y-45661864D01*
X97220000Y-42021864D02*
X94980000Y-42021864D01*
X97220000Y-42141864D02*
X94980000Y-42141864D01*
X97220000Y-45661864D02*
X97220000Y-41421864D01*
%TO.C,D12*%
X93500000Y-52311866D02*
X93500000Y-51661866D01*
X92380000Y-47421866D02*
X92380000Y-51661866D01*
X94620000Y-47421866D02*
X92380000Y-47421866D01*
X93500000Y-46771866D02*
X93500000Y-47421866D01*
X94620000Y-48261866D02*
X92380000Y-48261866D01*
X92380000Y-51661866D02*
X94620000Y-51661866D01*
X94620000Y-48021866D02*
X92380000Y-48021866D01*
X94620000Y-48141866D02*
X92380000Y-48141866D01*
X94620000Y-51661866D02*
X94620000Y-47421866D01*
%TO.C,D11*%
X90900000Y-50311868D02*
X90900000Y-49661868D01*
X89780000Y-45421868D02*
X89780000Y-49661868D01*
X92020000Y-45421868D02*
X89780000Y-45421868D01*
X90900000Y-44771868D02*
X90900000Y-45421868D01*
X92020000Y-46261868D02*
X89780000Y-46261868D01*
X89780000Y-49661868D02*
X92020000Y-49661868D01*
X92020000Y-46021868D02*
X89780000Y-46021868D01*
X92020000Y-46141868D02*
X89780000Y-46141868D01*
X92020000Y-49661868D02*
X92020000Y-45421868D01*
%TO.C,D10*%
X88300000Y-48241869D02*
X88300000Y-47591869D01*
X87180000Y-43351869D02*
X87180000Y-47591869D01*
X89420000Y-43351869D02*
X87180000Y-43351869D01*
X88300000Y-42701869D02*
X88300000Y-43351869D01*
X89420000Y-44191869D02*
X87180000Y-44191869D01*
X87180000Y-47591869D02*
X89420000Y-47591869D01*
X89420000Y-43951869D02*
X87180000Y-43951869D01*
X89420000Y-44071869D02*
X87180000Y-44071869D01*
X89420000Y-47591869D02*
X89420000Y-43351869D01*
%TO.C,D9*%
X85700000Y-46431865D02*
X85700000Y-45781865D01*
X84580000Y-41541865D02*
X84580000Y-45781865D01*
X86820000Y-41541865D02*
X84580000Y-41541865D01*
X85700000Y-40891865D02*
X85700000Y-41541865D01*
X86820000Y-42381865D02*
X84580000Y-42381865D01*
X84580000Y-45781865D02*
X86820000Y-45781865D01*
X86820000Y-42141865D02*
X84580000Y-42141865D01*
X86820000Y-42261865D02*
X84580000Y-42261865D01*
X86820000Y-45781865D02*
X86820000Y-41541865D01*
%TO.C,D8*%
X83047150Y-52311868D02*
X83047150Y-51661868D01*
X81927150Y-47421868D02*
X81927150Y-51661868D01*
X84167150Y-47421868D02*
X81927150Y-47421868D01*
X83047150Y-46771868D02*
X83047150Y-47421868D01*
X84167150Y-48261868D02*
X81927150Y-48261868D01*
X81927150Y-51661868D02*
X84167150Y-51661868D01*
X84167150Y-48021868D02*
X81927150Y-48021868D01*
X84167150Y-48141868D02*
X81927150Y-48141868D01*
X84167150Y-51661868D02*
X84167150Y-47421868D01*
%TO.C,D7*%
X80447156Y-50241864D02*
X80447156Y-49591864D01*
X79327156Y-45351864D02*
X79327156Y-49591864D01*
X81567156Y-45351864D02*
X79327156Y-45351864D01*
X80447156Y-44701864D02*
X80447156Y-45351864D01*
X81567156Y-46191864D02*
X79327156Y-46191864D01*
X79327156Y-49591864D02*
X81567156Y-49591864D01*
X81567156Y-45951864D02*
X79327156Y-45951864D01*
X81567156Y-46071864D02*
X79327156Y-46071864D01*
X81567156Y-49591864D02*
X81567156Y-45351864D01*
%TO.C,D6*%
X77847152Y-48241867D02*
X77847152Y-47591867D01*
X76727152Y-43351867D02*
X76727152Y-47591867D01*
X78967152Y-43351867D02*
X76727152Y-43351867D01*
X77847152Y-42701867D02*
X77847152Y-43351867D01*
X78967152Y-44191867D02*
X76727152Y-44191867D01*
X76727152Y-47591867D02*
X78967152Y-47591867D01*
X78967152Y-43951867D02*
X76727152Y-43951867D01*
X78967152Y-44071867D02*
X76727152Y-44071867D01*
X78967152Y-47591867D02*
X78967152Y-43351867D01*
%TO.C,D5*%
X76320000Y-45781868D02*
X76320000Y-41541868D01*
X76320000Y-42261868D02*
X74080000Y-42261868D01*
X76320000Y-42141868D02*
X74080000Y-42141868D01*
X74080000Y-45781868D02*
X76320000Y-45781868D01*
X76320000Y-42381868D02*
X74080000Y-42381868D01*
X75200000Y-40891868D02*
X75200000Y-41541868D01*
X76320000Y-41541868D02*
X74080000Y-41541868D01*
X74080000Y-41541868D02*
X74080000Y-45781868D01*
X75200000Y-46431868D02*
X75200000Y-45781868D01*
%TO.C,D4*%
X73720000Y-51591866D02*
X73720000Y-47351866D01*
X73720000Y-48071866D02*
X71480000Y-48071866D01*
X73720000Y-47951866D02*
X71480000Y-47951866D01*
X71480000Y-51591866D02*
X73720000Y-51591866D01*
X73720000Y-48191866D02*
X71480000Y-48191866D01*
X72600000Y-46701866D02*
X72600000Y-47351866D01*
X73720000Y-47351866D02*
X71480000Y-47351866D01*
X71480000Y-47351866D02*
X71480000Y-51591866D01*
X72600000Y-52241866D02*
X72600000Y-51591866D01*
%TO.C,D3*%
X71220000Y-49591864D02*
X71220000Y-45351864D01*
X71220000Y-46071864D02*
X68980000Y-46071864D01*
X71220000Y-45951864D02*
X68980000Y-45951864D01*
X68980000Y-49591864D02*
X71220000Y-49591864D01*
X71220000Y-46191864D02*
X68980000Y-46191864D01*
X70100000Y-44701864D02*
X70100000Y-45351864D01*
X71220000Y-45351864D02*
X68980000Y-45351864D01*
X68980000Y-45351864D02*
X68980000Y-49591864D01*
X70100000Y-50241864D02*
X70100000Y-49591864D01*
%TO.C,D2*%
X68520000Y-47591866D02*
X68520000Y-43351866D01*
X68520000Y-44071866D02*
X66280000Y-44071866D01*
X68520000Y-43951866D02*
X66280000Y-43951866D01*
X66280000Y-47591866D02*
X68520000Y-47591866D01*
X68520000Y-44191866D02*
X66280000Y-44191866D01*
X67400000Y-42701866D02*
X67400000Y-43351866D01*
X68520000Y-43351866D02*
X66280000Y-43351866D01*
X66280000Y-43351866D02*
X66280000Y-47591866D01*
X67400000Y-48241866D02*
X67400000Y-47591866D01*
%TO.C,D1*%
X64800000Y-46431866D02*
X64800000Y-45781866D01*
X63680000Y-41541866D02*
X63680000Y-45781866D01*
X65920000Y-41541866D02*
X63680000Y-41541866D01*
X64800000Y-40891866D02*
X64800000Y-41541866D01*
X65920000Y-42381866D02*
X63680000Y-42381866D01*
X63680000Y-45781866D02*
X65920000Y-45781866D01*
X65920000Y-42141866D02*
X63680000Y-42141866D01*
X65920000Y-42261866D02*
X63680000Y-42261866D01*
X65920000Y-45781866D02*
X65920000Y-41541866D01*
%TD*%
M02*
