M48
; DRILL file {KiCad (6.0.4-0)} date 2022 July 27, Wednesday 23:47:58
; FORMAT={-:-/ absolute / inch / decimal}
; #@! TF.CreationDate,2022-07-27T23:47:58+02:00
; #@! TF.GenerationSoftware,Kicad,Pcbnew,(6.0.4-0)
; #@! TF.FileFunction,Plated,1,2,PTH
FMAT,2
INCH
; #@! TA.AperFunction,Plated,PTH,ViaDrill
T1C0.0157
; #@! TA.AperFunction,Plated,PTH,ComponentDrill
T2C0.0315
; #@! TA.AperFunction,Plated,PTH,ComponentDrill
T3C0.0500
%
G90
G05
T1
X5.236Y-1.9765
X5.2395Y-2.0745
X5.24Y-2.1765
X6.166Y-2.1765
X6.167Y-2.0765
T2
X2.5512Y-1.569
X2.5512Y-1.869
X2.6535Y-1.6402
X2.6535Y-1.9402
X2.7598Y-1.719
X2.7598Y-2.019
X2.8583Y-1.7977
X2.8583Y-2.0977
X2.9606Y-1.569
X2.9606Y-1.869
X3.0648Y-1.6402
X3.0648Y-1.9402
X3.1672Y-1.719
X3.1672Y-2.019
X3.2696Y-1.8005
X3.2696Y-2.1005
X3.374Y-1.569
X3.374Y-1.869
X3.4764Y-1.6402
X3.4764Y-1.9402
X3.5787Y-1.7217
X3.5787Y-2.0217
X3.6811Y-1.8005
X3.6811Y-2.1005
X3.7835Y-1.5642
X3.7835Y-1.8642
X3.8858Y-1.6355
X3.8858Y-1.9355
X3.9882Y-1.7142
X3.9882Y-2.0142
X4.0906Y-1.793
X4.0906Y-2.093
X4.1929Y-1.5642
X4.1929Y-1.8642
X4.2953Y-1.6355
X4.2953Y-1.9355
X4.3976Y-1.7142
X4.3976Y-2.0142
X4.5Y-1.8005
X4.5Y-2.1005
T3
X1.8618Y-2.7837
X2.0328Y-2.9115
X2.7622Y-2.7666
X2.9137Y-2.917
X3.4922Y-2.8559
X3.6437Y-3.0063
X4.0782Y-5.1786
X4.1017Y-3.2362
X4.1692Y-5.3717
X4.2533Y-3.3866
X4.6065Y-5.6551
X4.6974Y-5.8482
X5.4956Y-3.6408
X5.6925Y-3.7234
X6.5002Y-5.9328
X6.5696Y-4.9614
X6.6624Y-2.7572
X6.7012Y-5.8608
X6.7706Y-4.8894
X6.8759Y-2.7582
X6.9205Y-3.3748
X7.0218Y-5.4549
X7.0921Y-4.4827
X7.134Y-3.3758
X7.2228Y-5.3828
X7.2738Y-2.3785
X7.2931Y-4.4106
X7.4873Y-2.3796
X7.5289Y-2.9973
X7.5443Y-4.9761
X7.7424Y-2.9984
X7.7453Y-4.9041
X8.0016Y-2.2883
X8.2151Y-2.2893
X8.2597Y-2.9059
X8.4732Y-2.907
X8.9768Y-2.2272
X9.1426Y-2.8756
X9.1881Y-2.2579
X9.3539Y-2.9064
T0
M30
