%TF.GenerationSoftware,KiCad,Pcbnew,(6.0.4-0)*%
%TF.CreationDate,2022-08-03T16:22:01+02:00*%
%TF.ProjectId,ergosmash,6572676f-736d-4617-9368-2e6b69636164,rev?*%
%TF.SameCoordinates,Original*%
%TF.FileFunction,Copper,L2,Bot*%
%TF.FilePolarity,Positive*%
%FSLAX46Y46*%
G04 Gerber Fmt 4.6, Leading zero omitted, Abs format (unit mm)*
G04 Created by KiCad (PCBNEW (6.0.4-0)) date 2022-08-03 16:22:01*
%MOMM*%
%LPD*%
G01*
G04 APERTURE LIST*
%TA.AperFunction,ComponentPad*%
%ADD10C,2.032000*%
%TD*%
%TA.AperFunction,ComponentPad*%
%ADD11R,1.600000X1.600000*%
%TD*%
%TA.AperFunction,ComponentPad*%
%ADD12O,1.600000X1.600000*%
%TD*%
%TA.AperFunction,ViaPad*%
%ADD13C,0.800000*%
%TD*%
%TA.AperFunction,Conductor*%
%ADD14C,0.250000*%
%TD*%
G04 APERTURE END LIST*
D10*
%TO.P,SW20,1,1*%
%TO.N,col4*%
X233378405Y-57351696D03*
%TO.P,SW20,2,2*%
%TO.N,SW20*%
X228011869Y-56570486D03*
%TD*%
%TO.P,SW19,1,1*%
%TO.N,col4*%
X208664430Y-58149417D03*
%TO.P,SW19,2,2*%
%TO.N,SW19*%
X203241397Y-58122687D03*
%TD*%
%TO.P,SW18,1,1*%
%TO.N,col4*%
X190177010Y-60441853D03*
%TO.P,SW18,2,2*%
%TO.N,SW18*%
X184753977Y-60415123D03*
%TD*%
%TO.P,SW17,1,1*%
%TO.N,col4*%
X174648980Y-70059040D03*
%TO.P,SW17,2,2*%
%TO.N,SW17*%
X169225947Y-70032310D03*
%TD*%
%TO.P,SW16,1,1*%
%TO.N,col3*%
X237588107Y-73822531D03*
%TO.P,SW16,2,2*%
%TO.N,SW16*%
X232221571Y-73041321D03*
%TD*%
%TO.P,SW15,1,1*%
%TO.N,col3*%
X215218180Y-73836621D03*
%TO.P,SW15,2,2*%
%TO.N,SW15*%
X209795147Y-73809891D03*
%TD*%
%TO.P,SW14,1,1*%
%TO.N,col3*%
X196656239Y-76159167D03*
%TO.P,SW14,2,2*%
%TO.N,SW14*%
X191233206Y-76132437D03*
%TD*%
%TO.P,SW13,1,1*%
%TO.N,col3*%
X181202729Y-85746245D03*
%TO.P,SW13,2,2*%
%TO.N,SW13*%
X175779696Y-85719515D03*
%TD*%
%TO.P,SW12,1,1*%
%TO.N,col2*%
X171973818Y-124190514D03*
%TO.P,SW12,2,2*%
%TO.N,SW12*%
X166868692Y-126020183D03*
%TD*%
%TO.P,SW11,1,1*%
%TO.N,col2*%
X185244812Y-112029890D03*
%TO.P,SW11,2,2*%
%TO.N,SW11*%
X180139686Y-113859559D03*
%TD*%
%TO.P,SW10,1,1*%
%TO.N,col2*%
X183458857Y-136724230D03*
%TO.P,SW10,2,2*%
%TO.N,SW10*%
X178353731Y-138553899D03*
%TD*%
%TO.P,SW9,1,1*%
%TO.N,col2*%
X196729847Y-124563605D03*
%TO.P,SW9,2,2*%
%TO.N,SW9*%
X191624721Y-126393274D03*
%TD*%
%TO.P,SW8,1,1*%
%TO.N,col1*%
X144588470Y-94575535D03*
%TO.P,SW8,2,2*%
%TO.N,SW8*%
X139588470Y-92475535D03*
%TD*%
%TO.P,SW7,1,1*%
%TO.N,col1*%
X170210152Y-148864430D03*
%TO.P,SW7,2,2*%
%TO.N,SW7*%
X165105026Y-150694099D03*
%TD*%
%TO.P,SW6,1,1*%
%TO.N,col1*%
X119314872Y-148544527D03*
%TO.P,SW6,2,2*%
%TO.N,SW6*%
X117004323Y-143638270D03*
%TD*%
%TO.P,SW5,1,1*%
%TO.N,col1*%
X105896784Y-136441968D03*
%TO.P,SW5,2,2*%
%TO.N,SW5*%
X103586235Y-131535711D03*
%TD*%
%TO.P,SW4,1,1*%
%TO.N,col0*%
X108032969Y-86019543D03*
%TO.P,SW4,2,2*%
%TO.N,SW4*%
X104183724Y-82199424D03*
%TD*%
%TO.P,SW3,1,1*%
%TO.N,col0*%
X92551188Y-76359604D03*
%TO.P,SW3,2,2*%
%TO.N,SW3*%
X88701943Y-72539485D03*
%TD*%
%TO.P,SW2,1,1*%
%TO.N,col0*%
X74007940Y-74090701D03*
%TO.P,SW2,2,2*%
%TO.N,SW2*%
X70158695Y-70270582D03*
%TD*%
%TO.P,SW1,1,1*%
%TO.N,col0*%
X51633494Y-73953333D03*
%TO.P,SW1,2,2*%
%TO.N,SW1*%
X47290051Y-70706102D03*
%TD*%
D11*
%TO.P,D5,1,K*%
%TO.N,row0*%
X75200000Y-39851868D03*
D12*
%TO.P,D5,2,A*%
%TO.N,SW5*%
X75200000Y-47471868D03*
%TD*%
D11*
%TO.P,D1,1,K*%
%TO.N,row0*%
X64800000Y-39851866D03*
D12*
%TO.P,D1,2,A*%
%TO.N,SW1*%
X64800000Y-47471866D03*
%TD*%
D11*
%TO.P,D10,1,K*%
%TO.N,row1*%
X88300000Y-41661869D03*
D12*
%TO.P,D10,2,A*%
%TO.N,SW10*%
X88300000Y-49281869D03*
%TD*%
D11*
%TO.P,D8,1,K*%
%TO.N,row3*%
X83047150Y-45731868D03*
D12*
%TO.P,D8,2,A*%
%TO.N,SW8*%
X83047150Y-53351868D03*
%TD*%
D11*
%TO.P,D4,1,K*%
%TO.N,row3*%
X72600000Y-45661866D03*
D12*
%TO.P,D4,2,A*%
%TO.N,SW4*%
X72600000Y-53281866D03*
%TD*%
D11*
%TO.P,D13,1,K*%
%TO.N,row0*%
X96100000Y-39731864D03*
D12*
%TO.P,D13,2,A*%
%TO.N,SW13*%
X96100000Y-47351864D03*
%TD*%
D11*
%TO.P,D19,1,K*%
%TO.N,row2*%
X111700000Y-43541864D03*
D12*
%TO.P,D19,2,A*%
%TO.N,SW19*%
X111700000Y-51161864D03*
%TD*%
D11*
%TO.P,D16,1,K*%
%TO.N,row3*%
X103900000Y-45541866D03*
D12*
%TO.P,D16,2,A*%
%TO.N,SW16*%
X103900000Y-53161866D03*
%TD*%
D11*
%TO.P,D20,1,K*%
%TO.N,row3*%
X114300000Y-45731866D03*
D12*
%TO.P,D20,2,A*%
%TO.N,SW20*%
X114300000Y-53351866D03*
%TD*%
D11*
%TO.P,D18,1,K*%
%TO.N,row1*%
X109100000Y-41541865D03*
D12*
%TO.P,D18,2,A*%
%TO.N,SW18*%
X109100000Y-49161865D03*
%TD*%
D11*
%TO.P,D6,1,K*%
%TO.N,row1*%
X77847152Y-41661867D03*
D12*
%TO.P,D6,2,A*%
%TO.N,SW6*%
X77847152Y-49281867D03*
%TD*%
D11*
%TO.P,D17,1,K*%
%TO.N,row0*%
X106500000Y-39731868D03*
D12*
%TO.P,D17,2,A*%
%TO.N,SW17*%
X106500000Y-47351868D03*
%TD*%
D11*
%TO.P,D12,1,K*%
%TO.N,row3*%
X93500000Y-45731866D03*
D12*
%TO.P,D12,2,A*%
%TO.N,SW12*%
X93500000Y-53351866D03*
%TD*%
D11*
%TO.P,D2,1,K*%
%TO.N,row1*%
X67400000Y-41661866D03*
D12*
%TO.P,D2,2,A*%
%TO.N,SW2*%
X67400000Y-49281866D03*
%TD*%
D11*
%TO.P,D9,1,K*%
%TO.N,row0*%
X85700000Y-39851865D03*
D12*
%TO.P,D9,2,A*%
%TO.N,SW9*%
X85700000Y-47471865D03*
%TD*%
D11*
%TO.P,D14,1,K*%
%TO.N,row1*%
X98700000Y-41541865D03*
D12*
%TO.P,D14,2,A*%
%TO.N,SW14*%
X98700000Y-49161865D03*
%TD*%
D11*
%TO.P,D7,1,K*%
%TO.N,row2*%
X80447156Y-43661864D03*
D12*
%TO.P,D7,2,A*%
%TO.N,SW7*%
X80447156Y-51281864D03*
%TD*%
D11*
%TO.P,D15,1,K*%
%TO.N,row2*%
X101300000Y-43541867D03*
D12*
%TO.P,D15,2,A*%
%TO.N,SW15*%
X101300000Y-51161867D03*
%TD*%
D11*
%TO.P,D3,1,K*%
%TO.N,row2*%
X70100000Y-43661864D03*
D12*
%TO.P,D3,2,A*%
%TO.N,SW3*%
X70100000Y-51281864D03*
%TD*%
D11*
%TO.P,D11,1,K*%
%TO.N,row2*%
X90900000Y-43731868D03*
D12*
%TO.P,D11,2,A*%
%TO.N,SW11*%
X90900000Y-51351868D03*
%TD*%
D13*
%TO.N,col0*%
X132993543Y-50202355D03*
%TO.N,col1*%
X133084171Y-52692984D03*
%TO.N,col2*%
X133094797Y-55282355D03*
%TO.N,col3*%
X156617643Y-55282357D03*
%TO.N,col4*%
X156642357Y-52742357D03*
%TD*%
D14*
%TO.N,col0*%
X92551189Y-76359604D02*
X90784171Y-78392980D01*
X83284173Y-75392982D02*
X78784172Y-78792983D01*
X106084171Y-87992983D02*
X98684171Y-85092982D01*
X108084171Y-88792984D02*
X115384173Y-91692984D01*
X131784172Y-90792983D02*
X131920767Y-51275133D01*
X98684171Y-85092982D02*
X98584171Y-81692983D01*
X59784169Y-78692985D02*
X51984169Y-76492984D01*
X73884172Y-76792980D02*
X74007940Y-75569215D01*
X108032967Y-86019543D02*
X108084171Y-88792984D01*
X130684171Y-91692982D02*
X131784172Y-90792983D01*
X92584170Y-79092983D02*
X92551189Y-76359604D01*
X66684169Y-73892983D02*
X66284171Y-73792982D01*
X74007940Y-75569215D02*
X74007939Y-74090704D01*
X51984169Y-76492984D02*
X51633494Y-73953332D01*
X74007939Y-74090704D02*
X72384170Y-76192981D01*
X108032967Y-86019543D02*
X106084171Y-87992983D01*
X98584171Y-81692983D02*
X92584170Y-79092983D01*
X131920767Y-51275133D02*
X132993543Y-50202355D01*
X66284171Y-73792982D02*
X65712831Y-74221643D01*
X74984170Y-77192986D02*
X73884172Y-76792980D01*
X65712831Y-74221643D02*
X59784169Y-78692985D01*
X115384173Y-91692984D02*
X130684171Y-91692982D01*
X72384170Y-76192981D02*
X66684169Y-73892983D01*
X78784172Y-78792983D02*
X74984170Y-77192986D01*
X90784171Y-78392980D02*
X83284173Y-75392982D01*
%TO.N,col1*%
X170162745Y-152359972D02*
X170174453Y-151571680D01*
X105862746Y-139759970D02*
X105896786Y-138625932D01*
X131777828Y-156659973D02*
X124162744Y-156559971D01*
X133062746Y-156759973D02*
X165362745Y-156759971D01*
X144588470Y-94575535D02*
X141962745Y-97201259D01*
X170174453Y-151571680D02*
X170174453Y-148825472D01*
X118162746Y-151159970D02*
X119216492Y-148638423D01*
X119216492Y-148638423D02*
X116462746Y-149659973D01*
X141962745Y-97201259D02*
X132404032Y-97201260D01*
X132404032Y-97201260D02*
X132370286Y-97167513D01*
X133084171Y-52692984D02*
X132370285Y-53406868D01*
X132370286Y-97167513D02*
X132370285Y-156067514D01*
X114862747Y-148259972D02*
X105862746Y-139759970D01*
X105896786Y-138625932D02*
X105896785Y-136441970D01*
X132370285Y-53406868D02*
X132370288Y-72279099D01*
X132370285Y-156067514D02*
X131777828Y-156659973D01*
X165362745Y-156759971D02*
X170162745Y-152359972D01*
X132370285Y-156067514D02*
X133062746Y-156759973D01*
X124162744Y-156559971D02*
X122662745Y-155259972D01*
X122662745Y-155259972D02*
X118162746Y-151159970D01*
X132370288Y-72279099D02*
X132370286Y-97167513D01*
X116462746Y-149659973D02*
X116062746Y-149259969D01*
X116062746Y-149259969D02*
X114862747Y-148259972D01*
%TO.N,col2*%
X197237021Y-127546645D02*
X196729848Y-124563605D01*
X167080780Y-132202885D02*
X178644086Y-144839580D01*
X133094798Y-79227920D02*
X133062742Y-79259971D01*
X172737022Y-126979980D02*
X172537022Y-126040738D01*
X176037023Y-123946644D02*
X176737022Y-123346644D01*
X154962746Y-118959973D02*
X167080780Y-132202885D01*
X174937023Y-124946644D02*
X176037023Y-123946644D01*
X185937021Y-114746645D02*
X185244813Y-112029890D01*
X153562744Y-80159972D02*
X153762745Y-98512015D01*
X133094797Y-55282355D02*
X133094798Y-70503609D01*
X167080780Y-132202885D02*
X172237020Y-127446642D01*
X172237020Y-127446642D02*
X172737022Y-126979980D01*
X186637020Y-137346646D02*
X190037021Y-134246643D01*
X133094798Y-70503609D02*
X133094798Y-79227920D01*
X178644086Y-144839580D02*
X183437021Y-140246645D01*
X176737022Y-123346644D02*
X185937021Y-114746645D01*
X153862745Y-117559972D02*
X154962746Y-118959973D01*
X183437021Y-140246645D02*
X183458853Y-140224811D01*
X183458856Y-136724230D02*
X186637020Y-137346646D01*
X183458853Y-140224811D02*
X183458856Y-136724230D01*
X153762745Y-98512015D02*
X153862745Y-117559972D01*
X133962746Y-80159973D02*
X153562744Y-80159972D01*
X133062742Y-79259971D02*
X133962746Y-80159973D01*
X190037021Y-134246643D02*
X197237021Y-127546645D01*
X171973823Y-124190514D02*
X174937023Y-124946644D01*
X172537022Y-126040738D02*
X171973823Y-124190514D01*
%TO.N,col3*%
X196500000Y-78900000D02*
X196656239Y-76159167D01*
X204000000Y-76000000D02*
X199000000Y-78000000D01*
X181200000Y-88500000D02*
X181202729Y-85746245D01*
X217600000Y-75600000D02*
X215218180Y-73836621D01*
X190600000Y-84700000D02*
X191200000Y-81200000D01*
X172900000Y-90600000D02*
X174400000Y-91400000D01*
X219100000Y-75000000D02*
X217600000Y-75600000D01*
X181202729Y-85746245D02*
X183800000Y-87500000D01*
X215218180Y-76581820D02*
X208000000Y-79700000D01*
X183800000Y-87500000D02*
X190600000Y-84700000D01*
X229500000Y-78500000D02*
X224500000Y-72700000D01*
X208000000Y-79700000D02*
X204000000Y-76000000D01*
X199000000Y-78000000D02*
X196656239Y-76159167D01*
X156617643Y-55282357D02*
X158600000Y-56600000D01*
X179300000Y-89300000D02*
X181200000Y-88500000D01*
X158600000Y-56600000D02*
X172900000Y-90600000D01*
X191200000Y-81200000D02*
X196500000Y-78900000D01*
X220700000Y-74400000D02*
X219100000Y-75000000D01*
X237000000Y-76600000D02*
X229500000Y-78500000D01*
X215218180Y-73836621D02*
X215218180Y-76581820D01*
X237588107Y-73822531D02*
X237000000Y-76600000D01*
X174400000Y-91400000D02*
X179300000Y-89300000D01*
X224500000Y-72700000D02*
X220700000Y-74400000D01*
%TO.N,col4*%
X177100000Y-72000000D02*
X174648980Y-70059040D01*
X208664430Y-58149417D02*
X208300000Y-61100000D01*
X190177010Y-60441853D02*
X190200000Y-63200000D01*
X174648980Y-70059040D02*
X174700000Y-72800000D01*
X208300000Y-61100000D02*
X206750000Y-61700000D01*
X233378405Y-57351696D02*
X232900000Y-60100000D01*
X199500000Y-59400000D02*
X192500000Y-62200000D01*
X203000000Y-63300000D02*
X199500000Y-59400000D01*
X174700000Y-72800000D02*
X167300000Y-76000000D01*
X192500000Y-62200000D02*
X190177010Y-60441853D01*
X225400000Y-62100000D02*
X218000000Y-57100000D01*
X206750000Y-61700000D02*
X203000000Y-63300000D01*
X182700000Y-69500000D02*
X178200000Y-71500000D01*
X167300000Y-76000000D02*
X160700000Y-60300000D01*
X178200000Y-71500000D02*
X177100000Y-72000000D01*
X210400000Y-59400000D02*
X208664430Y-58149417D01*
X160700000Y-60300000D02*
X157800000Y-53500000D01*
X211200000Y-59900000D02*
X210400000Y-59400000D01*
X218000000Y-57100000D02*
X211200000Y-59900000D01*
X157800000Y-53500000D02*
X156642357Y-52742357D01*
X232900000Y-60100000D02*
X225400000Y-62100000D01*
X190200000Y-63200000D02*
X182900000Y-66200000D01*
X182900000Y-66200000D02*
X182700000Y-69500000D01*
%TD*%
M02*
