M48
; DRILL file {KiCad (6.0.4-0)} date 2022 August 03, Wednesday 16:21:58
; FORMAT={-:-/ absolute / inch / decimal}
; #@! TF.CreationDate,2022-08-03T16:21:58+02:00
; #@! TF.GenerationSoftware,Kicad,Pcbnew,(6.0.4-0)
; #@! TF.FileFunction,NonPlated,1,2,NPTH
FMAT,2
INCH
; #@! TA.AperFunction,NonPlated,NPTH,ComponentDrill
T1C0.0390
; #@! TA.AperFunction,NonPlated,NPTH,ComponentDrill
T2C0.0709
; #@! TA.AperFunction,NonPlated,NPTH,ComponentDrill
T3C0.1350
%
G90
G05
T1
X1.9296Y-2.476
X2.3284Y-2.5754
X2.8721Y-2.4713
X3.2532Y-2.6253
X3.6022Y-2.5606
X3.9833Y-2.7146
X4.2117Y-2.9409
X4.2825Y-4.9387
X4.588Y-5.2137
X4.5928Y-3.0949
X4.8108Y-5.4152
X5.1162Y-5.6902
X5.4869Y-3.3258
X5.898Y-3.3258
X6.281Y-5.7065
X6.3505Y-4.7351
X6.5339Y-2.4695
X6.5841Y-5.4288
X6.6535Y-4.4574
X6.7919Y-3.0871
X6.8026Y-5.2285
X6.8729Y-4.2563
X6.9136Y-2.3122
X7.1057Y-4.9508
X7.1452Y-2.0909
X7.1717Y-2.9298
X7.176Y-3.9786
X7.3251Y-4.7498
X7.4003Y-2.7097
X7.525Y-1.9336
X7.6281Y-4.4721
X7.7801Y-2.5524
X7.8731Y-2.0006
X8.1311Y-2.6182
X8.2528Y-1.8433
X8.5109Y-2.4609
X8.8896Y-1.9244
X9.0553Y-2.5729
X9.2875Y-1.8215
X9.4533Y-2.47
T2
X1.8789Y-2.6338
X2.2991Y-2.7385
X2.7999Y-2.6205
X3.2015Y-2.7827
X3.53Y-2.7098
X3.9315Y-2.872
X4.1395Y-3.0901
X4.1637Y-5.0542
X4.4855Y-5.344
X4.541Y-3.2523
X4.6919Y-5.5307
X5.0138Y-5.8205
X5.4759Y-3.4912
X5.909Y-3.4912
X6.3846Y-5.8358
X6.454Y-4.8644
X6.587Y-2.6265
X6.7039Y-5.5433
X6.7733Y-4.5718
X6.845Y-3.2441
X6.9062Y-5.3579
X6.9765Y-4.3857
X6.9871Y-2.4608
X7.1983Y-2.2479
X7.2255Y-5.0653
X7.2451Y-3.0784
X7.2958Y-4.0931
X7.4287Y-4.8791
X7.4534Y-2.8667
X7.5984Y-2.0821
X7.748Y-4.5865
X7.8535Y-2.7009
X7.9262Y-2.1576
X8.1842Y-2.7752
X8.3263Y-1.9919
X8.5843Y-2.6095
X8.9203Y-2.0873
X9.0861Y-2.7357
X9.3396Y-1.9788
X9.5053Y-2.6273
T3
X2.089Y-2.6862
X3.0007Y-2.7016
X3.7308Y-2.7909
X4.3246Y-5.1991
X4.3403Y-3.1712
X4.8529Y-5.6756
X5.6925Y-3.4912
X6.5443Y-5.6895
X6.6137Y-4.7181
X6.7871Y-2.5436
X7.0451Y-3.1612
X7.0659Y-5.2116
X7.1362Y-4.2394
X7.3984Y-2.165
X7.5883Y-4.7328
X7.6535Y-2.7838
X8.1262Y-2.0747
X8.3843Y-2.6924
X9.13Y-2.0331
X9.2957Y-2.6815
T0
M30
