<?xml version="1.0" encoding="UTF-8" standalone="no"?>
<!-- Created with Inkscape (http://www.inkscape.org/) -->

<svg
   width="210mm"
   height="297mm"
   viewBox="0 0 210 297"
   version="1.1"
   id="svg5"
   inkscape:version="1.2.1 (9c6d41e, 2022-07-14)"
   sodipodi:docname="dk_quit.svg"
   xml:space="preserve"
   xmlns:inkscape="http://www.inkscape.org/namespaces/inkscape"
   xmlns:sodipodi="http://sodipodi.sourceforge.net/DTD/sodipodi-0.dtd"
   xmlns="http://www.w3.org/2000/svg"
   xmlns:svg="http://www.w3.org/2000/svg"><sodipodi:namedview
     id="namedview7"
     pagecolor="#ffffff"
     bordercolor="#000000"
     borderopacity="0.25"
     inkscape:showpageshadow="2"
     inkscape:pageopacity="0.0"
     inkscape:pagecheckerboard="0"
     inkscape:deskcolor="#d1d1d1"
     inkscape:document-units="mm"
     showgrid="false"
     inkscape:zoom="1.511841"
     inkscape:cx="66.805967"
     inkscape:cy="75.074033"
     inkscape:window-width="1440"
     inkscape:window-height="847"
     inkscape:window-x="0"
     inkscape:window-y="25"
     inkscape:window-maximized="0"
     inkscape:current-layer="layer1" /><defs
     id="defs2" /><g
     inkscape:label="Lager 1"
     inkscape:groupmode="layer"
     id="layer1"><path
       style="fill:#000000;stroke-width:0.328734"
       d="m 32.973256,28.781772 h 0.760788 l 0.591723,-0.02758 h 0.788965 l 0.986207,0.413533 0.84532,0.468672 0.309949,0.08271 1.155272,0.220551 1.127085,-0.275689 1.183445,-0.661652 1.042574,-0.413534 1.070735,-0.165415 0.760781,0.137844 0.591723,-0.08271 0.479013,-0.220551 -0.140884,-0.192983 -0.338129,0.05514 -0.619897,0.137845 -0.591723,-0.08271 -0.817142,-0.02758 -0.422664,-0.192982 -0.732607,-0.330828 -1.042561,-0.220551 -0.704432,-0.02758 -0.929852,0.08271 h -0.817139 l -0.958031,0.220551 -0.563547,0.137844 -0.958028,0.27569 -0.676254,0.330824 -0.704433,0.137845 -0.338128,0.08271 z"
       id="path314" /><path
       style="fill:#000000;stroke-width:0.328734"
       d="m 32.381533,29.939664 0.676257,-0.02758 h 0.817141 0.450836 l 0.591722,0.05513 0.338129,0.30326 0.507191,0.385963 0.845321,0.110276 0.648078,0.110276 0.507191,0.05514 0.338127,-0.08271 0.02814,-0.192982 -0.366307,-0.165413 -0.507191,-0.08271 -0.450836,-0.05514 -0.394484,-0.192984 -0.394481,-0.22055 -0.338128,-0.275689 -0.479015,-0.275689 -0.338126,-0.08271 -0.366304,-0.110276 -0.45084,-0.02758 H 33.142332 32.83238 l -0.422657,-0.165392 -0.197242,0.19298 z"
       id="path316" /><path
       style="fill:#000000;stroke-width:0.328734"
       d="m 33.311385,28.533651 h -0.507192 l -0.08454,0.192982 0.253594,0.220551 0.366304,0.413534 0.788966,-0.110276 -0.225419,-0.661652 z"
       id="path318" /><path
       style="fill:#000000;stroke-width:0.328734"
       d="m 38.721423,30.711592 0.112672,0.303257 0.619909,-0.110276 0.309942,-0.192984 0.39449,-0.05514 0.366304,-0.02758 0.704432,-0.303257 0.309955,-0.358398 0.281768,-0.110276 0.535374,-0.275689 0.422652,-0.05514 h 0.450838 l 0.338129,0.137845 h 0.422665 l 0.479013,-0.137845 0.366303,-0.110276 0.253594,-0.413534 -0.02814,-0.192982 -0.366303,-0.165413 -0.366304,0.08271 -0.16907,0.137844 -0.479013,-0.08271 h -0.140884 l 0.08454,-0.303259 -0.507187,-0.137844 -0.366303,-0.02758 0.08454,0.413535 0.08454,0.192982 -0.563548,0.02758 -0.479013,0.192982 -0.338129,0.24812 -0.450839,0.385965 -0.422652,0.220551 -0.338129,0.165412 -0.39449,0.192983 -0.366303,0.05514 -0.338129,0.110276 -0.253594,0.02758 z"
       id="path322" /><path
       style="fill:#000000;stroke-width:0.328734"
       d="m 44.159649,28.478511 0.309954,0.165416 0.169059,0.137845 0.366303,0.08271 -0.169058,-0.385966 -0.450839,-0.275688 z"
       id="path324" /><path
       style="fill:#000000;stroke-width:0.328734"
       d="m 39.172261,25.501074 0.08454,-0.578946 0.0564,-0.220554 v -0.275687 l 0.309942,-0.165415 0.253593,0.165415 0.140897,0.110276 0.0564,0.27569 v 0.192983 l -0.112672,0.05514 -0.169071,-0.02758 -0.08454,-0.248118 -0.197245,0.165411 -0.0564,0.165413 z"
       id="path326" /><path
       style="fill:#000000;stroke-width:0.328734"
       d="m 37.650692,25.583779 0.02819,-0.358395 -0.11271,-0.49624 -0.08454,-0.248121 -0.253594,-0.02758 -0.197242,0.05514 -0.140887,0.248118 -0.02819,0.22055 0.02819,0.192984 0.225418,-0.137846 0.197242,0.08271 0.112709,0.192984 z"
       id="path328" /><path
       style="fill:#000000;stroke-width:0.328734"
       d="m 33.168534,25.314701 0.313675,-0.306902 0.199608,-0.195298 0.399219,-0.195298 h 0.370706 l -0.712892,-1.283399 -0.285157,-0.279 -0.199611,-0.641699 -0.142579,-0.809099 -0.228126,-0.557999 -0.114066,0.641697 0.142582,2.566798 0.05703,0.920699 z"
       id="path330" /><path
       style="fill:#000000;stroke-width:0.328734"
       d="m 35.107602,24.310301 -0.142577,-0.8928 0.285156,-0.781196 0.342187,-0.390599 0.370705,-0.167403 0.541798,-0.111591 0.741407,0.08369 0.456252,0.390599 0.313669,0.5022 0.256646,0.3906 0.114054,0.195298 0.285146,-0.0279 0.171094,-0.5022 v -0.306898 l 0.256645,-0.446399 0.313673,-0.2511 0.484766,-0.167399 0.342186,-0.05581 h 0.570319 l 0.313673,0.05581 0.171093,0.111591 0.427739,0.334801 0.114054,0.334798 0.142579,0.334801 v 0.278999 l -0.02851,0.557999 -0.114054,0.306901 0.541806,0.1395 0.171093,-0.809102 0.171093,-0.474297 0.22812,-0.697498 0.171105,-0.474301 0.05703,-0.474297 0.02851,-0.279003 -0.171093,-0.195298 -0.199607,0.05579 -0.399226,0.334802 -0.427726,0.223201 -0.456253,0.1395 -0.456252,0.0279 -0.570319,0.05579 -0.741412,-0.0279 -0.484753,0.0279 -0.399225,0.1395 -0.598833,0.08371 -0.256646,-0.0558 -0.342182,-0.0837 -0.598831,-0.08371 -1.112111,0.05581 h -0.598829 l -0.541798,-0.139499 -0.427735,-0.1395 -0.427734,-0.3906 -0.05704,0.251101 0.142578,0.641696 0.08555,0.7533 0.228123,0.7533 0.28516,0.502197 0.114054,0.251099 0.114066,0.167403 z"
       id="path332" /><path
       style="fill:#000000;stroke-width:0.328734"
       d="m 36.162681,23.919701 -0.142579,-0.362697 0.256642,-0.2232 -0.05703,-0.1395 h -0.114067 l -0.142578,-0.0279 0.02851,-0.418503 0.114067,-0.223196 0.142578,-0.05581 0.313672,-0.111591 h 0.199611 l 0.256641,0.05579 0.114066,0.1395 0.08554,0.167399 0.05704,0.2232 v 0.251101 0.167399 0.139499 l -0.370705,0.195302 -0.256642,0.167399 -0.05703,0.08369 -0.114066,0.111603 z"
       id="path334" /><path
       style="fill:#000000;stroke-width:0.328734"
       d="m 39.983789,23.445403 0.114053,-0.278998 -0.142579,-0.195303 -0.256634,-0.0279 -0.05703,0.195299 v 0.111603 l 0.02851,-0.418498 0.22812,-0.418499 0.256646,-0.111604 0.114053,-0.111603 0.256634,0.0279 0.256646,0.05581 0.171093,0.2232 0.114053,0.390597 v 0.279003 l -0.05703,0.139498 -0.08554,0.279 -0.171093,0.195299 -0.256646,0.111603 -0.199606,-0.167399 z"
       id="path336" /><path
       style="fill:#000000;stroke-width:0.328734"
       d="m 44.285497,24.820188 0.423883,-0.718858 0.141286,-0.414724 0.16956,-0.552969 0.169549,-0.221184 0.226059,0.08294 0.02826,0.414727 v 0.248834 l -0.05653,0.387078 -0.169548,0.16589 -0.367358,0.02764 z"
       id="path338" /><path
       style="fill:#000000;stroke-width:0.328734"
       d="m 45.670169,22.110651 0.141286,-0.470021 0.19781,-0.387079 0.367359,-0.02764 v 0.248837 z"
       id="path340" /><path
       style="fill:#000000;stroke-width:0.328734"
       d="m 31.682204,22.691265 0.536913,0.995341 0.339103,0.663561 0.16955,0.552965 0.02825,0.193539 -0.282584,-0.331781 h -0.367361 l -0.141293,-0.248834 0.05653,-0.276485 0.113036,-0.387076 -0.197806,-0.30413 z"
       id="path342" /><path
       style="fill:#000000;stroke-width:0.328734"
       d="m 33.434231,18.018698 0.649947,-0.331781 0.565171,-0.248837 0.423877,0.110596 0.536912,0.359425 0.621687,0.33178 0.508653,0.304132 0.480395,0.08294 h 0.706457 l 0.791241,-0.08294 0.791242,-0.05529 0.621693,-0.193539 0.649942,-0.414724 0.423871,-0.16589 0.452132,-0.359428 0.282597,-0.193539 0.395608,0.02764 0.310847,0.110596 0.39562,0.304131 0.423883,0.33178 0.141286,0.221187 0.310847,0.35943 V 18.7652 l 0.08479,0.331781 0.113049,0.66356 0.05652,0.359426 v 0.387079 0.608263 l -0.254322,0.525319 -0.141298,0.663561 -0.141286,0.442372 -0.395621,0.470021 -0.254322,0.49767 -0.339109,0.387076 0.05653,0.16589 h 0.310834 l 0.423883,-0.02764 0.113048,0.193539 0.310847,0.221187 0.339096,0.276483 0.141299,-0.552965 0.05652,-0.414727 V 23.52072 l 0.02826,-0.552968 -0.02826,-0.304131 V 22.16595 21.695929 l 0.02826,-0.304131 0.141286,-0.331781 0.452145,-0.414724 0.621681,-0.110595 0.367358,0.276483 0.395621,0.08294 0.93254,-0.912397 V 18.37812 l -0.02826,-0.746505 0.05653,-0.580613 -0.02826,-0.387078 -0.22606,-0.580614 -0.423883,-0.635912 -0.395621,-0.359429 -0.423883,-0.387074 -0.593418,-0.35943 -0.734729,-0.0553 -0.762979,-0.08294 -0.989039,-0.110595 -0.53692,-0.08294 -0.706454,0.08294 -0.649955,-0.193539 -0.22606,0.02764 -0.282585,-0.442376 -0.254335,-0.608263 -0.141285,-0.470022 -0.113049,-0.47002 -0.141299,-0.52532 -0.08479,-0.359426 v -0.304132 l -0.197811,-0.193539 -0.254322,0.387075 v 0.414727 l -0.08479,0.165891 -0.254323,0.02764 0.05653,-0.635911 -0.141299,-0.746508 -0.22606,-0.5253158 -0.254334,-0.3317804 -0.339096,0.4423734 -0.141295,0.3870778 v 0.331777 l 0.02825,0.359429 v 0.33178 l -0.113036,0.442374 -0.282588,-0.304132 -0.113036,-0.414724 -0.282585,-0.16589 -0.19781,0.193539 0.05653,0.359426 0.02825,0.304131 -0.113036,0.304135 -0.169551,0.663557 v 0.248838 l -0.05651,0.47002 -0.282586,0.525317 -0.282585,0.442376 -0.367362,0.304131 -0.423875,0.552965 -0.197811,0.304131 -0.141292,0.02764 -0.310844,-0.248834 -0.19781,-0.470021 -0.339103,-0.470022 -0.282584,-0.248837 -0.254325,-0.08294 -0.791237,0.165889 -0.847757,0.276483 -0.452135,0.02764 -0.480395,0.08294 h -0.367362 -0.310843 l -0.42388,0.08294 -0.310843,0.497671 -0.02825,0.608263 -0.395621,1.741844 0.423877,1.824789 0.62169,1.327121 0.536909,0.912394 0.593431,0.470022 0.282585,-0.552965 0.339102,-0.387078 0.339103,0.16589 0.480394,0.138242 0.113036,-0.580615 -0.08477,-0.608263 0.423879,-0.276485 -0.02825,-0.746504 v -0.718855 z"
       id="path344" /><path
       style="fill:#000000;stroke-width:0.328734"
       d="m 29.612193,14.938212 -0.799375,0.529816 -0.644651,0.327983 -0.361007,0.327981 -0.48994,0.302753 -0.103138,0.02523 0.25786,-1.110091 -0.644654,0.454127 0.103151,-0.428898 0.180502,-0.681194 -0.05157,-0.504586 -0.232076,0.100911 -0.412579,0.428901 0.05157,-0.529816 -0.02579,-0.403672 -0.412581,0.428902 -0.206287,0.529816 0.180505,-0.83257 -0.180505,-0.151377 -0.309435,0.403671 -0.283648,-0.227066 -0.103151,-0.479359 -0.33522,0.605507 -0.438363,-0.201835 -0.335221,0.176605 -0.232074,0.605505 -0.309435,0.252293 -0.128932,-0.655965 -0.361008,-0.02523 -0.103138,0.73165 -0.361008,0.353213 -0.07736,-0.403672 -0.07736,-0.403668 -0.335221,0.07568 -0.02579,0.378443 -0.206291,-0.378443 -0.206289,0.580277 -0.206288,0.4289 -0.257865,-0.378441 -0.154715,-0.151375 -0.180505,0.302753 v 0.252293 l 1.985536,0.883029 1.418239,-0.05046 0.825161,0.403672 0.438363,0.655964 0.283647,0.605505 0.361008,1.185782 -0.154716,0.580276 -1.031448,1.337156 -1.315097,1.993123 -1.083017,1.438074 -0.438367,0.655966 -0.515723,0.428897 -0.722013,0.327982 -0.850944,0.227067 0.05157,0.529817 0.103151,0.479357 0.670439,-0.02523 1.005662,0.782113 0.438365,0.428898 0.979872,-0.126145 0.567299,0.681192 0.283649,0.151378 1.624526,-0.176608 0.541513,0.45413 0.283648,-0.504587 0.232074,0.05046 0.02579,1.967893 0.05157,0.756881 -0.05157,0.958717 0.103151,0.605506 0.05157,0.832569 0.206293,0.4289 0.593082,0.883029 0.386792,0.706425 0.541509,0.479357 -0.25786,-0.78211 -0.103151,-0.756883 0.02579,-1.009175 0.206287,-0.529819 0.257862,-0.428897 0.412579,-0.479361 0.386794,-0.479357 0.309435,-0.428901 0.386793,-0.302753 0.464149,-0.252293 0.515723,-0.201835 h 0.386794 l 0.386794,-0.05046 -0.128932,-0.832569 -0.232076,-0.807339 -0.232074,-0.832574 -0.180506,-0.504586 -0.206288,-0.555046 -0.103151,-0.555046 -0.206289,-0.580275 0.232076,-0.706425 0.103151,-0.580276 0.438366,-0.353211 0.05158,-0.504587 0.309435,-0.327982 L 31.6751,23.087294 31.468812,22.406099 31.26252,21.62399 Z"
       id="path346" /><path
       style="fill:#000000;stroke-width:0.328734"
       d="m 32.217528,26.408775 0.389559,-0.595541 0.584338,-0.428791 -0.267821,-0.262039 -0.219127,-0.09528 -0.194779,0.524078 -0.194779,0.190574 -0.219128,-0.07146 -0.243473,-0.214395 0.0487,0.381147 z"
       id="path348" /><path
       style="fill:#000000;stroke-width:0.328734"
       d="m 44.659061,25.312978 -0.121716,-0.524077 0.340867,0.190573 h 0.462596 l 0.340867,-0.262039 0.09735,-0.381147 0.07298,-0.690828 0.09735,-0.238218 0.04874,-0.309682 0.389566,-0.786115 v -0.381147 l 0.170428,-0.762294 -0.09735,-0.667008 v -0.166753 l 0.09735,-1.453119 0.170427,-1.071977 0.754777,-0.404968 0.243469,-0.119112 -0.04874,-0.381147 -0.09735,-0.547898 0.413909,0.309681 0.04874,0.238217 0.267813,-0.07146 -0.121716,-0.500256 -0.02437,-0.595542 0.194783,0.119113 -0.04874,-0.381147 -0.07298,-0.5479 0.146084,0.07146 0.267825,0.357326 -0.243469,-0.619364 -0.02437,-0.333504 0.121716,-0.214396 0.194783,0.5479 0.219127,0.262038 0.19477,0.02383 -0.219126,-0.929047 v -0.452612 l 0.09735,-0.285859 0.219126,0.09528 0.09735,0.309682 0.09735,0.214396 0.219126,0.07146 -0.02437,-0.500255 0.121716,-0.40497 0.07298,0.428791 0.170428,0.381147 0.243469,0.14293 0.194783,-0.119113 -0.146084,-0.452613 0.0731,-0.333503 0.219126,0.381147 0.04874,0.285861 0.243469,-0.04765 0.121716,-0.02383 v -0.452612 l 0.09735,-0.02383 0.17044,0.404968 0.243469,0.166752 0.267825,-0.04765 0.219127,-0.333503 0.121716,0.09528 0.02437,0.40497 0.121716,0.42879 0.121716,0.166752 0.194783,0.452612 0.194783,0.04765 0.09735,-0.119112 0.121716,-0.381147 -0.121716,-0.476434 0.194784,-0.02383 0.07298,0.381148 0.0731,0.142929 -0.04874,0.595542 0.511295,0.04765 -0.02437,-0.333504 0.09735,-0.452612 0.146084,0.42879 0.04874,0.214396 0.267813,0.02383 0.09735,0.214394 -0.17044,0.238218 -0.267812,-0.04765 -0.584337,0.09528 -0.219127,0.190573 -0.365223,0.190574 H 51.76806 l -0.413909,-0.02383 -0.438253,0.04765 -0.194783,0.190574 -0.267813,0.04765 -0.584336,0.690829 -0.316525,0.667008 -0.219126,0.357325 -0.04874,0.309682 0.243469,0.428791 0.316512,0.428787 0.194783,0.381147 0.170427,0.309682 v 0.333504 l 0.146084,0.333503 0.121716,0.428791 0.194783,0.07146 0.194783,-0.262039 0.292169,-0.214395 -0.07298,0.357325 -0.243482,0.214396 -0.121715,0.190574 0.389566,0.595541 0.462596,0.809938 0.462608,0.738472 0.535638,0.857582 0.243469,0.404968 0.535651,0.285861 0.462595,0.238216 0.41391,0.190573 0.535638,0.26204 0.316524,0.07146 0.02437,0.14293 -0.02437,0.333503 0.04874,0.262039 0.121716,0.381147 -0.07298,0.262038 -0.24347,0.190574 -0.170439,0.547899 -0.121716,0.381147 -0.340868,0.333504 -0.462595,0.238217 -1.095644,0.57172 -0.584337,0.214395 -0.900849,-0.07146 -0.462608,0.04765 -0.389554,0.214394 -0.36521,-0.02383 -0.194783,-0.214395 h -0.706065 l -0.292181,0.166752 -0.389554,0.309682 -0.316512,0.09528 -0.194783,-0.452612 -0.146084,0.333503 0.170428,0.524077 0.02437,1.16726 -0.02437,0.571721 -0.02437,0.547899 -0.267825,0.547898 -0.170427,0.547899 -0.316524,0.404969 -0.07298,-1.119619 v -0.476434 l -0.121716,-0.547899 -0.36521,-0.381147 -0.438253,-0.500255 -0.36521,-0.404966 -0.267825,-0.262039 -0.267826,-0.09528 -0.389553,-0.119112 0.02437,-0.333505 0.07298,-0.667007 0.07298,-0.500255 0.09735,-0.595542 0.121716,-0.595543 v -0.595542 -0.381147 l -0.07298,-0.5479 -0.267825,-0.57172 z"
       id="path350" /><path
       style="fill:#000000;stroke-width:0.328734"
       d="m 36.83279,33.796768 0.486852,0.714511 1.182353,0.136094 0.765051,-0.850605 z"
       id="path352" /><path
       style="fill:#000000;stroke-width:0.328734"
       d="m 32.068596,30.734585 0.382526,1.088777 0.452076,0.748534 0.486852,0.476338 0.382526,0.918654 0.730279,0.408292 0.904152,0.442314 0.486852,0.510366 0.312977,0.884631 0.03478,0.306215 -0.104332,-1.088774 -0.06955,-0.748533 -0.799829,-0.408292 -1.217131,-0.544387 -0.521625,-1.054752 -0.486853,-0.578412 -0.417302,-0.782559 z"
       id="path354" /><path
       style="fill:#000000;stroke-width:0.328734"
       d="m 39.649579,37.09712 0.382519,-1.394994 0.173882,-0.918653 0.03479,0.850605 -0.347751,1.360968 z"
       id="path356" /><path
       style="fill:#000000;stroke-width:0.328734"
       d="m 42.431584,32.673968 0.904152,-0.306219 0.556401,-0.748533 0.452083,-0.748533 0.06959,0.170121 -0.2782,0.782558 -0.347751,0.442315 -0.625951,0.442317 -0.417301,0.102078 -0.312982,0.204143 -0.104382,0.408293 -0.312982,-0.03403 V 33.15031 Z"
       id="path358" /><path
       style="fill:#000000;stroke-width:0.328734"
       d="m 41.909952,33.694695 -0.45207,0.340244 -0.34775,0.204143 0.730282,-0.170121 0.31297,-0.238168 0.1391,-0.408292 z"
       id="path360" /><path
       style="fill:#000000;stroke-width:0.328734"
       d="m 39.753898,37.947726 -1.078021,0.170119 -0.06959,-0.306215 -0.38252,0.306215 -0.20865,-0.06805 -0.521628,-0.102079 0.03477,-0.408289 0.104332,-0.340244 0.347758,0.03403 0.173869,0.238168 0.486851,-0.272193 h 0.591183 0.556401 l 0.104381,0.170121 z"
       id="path362" /><path
       style="fill:#000000;stroke-width:0.328734"
       d="m 39.899768,35.124656 -0.75347,0.368603 -0.376729,-0.138226 0.188364,-0.322526 0.423833,-0.46075 0.470924,0.184301 z"
       id="path370" /><path
       style="fill:#000000;stroke-width:0.328734"
       d="m 38.110281,36.967664 -0.800563,0.138224 h -0.894749 l -0.282551,-0.921501 v -0.460752 l 0.42383,-0.184301 h 0.518009 l 0.188369,0.3686 0.706381,0.09215 0.188365,0.322526 0.612197,0.414675 0.141273,0.276451 z"
       id="path372" /><path
       style="fill:#000000;stroke-width:0.328734"
       d="m 39.193401,38.764592 -0.09421,1.013651 -0.235455,-0.04608 -0.282547,-1.013655 z"
       id="path374" /><path
       style="fill:#000000;stroke-width:0.328734"
       d="m 37.498086,38.902818 0.141276,0.829353 0.329645,0.09215 0.282547,-1.013651 z"
       id="path376" /><path
       style="fill:#000000;stroke-width:0.328734"
       d="m 36.980074,38.994966 -0.235461,0.691128 -0.329644,-0.184301 0.235461,-0.783277 z"
       id="path378" /><path
       style="fill:#000000;stroke-width:0.328734"
       d="M 54.934721,25.640196 54.6653,25.112994 53.610078,24.607763 52.914086,24.212364 52.218095,23.157963 51.297589,21.598334 v -0.417366 l 0.449029,0.637033 0.695992,0.988496 0.336772,0.549168 1.100116,0.834731 0.853154,0.0659 0.134717,-0.461301 0.60618,0.219666 -0.157163,0.439333 -0.06733,1.076366 z"
       id="path400" /><path
       style="fill:#000000;stroke-width:0.328734"
       d="m 55.56336,25.706094 -0.179622,0.395399 0.202069,0.790798 0.26942,0.329501 0.965412,0.680967 0.60618,0.08787 0.314326,-0.197701 0.269421,-0.219666 0.449017,0.0659 0.224515,0.241634 0.224527,0.153768 0.449018,0.04394 h 0.561287 l 0.583734,-0.197701 0.26942,-0.175733 0.291867,-0.263599 0.112295,-0.109833 0.336773,-0.02199 -0.06733,-0.307533 h 0.336772 l 0.314314,-0.197701 v -0.263599 h 0.493935 l 0.44903,-0.461298 0.157163,-0.307532 0.246962,-0.241635 -0.04484,-0.219666 0.314326,-0.175733 0.06733,-0.571131 -0.17961,-0.02199 -0.179609,-0.241631 -0.224515,0.109833 -0.04497,0.351466 v 0.219666 l -0.17961,0.5272 -0.06733,0.175736 -0.449017,0.109834 -0.426584,0.04394 -0.269407,0.02199 -0.179622,0.0659 -0.04484,0.263599 -0.02248,0.241635 -0.08981,0.08786 -0.359219,-0.02197 -0.17961,0.197701 -0.02248,0.549164 -0.359219,0.109833 -0.359219,0.0659 -0.246961,-0.04394 -0.179609,-0.241631 -0.336773,-0.04394 -0.44903,0.263599 -0.179609,0.1318 v -0.461301 l -0.179622,-0.373431 -0.336773,0.08787 v 0.571132 l -0.179609,-0.109834 -0.202056,-0.175732 -0.269421,0.131799 -0.291866,0.307532 -0.381678,-0.0659 -0.314314,-0.197702 -0.112295,-0.241631 -0.314326,-0.0659 h -0.179584 l -0.246962,-0.351466 -0.06733,-0.04394 -0.04497,-0.395399 z"
       id="path404" /><path
       style="fill:#000000;stroke-width:0.328734"
       d="m 63.151938,24.102529 0.359219,-0.417364 0.44903,-0.153768 0.202068,-0.351466 0.202056,-0.439331 0.134704,-0.2636 0.157163,-0.615065 -0.179609,-0.307533 -0.202056,-0.395403 h -0.179622 l 0.179622,0.571136 -0.04497,0.263599 -0.08981,0.439333 -0.291867,0.395398 -0.246961,0.285565 -0.291867,0.1318 -0.134716,0.21967 -0.157151,0.109833 -0.06733,0.153768 z"
       id="path406" /><path
       style="fill:#000000;stroke-width:0.328734"
       d="m 61.108857,24.124497 0.359219,-0.307533 0.426583,-0.285567 h 0.404125 l 0.583733,0.08787 0.269421,0.04394 v -0.351466 l -0.404125,-0.0659 -0.561287,-0.02199 -0.583734,0.0659 -0.291867,0.131801 -0.224515,0.02199 -0.26942,-0.395399 -0.471476,-0.658999 -0.269421,-0.285567 -0.157163,-0.175734 -0.202056,-0.483265 -0.314326,0.109833 0.291867,0.461298 0.44903,0.483265 0.112295,0.2636 0.08981,0.175733 0.02248,0.307532 0.449018,0.197702 0.157163,0.263599 z"
       id="path408" /><path
       style="fill:#000000;stroke-width:0.328734"
       d="m 59.627063,24.805461 -0.314313,-0.153764 -0.112295,-0.571133 -0.202069,-0.08787 -0.157163,-0.527199 -0.08981,-0.395403 -0.112295,-0.395398 -0.224515,-0.2636 -0.134716,0.153768 0.04484,0.329498 0.134704,0.153768 0.06733,0.329497 0.112295,0.307536 0.08981,0.285565 0.157163,0.307533 -0.02248,0.307531 0.02248,0.351466 0.134704,0.153768 h 0.314326 z"
       id="path410" /><path
       style="fill:#000000;stroke-width:0.328734"
       d="M 57.449278,24.93726 57.336983,24.300231 57.17982,23.663198 v -0.3954 -0.307533 h 0.291867 l -0.02248,-0.527198 -0.516382,0.109833 h -0.291867 l -0.583734,0.0659 v 0.373432 l 0.359219,0.109833 0.44903,0.04394 0.02248,0.615065 0.202056,1.010465 0.02248,0.241634 0.04497,0.04394 z"
       id="path412" /><path
       style="fill:#000000;stroke-width:0.328734"
       d="m 57.96566,25.662161 -0.359219,0.153768 -0.08981,0.483265 0.538828,0.153766 0.314326,-0.109834 z"
       id="path414" /><path
       style="fill:#000000;stroke-width:0.328734"
       d="m 60.210797,25.398561 -0.44903,0.483265 0.269421,0.263601 0.493935,-0.02199 0.06733,-0.175733 v -0.329501 z"
       id="path416" /><path
       style="fill:#000000;stroke-width:0.328734"
       d="m 62.276325,24.212364 0.06733,0.505231 h 0.381666 l 0.08981,-0.329499 -0.202069,-0.219665 z"
       id="path418" /><path
       style="fill:#000000;stroke-width:0.328734"
       d="m 61.602792,24.453995 v 0.197702 l -0.291867,0.08786 v -0.35146 l 0.426571,-0.175732 z"
       id="path420" /><path
       style="fill:#000000;stroke-width:0.328734"
       d="m 63.511157,22.894364 -0.381678,-0.219666 -0.426571,-0.241631 -0.06733,0.439332 0.516382,0.219665 z"
       id="path422" /><path
       style="fill:#000000;stroke-width:0.328734"
       d="m 61.692591,21.378669 -0.224515,-0.724901 -0.33676,-0.680966 -0.224528,0.153768 0.04484,0.571132 0.202069,0.439333 0.26942,0.263599 z"
       id="path424" /><path
       style="fill:#000000;stroke-width:0.328734"
       d="M 63.825483,20.807533 63.398899,20.675734 63.03968,21.005235 Z"
       id="path426" /><path
       style="fill:#000000;stroke-width:0.328734"
       d="m 59.582158,19.116103 0.224515,-0.439333 0.426583,-0.483265 0.336772,-0.439333 0.112296,-0.241632 0.471489,0.263601 0.381677,0.307531 0.516382,0.197699 0.740897,-0.197699 0.449018,-0.241633 0.336772,-0.131801 0.02248,-0.637033 -0.02248,-0.439332 -0.314313,-0.615065 -0.269421,-0.02195 0.202069,0.373432 v 0.285567 l -0.02249,0.373432 -0.08981,0.175736 -0.381678,0.153764 -0.538828,0.153769 -0.426583,0.02197 -0.291867,-0.175733 -0.246962,-0.241631 -0.471489,-0.109834 -0.15715,-0.285567 -0.157163,-0.417364 -0.157163,-0.4613 v -0.2636 l -0.157163,0.768833 v 0.417365 l 0.112295,0.219665 0.134717,0.197702 -0.44903,0.505233 -0.336773,0.417365 -0.08981,0.329501 v 0.329497 z"
       id="path428" /><path
       style="fill:#000000;stroke-width:0.328734"
       d="m 58.729003,17.205008 -0.471476,-0.4613 -0.471476,-0.351466 -0.02249,0.109834 0.538829,0.680966 z"
       id="path430" /><path
       style="fill:#000000;stroke-width:0.328734"
       d="m 60.210797,15.315876 -0.04484,-0.505234 -0.202068,-0.04394 z"
       id="path432" /><path
       style="fill:#000000;stroke-width:0.328734"
       d="m 56.669706,15.236457 0.403735,0.567838 0.504675,-0.02468 -0.3785,-0.469081 -0.504675,-0.320952 z"
       id="path434" /><path
       style="fill:#000000;stroke-width:0.328734"
       d="m 55.362937,18.76665 0.447422,0.569087 v 0.525309 l -0.626391,0.04378 -0.357937,-0.919293 -0.715863,-0.569087 -1.297524,-0.481532 0.313195,-0.393982 h 1.073813 l 1.25277,0.52531 z"
       id="path436" /><path
       style="fill:#000000;stroke-width:0.328734"
       d="m 59.747649,21.349424 0.223711,-0.963068 -0.268454,-0.569085 -0.492164,-0.08755 v 1.006844 l -0.40268,0.52531 -1.297511,0.612862 H 57.28684 l -0.939574,0.437758 1.47648,-0.08755 h 0.715875 l 0.581637,-0.30643 0.134226,-0.262653 z"
       id="path438" /><path
       style="fill:#000000;stroke-width:0.328734"
       d="m 25.290924,20.486571 -0.591466,0.878756 -0.657182,1.028787 -0.832435,0.87876 -0.591462,0.921622 -0.657185,0.600127 -0.591464,0.514394 -0.985774,0.321499 -0.394312,0.214329 -0.08762,0.385794 -0.175247,0.171467 -0.372403,0.04287 v 0.857325 l -0.109532,0.364362 -0.52575,0.278628 -0.76671,0.642994 -0.481936,0.364362 -0.525746,-0.02143 -0.591464,-0.02143 -0.41622,-0.08573 -0.08762,-0.278631 0.109532,-0.192899 0.284778,0.1286 0.416216,0.08573 0.547654,-0.0643 0.372403,-0.21433 0.503842,-0.364362 0.503841,-0.450095 0.240968,-0.27863 0.109532,-0.514396 -0.06572,-0.450095 0.109532,-0.471527 0.197154,-0.0643 -0.08762,-0.62156 0.04381,-0.385796 0.394312,-0.321495 0.284781,0.321495 0.109532,0.300063 h 0.306685 l 0.963866,-0.450095 0.657185,-0.77159 0.39431,-0.492963 0.481934,-0.428663 0.394311,-0.578693 0.284778,-0.642993 0.460028,-0.642994 0.591468,-0.428661 0.481933,-0.321495 0.350498,-0.0643 0.175248,0.04287 z"
       id="path440" /><path
       style="fill:#000000;stroke-width:0.328734"
       d="m 17.235751,26.197674 0.340508,-1.069609 0.125447,-0.73645 0.08961,-0.561107 -0.05377,-0.57864 -0.161291,-0.333156 -0.286746,0.07014 0.143373,0.596177 0.01791,0.31562 -0.03585,0.42083 -0.125446,0.403294 -0.107535,0.315623 -0.03585,0.473433 v 0.245484 z"
       id="path442" /><path
       style="fill:#000000;stroke-width:0.328734"
       d="m 16.357596,26.460691 -0.376355,0.420831 -0.08961,0.385762 v 0.490968 l -0.08961,0.0526 v -0.333157 l 0.01791,-0.526037 0.107534,-0.333155 z"
       id="path444" /><path
       style="fill:#000000;stroke-width:0.328734"
       d="m 15.784105,27.968664 -0.197136,0.315623 -0.501803,0.210415 -0.537648,0.210415 -0.698939,0.175346 -0.627254,0.140277 -0.555567,-0.227951 -0.304665,-0.227949 -0.215059,-0.175346 -0.08961,-0.473432 0.07169,-0.350693 0.161293,-0.245484 v 0.368228 l 0.05376,0.350689 0.250902,0.245485 0.358432,0.105212 0.501804,-0.0526 0.770626,-0.350692 0.537644,-0.105212 0.304668,-0.280553 0.197136,-0.73645 0.03585,0.420827 0.268821,0.350691 z"
       id="path446" /><path
       style="fill:#000000;stroke-width:0.328734"
       d="m 12.468622,26.653574 0.59141,-0.438363 0.501805,-0.227952 0.394271,-0.08768 h 0.376355 l 0.519723,0.03507 0.412195,-0.227948 0.394275,-0.736453 0.376351,-0.77152 0.304665,-0.648778 0.197139,-0.333158 0.107522,-0.192879 -0.07169,-0.245485 -0.179212,0.0526 -0.179215,0.263016 -0.412195,0.683849 -0.645177,1.332626 -0.143373,0.157809 -0.555567,0.105213 -0.698939,0.03507 -0.806469,0.105212 -0.716864,0.227948 -0.627253,0.122738 -0.60933,0.157809 -0.448038,-0.227948 -0.107534,-0.4559 -0.01791,-0.385758 0.232982,-0.508504 -0.268825,0.01753 -0.358432,0.298087 v 0.508501 l 0.07169,0.42083 0.125446,0.315623 0.268823,0.280554 0.412194,0.210412 0.394275,0.07014 0.788549,0.07014 z"
       id="path448" /><path
       style="fill:#000000;stroke-width:0.328734"
       d="m 11.738974,23.910395 0.598008,-0.05443 0.236417,0.08164 0.111266,0.06804 h 0.34767 l 0.319867,0.231317 0.37549,-0.408204 0.375494,-0.326565 0.292049,-0.367382 0.139069,-0.17689 0.570193,-0.489848 0.208609,-0.299348 0.250327,-0.10885 -0.152977,-0.149674 -0.514567,0.353777 -0.347676,0.285745 -0.389399,0.340169 -0.222514,0.326564 -0.264236,0.08164 -0.389399,0.05443 -0.389399,-0.04083 h -0.431122 l -0.347679,-0.08164 -0.556285,-0.04083 h -0.139069 l -0.278144,-0.25853 -0.208608,-0.13607 -0.180791,-0.530665 0.01393,-0.353778 -0.06954,-0.272138 -0.194699,-0.04081 -0.389403,0.231315 -0.2503264,0.285742 -0.1390727,0.122468 -0.041715,0.285744 v 0.462631 0.244925 l 0.1668864,0.176886 0.2503267,0.163283 0.292049,0.01363 0.375494,0.02722 0.236419,0.122455 0.139072,0.285744 0.250327,-0.204104 z"
       id="path450" /><path
       style="fill:#000000;stroke-width:0.328734"
       d="m 12.630749,21.739685 0.133795,0.310905 0.15052,0.343629 0.200696,-0.605444 -0.08363,-0.245452 -0.434836,0.06546 z"
       id="path452" /><path
       style="fill:#000000;stroke-width:0.328734"
       d="m 13.650944,21.592413 0.01672,0.359995 -0.334489,-0.14727 -0.01672,-0.179996 0.234142,-0.179999 z"
       id="path454" /><path
       style="fill:#000000;stroke-width:0.328734"
       d="m 13.517146,24.063286 0.05017,0.376356 -0.468284,-0.261813 0.10035,-0.212725 z"
       id="path456" /><path
       style="fill:#000000;stroke-width:0.328734"
       d="m 15.206324,25.732351 0.10035,0.343633 -0.183971,0.06546 -0.284316,-0.08181 -0.250868,-0.147272 v -0.278176 z"
       id="path458" /><path
       style="fill:#000000;stroke-width:0.328734"
       d="m 17.213265,25.765079 -0.284316,0.196358 -0.03345,0.245452 0.434838,-0.14727 0.451563,-0.196359 -0.03345,-0.147272 z"
       id="path460" /><path
       style="fill:#000000;stroke-width:0.328734"
       d="m 16.088036,19.057589 0.075,-0.495311 -0.318747,-0.366898 -0.299995,-0.330206 -0.281246,-0.256829 0.131249,-0.550345 0.09374,-0.165103 0.112497,-0.440275 -0.112497,-0.385241 -0.149995,-0.09173 -0.299997,0.385241 -0.131248,0.532001 -0.112496,0.421933 v 0.31186 l 0.262497,0.275173 0.149997,0.38524 0.412492,0.348553 z"
       id="path462" /><path
       style="fill:#000000;stroke-width:0.328734"
       d="m 16.800525,17.810139 0.58124,-0.605381 0.168748,-0.421929 -0.656241,0.330206 -0.299995,0.440275 -0.281245,0.403587 z"
       id="path464" /><path
       style="fill:#000000;stroke-width:0.328734"
       d="m 14.869305,17.663379 -0.562489,0.220137 -0.712489,0.165107 -0.48749,0.07338 -0.449996,-0.256826 -0.356245,-0.403587 -0.075,-0.275171 -0.112496,-0.587036 0.281244,-0.550345 0.03749,0.476964 0.15,0.421933 0.262494,0.31186 0.318746,0.0367 0.54374,-0.201795 0.506241,-0.238481 0.599991,-0.09173 0.224996,-0.18345 z"
       id="path466" /><path
       style="fill:#000000;stroke-width:0.328734"
       d="m 18.381289,23.778134 -1.000803,-0.336597 -0.437851,-0.183598 -0.562952,-0.306001 -0.531679,-0.979194 -0.125095,-0.611995 -0.125107,-0.581398 -0.18765,0.734395 v 0.3366 l 0.281474,0.397798 0.562956,0.795595 0.344024,0.275399 0.625501,0.275397 0.469129,0.0612 z"
       id="path468" /><path
       style="fill:#000000;stroke-width:0.328734"
       d="m 17.522387,26.550688 -0.799826,0.125211 -0.287935,0.03131 0.22395,0.250417 h 0.351923 l 0.927798,-0.187813 z"
       id="path470" /><path
       style="fill:#000000;stroke-width:0.328734"
       d="m 12.627462,26.738503 v 0.438231 l -0.287938,-0.0626 -0.127972,-0.532138 z"
       id="path472" /><path
       style="fill:#000000;stroke-width:0.328734"
       d="m 10.931834,25.079489 0.287934,-0.40693 -0.287934,-0.250418 -0.191958,0.40693 z"
       id="path474" /><path
       style="fill:#000000;stroke-width:0.328734"
       d="m 14.259102,24.015213 0.287938,0.469534 -0.31993,0.03131 -0.159966,-0.250417 z"
       id="path476" /><path
       style="fill:#000000;stroke-width:0.328734"
       d="m 21.939552,18.822916 -1.081307,0.755683 -1.235776,1.209093 -0.247153,-0.513864 0.617888,-1.148637 0.617889,-0.544092 0.77236,-0.181365 0.308943,-0.03024 z"
       id="path478" /><path
       style="fill:#000000;stroke-width:0.328734"
       d="m 16.53303,19.608827 0.586993,-0.816138 -1.019518,-0.241817 0.09269,0.665001 z"
       id="path480" /><path
       style="fill:#000000;stroke-width:0.328734"
       d="m 12.293525,43.607919 0.135884,8.043453"
       id="path1025" /><path
       style="fill:#000000;stroke-width:0.328734"
       d="m 13.652364,44.006769 h 1.290894 l -0.06794,0.398849 -1.290896,0.06648 z"
       id="path1029" /><path
       style="fill:#000000;stroke-width:0.328734"
       d="m 14.739432,43.940295 -0.135884,-0.731225 0.475592,0.06648 v 0.864171 z"
       id="path1031" /><path
       style="fill:#000000;stroke-width:0.328734"
       d="m 14.739432,43.20907 -2.513849,0.132951 0.06794,-0.465322 2.58179,-0.06648 z"
       id="path1033" /><path
       style="fill:#000000;stroke-width:0.328734"
       d="m 12.429409,43.142596 v 8.508776 h -0.407651 v -8.641726 z"
       id="path1035" /><path
       style="fill:#000000;stroke-width:0.328734"
       d="m 11.953817,51.518422 0.203825,0.332375 53.062584,0.199424 -0.135884,-0.465325 z"
       id="path1037" /><path
       style="fill:#000000;stroke-width:0.328734"
       d="m 65.288169,51.318997 -0.203827,-8.309351 h -0.475597 l 0.203827,8.641726 z"
       id="path1039" /><path
       style="fill:#000000;stroke-width:0.328734"
       d="m 64.676688,42.876699 -2.174143,-0.06648 v 0.398846 l 2.37797,0.132951 z"
       id="path1041" /><path
       style="fill:#000000;stroke-width:0.328734"
       d="m 62.842257,43.076123 v 0.797698 l -0.475584,-0.06648 v -0.930646 z"
       id="path1043" /><path
       style="fill:#000000;stroke-width:0.328734"
       d="m 62.706372,43.674396 1.087078,0.132948 -0.203827,0.332375 h -0.883251 z"
       id="path1045" /><path
       style="fill:#000000;stroke-width:0.328734"
       d="m 63.861392,43.807344 -0.06796,4.187912 -0.679423,-0.06647 0.203827,-4.121439 z"
       id="path1047" /><path
       style="fill:#000000;stroke-width:0.328734"
       d="m 63.385796,47.529934 -49.801377,0.132951 v 0.465323 l 50.073146,-0.199425 z"
       id="path1049" /><path
       style="fill:#000000;stroke-width:0.328734"
       d="m 13.720304,47.729359 -0.06794,-3.72259 H 13.31265 v 3.85554 z"
       id="path1051" /><path
       style="fill:#000000;stroke-width:0.328734"
       d="m 33.966976,51.385471 v -3.124316 l 2.242085,0.06647 0.06796,3.124315 z"
       id="path1053" /><path
       style="fill:#000000;stroke-width:0.328734"
       d="m 36.412888,50.321874 h 2.242072 l 0.339712,-0.731221 -2.921496,0.06647 z"
       id="path1055" /><path
       style="fill:#000000;stroke-width:0.328734"
       d="m 36.073176,48.925905 h 1.630604 l 0.271769,0.199425 -0.06795,0.797696 h 1.087065 v -1.130071 l -0.475596,-0.39885 -1.019123,-0.199424 -1.698546,0.132952 z"
       id="path1057" /><path
       style="fill:#000000;stroke-width:0.328734"
       d="m 37.092299,50.188927 1.222949,1.595393 1.290905,-0.531797 -1.426789,-1.196547 z"
       id="path1059" /><path
       style="fill:#000000;stroke-width:0.328734"
       d="m 40.557333,48.460579 v 3.057843 l 4.755926,0.06647 -0.135885,-0.731221 -2.581783,0.06647 -0.06795,-0.598273 h 2.921495 l -0.203827,-0.731221 -2.649726,-0.06647 0.06795,-0.598274 h 2.717668 V 48.32763 Z"
       id="path1061" /><path
       style="fill:#000000;stroke-width:0.328734"
       d="m 46.807978,48.527057 -0.271757,0.531796 v 0.465326 l 0.203827,0.664748 h 0.611469 l 1.358834,0.06647 h 0.951193 v 0.332375 l -0.543539,0.265899 -0.883238,0.06647 -1.290904,-0.06647 -0.475584,0.06647 v 0.598274 h 4.00856 l 0.679424,-0.265898 0.407654,-0.5318 V 50.321878 L 51.156263,49.92303 50.612724,49.723605 49.797428,49.590657 h -0.951192 l -0.135885,-0.132951 v -0.398849 l 0.475596,-0.132948 h 0.611481 0.747353 0.883251 v -0.332375 -0.332375 l -1.019135,-0.132947 h -3.125323 z"
       id="path1063" /><path
       style="fill:#000000;stroke-width:0.328734"
       d="m 52.379212,48.460579 0.06795,2.991368 5.095638,0.06648 -0.06795,-0.731221 -2.785611,0.06647 -0.135885,-0.598274 2.853553,-0.06648 -0.06795,-0.598274 h -2.785611 l 0.06795,-0.598274 2.717668,-0.06647 -0.06796,-0.66475 z"
       id="path1065" /><path
       style="fill:#000000;stroke-width:0.328734"
       d="m 59.716934,49.058853 -0.06795,2.393094 2.174142,0.06648 0.135885,-2.592517 1.562661,0.06648 v -0.664747 l -5.503292,-0.06648 v 0.731224 z"
       id="path1067" /><path
       style="fill:#000000;stroke-width:0.328734"
       d="m 17.728874,41.813102 -0.06794,3.456687 4.891813,0.06648 -0.135882,-1.263022 -2.513849,-0.06648 -0.135885,-2.393091 z"
       id="path1069" /><path
       style="fill:#000000;stroke-width:0.328734"
       d="m 30.230173,41.547203 -0.135885,3.656113 1.766488,0.132951 -0.135884,-3.656116 z"
       id="path1071" /><path
       style="fill:#000000;stroke-width:0.328734"
       d="m 31.589007,41.613677 3.057393,-0.06648 0.407641,0.465323 0.06796,0.531796 -0.475584,0.930649 -0.88325,-0.06647 -0.135885,-0.265899 -0.203827,-0.465322 -0.95118,-0.132952 -1.019135,0.132952 z"
       id="path1073" /><path
       style="fill:#000000;stroke-width:0.328734"
       d="m 31.656949,44.139719 h 0.951193 l 0.679411,0.06648 0.271769,0.398849 v 0.398849 l 0.475597,0.465322 0.815295,0.06648 0.475596,-0.265902 0.135885,-0.531796 -0.679423,-0.731225 -0.339699,-0.332372 -0.475597,-0.265901 h -1.019122 -1.426789 z"
       id="path1075" /><path
       style="fill:#000000;stroke-width:0.328734"
       d="m 42.119994,45.269789 0.135885,-2.92489 1.358834,-0.731222 h 0.475596 l -0.339711,3.656112 z"
       id="path1077" /><path
       style="fill:#000000;stroke-width:0.328734"
       d="m 45.788855,45.203316 -0.135884,-2.459569 -1.426777,-0.265898 -0.611481,0.199425 0.339712,-0.997123 h 1.494719 l 1.766488,0.664748 0.135885,2.991368 z"
       id="path1079" /><path
       style="fill:#000000;stroke-width:0.328734"
       d="m 45.92474,43.408495 -1.902373,-0.06648 v 0.531799 l 2.038258,0.06648 z"
       id="path1081" /><path
       style="fill:#000000;stroke-width:0.328734"
       d="m 57.610734,42.411375 -0.06795,-0.598273 -1.494719,-0.132951 -1.22295,0.06647 -1.019135,0.39885 -0.203814,0.465325 0.06795,0.797695 0.543539,0.465326 0.883251,0.132948 0.95118,0.13295 -0.543539,0.132949 h -1.290892 l -0.747353,0.199424 0.271769,0.664751 0.815296,0.265898 1.155007,-0.06648 h 0.815308 l 0.679424,-0.199425 0.407641,-0.199424 0.339712,-0.5318 V 43.807344 L 57.338978,43.275548 H 56.523682 L 55.504547,43.142596 55.368662,42.876699 55.572489,42.6108 h 0.679424 0.679423 z"
       id="path1083" /><path
       style="fill:#000000;stroke-width:0.328734"
       d="m 59.105453,43.541445 v 1.861296 l 1.019135,-0.06647 0.06795,-1.861296 1.155008,-0.06647 v -0.59827 l -3.193265,-0.06648 v 0.731225 z"
       id="path1085" /><path
       style="fill:#000000;stroke-width:0.328734"
       d="m 51.428032,44.073245 v 0.731222 l -0.883251,-0.13295 -0.135884,-0.531798 -1.087065,-0.06647 0.135885,-0.5318 h 0.95118 l 0.135884,-0.997123 0.883251,0.06648 v 0.664748 h 1.087065 l -0.06795,0.731221 z"
       id="path1087" /><path
       style="fill:#000000;stroke-width:0.328734"
       d="m 39.062614,44.073245 v 0.930647 l -0.88325,-0.132951 0.135884,-0.598274 -1.019122,-0.199422 0.06795,-0.598274 1.019122,-0.06647 v -0.664748 l 0.747366,0.06648 -0.06795,0.531797 h 0.815296 v 0.531799 z"
       id="path1089" /><path
       style="fill:#000000;stroke-width:0.328734"
       d="m 26.76514,44.272667 -0.06794,0.664751 -0.951183,-0.132951 v -0.731222 h -0.883245 l 0.06794,-0.797697 h 0.951187 v -0.797699 l 0.747359,0.132951 -0.135881,0.731221 h 1.155012 v 0.864172 z"
       id="path1091" /><path
       style="fill:#000000;stroke-width:0.328734"
       d="m 34.691845,43.257929 -0.30694,0.533894 -0.682099,-0.1001 0.102372,-0.533894 z"
       id="path1103" /><path
       style="fill:#000000;stroke-width:0.328734"
       id="path1225"
       d="m 46.06119,40.375177 c 0.09597,0.0082 0.191228,0.01853 0.286328,0.03312 0.09521,0.01889 0.192057,0.03007 0.287093,0.04935 0.09056,0.01636 0.180966,0.03206 0.267511,0.06345 0.07474,0.02693 0.145344,0.06263 0.221124,0.08671 0.08642,0.02997 0.170754,0.0648 0.255767,0.09844 0.0731,0.03056 0.143396,0.06684 0.215684,0.09898 0.07687,0.04142 0.159148,0.07034 0.240128,0.10278 0.07172,0.03424 0.145695,0.06372 0.219026,0.09457 -0.05376,-0.04308 0.197748,0.09606 0.132355,0.05884 -0.368828,-0.209837 -0.378826,-0.216555 -0.26172,-0.144507 0.05564,0.03203 0.10928,0.06711 0.163908,0.100542 0.799908,0.452553 0.158607,0.0889 0.05414,0.03272 -0.01005,-0.0057 0.01922,0.01395 0.02851,0.0213 0.02927,0.02325 0.05426,0.04886 0.07913,0.07637 0.04183,0.05033 0.08177,0.101833 0.127067,0.149311 0.03567,0.03693 0.06695,0.07752 0.101116,0.115708 0.03467,0.03226 0.06343,0.06962 0.09119,0.107535 0.04359,0.07403 0.07549,0.154276 0.113802,0.231106 0.04974,0.09599 0.09232,0.195275 0.135219,0.294285 0.03027,0.08388 0.06343,0.166482 0.09659,0.249311 0.0201,0.06407 0.04698,0.125792 0.06745,0.189693 0.02211,0.09816 0.03077,0.198934 0.04484,0.29849 0.0147,0.09719 0.02789,0.194603 0.0368,0.292465 0.0088,0.122209 0.0075,0.244846 0.0075,0.367282 -0.0013,0.150793 0.0025,0.301683 -0.0025,0.452381 -0.005,0.175151 -0.03856,0.347831 -0.06921,0.520028 -0.02939,0.145896 -0.0618,0.291188 -0.0937,0.436566 -0.03052,0.134013 -0.05791,0.268467 -0.09006,0.402143 -0.01256,0.07251 -0.03592,0.140183 -0.06532,0.207254 -0.0466,0.09281 -0.08843,0.187872 -0.139766,0.278324 -0.05087,0.07917 -0.09421,0.164344 -0.154136,0.237553 -0.03555,0.05135 -0.08516,0.08991 -0.131563,0.131338 -0.06155,0.05366 -0.12767,0.10219 -0.19349,0.150746 -0.08064,0.06133 -0.16691,0.115512 -0.250817,0.172609 -0.09056,0.06169 -0.190048,0.1096 -0.293199,0.147385 -0.11242,0.04385 -0.229325,0.07476 -0.347147,0.100985 -0.152981,0.03916 -0.311211,0.052 -0.467947,0.06904 -0.212494,0.01802 -0.423067,0.05264 -0.63394,0.08329 -0.189834,0.02315 -0.379153,0.0437 -0.567292,0.0777 -0.142831,0.02669 -0.281768,0.06821 -0.421684,0.105987 -0.102875,0.02946 -0.205046,0.06256 -0.309817,0.08502 -0.08328,0.01613 -0.168292,0.01851 -0.252878,0.01996 -0.09458,0.0075 -0.186241,-0.01662 -0.278678,-0.03238 -0.08918,-0.02153 -0.178705,-0.04177 -0.266368,-0.06891 -0.109531,-0.02286 -0.21213,-0.067 -0.316963,-0.104217 -0.09873,-0.04058 -0.200097,-0.07809 -0.295987,-0.124883 -0.07285,-0.03844 -0.14665,-0.07476 -0.221463,-0.109452 -0.08378,-0.04402 -0.170829,-0.08148 -0.258442,-0.117404 -0.104508,-0.04916 -0.212318,-0.08895 -0.322013,-0.125407 -0.141751,-0.04654 -0.280738,-0.1001 -0.419386,-0.154626 -0.04572,-0.02254 -0.09446,-0.03962 -0.140181,-0.0621 -0.01005,-0.005 -0.03957,-0.02282 -0.02964,-0.01727 0.289141,0.161602 0.393121,0.226267 0.280424,0.156509 -0.02876,-0.01776 -0.05125,-0.04301 -0.07461,-0.06686 -0.02876,-0.03145 -0.06406,-0.05631 -0.0976,-0.08286 -0.06092,-0.04546 -0.127331,-0.08284 -0.192359,-0.122184 -0.06795,-0.04061 -0.133435,-0.08484 -0.194984,-0.134272 -0.06783,-0.05689 -0.117696,-0.128343 -0.159022,-0.20505 -0.03492,-0.06802 -0.05791,-0.140794 -0.09056,-0.209803 -0.03329,-0.0651 -0.05188,-0.13553 -0.07398,-0.204563 -0.02374,-0.06209 -0.05075,-0.122676 -0.08177,-0.18155 -0.02336,-0.04604 -0.04145,-0.09469 -0.06745,-0.13935 -0.0716,-0.122664 -0.137254,-0.248873 -0.204342,-0.374009 -0.06105,-0.111014 -0.128587,-0.218785 -0.182675,-0.333335 -0.03969,-0.08259 -0.06532,-0.170501 -0.08403,-0.259662 -0.0113,-0.06076 -0.0113,-0.122787 -0.0113,-0.184353 2.63e-4,-0.08062 -9.93e-4,-0.161253 -0.0013,-0.241878 -0.0013,-0.110362 9.93e-4,-0.220726 0.0013,-0.331088 -0.0013,-0.152981 -0.0038,-0.305907 -0.0038,-0.458914 -6.65e-4,-0.111051 0.0038,-0.222047 0.005,-0.333081 -3.4e-4,-0.08716 -0.0038,-0.174559 0.0025,-0.261592 0.01846,-0.115856 0.05376,-0.228499 0.08793,-0.340665 0.02537,-0.07831 0.05753,-0.154184 0.08541,-0.231739 0.02939,-0.08138 0.06959,-0.158129 0.114682,-0.232085 0.04597,-0.06899 0.09496,-0.136159 0.148911,-0.199437 0.04899,-0.06016 0.115184,-0.09976 0.181857,-0.138196 0.07411,-0.04541 0.149438,-0.0883 0.226563,-0.128649 0.08893,-0.05053 0.18638,-0.08351 0.277911,-0.128586 0.08843,-0.0467 0.180112,-0.08745 0.268805,-0.133504 0.07738,-0.04825 0.139277,-0.116052 0.208877,-0.173896 0.05301,-0.04561 0.107271,-0.08917 0.172462,-0.116728 0.05138,-0.02393 0.102623,-0.04888 0.154488,-0.0725 0.05866,-0.02859 0.116566,-0.06184 0.180966,-0.0762 0.07298,-0.01834 0.144702,-0.04079 0.217254,-0.06071 0.122596,-0.03453 0.247012,-0.06233 0.370562,-0.09334 0.118827,-0.02566 0.234162,-0.06375 0.350351,-0.09869 0.08818,-0.02703 0.179873,-0.03751 0.271719,-0.0422 0.0932,-7.5e-5 0.186015,0.01385 0.279155,0.01968 0.127469,0.0054 0.255139,0.006 0.382708,0.0074 0.09948,9.76e-4 0.199004,3.24e-4 0.298499,3.24e-4 0.09195,-1.94e-4 0.183817,1.96e-4 0.275714,1.31e-4 0.0505,-0.0069 0.09232,0.0065 0.137957,0.02357 0.05062,0.0211 0.106643,0.02784 0.160152,0.04106 0.02625,0.0118 0.05979,0.0092 0.08567,0.02185 0.0038,0.002 0.0075,0.0057 0.01131,0.0084 0.005,0.002 0.01005,0.0041 0.01457,0.006 0.05012,0.02438 0.103377,0.04298 0.155467,0.06499 0.03969,0.02035 0.02286,0.01249 0.06356,0.03047 0.0088,0.0042 0.03718,0.01746 0.02826,0.01239 -0.515867,-0.294006 -0.368539,-0.207369 -0.25951,-0.143552 0.01608,0.01106 0.03442,0.01391 0.04597,0.02981 0.005,0.01818 0.0038,0.03719 0.0025,0.05573 0.04258,0.145232 0.24857,0.199253 0.395382,0.19984 0.01633,-9.7e-5 0.01005,-0.0036 0.01872,0.0084 0,0 -0.295773,-0.226013 -0.295773,-0.226013 v 0 c -0.01733,0.002 -0.0088,0.0016 -0.02525,0.0014 -0.01357,-9.76e-4 -0.01646,-6.52e-4 -0.03015,-0.0029 -0.005,-6.5e-4 -0.01872,-0.0054 -0.01457,-0.0029 0.505303,0.298614 0.417288,0.183263 0.293789,0.17423 -0.0025,3.03e-4 -0.005,0.0026 -0.0075,9.76e-4 -0.0075,-0.0086 0.0063,-0.03732 3.27e-4,-0.04826 2.39e-4,-0.02748 -0.0075,-0.04756 -0.03504,-0.05861 -0.155417,-0.08921 -0.307631,-0.184814 -0.472532,-0.256406 -0.05238,-0.02282 -0.106894,-0.04041 -0.157602,-0.06683 -0.0353,-0.01603 -0.07599,-0.01769 -0.112798,-0.02979 -0.05414,-0.0134 -0.109406,-0.02266 -0.160642,-0.04524 -0.04648,-0.01383 -0.09345,-0.01343 -0.141826,-0.01131 -0.0917,-2.9e-5 -0.183353,3.25e-4 -0.275048,3.25e-4 -0.09911,2.09e-4 -0.198275,-3e-5 -0.297406,-3.6e-5 -0.127306,-2.86e-4 -0.254725,-9.76e-4 -0.381779,-0.0096 -0.09433,-0.0071 -0.188791,-0.02217 -0.283539,-0.01671 -0.0932,0.0071 -0.185689,0.02179 -0.274671,0.05065 -0.114933,0.03557 -0.230117,0.0707 -0.347424,0.09832 -0.124856,0.03066 -0.250516,0.05819 -0.374556,0.0919 -0.07298,0.02059 -0.146172,0.04058 -0.219817,0.05897 -0.06356,0.02088 -0.12159,0.05448 -0.182084,0.08217 -0.05263,0.02318 -0.10501,0.04714 -0.156962,0.07177 -0.06456,0.03359 -0.120208,0.07949 -0.174924,0.12661 -0.06645,0.05758 -0.128135,0.122553 -0.205887,0.165994 -0.08805,0.04558 -0.175615,0.09212 -0.265539,0.134013 -0.09333,0.04245 -0.189432,0.07939 -0.279093,0.129515 -0.07788,0.04048 -0.154324,0.08317 -0.228961,0.129098 -0.06996,0.04089 -0.13743,0.08552 -0.188164,0.149273 -0.05389,0.06564 -0.106014,0.13285 -0.152729,0.203665 -0.0456,0.07627 -0.08441,0.15608 -0.117194,0.238395 -0.0299,0.07771 -0.06092,0.155375 -0.08366,0.235373 -0.03366,0.114626 -0.07223,0.228319 -0.09433,0.3457 -0.0088,0.08753 -0.0013,0.175537 -0.005,0.263363 6.53e-4,0.112561 0.005,0.225089 0.005,0.337668 2.01e-4,0.151726 -0.0025,0.30337 -0.0038,0.455071 3.39e-4,0.110731 0.0025,0.221468 10e-4,0.332206 -10e-4,0.07992 -0.0025,0.159841 -0.0025,0.239768 9.92e-4,0.06367 -0.001,0.127833 0.0088,0.191002 0.01834,0.09161 0.04597,0.182013 0.08315,0.267948 0.05075,0.119087 0.125233,0.226065 0.18888,0.338761 0.06557,0.12319 0.131865,0.246096 0.191228,0.372323 0.03191,0.04073 0.04987,0.08954 0.07084,0.13627 0.02977,0.05815 0.06054,0.115413 0.08391,0.176445 0.02462,0.06944 0.04308,0.140944 0.07235,0.208805 0.03442,0.06912 0.0613,0.140784 0.0922,0.211382 0.03919,0.08031 0.08667,0.155074 0.15195,0.217945 0.06029,0.05178 0.124605,0.09844 0.193464,0.13895 0.06318,0.0409 0.129705,0.07675 0.192912,0.117515 0.03228,0.02703 0.06582,0.05213 0.0976,0.07832 0.02399,0.02448 0.04685,0.05018 0.07185,0.07353 0.158808,0.119444 0.342098,0.202942 0.52545,0.278713 0.1389,0.05411 0.278754,0.105741 0.420228,0.153153 0.11016,0.0382 0.217594,0.08183 0.323596,0.129921 0.08617,0.03709 0.172425,0.07385 0.255591,0.117146 0.07511,0.03585 0.148383,0.07513 0.223686,0.11062 0.09798,0.04155 0.195323,0.08487 0.29566,0.120747 0.105512,0.03833 0.210434,0.07842 0.320242,0.104069 0.0883,0.02501 0.177688,0.04652 0.2678,0.06456 0.09446,0.01649 0.188101,0.0364 0.284708,0.02777 0.08604,-0.0026 0.172474,-0.0071 0.256595,-0.02647 0.10388,-0.02517 0.20551,-0.05811 0.307945,-0.08818 0.138686,-0.03852 0.277146,-0.07821 0.419135,-0.103873 0.185777,-0.03428 0.373061,-0.05602 0.560383,-0.08076 0.212067,-0.03005 0.424134,-0.06107 0.637696,-0.07918 0.15857,-0.0172 0.318358,-0.03106 0.473172,-0.07063 0.119078,-0.02776 0.237415,-0.05882 0.350753,-0.104672 0.105009,-0.04095 0.206603,-0.08991 0.299202,-0.153839 0.08428,-0.05743 0.17039,-0.112513 0.252112,-0.173363 0.06682,-0.04895 0.134189,-0.09783 0.195913,-0.15299 0.04886,-0.04224 0.100488,-0.08203 0.135797,-0.136688 0.05791,-0.07687 0.10187,-0.163005 0.154488,-0.243319 0.05288,-0.09107 0.09044,-0.189546 0.144878,-0.279972 0.0304,-0.06967 0.05363,-0.139883 0.06356,-0.215649 0.03027,-0.13432 0.06067,-0.268406 0.08994,-0.402907 0.03103,-0.146287 0.06406,-0.29213 0.09195,-0.439024 0.03015,-0.17359 0.06456,-0.347327 0.0721,-0.523638 0.0075,-0.151021 0.0038,-0.30221 0.005,-0.45337 3.14e-4,-0.122381 0.0013,-0.244828 -6.66e-4,-0.367181 -0.0088,-0.09946 -0.02776,-0.197668 -0.04095,-0.296542 -0.01394,-0.100211 -0.02022,-0.20135 -0.03781,-0.301013 -0.01809,-0.06565 -0.04673,-0.127313 -0.06632,-0.192515 -0.03216,-0.08414 -0.07198,-0.16521 -0.09798,-0.251613 -0.04434,-0.09895 -0.08516,-0.199484 -0.134654,-0.296208 -0.03969,-0.07639 -0.07411,-0.155157 -0.107145,-0.234523 -0.02839,-0.03898 -0.05527,-0.07863 -0.08931,-0.113398 -0.03957,-0.0329 -0.0667,-0.07777 -0.101744,-0.114958 -0.04685,-0.04642 -0.09031,-0.09485 -0.129127,-0.147831 -0.03002,-0.03585 -0.06243,-0.08095 -0.103628,-0.105692 -0.163079,-0.09808 -0.694861,-0.399255 -0.05301,-0.03435 -0.05414,-0.03451 -0.108401,-0.0692 -0.164611,-0.100444 -0.16009,-0.105507 -0.327779,-0.202868 -0.507753,-0.271713 -0.07285,-0.03163 -0.146838,-0.06045 -0.219151,-0.09319 -0.0819,-0.03125 -0.161384,-0.06665 -0.239877,-0.105286 -0.07109,-0.03367 -0.14263,-0.06645 -0.215421,-0.09649 -0.08516,-0.03458 -0.171018,-0.06691 -0.257701,-0.09754 -0.07398,-0.02734 -0.145167,-0.0618 -0.220558,-0.08582 -0.08855,-0.02679 -0.179585,-0.04311 -0.270689,-0.05943 -0.09584,-0.01602 -0.191555,-0.0326 -0.287458,-0.0481 -0.0971,-0.01438 -0.194897,-0.02355 -0.292784,-0.03088 0,0 0.301853,0.214577 0.301853,0.214577 z" /><path
       style="fill:#000000;stroke-width:0.328734"
       id="path1231"
       d="m 60.525824,41.864478 c 0.01583,0.0055 0.03178,0.01069 0.04748,0.01665 0.01909,0.0073 0.03819,0.0149 0.0569,0.02312 0.01959,0.0086 0.07662,0.03804 0.05816,0.02731 -0.485294,-0.281438 -0.26368,-0.15181 -0.161647,-0.07615 0.0775,0.06074 0.132254,0.14044 0.176067,0.226442 0.05024,0.129134 0.107522,0.25472 0.175515,0.375935 0.0716,0.121214 0.154763,0.235017 0.225783,0.356571 0.06368,0.114529 0.08529,0.24358 0.107271,0.370465 0.03015,0.193673 0.03605,0.389878 0.04082,0.58541 0.0025,0.163011 0.0025,0.326045 0.0025,0.489074 -6.65e-4,0.130245 0.0025,0.26042 -0.0088,0.390242 -0.005,0.07686 -0.02261,0.150582 -0.05276,0.221588 -0.04635,0.111542 -0.140193,0.194567 -0.225143,0.278196 -0.167312,0.162619 -0.356078,0.301563 -0.55272,0.428033 -0.185074,0.112857 -0.382294,0.203469 -0.583408,0.284976 -0.174484,0.06812 -0.349961,0.13392 -0.522222,0.207325 -0.10388,0.04031 -0.203162,0.09083 -0.308008,0.128792 -0.109783,0.04187 -0.222442,0.07636 -0.332477,0.117576 -0.10099,0.03369 -0.200573,0.07059 -0.303159,0.09945 -0.123726,0.02904 -0.249951,0.04403 -0.375686,0.06149 -0.160994,0.02309 -0.323559,0.03021 -0.485997,0.0346 -0.197484,0.0042 -0.395043,0.0038 -0.592577,0.0032 -0.144213,-0.0032 -0.288739,0.0034 -0.432738,-0.0057 -0.130433,-0.0048 -0.257425,-0.03509 -0.385044,-0.05887 -0.121716,-0.02523 -0.242905,-0.05324 -0.363226,-0.0846 -0.08579,-0.02793 -0.171031,-0.05725 -0.258216,-0.08077 0.01356,0.0048 -0.03969,-0.02432 -0.02964,-0.01859 0.101492,0.05704 0.202759,0.114405 0.304478,0.171034 0.01005,0.0055 -0.01934,-0.01229 -0.02927,-0.01786 -0.371039,-0.206045 -0.236536,-0.148893 -0.422413,-0.224117 -0.137041,-0.04518 -0.267612,-0.102509 -0.395483,-0.168063 -0.02876,-0.01622 -0.115184,-0.06472 -0.08629,-0.04868 0.06946,0.03855 0.13753,0.07947 0.207972,0.116212 0.03643,0.01902 -0.07072,-0.04177 -0.105889,-0.06294 -0.125358,-0.07545 -0.24259,-0.155695 -0.359508,-0.243234 -0.16387,-0.134531 -0.328783,-0.270418 -0.47537,-0.423356 -0.07788,-0.07684 -0.125233,-0.174758 -0.175213,-0.269736 -0.05087,-0.09761 -0.117319,-0.185907 -0.172776,-0.280817 -0.08856,-0.17253 -0.164675,-0.350783 -0.239174,-0.529429 -0.04233,-0.09346 -0.06218,-0.193754 -0.08403,-0.293138 -0.02123,-0.0967 -0.03115,-0.194928 -0.03718,-0.293459 -0.0088,-0.299836 -0.01859,-0.599691 -0.02475,-0.899613 -0.0038,-0.13761 -0.01005,-0.273796 0.01759,-0.409208 0.01419,-0.08663 0.05791,-0.163985 0.08253,-0.247442 0.03655,-0.149908 0.07072,-0.300659 0.119957,-0.447173 0.02814,-0.09294 0.09509,-0.159662 0.159349,-0.229684 0.07424,-0.06651 0.162539,-0.116753 0.246509,-0.170677 0.08039,-0.05138 0.167237,-0.0919 0.248443,-0.141659 0.07474,-0.03832 0.140558,-0.09047 0.210221,-0.136552 0.05891,-0.03402 0.118199,-0.06736 0.180778,-0.09466 0.05514,-0.02614 0.11129,-0.04729 0.164699,-0.07691 0.03442,-0.02335 0.07549,-0.02695 0.1133,-0.04045 0.08466,-0.03898 0.167714,-0.07983 0.253908,-0.115597 0.119078,-0.04054 0.237013,-0.08455 0.356292,-0.124594 0.125107,-0.03791 0.254749,-0.05657 0.383813,-0.07606 0.08981,-0.01349 0.180238,-0.0229 0.271041,-0.02614 0.0829,-0.01106 0.163381,-0.0331 0.243834,-0.05491 0.08454,-0.01944 0.168505,-0.0408 0.254309,-0.05415 0.08378,-0.01032 0.1673,-0.02134 0.251697,-0.02764 0.134365,-0.0086 0.269069,-0.0096 0.40366,-0.01032 0.153608,1.4e-5 0.307216,-9.76e-4 0.460825,-9.76e-4 0.143521,-0.0029 0.287043,0.0041 0.429158,0.02396 0.101367,0.01233 0.201127,0.03289 0.302029,0.04754 0.09609,0.01948 0.1931,0.03393 0.287445,0.06085 0.121214,0.03053 0.240531,0.07101 0.354798,0.120943 0.02763,0.01454 0.05828,0.02299 0.08592,0.0375 0.01005,0.0052 0.03743,0.02318 0.02776,0.01786 -0.499764,-0.276885 -0.370373,-0.211245 -0.259724,-0.142901 0.07951,0.04831 0.154425,0.103479 0.232014,0.154718 0.0819,0.05159 0.159035,0.109563 0.2368,0.166839 0.04924,0.03467 0.101869,0.06402 0.147177,0.103812 0.04509,0.03515 0.08441,0.07631 0.125233,0.11588 0.04258,0.03818 0.08265,0.07873 0.121716,0.120341 0.03354,0.03568 0.06594,0.07242 0.102246,0.105508 0.02537,0.02849 0.05816,0.05035 0.08403,0.07814 0.01821,0.02582 0.03844,0.05013 0.05853,0.07445 0.0255,0.02741 0.04911,0.05634 0.07587,0.08254 0.0255,0.02438 0.05188,0.04784 0.07763,0.0721 0.02449,0.01984 0.03505,0.04759 0.0471,0.0752 0.01394,0.02966 0.02927,0.05887 0.04547,0.08748 0.0063,0.01415 0.0088,0.02894 0.01005,0.04416 -0.005,0.02406 0.01532,0.02965 0.02299,0.05023 0.0025,0.01275 0.005,0.02572 0.005,0.03871 0,0 0.337413,0.16275 0.337413,0.16275 v 0 c -0.005,-0.01304 -0.0013,-0.02803 -0.005,-0.04144 -0.0013,-0.01632 1.3e-5,-0.0555 -0.025,-0.04403 -8.8e-5,-0.01857 3.39e-4,-0.03694 -0.005,-0.05502 -0.0075,-0.03197 -0.02889,-0.06107 -0.0461,-0.08862 -0.01005,-0.03128 -0.02161,-0.062 -0.04032,-0.08981 -0.02563,-0.02448 -0.05125,-0.04906 -0.078,-0.07239 -0.02751,-0.02507 -0.05175,-0.05072 -0.07587,-0.07851 -0.02085,-0.02322 -0.04183,-0.04657 -0.06029,-0.0717 -0.0206,-0.03596 -0.05627,-0.05427 -0.08215,-0.08642 -0.03768,-0.03141 -0.07022,-0.06652 -0.104633,-0.101194 -0.03643,-0.04472 -0.07763,-0.08528 -0.121088,-0.123709 -0.0417,-0.03897 -0.07813,-0.08215 -0.123474,-0.117355 -0.02726,-0.02244 -0.01394,-0.01032 -0.03957,-0.0367 -0.03241,-0.02793 -0.07336,-0.04583 -0.108276,-0.07015 -0.07888,-0.05811 -0.156447,-0.117515 -0.239563,-0.169876 -0.07612,-0.0505 -0.151548,-0.101895 -0.225695,-0.154994 -0.165416,-0.08581 -0.315105,-0.2011 -0.491022,-0.266464 -0.117319,-0.04611 -0.236724,-0.08787 -0.359382,-0.118117 -0.09571,-0.02318 -0.192723,-0.04014 -0.289656,-0.05765 -0.100237,-0.01646 -0.200197,-0.03344 -0.301049,-0.04558 -0.142442,-0.01636 -0.285712,-0.02126 -0.429096,-0.01821 -0.154248,2.7e-5 -0.308485,-0.0016 -0.462734,-1.49e-4 -0.135533,9.75e-4 -0.271204,0.002 -0.406448,0.01155 -0.08604,0.0066 -0.17206,0.01486 -0.257236,0.02823 -0.08554,0.01668 -0.169938,0.03828 -0.254762,0.05796 -0.07888,0.0214 -0.15872,0.04099 -0.240568,0.04734 -0.09006,0.0054 -0.179509,0.01847 -0.268591,0.03255 -0.131024,0.02043 -0.263115,0.03886 -0.389391,0.08023 -0.118952,0.04179 -0.23759,0.0845 -0.356216,0.127211 -0.08655,0.03506 -0.16995,0.07686 -0.257727,0.108715 -0.04158,0.0098 -0.07964,0.02634 -0.116565,0.04765 -0.05276,0.02861 -0.109783,0.04739 -0.16323,0.07469 -0.06268,0.03005 -0.123224,0.06403 -0.181971,0.101009 -0.06871,0.04697 -0.136727,0.0949 -0.210447,0.134316 -0.08152,0.04859 -0.165101,0.09387 -0.245291,0.144674 -0.08717,0.05522 -0.181041,0.104549 -0.254736,0.177004 -0.06695,0.07435 -0.135533,0.146565 -0.163444,0.244854 -0.04585,0.147284 -0.07913,0.298018 -0.124102,0.445562 -0.02688,0.08391 -0.06444,0.164671 -0.08114,0.251558 -0.01005,0.04308 -0.01821,0.07177 -0.02248,0.115426 -0.01005,0.101919 0.01369,0.204666 0.0113,0.30659 0.01294,0.298158 0.02487,0.596566 0.0157,0.895023 -2.26e-4,0.100899 0.01005,0.19964 0.03278,0.298383 0.02098,0.10203 0.0368,0.205797 0.08315,0.300505 0.07914,0.176924 0.156523,0.35463 0.23572,0.53155 0.05075,0.09861 0.120334,0.184383 0.175062,0.280937 0.04937,0.09608 0.09132,0.198771 0.168028,0.277763 0.150757,0.157131 0.322692,0.294027 0.489025,0.434706 0.04321,0.03364 0.08529,0.06864 0.129516,0.100924 0.216074,0.157706 0.513907,0.313762 0.735847,0.439432 0.02939,0.01665 0.05929,0.03263 0.08893,0.04895 0.129403,0.06538 0.263353,0.117982 0.399627,0.168076 0.01985,0.0088 0.07813,0.03783 0.05967,0.0265 -0.600628,-0.367412 -0.06356,1.56e-4 0.125107,0.06269 0.08516,0.02312 0.168355,0.05269 0.25338,0.07649 0.12134,0.03043 0.243018,0.05985 0.36599,0.08361 0.128034,0.0238 0.25603,0.04993 0.38679,0.05411 0.143509,0.0059 0.287257,0.0014 0.430867,0.002 0.197873,-6.52e-4 0.395759,-3.26e-4 0.593619,-0.0037 0.163758,-0.0047 0.327415,-0.01288 0.489652,-0.03666 0.127934,-0.01594 0.256294,-0.03203 0.381238,-0.06439 0.103001,-0.0304 0.204255,-0.06591 0.305622,-0.101181 0.109908,-0.04072 0.221186,-0.07772 0.331095,-0.1184 0.104632,-0.03952 0.205799,-0.08691 0.308522,-0.130866 0.169599,-0.07498 0.342073,-0.143236 0.514674,-0.211261 0.203048,-0.08304 0.404476,-0.171099 0.589286,-0.289277 0.197421,-0.129546 0.383574,-0.274515 0.557594,-0.433112 0.08994,-0.08541 0.191693,-0.169938 0.240241,-0.286049 0.03178,-0.07466 0.05338,-0.151372 0.05552,-0.23277 0.01131,-0.131276 0.0088,-0.262572 0.0088,-0.394239 -6.54e-4,-0.163695 -1.76e-4,-0.327416 -0.0038,-0.491076 -0.005,-0.196497 -0.01419,-0.393142 -0.03618,-0.588633 -0.02123,-0.129714 -0.03932,-0.262158 -0.100237,-0.381111 -0.07022,-0.122689 -0.153307,-0.236945 -0.227529,-0.357188 -0.06959,-0.118805 -0.128462,-0.242467 -0.173932,-0.37199 -0.03919,-0.09163 -0.09396,-0.175223 -0.169611,-0.242477 -0.189709,-0.149882 -0.406122,-0.272622 -0.638425,-0.346059 0,0 0.295874,0.221354 0.295874,0.221354 z" /></g></svg>
